<svg xmlns="http://www.w3.org/2000/svg" width="28.12" height="28.12" viewBox="0 0 28.12 28.12">
  <defs>
    <style>
      .cls-1, .cls-2 {
        fill-rule: evenodd;
      }

      .cls-2 {
        fill: #ff6e00;
      }
    </style>
  </defs>
  <path id="Shape_1_copy_4" data-name="Shape 1 copy 4" class="cls-1" d="M3488,1424.94a14.06,14.06,0,1,0,14.06,14.06A14.079,14.079,0,0,0,3488,1424.94Zm0,27.51c-6.8,0-13.45-6.65-13.45-13.45s6.65-13.45,13.45-13.45,13.45,6.65,13.45,13.45S3494.8,1452.45,3488,1452.45Z" transform="translate(-3473.94 -1424.94)"/>
  <path id="Shape_1_copy_4-2" data-name="Shape 1 copy 4" class="cls-2" d="M3488.5,1431.66a1.487,1.487,0,1,1-1.57,1.49A1.529,1.529,0,0,1,3488.5,1431.66Zm-0.42,5.39a0.912,0.912,0,0,0-.93.88v7.54a0.936,0.936,0,0,0,1.87,0v-7.54A0.908,0.908,0,0,0,3488.08,1437.05Z" transform="translate(-3473.94 -1424.94)"/>
</svg>
