<svg xmlns="http://www.w3.org/2000/svg" width="44" height="44">
    <path fill="#F44336" fill-rule="evenodd" d="M22 0c12.151 0 22 9.85 22 22s-9.849 22-22 22C9.85 44 0 34.15 0 22S9.85 0 22 0z"/>
    <path fill="#FFF" fill-rule="evenodd" d="M35.532 18.709L22.698 9.264c-.466-.354-.932-.354-1.399 0L8.467 18.709c-.933.59-.35 2.124.699 2.124H11.5v12.986c0 .709.467 1.181 1.167 1.181h18.665c.7 0 1.167-.472 1.167-1.181V20.833h2.333c1.05 0 1.633-1.534.7-2.124zm-13.533 13.93c-3.849 0-6.999-3.187-6.999-7.083 0-3.896 3.15-7.084 6.999-7.084 3.85 0 6.999 3.188 6.999 7.084 0 3.896-3.149 7.083-6.999 7.083z"/>
    <path fill="#FFF" fill-rule="evenodd" d="M23.749 23.785v-3.542H20.25v3.542h-3.5v3.542h3.5v3.541h3.499v-3.541h3.5v-3.542h-3.5z"/>
</svg>
