<svg xmlns="http://www.w3.org/2000/svg" width="14" height="21">
    <path fill="#FB8F3E" fill-rule="evenodd" d="M13.03 18.166H.971a.96.96 0 0 1-.966-.954V15.78c0-.487.758-2.628 4.825-3.199v-1.025c-.435-.201-.724-.493-.724-.897 0-.147.042-.278.113-.397a.763.763 0 0 1-.113-.398c0-.23.094-.423.254-.584-1.452-.882-2.425-2.463-2.425-4.269C1.935 2.248 4.207 0 7 0c2.793 0 5.065 2.248 5.066 5.01 0 1.806-.974 3.387-2.425 4.269.16.161.254.354.254.584a.772.772 0 0 1-.113.398c.07.118.113.25.113.397 0 .404-.29.696-.724.897v1.026c4.057.571 4.824 2.712 4.825 3.199v1.432a.96.96 0 0 1-.966.954zM10.136 5.011C10.136 3.3 8.729 1.908 7 1.908S3.864 3.301 3.864 5.011c0 1.711 1.407 3.102 3.136 3.102s3.136-1.392 3.136-3.102zm-8.563 14.08h10.854a.96.96 0 0 1 .965.954.96.96 0 0 1-.965.955H1.573a.96.96 0 0 1-.965-.955.96.96 0 0 1 .965-.954z"/>
</svg>
