<svg id="Layer_1" data-name="Layer 1" xmlns="http://www.w3.org/2000/svg" viewBox="0 0 50 50"><defs><style>.cls-1{fill:none;stroke:#000;stroke-miterlimit:10;}.cls-2{fill:#f78631;}</style></defs><title>Associate Membership</title><path class="cls-1" d="M29,29.17V26.88a2.32,2.32,0,0,0,1.6-2,1.68,1.68,0,0,0-.25-.89,1.7,1.7,0,0,0,.25-.89A1.85,1.85,0,0,0,30,21.79a11.17,11.17,0,1,0-11.66,0,1.83,1.83,0,0,0-.56,1.3,1.7,1.7,0,0,0,.25.89,1.68,1.68,0,0,0-.25.89,2.29,2.29,0,0,0,1.6,2v2.29c-9,1.27-10.65,6-10.65,7.13v3.2a2.13,2.13,0,0,0,2.13,2.13H37.53a2.12,2.12,0,0,0,2.12-2.13V36.3c0-1.08-1.69-5.86-10.65-7.13Z"/><path class="cls-2" d="M24.21,5.35a6.93,6.93,0,1,1-6.92,6.92,6.92,6.92,0,0,1,6.92-6.92Z"/><path class="cls-1" d="M36.19,43.7h-24a2.13,2.13,0,1,0,0,4.26h24a2.13,2.13,0,1,0,0-4.26Zm0,0"/></svg>