<svg xmlns="http://www.w3.org/2000/svg" width="17" height="20">
    <path fill="#FB8F3E" fill-rule="evenodd" d="M16.593 17.59l-1.756.077c-.359.016-.809.279-1 .585l-.935 1.498c-.191.306-.495.3-.675-.012l-2.621-4.53c-.043-.089-.103-.046-.127-.025-.3.257-.603.488-.931.488-.334 0-.734-.245-1.021-.491-.025-.021-.078-.034-.131.028l-2.624 4.555c-.18.312-.484.318-.675.012l-.938-1.496c-.192-.305-.642-.567-1.001-.583l-1.756-.073c-.359-.015-.506-.283-.325-.596l2.546-4.419c.061-.09-.029-.144-.078-.158-.411-.124-.823-.253-1.004-.567-.334-.576.256-1.524.1-2.142C1.48 9.105.533 8.556.533 7.909c0-.717.977-1.346 1.133-1.966.155-.619-.436-1.565-.104-2.142s1.443-.531 1.899-.975c.47-.456.467-1.569 1.033-1.875.569-.308 1.496.309 2.129.162C6.788 1.074 7.842 0 8.505 0c.653 0 1.212.947 1.837 1.092.633.146 1.559-.473 2.128-.167.568.306.566 1.42 1.037 1.875.457.442 1.567.395 1.901.971.333.576-.257 1.523-.1 2.142.16.633 1.137 1.369 1.137 1.999 0 .647-.945 1.198-1.105 1.834-.156.618.436 1.565.104 2.142-.2.346-.68.468-1.13.606l2.604 4.5c.18.312.034.581-.325.596zM13.518 4.876a5.815 5.815 0 0 0-2.122-2.126l-.061-.035-.043-.024c-2.763-1.513-6.251-.542-7.838 2.212-1.568 2.723-.71 6.199 1.9 7.88a5.811 5.811 0 0 0 6.054.115c2.781-1.627 3.727-5.225 2.11-8.022zm-7.476 7.24c-.058-.034-.114-.069-.17-.104a4.894 4.894 0 0 1-1.641-1.703c-1.362-2.353-.565-5.38 1.775-6.749a4.887 4.887 0 0 1 4.934-.001l.024.014c2.343 1.365 3.144 4.391 1.787 6.746-1.357 2.355-4.366 3.162-6.709 1.797zm5.332-5.239l-1.134-.165c-.351-.051-.766-.355-.923-.675L8.81 5.004c-.157-.32-.414-.32-.571 0l-.507 1.033c-.157.32-.573.624-.924.675l-1.133.165c-.351.052-.431.297-.177.546l.82.804c.254.249.413.741.353 1.092l-.193 1.136c-.06.351.148.503.462.337l1.013-.536c.314-.166.828-.166 1.142 0l1.014.536c.314.166.522.014.462-.337l-.194-1.136c-.06-.351.099-.843.353-1.092l.82-.804c.254-.249.175-.494-.176-.546z"/>
</svg>
