<svg id="Layer_1" data-name="Layer 1" xmlns="http://www.w3.org/2000/svg" viewBox="0 0 50 50"><defs><style>.cls-1,.cls-2{fill:none;}.cls-1{stroke:#000;stroke-miterlimit:10;}.cls-3{fill:#f78631;}</style></defs><title>Award</title><path class="cls-1" d="M42.57,23.12l-2.32-3.18a.59.59,0,0,1,0-.69L42.52,16a.61.61,0,0,0-.21-.87L38.83,13.3a.58.58,0,0,1-.3-.62l.65-3.89a.59.59,0,0,0-.56-.69l-3.94-.16a.6.6,0,0,1-.54-.43l-1.09-3.8a.59.59,0,0,0-.81-.38L28.62,4.89a.6.6,0,0,1-.68-.15L25.31,1.81a.61.61,0,0,0-.9,0l-2.59,3a.57.57,0,0,1-.67.16L17.5,3.45a.6.6,0,0,0-.8.39l-1,3.8a.6.6,0,0,1-.53.43l-3.94.23a.59.59,0,0,0-.55.7l.71,3.88a.59.59,0,0,1-.29.62L7.61,15.41a.61.61,0,0,0-.2.87l2.33,3.18a.59.59,0,0,1,0,.69L7.47,23.37a.59.59,0,0,0,.21.86l3.47,1.86a.6.6,0,0,1,.31.63L10.8,30.6a.6.6,0,0,0,.57.69l3.93.17a.59.59,0,0,1,.55.43L17,35.68a.6.6,0,0,0,.81.38l3.62-1.56a.61.61,0,0,1,.68.14l2.63,2.94a.61.61,0,0,0,.9,0l2.59-3a.57.57,0,0,1,.67-.16l3.64,1.5a.6.6,0,0,0,.8-.39l1-3.8a.62.62,0,0,1,.54-.44l3.93-.22a.6.6,0,0,0,.56-.7l-.71-3.88a.59.59,0,0,1,.29-.62L42.39,24a.57.57,0,0,0,.18-.86ZM25,30.4A10.7,10.7,0,1,1,35.7,19.7,10.71,10.71,0,0,1,25,30.4Zm0,0"/><rect class="cls-2" x="7.3" y="1.55" width="35.41" height="47.83"/><path class="cls-3" d="M34.64,37.31a3.09,3.09,0,0,1-2.21.92,3.23,3.23,0,0,1-.88-.13L29,37.34,27.1,39.12l-.2.16L30,48.94a.44.44,0,0,0,.77.14l2.27-2.91a.43.43,0,0,1,.47-.16l3.53,1a.44.44,0,0,0,.55-.55Zm0,0"/><path class="cls-3" d="M21,37.34l-2.51.76a3,3,0,0,1-.89.13,3.07,3.07,0,0,1-2.2-.92l-3,9.19a.43.43,0,0,0,.54.55l3.54-1a.43.43,0,0,1,.47.16l2.27,2.91A.44.44,0,0,0,20,49l3.11-9.66-.19-.16Zm0,0"/><path class="cls-3" d="M31.34,17l-4-.29L25.79,13a.85.85,0,0,0-1.57,0L22.7,16.75l-4,.29a.84.84,0,0,0-.48,1.49l3.08,2.62-1,3.92a.84.84,0,0,0,1.26.93L25,23.86,28.43,26a.85.85,0,0,0,1.27-.93l-1-3.92,3.09-2.62A.84.84,0,0,0,31.34,17Zm0,0"/></svg>