<svg xmlns="http://www.w3.org/2000/svg" width="76.032" height="76.032">
    <path fill="#00ACC1" fill-rule="evenodd" d="M28.5 0C44.24 0 57 12.76 57 28.5S44.24 57 28.5 57 0 44.24 0 28.5 12.76 0 28.5 0z"/>
    <path fill="#FFF" fill-rule="evenodd" d="M11.795 30.982a1.515 1.515 0 0 1-.395-.96c0-.274.132-.685.395-.959l1.842-1.92c.526-.548 1.315-.548 1.841 0l.132.137 7.233 8.089a.619.619 0 0 0 .921 0l17.627-19.056h.131c.526-.549 1.315-.549 1.842 0l1.841 1.919a1.365 1.365 0 0 1 0 1.92L24.159 42.909c-.263.274-.527.411-.921.411-.395 0-.658-.137-.921-.411L12.058 31.393l-.263-.411z"/>
</svg>
