<svg xmlns="http://www.w3.org/2000/svg" width="56" height="56">
    <path fill="#00ACC1" fill-rule="evenodd" d="M28 0c15.464 0 28 12.536 28 28S43.464 56 28 56 0 43.464 0 28 12.536 0 28 0z"/>
    <path fill="#FFF" fill-rule="evenodd" d="M40.25 42H15.751C14.232 42 13 40.78 13 39.295V18.027c0-1.458 1.204-2.643 2.671-2.687v3.629c0 1.641 1.36 2.962 3.037 2.962h1.917c1.678 0 3.055-1.321 3.055-2.962v-3.642h8.64v3.642c0 1.641 1.378 2.962 3.055 2.962h1.917c1.677 0 3.038-1.321 3.038-2.962V15.34c1.465.044 2.669 1.229 2.669 2.687v21.268c0 1.483-1.232 2.705-2.749 2.705zm-.811-15.015c0-.642-.532-1.163-1.188-1.163H17.696c-.655 0-1.187.521-1.187 1.163v10.986c0 .642.532 1.162 1.187 1.162h20.555c.657 0 1.188-.52 1.188-1.162V26.985zM35.29 37.546h-2.431a.689.689 0 0 1-.697-.681V34.49c0-.377.312-.681.697-.681h2.431c.384 0 .695.304.695.681v2.375a.687.687 0 0 1-.695.681zm-.002-5.938h-2.429a.69.69 0 0 1-.697-.681v-2.376a.69.69 0 0 1 .697-.681h2.429c.386 0 .697.305.697.681v2.376a.689.689 0 0 1-.697.681zm-6.073 5.938h-2.431a.686.686 0 0 1-.693-.681V34.49c0-.377.31-.681.693-.681h2.431c.385 0 .696.304.696.681v2.375a.688.688 0 0 1-.696.681zm0-5.938h-2.431a.687.687 0 0 1-.693-.681v-2.376c0-.376.31-.681.693-.681h2.431c.385 0 .696.305.696.681v2.376a.688.688 0 0 1-.696.681zm-6.073 5.938h-2.43a.688.688 0 0 1-.696-.681V34.49c0-.377.312-.681.696-.681h2.43c.384 0 .695.304.695.681v2.375a.687.687 0 0 1-.695.681zm0-5.938h-2.43a.689.689 0 0 1-.696-.681v-2.376c0-.376.312-.681.696-.681h2.43c.384 0 .695.305.695.681v2.376a.688.688 0 0 1-.695.681zm14.104-11.622H35.35a1.032 1.032 0 0 1-1.043-1.018v-5.95c0-.562.469-1.018 1.043-1.018h1.896a1.03 1.03 0 0 1 1.042 1.018v5.95a1.03 1.03 0 0 1-1.042 1.018zm-16.649 0H18.7a1.032 1.032 0 0 1-1.042-1.018v-5.95c0-.562.469-1.018 1.042-1.018h1.897c.575 0 1.044.456 1.044 1.018v5.95c0 .562-.469 1.018-1.044 1.018z"/>
</svg>
