<svg xmlns="http://www.w3.org/2000/svg" width="40" height="40">
    <path fill="#00ACC1" fill-rule="evenodd" d="M30.411 26.46c-1.306-1.29-2.938-1.29-4.237 0-.99.983-1.98 1.965-2.954 2.963-.267.275-.491.333-.816.15-.641-.349-1.323-.632-1.939-1.015-2.872-1.806-5.278-4.129-7.409-6.742-1.057-1.299-1.997-2.689-2.655-4.253-.133-.317-.108-.525.15-.783.99-.957 1.956-1.939 2.93-2.921 1.357-1.365 1.357-2.964-.008-4.337-.775-.782-1.549-1.548-2.322-2.331-.8-.799-1.59-1.606-2.398-2.397-1.306-1.273-2.938-1.273-4.237.009-.998.982-1.955 1.989-2.971 2.954C.604 8.648.13 9.738.03 11.012c-.158 2.073.35 4.029 1.065 5.935 1.466 3.945 3.696 7.449 6.401 10.662 3.655 4.345 8.016 7.782 13.118 10.263 2.298 1.115 4.678 1.972 7.267 2.114 1.781.1 3.33-.35 4.57-1.74.848-.948 1.806-1.814 2.705-2.721 1.331-1.349 1.34-2.98.016-4.312-1.581-1.59-3.171-3.171-4.761-4.753z"/>
    <path fill="#006F7D" fill-rule="evenodd" d="M36.929 19.294a19.63 19.63 0 0 0-5.502-10.613c-3.064-3.054-6.942-4.994-11.221-5.593L20.639 0c4.953.691 9.439 2.93 12.985 6.476A22.816 22.816 0 0 1 40 18.769l-3.071.525zm-8.873-7.4a13.736 13.736 0 0 1 3.837 7.408l-3.072.525a10.587 10.587 0 0 0-2.963-5.727 10.59 10.59 0 0 0-6.06-3.021l.433-3.088a13.654 13.654 0 0 1 7.825 3.903z"/>
</svg>
