<svg xmlns="http://www.w3.org/2000/svg" width="25" height="25">
    <path fill="#FC7815" fill-rule="evenodd" d="M24.949 19.372c-.071-.213-.521-.527-1.35-.941-.224-.13-.544-.308-.958-.533a78.653 78.653 0 0 1-1.128-.622 37.656 37.656 0 0 1-.95-.55 25.967 25.967 0 0 0-.444-.311 5.064 5.064 0 0 0-.631-.382 1.153 1.153 0 0 0-.506-.124c-.237 0-.533.169-.888.506-.355.338-.68.705-.976 1.101-.296.397-.61.764-.941 1.101-.332.338-.604.507-.817.507-.107 0-.24-.03-.4-.089a4.056 4.056 0 0 1-.364-.151 5.957 5.957 0 0 1-.426-.249 11.165 11.165 0 0 0-.338-.204c-1.622-.9-3.013-1.93-4.173-3.09-1.16-1.161-2.19-2.552-3.09-4.174a9.577 9.577 0 0 0-.205-.337 6.445 6.445 0 0 1-.248-.427 3.57 3.57 0 0 1-.151-.364 1.202 1.202 0 0 1-.089-.399c0-.213.169-.486.506-.817a10.76 10.76 0 0 1 1.101-.941 8.618 8.618 0 0 0 1.101-.977c.338-.355.507-.651.507-.888a1.16 1.16 0 0 0-.125-.506 4.763 4.763 0 0 0-.382-.63 26.36 26.36 0 0 0-.31-.445 37.446 37.446 0 0 1-.551-.949c-.19-.338-.397-.714-.622-1.128a41.39 41.39 0 0 0-.532-.959C6.154.571 5.841.121 5.627.05a1 1 0 0 0-.372-.053c-.32 0-.738.059-1.253.177-.515.119-.92.243-1.216.373-.592.249-1.22.971-1.883 2.167-.604 1.113-.905 2.214-.905 3.303 0 .319.02.63.062.932.041.302.115.643.222 1.022.106.379.192.66.257.843.065.184.187.512.364.986.178.473.284.763.32.87.414 1.16.906 2.196 1.474 3.108.935 1.515 2.211 3.081 3.827 4.698 1.616 1.616 3.182 2.892 4.697 3.827.912.568 1.948 1.06 3.108 1.474.107.035.397.142.871.32.473.177.802.299.985.364.183.065.465.151.844.258.379.106.719.18 1.021.222.302.041.613.062.932.062 1.089 0 2.191-.302 3.304-.906 1.195-.663 1.917-1.29 2.166-1.883.131-.295.254-.701.373-1.216.118-.515.177-.932.177-1.252a.975.975 0 0 0-.053-.374z"/>
</svg>
