<?xml version="1.0" encoding="utf-8"?>
<!-- Generator: Adobe Illustrator 23.0.1, SVG Export Plug-In . SVG Version: 6.00 Build 0)  -->
<svg version="1.1" id="Layer_1" xmlns="http://www.w3.org/2000/svg" xmlns:xlink="http://www.w3.org/1999/xlink" x="0px" y="0px"
	 viewBox="0 0 128 120" style="enable-background:new 0 0 128 120;" xml:space="preserve">
<style type="text/css">
	.st0{fill-rule:evenodd;clip-rule:evenodd;fill:#FFFFFF;}
	.st1{fill-rule:evenodd;clip-rule:evenodd;fill:#F78631;}
	.st2{enable-background:new    ;}
	.st3{fill:#F78631;}
</style>
<g>
	
		<image style="overflow:visible;opacity:0.25;" width="140" height="132" xlink:href="8DB0098770F5998C.png"  transform="matrix(1 0 0 1 -4 -3)">
	</image>
	<g>
		<path class="st0" d="M0,0h99c11,0,20,8.9,20,20l0,0l9,100H0V0z"/>
	</g>
</g>
<path class="st1" d="M75.5,36v-2c0.1-4.5-1.6-8.8-4.7-12.2c-3.1-3.3-7.4-5.1-12-5.1h-1.6c-4.5,0-8.9,1.8-12,5.1s-4.7,7.7-4.7,12.2v2
	c-3.7,0.2-6.5,3.3-6.6,6.9v3c0,3.8,3.2,6.9,7,6.9h4c0.7,0,1.3-0.6,1.3-1.3V37.2c0-0.7-0.6-1.3-1.3-1.3H43V34
	c0-8.4,6.1-14.7,14.1-14.7h1.6c8,0,14.1,6.3,14.1,14.7v1.9H71c-0.7,0-1.3,0.6-1.3,1.3v14.4c0,0.7,0.6,1.3,1.3,1.3h1.8
	c-0.5,6.6-5.1,8.2-7.3,8.5c-0.6-1.8-2.4-3.1-4.3-3.1H58c-2.5,0-4.5,2-4.5,4.5c0,2.5,2,4.5,4.5,4.5h3.2c2,0,3.8-1.3,4.4-3.3
	c1.5-0.2,3-0.7,4.4-1.5c2.3-1.3,5.1-4.1,5.4-9.6c3.7-0.2,6.6-3.2,6.6-6.9v-3C82,39.2,79.1,36.2,75.5,36z M43.7,50.3H41
	c-2.4,0-4.4-2-4.4-4.4v-3c0-2.4,2-4.4,4.4-4.4h2.7V50.3L43.7,50.3z M61.2,64.7H58c-1.1,0-1.9-0.8-1.9-1.9c0-1.1,0.8-1.9,1.9-1.9l0,0
	h3.2c1.1,0,1.9,0.9,1.9,1.9S62.3,64.7,61.2,64.7L61.2,64.7L61.2,64.7z M79.4,45.9c0,2.4-2,4.4-4.4,4.4h-2.7V38.5H75
	c2.4,0,4.4,2,4.4,4.4V45.9L79.4,45.9z"/>
<g class="st2">
	<path class="st3" d="M23.2,83.5c0.1,0.2,0.2,0.3,0.2,0.6V95c0,0.3-0.1,0.5-0.2,0.6s-0.4,0.3-0.6,0.3c-0.1,0-0.3,0-0.4-0.1
		c-0.1,0-0.2-0.1-0.3-0.2l-7.1-9.2v8.7c0,0.2-0.1,0.4-0.2,0.6c-0.2,0.1-0.3,0.2-0.6,0.2c-0.2,0-0.4-0.1-0.6-0.2
		c-0.1-0.2-0.2-0.3-0.2-0.6V84.2c0-0.3,0.1-0.5,0.2-0.6c0.2-0.2,0.4-0.2,0.6-0.2c0.1,0,0.3,0,0.4,0.1c0.1,0.1,0.2,0.1,0.3,0.2
		l7.1,9.2v-8.7c0-0.2,0.1-0.4,0.2-0.6s0.3-0.2,0.6-0.2C22.8,83.3,23,83.4,23.2,83.5z"/>
	<path class="st3" d="M34.2,91.4c-0.2,0.2-0.4,0.2-0.6,0.2h-6.3c0.1,0.9,0.4,1.6,1,2.1c0.6,0.5,1.3,0.8,2.1,0.8c0.6,0,1-0.1,1.4-0.3
		s0.7-0.4,1-0.6c0.2-0.1,0.4-0.2,0.5-0.2c0.2,0,0.4,0.1,0.5,0.2c0.1,0.1,0.2,0.3,0.2,0.5c0,0.3-0.1,0.5-0.4,0.7
		c-0.3,0.3-0.8,0.6-1.4,0.9c-0.6,0.2-1.2,0.4-1.8,0.4c-1,0-1.8-0.2-2.6-0.6c-0.7-0.4-1.3-1-1.7-1.7c-0.4-0.7-0.6-1.6-0.6-2.5
		c0-1,0.2-1.9,0.6-2.7c0.4-0.8,1-1.3,1.6-1.8c0.7-0.4,1.4-0.6,2.2-0.6c0.8,0,1.5,0.2,2.2,0.6c0.7,0.4,1.2,0.9,1.6,1.6
		c0.4,0.7,0.6,1.5,0.6,2.3C34.4,91.1,34.3,91.2,34.2,91.4z M28.3,88.4c-0.5,0.4-0.8,1-1,1.8h5.3V90c-0.1-0.6-0.3-1.2-0.9-1.6
		c-0.5-0.4-1.1-0.6-1.7-0.6C29.4,87.9,28.8,88,28.3,88.4z"/>
	<path class="st3" d="M44.4,91.4c-0.2,0.2-0.4,0.2-0.6,0.2h-6.3c0.1,0.9,0.4,1.6,1,2.1c0.6,0.5,1.3,0.8,2.1,0.8c0.6,0,1-0.1,1.4-0.3
		s0.7-0.4,1-0.6c0.2-0.1,0.4-0.2,0.5-0.2c0.2,0,0.4,0.1,0.5,0.2c0.1,0.1,0.2,0.3,0.2,0.5c0,0.3-0.1,0.5-0.4,0.7
		c-0.3,0.3-0.8,0.6-1.4,0.9c-0.6,0.2-1.2,0.4-1.8,0.4c-1,0-1.8-0.2-2.6-0.6c-0.7-0.4-1.3-1-1.7-1.7c-0.4-0.7-0.6-1.6-0.6-2.5
		c0-1,0.2-1.9,0.6-2.7c0.4-0.8,1-1.3,1.6-1.8c0.7-0.4,1.4-0.6,2.2-0.6c0.8,0,1.5,0.2,2.2,0.6c0.7,0.4,1.2,0.9,1.6,1.6
		c0.4,0.7,0.6,1.5,0.6,2.3C44.7,91.1,44.6,91.2,44.4,91.4z M38.6,88.4c-0.5,0.4-0.8,1-1,1.8h5.3V90c-0.1-0.6-0.3-1.2-0.9-1.6
		c-0.5-0.4-1.1-0.6-1.7-0.6C39.6,87.9,39,88,38.6,88.4z"/>
	<path class="st3" d="M55,82.8c0.2,0.2,0.2,0.4,0.2,0.6v11.6c0,0.2-0.1,0.4-0.2,0.6c-0.2,0.2-0.4,0.3-0.6,0.3
		c-0.3,0-0.5-0.1-0.6-0.2c-0.2-0.2-0.2-0.4-0.2-0.6v-0.5c-0.3,0.4-0.7,0.8-1.3,1.1c-0.5,0.3-1.1,0.4-1.8,0.4c-0.8,0-1.6-0.2-2.2-0.6
		c-0.7-0.4-1.2-1-1.6-1.8c-0.4-0.8-0.6-1.6-0.6-2.5c0-0.9,0.2-1.8,0.6-2.5s0.9-1.3,1.6-1.8c0.7-0.4,1.4-0.6,2.2-0.6
		c0.6,0,1.2,0.1,1.8,0.4s1,0.6,1.3,1v-4.2c0-0.3,0.1-0.5,0.2-0.6c0.2-0.2,0.4-0.2,0.6-0.2C54.6,82.6,54.8,82.7,55,82.8z M52.2,94.1
		c0.4-0.3,0.8-0.7,1-1.2c0.2-0.5,0.4-1.1,0.4-1.7c0-0.6-0.1-1.2-0.4-1.7c-0.2-0.5-0.6-0.9-1-1.2s-0.9-0.4-1.5-0.4s-1.1,0.1-1.5,0.4
		s-0.8,0.7-1,1.2c-0.2,0.5-0.4,1.1-0.4,1.7c0,0.6,0.1,1.2,0.4,1.7c0.2,0.5,0.6,0.9,1,1.2s0.9,0.4,1.5,0.4S51.7,94.4,52.2,94.1z"/>
	<path class="st3" d="M72.7,83.6c0.2,0.2,0.3,0.4,0.3,0.6V95c0,0.3-0.1,0.5-0.3,0.6s-0.4,0.3-0.6,0.3c-0.2,0-0.4-0.1-0.6-0.3
		s-0.3-0.4-0.3-0.6v-4.7h-6.4V95c0,0.3-0.1,0.5-0.3,0.6c-0.2,0.2-0.4,0.3-0.6,0.3c-0.3,0-0.5-0.1-0.6-0.3c-0.2-0.2-0.2-0.4-0.2-0.6
		V84.2c0-0.2,0.1-0.4,0.3-0.6c0.2-0.2,0.4-0.3,0.6-0.3c0.2,0,0.4,0.1,0.6,0.3c0.2,0.2,0.3,0.4,0.3,0.6v4.5h6.4v-4.5
		c0-0.2,0.1-0.4,0.3-0.6c0.2-0.2,0.4-0.3,0.6-0.3C72.3,83.3,72.5,83.4,72.7,83.6z"/>
	<path class="st3" d="M83.7,91.4c-0.2,0.2-0.4,0.2-0.6,0.2h-6.3c0.1,0.9,0.4,1.6,1,2.1c0.6,0.5,1.3,0.8,2.1,0.8c0.6,0,1-0.1,1.4-0.3
		s0.7-0.4,1-0.6c0.2-0.1,0.4-0.2,0.5-0.2c0.2,0,0.4,0.1,0.5,0.2c0.1,0.1,0.2,0.3,0.2,0.5c0,0.3-0.1,0.5-0.4,0.7
		c-0.3,0.3-0.8,0.6-1.4,0.9c-0.6,0.2-1.2,0.4-1.8,0.4c-1,0-1.8-0.2-2.6-0.6c-0.7-0.4-1.3-1-1.7-1.7c-0.4-0.7-0.6-1.6-0.6-2.5
		c0-1,0.2-1.9,0.6-2.7c0.4-0.8,1-1.3,1.6-1.8c0.7-0.4,1.4-0.6,2.2-0.6c0.8,0,1.5,0.2,2.2,0.6c0.7,0.4,1.2,0.9,1.6,1.6
		c0.4,0.7,0.6,1.5,0.6,2.3C83.9,91.1,83.8,91.2,83.7,91.4z M77.8,88.4c-0.5,0.4-0.8,1-1,1.8h5.3V90c-0.1-0.6-0.3-1.2-0.9-1.6
		c-0.5-0.4-1.1-0.6-1.7-0.6C78.9,87.9,78.3,88,77.8,88.4z"/>
	<path class="st3" d="M87.5,95.7c-0.2,0.2-0.4,0.3-0.6,0.3s-0.4-0.1-0.6-0.3s-0.2-0.4-0.2-0.6V83.5c0-0.2,0.1-0.4,0.3-0.6
		c0.2-0.2,0.4-0.3,0.6-0.3s0.4,0.1,0.6,0.3c0.2,0.2,0.2,0.4,0.2,0.6v11.6C87.8,95.3,87.7,95.5,87.5,95.7z"/>
	<path class="st3" d="M97.4,87c0.7,0.4,1.2,1,1.6,1.7c0.4,0.7,0.6,1.6,0.6,2.5c0,0.9-0.2,1.8-0.6,2.5s-0.9,1.3-1.6,1.7
		s-1.4,0.6-2.2,0.6c-0.6,0-1.2-0.1-1.7-0.4c-0.5-0.3-1-0.6-1.3-1v4c0,0.2-0.1,0.4-0.2,0.6s-0.4,0.3-0.6,0.3c-0.2,0-0.4-0.1-0.6-0.2
		c-0.2-0.2-0.2-0.4-0.2-0.6V87.3c0-0.3,0.1-0.5,0.2-0.6c0.2-0.2,0.4-0.3,0.6-0.3s0.5,0.1,0.6,0.3s0.2,0.4,0.2,0.6v0.5
		c0.3-0.4,0.7-0.8,1.3-1.1s1.1-0.5,1.8-0.5C96,86.3,96.8,86.5,97.4,87z M96.5,94.1c0.4-0.3,0.8-0.7,1-1.2s0.4-1.1,0.4-1.7
		s-0.1-1.2-0.4-1.7c-0.2-0.5-0.6-0.9-1-1.2c-0.4-0.3-0.9-0.4-1.5-0.4c-0.6,0-1.1,0.1-1.5,0.4s-0.8,0.7-1,1.2s-0.4,1.1-0.4,1.7
		s0.1,1.2,0.4,1.7c0.2,0.5,0.6,0.9,1,1.2s0.9,0.4,1.5,0.4C95.6,94.5,96.1,94.4,96.5,94.1z"/>
	<path class="st3" d="M103.6,89.5c0.2-0.2,0.4-0.3,0.6-0.3c0.8,0,1.5-0.2,2-0.7s0.8-1,0.8-1.8c0-0.7-0.2-1.3-0.7-1.7
		c-0.5-0.5-1-0.7-1.7-0.7c-0.4,0-0.8,0.1-1.1,0.2c-0.4,0.2-0.7,0.4-0.9,0.7c-0.2,0.2-0.5,0.3-0.7,0.3c-0.2,0-0.3-0.1-0.5-0.2
		c-0.3-0.2-0.4-0.4-0.4-0.7c0-0.2,0.1-0.4,0.3-0.6c0.4-0.5,0.9-0.8,1.5-1.1s1.2-0.4,1.9-0.4c0.8,0,1.5,0.2,2.1,0.5
		c0.6,0.3,1.1,0.8,1.5,1.4c0.4,0.6,0.6,1.3,0.6,2.1c0,0.7-0.2,1.4-0.5,1.9c-0.3,0.6-0.8,1-1.3,1.3c-0.6,0.3-1.2,0.5-1.9,0.6
		c0,0,0,0,0,0c0,0,0,0,0,0v1.2c0,0.2-0.1,0.4-0.2,0.6c-0.2,0.2-0.4,0.3-0.6,0.3c-0.3,0-0.5-0.1-0.6-0.3c-0.2-0.2-0.2-0.4-0.2-0.6
		v-1.7C103.4,89.8,103.5,89.6,103.6,89.5z M103.5,95.7c-0.2-0.2-0.2-0.4-0.2-0.7v-0.3c0-0.3,0.1-0.5,0.2-0.7
		c0.2-0.2,0.4-0.2,0.7-0.2h0.2c0.3,0,0.5,0.1,0.7,0.2c0.2,0.2,0.2,0.4,0.2,0.7V95c0,0.3-0.1,0.5-0.2,0.7c-0.2,0.2-0.4,0.2-0.7,0.2
		h-0.2C103.9,95.9,103.7,95.8,103.5,95.7z"/>
</g>
</svg>
