<svg xmlns="http://www.w3.org/2000/svg" width="51" height="51">
    <path fill="#F78631" fill-rule="evenodd" d="M25.479 0C39.55 0 50.957 11.417 50.957 25.5S39.55 51 25.479 51C11.407 51 0 39.583 0 25.5S11.407 0 25.479 0z"/>
    <path fill="#FFF" fill-rule="evenodd" d="M39.939 34.247c-.085-.256-.625-.633-1.62-1.13a50.922 50.922 0 0 0-1.15-.639 97.08 97.08 0 0 1-1.353-.747 43.13 43.13 0 0 1-1.141-.66 22.835 22.835 0 0 0-.532-.373 6.06 6.06 0 0 0-.757-.458 1.398 1.398 0 0 0-.608-.149c-.284 0-.639.202-1.065.607-.426.405-.817.845-1.171 1.322-.356.476-.732.916-1.13 1.321-.398.405-.725.607-.98.607a1.44 1.44 0 0 1-.48-.106 5.037 5.037 0 0 1-.437-.181 7.623 7.623 0 0 1-.511-.299 13.218 13.218 0 0 0-.405-.245c-1.947-1.08-3.616-2.316-5.008-3.708-1.393-1.393-2.629-3.062-3.709-5.008a10.878 10.878 0 0 0-.245-.405 7.886 7.886 0 0 1-.298-.512 4.508 4.508 0 0 1-.181-.437 1.441 1.441 0 0 1-.107-.479c0-.256.203-.583.608-.981.405-.397.845-.774 1.321-1.129a10.39 10.39 0 0 0 1.321-1.172c.405-.426.608-.781.608-1.065 0-.199-.05-.402-.149-.608a6.013 6.013 0 0 0-.459-.756c-.206-.299-.33-.476-.373-.533a44.679 44.679 0 0 1-.66-1.14 98.202 98.202 0 0 1-.746-1.354c-.27-.497-.483-.88-.64-1.15-.497-.995-.873-1.535-1.129-1.62a1.207 1.207 0 0 0-.448-.064c-.383 0-.884.071-1.502.213-.618.142-1.105.291-1.46.448-.71.298-1.463 1.165-2.259 2.6-.725 1.335-1.087 2.656-1.087 3.963 0 .384.025.757.075 1.119.049.363.138.771.266 1.226.128.454.231.792.309 1.012.078.22.224.614.437 1.183.213.568.341.916.383 1.044.498 1.392 1.087 2.636 1.769 3.73 1.122 1.818 2.653 3.697 4.593 5.637 1.939 1.939 3.818 3.47 5.637 4.593 1.094.681 2.337 1.271 3.729 1.768.128.043.476.171 1.044.384.569.213.963.359 1.183.437.22.078.558.181 1.012.309.455.128.864.217 1.226.267.362.049.735.075 1.119.075 1.307 0 2.628-.363 3.964-1.087 1.434-.796 2.301-1.549 2.599-2.26.157-.354.306-.841.448-1.459.142-.618.213-1.119.213-1.503 0-.199-.021-.348-.064-.448z"/>
</svg>
