<svg xmlns="http://www.w3.org/2000/svg" width="51" height="51">
    <path fill="#F78631" fill-rule="evenodd" d="M25.521 0C39.593 0 51 11.417 51 25.5S39.593 51 25.521 51C11.45 51 .043 39.583.043 25.5S11.45 0 25.521 0z"/>
    <path fill="#FFF" fill-rule="evenodd" d="M38.014 13.072a16.949 16.949 0 0 0-6.556-4.062v5.111a12.053 12.053 0 0 1 3.206 2.275c4.79 4.773 4.79 12.537 0 17.307-4.788 4.765-12.575 4.765-17.372 0-4.786-4.774-4.786-12.534 0-17.307.011-.015.05-.039.066-.061h.005l2.839 2.823-.017-8.964-8.994-.012 2.826 2.817a.255.255 0 0 1-.064.073c-6.641 6.614-6.641 17.344 0 23.956 6.65 6.62 17.411 6.62 24.061 0 6.635-6.612 6.642-17.342 0-23.956z"/>
</svg>
