<svg xmlns="http://www.w3.org/2000/svg" width="44" height="44">
    <path fill="#F78631" fill-rule="evenodd" d="M10 0h24c5.523 0 10 4.477 10 10v24c0 5.523-4.477 10-10 10H10C4.477 44 0 39.523 0 34V10C0 4.477 4.477 0 10 0z"/>
    <path fill="#FFF" fill-rule="evenodd" d="M24.599 21.988l7.836-7.836a1.846 1.846 0 1 0-2.612-2.611l-7.835 7.835-7.836-7.835a1.846 1.846 0 1 0-2.612 2.611l7.836 7.836-7.836 7.835a1.847 1.847 0 0 0 2.612 2.612l7.836-7.836 7.835 7.836a1.847 1.847 0 0 0 2.612-2.612l-7.836-7.835z"/>
</svg>
