<svg xmlns="http://www.w3.org/2000/svg" width="51" height="51">
    <path fill="#F78631" fill-rule="evenodd" d="M25.521 0C39.593 0 51 11.417 51 25.5S39.593 51 25.521 51C11.45 51 .043 39.583.043 25.5S11.45 0 25.521 0z"/>
    <path fill="#FFF" fill-rule="evenodd" d="M24.488 34.424L11.589 22.348a1.88 1.88 0 0 1 0-2.781c.82-.768 2.151-.768 2.971 0l11.413 10.685 11.414-10.685c.82-.767 2.15-.767 2.97 0a1.879 1.879 0 0 1 0 2.782L27.458 34.425c-.41.384-.947.575-1.485.575a2.17 2.17 0 0 1-1.485-.576z"/>
</svg>
