<svg xmlns="http://www.w3.org/2000/svg" width="32" height="26">
    <path fill="#C66B27" fill-rule="evenodd" d="M3.952 16.092v-4.66H1.551c-.848 0-1.551.703-1.551 1.553v8.97a1.539 1.539 0 0 0 1.551 1.612h1.376v1.935c0 .263.234.498.499.498a.482.482 0 0 0 .35-.147l2.255-2.257h9.954c.849 0 1.552-.703 1.552-1.553v-2.228H7.669a3.726 3.726 0 0 1-3.717-3.723z"/>
    <path fill="#F78631" fill-rule="evenodd" d="M29.629 0H7.669a2.383 2.383 0 0 0-2.371 2.374v13.66a2.383 2.383 0 0 0 2.371 2.374h15.138l3.425 3.459a.734.734 0 0 0 .528.234.756.756 0 0 0 .761-.762v-2.931h2.108A2.381 2.381 0 0 0 32 16.034V2.374A2.381 2.381 0 0 0 29.629 0zM11.038 11.754a2.212 2.212 0 0 1-2.196-2.198c0-1.202.994-2.199 2.196-2.199 1.2 0 2.195.997 2.195 2.199a2.193 2.193 0 0 1-2.195 2.198zm7.699 0c-1.2 0-2.195-.996-2.195-2.198s.995-2.199 2.195-2.199c1.2 0 2.195.997 2.195 2.199a2.212 2.212 0 0 1-2.195 2.198zm7.671 0a2.212 2.212 0 0 1-2.196-2.198c0-1.202.995-2.199 2.196-2.199s2.195.997 2.195 2.199a2.212 2.212 0 0 1-2.195 2.198z"/>
</svg>
