<svg xmlns="http://www.w3.org/2000/svg" width="27" height="29">
    <path fill="#00ACC1" fill-rule="evenodd" d="M25.883 20.201c-1.554 3.149-4.835 5.232-5.404 5.588-.388.242-.545 1.646-.606 2.519-.028.411-.142.692-.602.691h-2.963c-.744 0-.77-.443-.77-.655.005-5.564-.297-6.27 3.674-10.787 1.206-1.372 1.375-3.525 2.197-4.56.69-.868 1.784-.448 1.915.312.202 1.177-1.071 4.642-1.713 5.754-.16.277.127.788.622.348.495-.441 2.463-4.925 1.696-7.886-.375-1.449.593-2.964 1.834-2.198 1.24.765 1.962 7.143.12 10.874zm-15.191 8.798H7.729c-.46.001-.574-.28-.602-.691-.061-.873-.218-2.277-.606-2.519-.569-.356-3.85-2.439-5.404-5.588-1.842-3.731-1.12-10.109.12-10.874 1.241-.766 2.209.749 1.834 2.198-.767 2.961 1.201 7.445 1.696 7.886.495.44.782-.071.622-.348-.642-1.112-1.915-4.577-1.713-5.754.131-.76 1.225-1.18 1.915-.312.822 1.035.991 3.188 2.197 4.56 3.971 4.517 3.669 5.223 3.674 10.787 0 .212-.026.655-.77.655z"/>
    <path fill="#006470" fill-rule="evenodd" d="M17.365 0a5.626 5.626 0 0 0-3.922 1.583A5.626 5.626 0 0 0 9.521 0C6.415 0 3.897 2.497 3.897 5.577c0 1.196.381 2.303 1.027 3.211.257.399.566.762.918 1.079l5.834 5.794c.584.58 1.168 1.159 1.752 1.159l.015-.001.015.001c.584 0 1.168-.579 1.752-1.159l5.834-5.794c.352-.317.661-.68.918-1.079a5.519 5.519 0 0 0 1.027-3.211c0-3.08-2.518-5.577-5.624-5.577z"/>
</svg>
