<svg 
 xmlns="http://www.w3.org/2000/svg"
 xmlns:xlink="http://www.w3.org/1999/xlink"
 width="35px" height="36px">
<defs>
<linearGradient id="PSgrad_0" x1="100%" x2="0%" y1="0%" y2="0%">
  <stop offset="0%" stop-color="rgb(247,134,49)" stop-opacity="1" />
  <stop offset="100%" stop-color="rgb(255,109,0)" stop-opacity="1" />
</linearGradient>

</defs>
<path fill-rule="evenodd"  fill="rgb(226, 0, 129)"
 d="M33.988,17.025 C33.409,17.828 33.424,18.898 34.009,19.688 L34.551,20.412 C35.378,21.525 35.027,23.090 33.804,23.750 L33.006,24.188 C32.135,24.662 31.668,25.631 31.850,26.593 L32.019,27.476 C32.274,28.825 31.264,30.088 29.867,30.167 L28.951,30.218 C27.956,30.268 27.107,30.942 26.843,31.890 L26.602,32.759 C26.229,34.079 24.765,34.790 23.469,34.266 L22.620,33.921 C21.698,33.548 20.636,33.792 19.978,34.532 L19.378,35.206 C18.463,36.247 16.831,36.254 15.894,35.235 L15.286,34.567 C14.620,33.835 13.552,33.605 12.636,33.993 L11.794,34.345 C10.507,34.890 9.027,34.209 8.640,32.888 L8.383,32.026 C8.106,31.086 7.242,30.426 6.246,30.383 L5.331,30.346 C3.933,30.289 2.901,29.040 3.136,27.691 L3.288,26.808 C3.457,25.839 2.975,24.877 2.096,24.418 L1.291,23.994 C0.054,23.341 -0.320,21.784 0.486,20.664 L1.013,19.932 C1.591,19.128 1.576,18.058 0.991,17.269 L0.449,16.544 C-0.378,15.438 -0.027,13.874 1.195,13.206 L1.994,12.768 C2.865,12.294 3.333,11.325 3.150,10.363 L2.982,9.481 C2.726,8.131 3.736,6.868 5.134,6.789 L6.049,6.739 C7.044,6.688 7.893,6.014 8.157,5.066 L8.398,4.198 C8.771,2.877 10.236,2.167 11.531,2.690 L12.380,3.035 C13.302,3.408 14.364,3.164 15.023,2.425 L15.622,1.750 C16.545,0.709 18.178,0.702 19.106,1.722 L19.715,2.389 C20.380,3.121 21.449,3.351 22.364,2.963 L23.206,2.611 C24.494,2.066 25.972,2.748 26.360,4.069 L26.616,4.930 C26.895,5.870 27.759,6.531 28.754,6.574 L29.669,6.610 C31.067,6.667 32.099,7.916 31.865,9.265 L31.711,10.148 C31.543,11.117 32.026,12.079 32.905,12.539 L33.709,12.962 C34.946,13.615 35.319,15.173 34.514,16.293 L33.988,17.025 ZM11.521,10.330 C9.018,10.330 6.992,12.317 6.992,14.774 C6.992,17.222 9.018,19.219 11.521,19.219 C14.025,19.219 16.050,17.231 16.050,14.774 C16.050,12.317 14.025,10.330 11.521,10.330 ZM24.132,10.664 C23.663,10.285 22.964,10.348 22.576,10.809 L10.693,24.855 C10.306,25.316 10.370,26.002 10.840,26.382 C11.310,26.761 12.009,26.698 12.396,26.237 L24.280,12.191 C24.667,11.731 24.602,11.044 24.132,10.664 ZM23.460,17.809 C20.957,17.809 18.931,19.797 18.931,22.254 C18.931,24.710 20.957,26.698 23.460,26.698 C25.964,26.698 27.990,24.710 27.990,22.254 C27.990,19.797 25.964,17.809 23.460,17.809 ZM23.460,24.096 C22.423,24.096 21.582,23.271 21.582,22.254 C21.582,21.236 22.423,20.411 23.460,20.411 C24.498,20.411 25.339,21.236 25.339,22.254 C25.339,23.271 24.498,24.096 23.460,24.096 ZM11.530,16.617 C10.493,16.617 9.652,15.792 9.652,14.774 C9.652,13.757 10.493,12.932 11.530,12.932 C12.568,12.932 13.408,13.757 13.408,14.774 C13.408,15.792 12.568,16.617 11.530,16.617 Z"/>
<path fill="url(#PSgrad_0)"
 d="M33.988,17.025 C33.409,17.828 33.424,18.898 34.009,19.688 L34.551,20.412 C35.378,21.525 35.027,23.090 33.804,23.750 L33.006,24.188 C32.135,24.662 31.668,25.631 31.850,26.593 L32.019,27.476 C32.274,28.825 31.264,30.088 29.867,30.167 L28.951,30.218 C27.956,30.268 27.107,30.942 26.843,31.890 L26.602,32.759 C26.229,34.079 24.765,34.790 23.469,34.266 L22.620,33.921 C21.698,33.548 20.636,33.792 19.978,34.532 L19.378,35.206 C18.463,36.247 16.831,36.254 15.894,35.235 L15.286,34.567 C14.620,33.835 13.552,33.605 12.636,33.993 L11.794,34.345 C10.507,34.890 9.027,34.209 8.640,32.888 L8.383,32.026 C8.106,31.086 7.242,30.426 6.246,30.383 L5.331,30.346 C3.933,30.289 2.901,29.040 3.136,27.691 L3.288,26.808 C3.457,25.839 2.975,24.877 2.096,24.418 L1.291,23.994 C0.054,23.341 -0.320,21.784 0.486,20.664 L1.013,19.932 C1.591,19.128 1.576,18.058 0.991,17.269 L0.449,16.544 C-0.378,15.438 -0.027,13.874 1.195,13.206 L1.994,12.768 C2.865,12.294 3.333,11.325 3.150,10.363 L2.982,9.481 C2.726,8.131 3.736,6.868 5.134,6.789 L6.049,6.739 C7.044,6.688 7.893,6.014 8.157,5.066 L8.398,4.198 C8.771,2.877 10.236,2.167 11.531,2.690 L12.380,3.035 C13.302,3.408 14.364,3.164 15.023,2.425 L15.622,1.750 C16.545,0.709 18.178,0.702 19.106,1.722 L19.715,2.389 C20.380,3.121 21.449,3.351 22.364,2.963 L23.206,2.611 C24.494,2.066 25.972,2.748 26.360,4.069 L26.616,4.930 C26.895,5.870 27.759,6.531 28.754,6.574 L29.669,6.610 C31.067,6.667 32.099,7.916 31.865,9.265 L31.711,10.148 C31.543,11.117 32.026,12.079 32.905,12.539 L33.709,12.962 C34.946,13.615 35.319,15.173 34.514,16.293 L33.988,17.025 ZM11.521,10.330 C9.018,10.330 6.992,12.317 6.992,14.774 C6.992,17.222 9.018,19.219 11.521,19.219 C14.025,19.219 16.050,17.231 16.050,14.774 C16.050,12.317 14.025,10.330 11.521,10.330 ZM24.132,10.664 C23.663,10.285 22.964,10.348 22.576,10.809 L10.693,24.855 C10.306,25.316 10.370,26.002 10.840,26.382 C11.310,26.761 12.009,26.698 12.396,26.237 L24.280,12.191 C24.667,11.731 24.602,11.044 24.132,10.664 ZM23.460,17.809 C20.957,17.809 18.931,19.797 18.931,22.254 C18.931,24.710 20.957,26.698 23.460,26.698 C25.964,26.698 27.990,24.710 27.990,22.254 C27.990,19.797 25.964,17.809 23.460,17.809 ZM23.460,24.096 C22.423,24.096 21.582,23.271 21.582,22.254 C21.582,21.236 22.423,20.411 23.460,20.411 C24.498,20.411 25.339,21.236 25.339,22.254 C25.339,23.271 24.498,24.096 23.460,24.096 ZM11.530,16.617 C10.493,16.617 9.652,15.792 9.652,14.774 C9.652,13.757 10.493,12.932 11.530,12.932 C12.568,12.932 13.408,13.757 13.408,14.774 C13.408,15.792 12.568,16.617 11.530,16.617 Z"/>
</svg>