<svg 
 xmlns="http://www.w3.org/2000/svg"
 xmlns:xlink="http://www.w3.org/1999/xlink"
 width="35px" height="36px">
<path fill-rule="evenodd"  fill="rgb(85, 167, 64)"
 d="M34.551,20.412 L34.009,19.688 C33.424,18.898 33.409,17.828 33.987,17.025 L34.515,16.293 C35.319,15.172 34.946,13.615 33.709,12.962 L32.904,12.539 C32.026,12.079 31.542,11.117 31.711,10.148 L31.865,9.266 C32.098,7.916 31.067,6.667 29.668,6.610 L28.754,6.574 C27.758,6.531 26.894,5.870 26.617,4.930 L26.360,4.069 C25.973,2.748 24.494,2.066 23.205,2.612 L22.364,2.963 C21.449,3.351 20.380,3.121 19.714,2.389 L19.106,1.722 C18.177,0.702 16.545,0.709 15.622,1.750 L15.023,2.425 C14.364,3.164 13.302,3.408 12.380,3.035 L11.531,2.690 C10.235,2.167 8.771,2.877 8.398,4.198 L8.157,5.066 C7.893,6.014 7.044,6.688 6.048,6.739 L5.134,6.789 C3.735,6.868 2.726,8.131 2.981,9.481 L3.150,10.363 C3.333,11.325 2.864,12.294 1.994,12.768 L1.196,13.206 C-0.026,13.874 -0.378,15.438 0.449,16.543 L0.990,17.269 C1.577,18.058 1.591,19.127 1.013,19.932 L0.486,20.664 C-0.320,21.784 0.054,23.341 1.291,23.994 L2.096,24.418 C2.974,24.877 3.457,25.839 3.289,26.808 L3.135,27.691 C2.901,29.040 3.933,30.289 5.331,30.347 L6.246,30.383 C7.241,30.425 8.105,31.086 8.384,32.026 L8.639,32.888 C9.028,34.209 10.506,34.890 11.794,34.345 L12.636,33.993 C13.551,33.605 14.620,33.835 15.286,34.567 L15.894,35.235 C16.830,36.254 18.463,36.247 19.378,35.206 L19.978,34.531 C20.636,33.792 21.698,33.548 22.620,33.921 L23.469,34.266 C24.765,34.790 26.229,34.079 26.602,32.758 L26.844,31.890 C27.107,30.942 27.956,30.268 28.951,30.218 L29.866,30.167 C31.265,30.088 32.275,28.825 32.018,27.475 L31.850,26.593 C31.667,25.631 32.136,24.662 33.007,24.188 L33.804,23.750 C35.027,23.090 35.378,21.525 34.551,20.412 Z"/>
<path fill-rule="evenodd"  fill="rgb(255, 255, 255)"
 d="M13.727,23.075 L9.432,18.687 L8.000,20.149 L13.727,26.000 L26.000,13.463 L24.568,12.000 L13.727,23.075 Z"/>
</svg>