<svg xmlns="http://www.w3.org/2000/svg" width="179" height="51">
    <path fill="#FFEAB8" fill-rule="evenodd" d="M1 2h17l5 4 5-4h149v47H29l-5-4-5 4H2L1 2z"/>
    <path fill="#FFCE58" fill-rule="evenodd" d="M177.041 51H27.449l-3.923-3.919L19.606 51H1.962A1.96 1.96 0 0 1 0 49.04V1.962C0 .878.878 0 1.962 0h17.644l3.92 3.923L27.449 0h149.592A1.96 1.96 0 0 1 179 1.962V49.04c0 1.084-.876 1.96-1.959 1.96zm.04-49.077H29.072L26.3 4.697l-2.774 2.774-2.771-2.774-2.772-2.774H1.923v47.158h16.06l2.772-2.775 2.771-2.777 2.774 2.777 2.772 2.775h148.009V1.923zM23.526 39.231a1.96 1.96 0 1 1 .004-3.92 1.96 1.96 0 0 1-.004 3.92zm0-7.845a1.962 1.962 0 0 1 0-3.923 1.961 1.961 0 1 1 0 3.923zm0-7.847a1.961 1.961 0 1 1 .006-3.922 1.961 1.961 0 0 1-.006 3.922zm0-7.846a1.961 1.961 0 0 1 0-3.923 1.96 1.96 0 0 1 1.962 1.961 1.96 1.96 0 0 1-1.962 1.962z"/>
</svg>
