<svg xmlns="http://www.w3.org/2000/svg" id="Layer_1" data-name="Layer 1" viewBox="0 0 500 500">
    <defs>
        <style>
            .cls-1{fill:#f44d3b}.cls-2{fill:#d32a0f}.cls-3{fill:#a00d05}.cls-4{fill:#073c60}.cls-5{fill:#00233f}.cls-6{fill:#23c181}.cls-7{fill:#0caa7d}.cls-8{fill:#f4ad31}.cls-9{fill:#e2821a}.cls-10{fill:#eadaea}
        </style>
    </defs>
    <path d="M477.27 348.53A17.73 17.73 0 0 1 459.78 366H42.93a17.74 17.74 0 0 1-17.49-17.49V106.58a17.74 17.74 0 0 1 17.49-17.49h417.58A17.74 17.74 0 0 1 478 106.58v242zm0 0" class="cls-1"/>
    <path d="M25.44 106.58a17.74 17.74 0 0 1 17.49-17.49h417.58A17.74 17.74 0 0 1 478 106.58v242.68a17.74 17.74 0 0 1-17.49 17.49" class="cls-2"/>
    <path d="M193.05 89.09h266.73a17.73 17.73 0 0 1 17.49 17.49v242.68a17.73 17.73 0 0 1-17.49 17.49" class="cls-3"/>
    <path d="M25.44 140.11h451.83v87.45H25.44z" class="cls-4"/>
    <path d="M477.27 227.56v-87.45H25.44" class="cls-5"/>
    <path d="M200.34 265.45a5.74 5.74 0 0 1-5.83 5.83H75c-3.65 0-5.84-2.19-5.84-5.83v-3.64c0-2.92 2.19-5.11 5.84-5.11h120.24a5.75 5.75 0 0 1 5.83 5.84v2.91zm0 0M200.34 294.6a5.74 5.74 0 0 1-5.83 5.83H75c-3.65 0-5.84-2.18-5.84-5.83V291c0-2.92 2.19-5.1 5.84-5.1h120.24a5.74 5.74 0 0 1 5.83 5.83v2.91zm0 0M200.34 323.75a5.74 5.74 0 0 1-5.83 5.83H75c-3.65 0-5.84-2.18-5.84-5.83v-3.64c0-2.92 2.19-5.11 5.84-5.11h120.24a5.75 5.75 0 0 1 5.83 5.84v2.91zm0 0" class="cls-4"/>
    <path d="M357 294.6c0-13.85 6.57-25.51 16-33.52a43.3 43.3 0 0 0-27-9.48 43 43 0 1 0 0 86 43.35 43.35 0 0 0 27-9.47c-10.2-8-16-19.68-16-33.53zm0 0" class="cls-6"/>
    <path d="M346.1 337.6a43.35 43.35 0 0 0 27-9.47c-10.2-8-16-19.68-16-33.53s6.57-25.51 16-33.52a43.3 43.3 0 0 0-27-9.48" class="cls-7"/>
    <path d="M400 251.6a43.3 43.3 0 0 0-27 9.48c10.2 8 16 19.67 16 33.52s-6.56 25.51-16 33.53a43.35 43.35 0 0 0 27 9.47 42.62 42.62 0 0 0 43-43 43.08 43.08 0 0 0-43-43zm0 0" class="cls-8"/>
    <path d="M400 337.6a43 43 0 0 0 0-86" class="cls-9"/>
    <path d="M86.66 205.69a8 8 0 1 1-8-8 8 8 0 0 1 8 8zm0 0M126 205.69a8 8 0 1 1-8-8 8 8 0 0 1 8 8zm0 0M165.36 205.69a8 8 0 1 1-8-8 8 8 0 0 1 8 8zm0 0" class="cls-10"/>
</svg>
