<svg xmlns="http://www.w3.org/2000/svg" width="30" height="20">
    <path fill="#757575" fill-rule="evenodd" d="M26.707 19.994H3.408c-1.836 0-3.405-1.542-3.405-3.432v-.202H29.99v.202c0 1.89-1.448 3.432-3.283 3.432zM.003 3.423c0-1.89 1.569-3.412 3.405-3.412h23.299c1.835 0 3.282 1.522 3.282 3.412V12.5H.003V3.423zM4.798 9.41c.649 0 1.239-.266 1.673-.696.435.43 1.024.696 1.674.696 1.336 0 2.419-1.115 2.419-2.491 0-1.376-1.083-2.491-2.419-2.491-.65 0-1.239.266-1.674.696a2.368 2.368 0 0 0-1.673-.696c-1.335 0-2.418 1.115-2.418 2.491 0 1.376 1.084 2.491 2.418 2.491z"/>
    <text x="18" y="10" fill="#FFF" font-family="Quicksand" font-size="8" font-weight="bold">
        CC
    </text>
</svg>
