<svg 
 xmlns="http://www.w3.org/2000/svg"
 xmlns:xlink="http://www.w3.org/1999/xlink"
 width="27px" height="27px">
<path fill-rule="evenodd"  fill="rgb(247, 134, 49)"
 d="M13.500,8.591 C10.800,8.591 8.591,10.800 8.591,13.500 C8.591,16.200 10.800,18.409 13.500,18.409 C16.200,18.409 18.409,16.200 18.409,13.500 C18.409,10.800 16.200,8.591 13.500,8.591 ZM24.423,12.273 C23.809,7.118 19.759,3.068 14.727,2.577 L14.727,0.000 L12.273,0.000 L12.273,2.577 C7.118,3.068 3.068,7.118 2.577,12.273 L-0.000,12.273 L-0.000,14.727 L2.577,14.727 C3.191,19.882 7.241,23.932 12.273,24.423 L12.273,27.000 L14.727,27.000 L14.727,24.423 C19.882,23.809 23.932,19.759 24.423,14.727 L27.000,14.727 L27.000,12.273 L24.423,12.273 ZM13.500,22.091 C8.714,22.091 4.909,18.286 4.909,13.500 C4.909,8.714 8.714,4.909 13.500,4.909 C18.286,4.909 22.091,8.714 22.091,13.500 C22.091,18.286 18.286,22.091 13.500,22.091 Z"/>
</svg>