<?xml version="1.0" encoding="utf-8"?>
<!-- Generator: Adobe Illustrator 22.1.0, SVG Export Plug-In . SVG Version: 6.00 Build 0)  -->
<svg version="1.1" id="Layer_1" xmlns="http://www.w3.org/2000/svg" xmlns:xlink="http://www.w3.org/1999/xlink" x="0px" y="0px"
	 viewBox="0 0 30 30" style="enable-background:new 0 0 30 30;" xml:space="preserve">
<style type="text/css">
	.st0{opacity:0.3;enable-background:new    ;}
</style>
<path id="Forma_1_copy_6" class="st0" d="M25.6,4.4c-5.9-5.9-15.4-5.9-21.2,0s-5.9,15.4,0,21.2s15.4,5.9,21.2,0
	C31.5,19.8,31.5,10.3,25.6,4.4z M20.9,20.9c-0.5,0.5-1.2,0.5-1.6,0L15,16.7l-4.5,4.5c-0.5,0.5-1.2,0.5-1.6,0c-0.4-0.5-0.4-1.2,0-1.6
	l4.5-4.5l-4.3-4.3c-0.4-0.5-0.4-1.2,0-1.6c0.4-0.4,1.1-0.4,1.6,0l4.3,4.3l4.1-4.1c0.4-0.5,1.2-0.5,1.6,0s0.5,1.2,0,1.6c0,0,0,0,0,0
	L16.6,15l4.3,4.3C21.4,19.8,21.4,20.5,20.9,20.9L20.9,20.9z"/>
</svg>
