<svg xmlns="http://www.w3.org/2000/svg" width="30" height="21">
    <path fill="#757575" fill-rule="evenodd" d="M28.125 21H1.875C.842 21 0 20.145 0 19.091V7.636h30v11.455C30 20.145 29.16 21 28.125 21zm-3.688-9.545c-.723 0-1.376.286-1.874.742a2.771 2.771 0 0 0-1.876-.742c-1.552 0-2.812 1.282-2.812 2.863s1.26 2.864 2.812 2.864c.724 0 1.377-.287 1.876-.743a2.767 2.767 0 0 0 1.874.743c1.553 0 2.813-1.283 2.813-2.864s-1.26-2.863-2.813-2.863zM0 1.909C0 .857.842 0 1.875 0h26.25C29.16 0 30 .857 30 1.909v1.909H0V1.909z"/>
    <text x="3" y="17" fill="#FFF" font-family="Quicksand" font-size="8" font-weight="bold">
        DC
    </text>
</svg>
