<svg xmlns="http://www.w3.org/2000/svg" id="Layer_1" data-name="Layer 1" viewBox="0 0 500 500">
    <defs>
        <style>
            .cls-1{fill:#ccb375}.cls-2{fill:#7a693c}.cls-3{fill:#e74c3d}.cls-4{fill:#f0c41b}.cls-5{fill:#f3d55c}
        </style>
    </defs>
    <rect width="453" height="277" x="24" y="111" class="cls-1" rx="16.5" ry="16.5"/>
    <path d="M125.52 291.54H56.36a7.7 7.7 0 0 0 0 15.39h69.16a7.7 7.7 0 1 0 0-15.39M233.12 299.23a7.68 7.68 0 0 0-7.7-7.69h-69.16a7.7 7.7 0 1 0 0 15.39h69.16a7.68 7.68 0 0 0 7.7-7.7M64.06 330h-7.7a7.7 7.7 0 0 0 0 15.4h7.7a7.7 7.7 0 0 0 0-15.4M110.13 330H94.79a7.7 7.7 0 0 0 0 15.4h15.34a7.7 7.7 0 0 0 0-15.4M148.56 330h-7.64a7.7 7.7 0 1 0 0 15.4h7.64a7.7 7.7 0 0 0 0-15.4M194.69 330h-15.34a7.7 7.7 0 1 0 0 15.4h15.34a7.7 7.7 0 0 0 0-15.4M220 332.22a8.05 8.05 0 0 0-2.21 5.44 7.55 7.55 0 0 0 7.65 7.7 8.31 8.31 0 0 0 5.49-2.21 8.19 8.19 0 0 0 2.21-5.49 8.05 8.05 0 0 0-2.21-5.44c-2.93-2.85-8.19-2.85-10.93 0" class="cls-2"/>
    <path d="M394.8 318.45a46.13 46.13 0 1 1-46.13-46.13 46.12 46.12 0 0 1 46.13 46.13" class="cls-3"/>
    <path d="M448.57 318.45a46.1 46.1 0 1 1-46.08-46.13 46.11 46.11 0 0 1 46.08 46.13M169.7 247.89H66a9.64 9.64 0 0 1-9.65-9.65v-73a9.64 9.64 0 0 1 9.65-9.6h103.7a9.66 9.66 0 0 1 9.65 9.65v73a9.65 9.65 0 0 1-9.65 9.65" class="cls-4"/>
    <path d="M169.7 255.59H66a17.36 17.36 0 0 1-17.34-17.35v-73A17.34 17.34 0 0 1 66 148h103.7a17.32 17.32 0 0 1 17.3 17.29v73a17.34 17.34 0 0 1-17.29 17.35M66 163.34a2 2 0 0 0-2 1.95v73a1.94 1.94 0 0 0 2 2h103.7a2 2 0 0 0 2-2v-73a2 2 0 0 0-2-1.95zm0 0" class="cls-5"/>
    <path d="M179.35 165.29a9.66 9.66 0 0 0-9.65-9.65h-57.58a9.61 9.61 0 0 0-9.63 9.65v73a9.61 9.61 0 0 0 9.63 9.65h11.45a9.64 9.64 0 0 0 9.65-9.65v-42.23a9.64 9.64 0 0 1 9.65-9.64h26.83a9.65 9.65 0 0 0 9.65-9.64zm0 0" class="cls-4"/>
    <path d="M123.57 255.59h-11.45a17.35 17.35 0 0 1-17.33-17.35v-73A17.33 17.33 0 0 1 112.12 148h57.58a17.32 17.32 0 0 1 17.3 17.29v11.49a17.31 17.31 0 0 1-17.29 17.29h-26.84a2 2 0 0 0-2 2v42.18a17.39 17.39 0 0 1-17.35 17.35m-11.45-92.25a2 2 0 0 0-2 1.95v73a2 2 0 0 0 2 2h11.45a1.94 1.94 0 0 0 2-2v-42.24a17.35 17.35 0 0 1 17.35-17.33h26.83a2 2 0 0 0 2-1.95v-11.49a2 2 0 0 0-2-1.95zm0 0" class="cls-5"/>
    <path d="M179.35 224.85h-46.13a7.7 7.7 0 1 1 0-15.39h46.13a7.7 7.7 0 0 1 0 15.39M102.49 194.07H56.36a7.67 7.67 0 1 1 0-15.34h46.13a7.67 7.67 0 0 1 0 15.34M102.49 224.85H56.36a7.7 7.7 0 0 1 0-15.39h46.13a7.7 7.7 0 0 1 0 15.39" class="cls-5"/>
</svg>
