<svg xmlns="http://www.w3.org/2000/svg" width="29" height="34">
    <path fill="#757575" fill-rule="evenodd" d="M4.426 17.796a2.16 2.16 0 0 0 1.093 1.694 7.058 7.058 0 0 0 1.652.672 17.682 17.682 0 0 1-1.941 4.295c-.988 1.583-1 3.493-.032 5.241 1.426 2.577 4.575 4.308 7.837 4.308 2.239 0 4.231-1.034 5.607-2.91 1.966-2.684 2.402-6.644 1.165-10.591-1.147-3.66.386-5.612 1.401-6.452a4.575 4.575 0 0 0 3.189 1.292 4.607 4.607 0 0 0 4.602-4.612 4.606 4.606 0 0 0-4.602-4.611 4.607 4.607 0 0 0-4.48 5.652c-1.917 1.404-4.128 4.565-2.581 9.507.976 3.117.678 6.288-.782 8.28-.619.845-1.732 1.852-3.52 1.852-2.312 0-4.604-1.223-5.572-2.972-.357-.646-.652-1.623-.037-2.61a20.187 20.187 0 0 0 2.39-5.52 6.867 6.867 0 0 0 2.227-.746 2.154 2.154 0 0 0 1.119-1.63c3.04-2.755 4.444-7.718 4.525-8.008a1.295 1.295 0 0 0-.639-1.486c.421-3.725-.956-5.603-1.786-6.368a.935.935 0 0 0-.394-.946L13.342.128a.761.761 0 0 0-1.118.296l-.728 1.408c-.218.425-.025.878.432 1.013l1.725.51c.438.129.961-.08 1.209-.464.688.725 1.677 2.341 1.336 5.423a1.29 1.29 0 0 0-1.007.923c-.414 1.491-1.611 4.57-3.388 6.416a2.145 2.145 0 0 0-1.794.099 2.435 2.435 0 0 1-1.12.311h-.078a2.5 2.5 0 0 1-1.183-.344 2.136 2.136 0 0 0-1.769-.144c-1.737-1.854-2.909-4.868-3.316-6.338a1.298 1.298 0 0 0-1.008-.923c-.341-3.082.649-4.697 1.337-5.423.248.384.771.594 1.209.464l1.725-.509c.456-.135.651-.589.431-1.014L5.511.424A.762.762 0 0 0 4.393.129l-1.528.999a.939.939 0 0 0-.393.946C1.643 2.84.265 4.716.686 8.442a1.297 1.297 0 0 0-.639 1.487c.079.284 1.441 5.089 4.379 7.867zm19.971-8.865a1.8 1.8 0 0 1 1.798 1.802 1.8 1.8 0 0 1-1.798 1.801 1.8 1.8 0 0 1-1.798-1.801 1.8 1.8 0 0 1 1.798-1.802z"/>
</svg>
