<?xml version="1.0" encoding="utf-8"?>
<!-- Generator: Adobe Illustrator 22.1.0, SVG Export Plug-In . SVG Version: 6.00 Build 0)  -->
<svg version="1.1" id="Layer_1" xmlns="http://www.w3.org/2000/svg" xmlns:xlink="http://www.w3.org/1999/xlink" x="0px" y="0px"
	 viewBox="0 0 16 9" style="enable-background:new 0 0 16 9;" xml:space="preserve">
<style type="text/css">
	.st0{fill:#FFFFFF;}
</style>
<path id="Forma_1_copy_3" class="st0" d="M0.2,1c-0.2-0.2-0.2-0.6,0-0.8c0.2-0.2,0.5-0.2,0.8,0c0,0,0,0,0,0l7,7.4l7-7.4
	c0.2-0.2,0.5-0.2,0.8,0c0,0,0,0,0,0c0.2,0.2,0.2,0.6,0,0.8L8.4,8.9c-0.2,0.2-0.5,0.2-0.8,0c0,0,0,0,0,0L0.2,1z"/>
</svg>
