<svg xmlns="http://www.w3.org/2000/svg" width="52" height="52">
    <path fill="#F78631" fill-rule="evenodd" d="M26 0c14.359 0 26 11.641 26 26S40.359 52 26 52 0 40.359 0 26 11.641 0 26 0z"/>
    <path fill="#FFF" fill-rule="evenodd" d="M36.269 28.787c-.211-.428-.673-.7-1.181-.7h-5.194V12.575c0-.659-.581-1.194-1.297-1.194h-5.193c-.717 0-1.299.535-1.299 1.194v15.512h-5.192c-.51 0-.972.274-1.182.7-.213.426-.13.925.205 1.278l9.088 9.547c.246.259.602.407.976.407s.73-.15.977-.407l9.087-9.547c.337-.35.415-.852.205-1.278z"/>
</svg>
