<?xml version="1.0" encoding="utf-8"?>
<!-- Generator: Adobe Illustrator 22.1.0, SVG Export Plug-In . SVG Version: 6.00 Build 0)  -->
<svg version="1.1" id="Layer_1" xmlns="http://www.w3.org/2000/svg" xmlns:xlink="http://www.w3.org/1999/xlink" x="0px" y="0px"
	 viewBox="0 0 20 20" style="enable-background:new 0 0 20 20;" xml:space="preserve">
<style type="text/css">
	.st0{fill:#F78631;}
</style>
<path id="_-e-Forma_1" class="st0" d="M12.4,3.3l4.1,4.1L6.2,17.8l-4.1-4.1L12.4,3.3z M19.6,2.3l-1.8-1.8c-0.7-0.7-1.8-0.7-2.5,0
	c0,0,0,0,0,0l-1.7,1.8l4.1,4.1l2-2C20.1,3.8,20.1,2.9,19.6,2.3L19.6,2.3z M0,19.5C0,19.7,0.1,20,0.4,20c0.1,0,0.1,0,0.2,0l4.5-1.1
	L1,14.8L0,19.5z"/>
</svg>
