<svg xmlns="http://www.w3.org/2000/svg" width="18" height="18">
    <path fill="#FB8F3E" fill-rule="evenodd" d="M16.8 16.775H7.107l-.727-2.91a4.133 4.133 0 0 0 .821-2.482c0-2.107-1.57-3.839-3.6-4.133V1.198A1.2 1.2 0 0 1 4.801 0H12v4.793c0 .66.539 1.198 1.2 1.198H18v9.586a1.2 1.2 0 0 1-1.2 1.198zm-6.6-13.18H6.601a.599.599 0 1 0 0 1.198H10.2a.6.6 0 1 0 0-1.198zM15 7.189H7.8a.6.6 0 0 0 0 1.199H15a.6.6 0 0 0 0-1.199zm0 3.595H9a.6.6 0 0 0 0 1.198h6a.6.6 0 1 0 0-1.198zM13.2 0L18 4.793h-4.8V0zM6.001 11.383c0 .852-.363 1.619-.936 2.164l.919 3.682a.602.602 0 0 1-.208.614.606.606 0 0 1-.644.068l-2.131-1.065-2.133 1.065a.604.604 0 0 1-.643-.068.603.603 0 0 1-.207-.614l.919-3.682a2.977 2.977 0 0 1-.936-2.164 3.001 3.001 0 0 1 3-2.995c1.653 0 3 1.344 3 2.995zm-3-1.797a1.8 1.8 0 0 0-1.8 1.797 1.8 1.8 0 0 0 3.6 0 1.8 1.8 0 0 0-1.8-1.797z"/>
</svg>
