<svg id="Layer_1" data-name="Layer 1" xmlns="http://www.w3.org/2000/svg" viewBox="0 0 50 50"><defs><style>.cls-1,.cls-4{fill:none;}.cls-1,.cls-3{stroke:#000;stroke-linecap:round;stroke-miterlimit:10;}.cls-1,.cls-2,.cls-3,.cls-5{fill-rule:evenodd;}.cls-2{fill:#f78631;}.cls-3{fill:#fff;}</style></defs><title>Education</title><path class="cls-1" d="M13.8,2.22H32.12L40.5,10.6V38.83a3,3,0,0,1-3,3H11.14v-37A2.66,2.66,0,0,1,13.8,2.22Zm-2.66,0"/><path class="cls-2" d="M32.12,2.22v7a1.35,1.35,0,0,0,1.35,1.35h7Zm0,0"/><path class="cls-3" d="M9.76,36.66h8V47.78l-4-2.52-4,2.52Zm0,0"/><path class="cls-2" d="M13.77,23.62c.79,0,1.41,1,2.12,1.2s1.75-.17,2.34.26.51,1.55.95,2.14,1.52.85,1.76,1.56-.47,1.6-.47,2.39.7,1.67.47,2.38-1.33,1-1.76,1.57-.36,1.71-.95,2.14-1.63,0-2.34.26-1.33,1.19-2.12,1.19-1.4-1-2.11-1.19-1.75.17-2.34-.26-.51-1.55-1-2.14-1.52-.86-1.76-1.57.47-1.6.47-2.38-.7-1.68-.47-2.39,1.33-1,1.76-1.56.36-1.71,1-2.14,1.63,0,2.34-.26,1.33-1.2,2.11-1.2Zm0,0"/><rect class="cls-4" x="10.22" y="1.3" width="31.3" height="47.41"/><path class="cls-5" d="M15.64,12.15h12a.86.86,0,0,0,.93-.78.86.86,0,0,0-.93-.77h-12a.86.86,0,0,0-.93.77.86.86,0,0,0,.93.78Zm0,0"/><path class="cls-5" d="M36.11,14.5H15.64a.86.86,0,0,0-.93.78.86.86,0,0,0,.93.77H36.11a.87.87,0,0,0,.93-.77.87.87,0,0,0-.93-.78Zm0,0"/><path class="cls-5" d="M32.4,18.4H15.64a.79.79,0,1,0,0,1.55H32.4a.79.79,0,1,0,0-1.55Zm0,0"/><path class="cls-5" d="M36.11,18.4a.79.79,0,1,0,.93.78.87.87,0,0,0-.93-.78Zm0,0"/></svg>