<svg id="Layer_1" data-name="Layer 1" xmlns="http://www.w3.org/2000/svg" viewBox="0 0 50 50"><defs><style>.cls-1{fill:#f78631;}.cls-2,.cls-3{fill:none;}.cls-2{stroke:#000;stroke-miterlimit:10;}</style></defs><title>Experienced</title><path class="cls-1" d="M26.81,29v-1a2.14,2.14,0,1,0-4.27,0v1a2.14,2.14,0,0,0,4.27,0Zm0,0"/><path class="cls-2" d="M28.28,30.22a3.76,3.76,0,0,1-7.21,0H6.35a6,6,0,0,1-2.59-.59V39.4a3.47,3.47,0,0,0,3.46,3.47h34.9a3.48,3.48,0,0,0,3.47-3.47V29.63a6.07,6.07,0,0,1-2.59.59Zm0,0"/><path class="cls-2" d="M42.85,12.66H34.52A6.6,6.6,0,0,0,28,7.11H21.33a6.6,6.6,0,0,0-6.51,5.55H6.49a3.56,3.56,0,0,0-3.61,3.48v8a3.47,3.47,0,0,0,3.47,3.48H20.91a3.72,3.72,0,0,1,1.15-2.55l.07-.05a4.12,4.12,0,0,1,.47-.38l.2-.11a2.49,2.49,0,0,1,.43-.22,2.65,2.65,0,0,1,.37-.12l.32-.1a3.74,3.74,0,0,1,.75-.07,3.67,3.67,0,0,1,.75.07l.32.1a2.29,2.29,0,0,1,.37.12,3.48,3.48,0,0,1,.43.22l.2.11a2.89,2.89,0,0,1,.47.38l.07.05a3.78,3.78,0,0,1,1.16,2.55H43a3.48,3.48,0,0,0,3.47-3.47v-8a3.57,3.57,0,0,0-3.62-3.48Zm-24.69,0a3.36,3.36,0,0,1,3.17-2.3H28a3.35,3.35,0,0,1,3.17,2.3Zm0,0"/><rect class="cls-3" x="2.88" y="7.22" width="44.24" height="35.68"/></svg>