<?xml version="1.0" encoding="utf-8"?>
<!-- Generator: Adobe Illustrator 22.1.0, SVG Export Plug-In . SVG Version: 6.00 Build 0)  -->
<svg version="1.1" id="Layer_1" xmlns="http://www.w3.org/2000/svg" xmlns:xlink="http://www.w3.org/1999/xlink" x="0px" y="0px"
	 viewBox="0 0 18 28" style="enable-background:new 0 0 18 28;" xml:space="preserve">
<style type="text/css">
	.st0{fill:#F78631;}
</style>
<path id="_-e-Shape_1_copy_2" class="st0" d="M2.8,2.7C-0.7,6-0.8,11.5,2.6,14.9c0,0,0.1,0.1,0.1,0.1c1.4,1.4,3.2,2.3,5.2,2.5l0,4.2
	l-2.9,0c-0.3,0-0.5,0.1-0.8,0.3c-0.4,0.4-0.4,1.1,0,1.5c0,0,0,0,0,0c0.2,0.2,0.5,0.3,0.7,0.3l2.9,0l0,2.9c0,0.3,0.1,0.6,0.3,0.8
	c0.4,0.4,1.1,0.4,1.5,0C9.9,27.3,10,27,10,26.8l0-2.9l2.9,0c0.3,0,0.6-0.1,0.8-0.3c0.4-0.4,0.4-1.1,0-1.5c0,0,0,0,0,0
	c-0.2-0.2-0.5-0.3-0.7-0.3l-2.9,0l0-4.2c2-0.2,3.8-1.1,5.2-2.4c3.4-3.3,3.5-8.8,0.2-12.2c0,0-0.1-0.1-0.1-0.1
	C11.9-0.6,6.3-0.7,2.8,2.7z M13.8,13.7c-2.7,2.6-6.9,2.5-9.5-0.1c-2.6-2.6-2.6-6.7,0-9.3c0,0,0.1-0.1,0.1-0.1
	c2.7-2.6,6.9-2.5,9.5,0.1c2.6,2.6,2.6,6.7,0,9.3C13.8,13.6,13.8,13.7,13.8,13.7z"/>
</svg>
