<svg xmlns="http://www.w3.org/2000/svg" width="44" height="44">
    <path fill="#E91E63" fill-rule="evenodd" d="M22 0c12.151 0 22 9.85 22 22s-9.849 22-22 22C9.85 44 0 34.15 0 22S9.85 0 22 0z"/>
    <path fill="#FFF" fill-rule="evenodd" d="M33.001 28.011a.552.552 0 0 1-.517.538.553.553 0 0 1-.578-.484c-.063-.592-.2-1.198-.536-1.703v.557l1.241 4.905a.359.359 0 0 1-.356.429h-.993l-.227 4.085a.644.644 0 0 1-.639.6.647.647 0 0 1-.641-.606l-.188-4.079h-.068l-.229 4.085a.644.644 0 0 1-.638.6.645.645 0 0 1-.641-.606l-.19-4.079h-1.013c-.415 0-.379-.218-.324-.429l1.221-4.886v-.587c-.333.517-.479 1.111-.543 1.714a.553.553 0 0 1-.568.484.552.552 0 0 1-.527-.538 5.958 5.958 0 0 1 .113-1.264 4.798 4.798 0 0 1 .909-1.929 5.3 5.3 0 0 1 1.287-1.183c.12-.077.243-.155.379-.203a1.876 1.876 0 0 1 1.602.008c.175.068.338.18.493.287a5.207 5.207 0 0 1 1.59 1.766c.157.286.281.59.377.901.111.361.187.753.197 1.131 0-.024-.001-.046.001.002v.011c.004.158.006.315.006.473zm-2.856-5.036a1.88 1.88 0 0 1-1.696-.238 1.839 1.839 0 0 1-.77-1.488c0-.353.103-.702.298-.998.32-.488.87-.803 1.458-.831a1.867 1.867 0 0 1 1.542.692c.374.466.493 1.097.321 1.666a1.853 1.853 0 0 1-1.153 1.197z"/>
    <path fill="#FFF" fill-rule="evenodd" d="M32.995 27.527c.002.1-.003-.101 0 0zm-5.517-7.25a9.67 9.67 0 0 0-.608-1.781V23.731c0 .205.004.411-.018.616a5.431 5.431 0 0 0-1.044 2.147 6.263 6.263 0 0 0-.148 1.489c.004.55.386 1.017.911 1.147l-.058 1.121-.421 1.807s-.14.424.306.459l-.171 3.358a1.102 1.102 0 0 1-1.094 1.03c-.58 0-1.069-.468-1.096-1.04l-.326-7.72-.393 7.73a1.104 1.104 0 0 1-1.096 1.031 1.105 1.105 0 0 1-1.094-1.041l-.195-4.614.108-1.889h1.412c.851 0 .82-.757.731-1.121-.066-.269-1.232-4.478-1.232-4.478.122.031.245.047.374.048.845.007 1.563-.691 1.569-1.529a10.577 10.577 0 0 0-.125-1.83 8.252 8.252 0 0 0-.884-2.57 9.198 9.198 0 0 0-2.813-3.146l1.33-1.17c.041-.035 1.689-1.623 3.765-.646.2.094.398.2.583.32.218.143.427.3.629.466.414.346.796.729 1.136 1.145a9.67 9.67 0 0 1 1.287 2.09c.271.584.525 1.358.686 1.979-.975.159-1.682.562-2.011 1.357zm-3.761-8.008c-.779 0-1.541-.29-2.12-.807a3.142 3.142 0 0 1-.923-3.192 3.178 3.178 0 0 1 2.429-2.212 3.206 3.206 0 0 1 3.128 1.173c.729.943.854 2.254.313 3.315a3.198 3.198 0 0 1-2.827 1.723zm-3.145.336a3.061 3.061 0 0 1-2.771 1.782c-.498 0-.994-.123-1.433-.357a3.027 3.027 0 0 1-1.588-2.881 3.034 3.034 0 0 1 2.001-2.59 3.08 3.08 0 0 1 3.241.784 3.01 3.01 0 0 1 .55 3.262zm-4.165 2.265a3.064 3.064 0 0 1 2.624.012l.075.031c.277.125.536.299.784.474a8.61 8.61 0 0 1 2.452 2.672 7.72 7.72 0 0 1 .878 2.287c.082.385.143.778.163 1.17.014.286.016.57.013.856a.9.9 0 0 1-.851.881.906.906 0 0 1-.942-.793 8.036 8.036 0 0 0-.216-1.26 5.426 5.426 0 0 0-.663-1.531v1.192l2.096 7.525a.513.513 0 0 1-.114.448.545.545 0 0 1-.42.196h-1.724l-.387 6.988c-.03.544-.5.984-1.05.982a1.059 1.059 0 0 1-1.047-.992l-.32-6.978h-.087l-.387 6.987c-.03.545-.498.985-1.05.983a1.059 1.059 0 0 1-1.047-.992l-.319-6.978h-1.749a.547.547 0 0 1-.42-.196.535.535 0 0 1-.113-.447l2.1-7.617v-1.118a5.596 5.596 0 0 0-.673 1.548 8.159 8.159 0 0 0-.218 1.26.903.903 0 0 1-.934.794.903.903 0 0 1-.858-.882v-.013c-.003-.317-.008-.636.022-.952.038-.4.099-.792.181-1.186.081-.395.213-.788.364-1.162a7.6 7.6 0 0 1 .551-1.106 8.64 8.64 0 0 1 2.473-2.624c.252-.173.521-.357.813-.459z"/>
</svg>
