<svg xmlns="http://www.w3.org/2000/svg" width="30" height="30">
    <path fill="#E20081" fill-rule="evenodd" d="M29.615 16.636l-.465-.62a1.922 1.922 0 0 1-.018-2.278l.451-.626c.69-.958.37-2.29-.69-2.849l-.69-.362a1.931 1.931 0 0 1-1.022-2.045l.131-.755c.201-1.154-.683-2.223-1.882-2.272l-.784-.03a1.992 1.992 0 0 1-1.832-1.406l-.22-.737c-.332-1.13-1.6-1.713-2.704-1.246l-.721.3c-.785.332-1.7.136-2.272-.491l-.521-.571a2.018 2.018 0 0 0-2.986.025l-.514.577a2.026 2.026 0 0 1-2.265.522l-.727-.295c-1.111-.447-2.366.16-2.686 1.29l-.207.742A1.973 1.973 0 0 1 5.184 4.94l-.784.043c-1.199.068-2.064 1.148-1.845 2.302l.145.755a1.934 1.934 0 0 1-.992 2.057l-.683.375a1.924 1.924 0 0 0-.641 2.854l.465.621a1.92 1.92 0 0 1 .019 2.278l-.452.625c-.69.959-.371 2.291.69 2.85l.69.362a1.933 1.933 0 0 1 1.023 2.044l-.132.755c-.2 1.154.684 2.223 1.882 2.272l.785.031a1.992 1.992 0 0 1 1.831 1.406l.22.737c.332 1.129 1.6 1.713 2.704 1.246l.721-.301a2.019 2.019 0 0 1 2.272.491l.521.571a2.016 2.016 0 0 0 2.986-.025l.514-.577a2.025 2.025 0 0 1 2.266-.521l.727.295c1.111.447 2.365-.16 2.685-1.29l.207-.743a1.971 1.971 0 0 1 1.807-1.43l.784-.043c1.199-.068 2.064-1.148 1.845-2.303l-.144-.755a1.93 1.93 0 0 1 .991-2.056l.684-.375a1.924 1.924 0 0 0 .64-2.855z"/>
    <path fill="#FFF" fill-rule="evenodd" d="M25 19.172a2.417 2.417 0 0 1-2.414 2.414 2.416 2.416 0 0 1-2.413-2.414 2.417 2.417 0 0 1 2.905-2.363 8.23 8.23 0 0 0-3.746-8.826.345.345 0 0 1 .361-.587 8.91 8.91 0 0 1 4.272 7.639c0 .675-.082 1.351-.234 2.013A2.417 2.417 0 0 1 25 19.172zm-6.574 4.148A8.907 8.907 0 0 1 15 24a8.983 8.983 0 0 1-6.42-2.715A2.417 2.417 0 0 1 5 19.172a2.417 2.417 0 0 1 2.414-2.414 2.417 2.417 0 0 1 2.414 2.414c0 .659-.266 1.257-.696 1.693A8.293 8.293 0 0 0 15 23.31a8.227 8.227 0 0 0 3.162-.627.344.344 0 1 1 .264.637zM15 8.828a2.418 2.418 0 0 1-2.315-1.734 8.232 8.232 0 0 0-5.937 7.349.346.346 0 0 1-.344.321l-.025-.001a.345.345 0 0 1-.32-.368 8.923 8.923 0 0 1 6.528-7.99A2.415 2.415 0 0 1 15 4a2.417 2.417 0 0 1 2.414 2.414A2.417 2.417 0 0 1 15 8.828z"/>
</svg>
