<svg xmlns="http://www.w3.org/2000/svg" width="21.312" height="19.968">
    <path fill="#00ACC1" fill-rule="evenodd" d="M15.647 6.795c.315-.3.426-.741.29-1.151a1.135 1.135 0 0 0-.926-.764l-3.871-.551a.501.501 0 0 1-.381-.271L9.028.624a1.143 1.143 0 0 0-1.029-.625c-.439 0-.833.24-1.028.625L5.24 4.059a.506.506 0 0 1-.381.271l-3.871.55c-.435.062-.79.355-.926.765-.136.409-.025.85.29 1.15l2.801 2.673a.492.492 0 0 1 .146.439l-.661 3.774c-.058.333.031.656.25.911.341.397.937.518 1.414.272l3.462-1.782a.53.53 0 0 1 .471 0l3.463 1.782a1.16 1.16 0 0 0 1.413-.272c.22-.255.309-.579.25-.911L12.7 9.907a.489.489 0 0 1 .146-.439l2.801-2.673z"/>
</svg>
