<?xml version="1.0" encoding="utf-8"?>
<!-- Generator: Adobe Illustrator 23.0.1, SVG Export Plug-In . SVG Version: 6.00 Build 0)  -->
<svg version="1.1" id="Layer_1" xmlns="http://www.w3.org/2000/svg" xmlns:xlink="http://www.w3.org/1999/xlink" x="0px" y="0px"
	 viewBox="0 0 40 42" style="enable-background:new 0 0 40 42;" xml:space="preserve">
<style type="text/css">
	.st0{fill-rule:evenodd;clip-rule:evenodd;fill:#FFFFFF;}
</style>
<path class="st0" d="M34,16.2v-1.5c0-3.6-1.3-7.1-3.7-9.7c-2.5-2.6-6-4.1-9.6-4.1h-1.3c-3.6,0-7.1,1.4-9.6,4.1C7.3,7.5,6,11,6,14.6
	v1.5c-2.9,0.2-5.2,2.6-5.3,5.5v2.4c0,3.1,2.5,5.6,5.6,5.6h3.2c0.6,0,1-0.4,1-1V17.2c0-0.6-0.5-1-1-1H8.1v-1.5
	c0-6.7,4.8-11.8,11.3-11.8h1.3c6.4,0,11.3,5.1,11.3,11.8v1.5h-1.5c-0.6,0-1,0.5-1,1v11.5c0,0.6,0.5,1,1,1h1.4
	c-0.4,5.3-4.1,6.5-5.8,6.8C25.5,35,24.1,34,22.6,34H20c-2,0-3.6,1.6-3.6,3.6c0,2,1.6,3.6,3.6,3.6c0,0,0,0,0,0h2.6
	c1.6,0,3.1-1.1,3.5-2.6c1.2-0.2,2.4-0.6,3.5-1.2c1.9-1.1,4.1-3.3,4.4-7.7c3-0.2,5.3-2.6,5.3-5.5v-2.4C39.2,18.8,36.9,16.3,34,16.2z
	 M8.6,27.7H6.4c-2,0-3.6-1.6-3.6-3.5v0v-2.4c0-2,1.6-3.5,3.6-3.5l0,0h2.1V27.7L8.6,27.7z M22.6,39.1H20c-0.8,0.1-1.6-0.6-1.7-1.4
	c-0.1-0.8,0.6-1.6,1.4-1.7c0.1,0,0.2,0,0.2,0h2.6c0.8-0.1,1.6,0.6,1.7,1.4c0.1,0.8-0.6,1.6-1.4,1.7C22.8,39.2,22.7,39.2,22.6,39.1
	L22.6,39.1z M37.2,24.1c0,2-1.6,3.5-3.6,3.5h-2.1v-9.5h2.1c2,0,3.5,1.6,3.6,3.5V24.1L37.2,24.1z"/>
</svg>
