<svg xmlns="http://www.w3.org/2000/svg" id="Layer_1" viewBox="0 0 500 500">
    <style>
        .st0{fill:#f4bf3b}.st1{fill:#edebed}.st2{fill:#ff9843}.st3{fill:#dd3e07}.st4{fill:#fff}
    </style>
    <path d="M42.5 98h420c9.1 0 16.5 7.4 16.5 16.5v244c0 9.1-7.4 16.5-16.5 16.5h-420c-9.1 0-16.5-7.4-16.5-16.5v-244c0-9.1 7.4-16.5 16.5-16.5z" class="st0"/>
    <path d="M26 167.5v-56.4c0-7.8 6.4-14.1 14.2-14.2h424.7c7.8 0 14.1 6.4 14.2 14.2v56.4H26z" class="st1"/>
    <path d="M443.2 151.6H177.1l25.5-39.1h240.6z" class="st2"/>
    <circle cx="72.8" cy="131.5" r="12.1" class="st3"/>
    <circle cx="104.8" cy="131.5" r="12.1" class="st3"/>
    <ellipse cx="136.8" cy="131.5" class="st3" rx="12.1" ry="12.1" transform="rotate(-85.269 136.769 131.499)"/>
    <path d="M216.2 124.7l1.7 7.4c.4 1.7.7 3.5 1 5.3h.1c.3-1.8.9-3.6 1.3-5.2l2.1-7.4h3.4l2 7.2c.5 1.9.9 3.7 1.3 5.4h.1c.3-1.8.6-3.6 1.1-5.4l1.8-7.2h4l-5.1 16.3h-3.9l-1.9-6.6c-.5-1.7-.9-3.4-1.2-5.2h-.1c-.3 1.8-.7 3.5-1.2 5.2l-2.1 6.6h-3.8l-4.8-16.3 4.2-.1zM241.7 124.7l1.7 7.4c.4 1.7.7 3.5 1 5.3h.1c.3-1.8.9-3.6 1.3-5.2l2.1-7.4h3.3l2 7.2c.5 1.9.9 3.7 1.3 5.4h.1c.3-1.8.6-3.6 1.1-5.4l1.8-7.2h4l-5.1 16.3h-3.8l-1.9-6.6c-.5-1.7-.9-3.4-1.2-5.2h-.1c-.3 1.8-.7 3.5-1.2 5.2l-2.1 6.6h-3.9l-4.8-16.3 4.3-.1zM267.2 124.7l1.7 7.4c.4 1.7.7 3.5 1 5.3.3-1.8.9-3.6 1.3-5.2l2.1-7.4h3.3l2 7.2c.5 1.9 1 3.7 1.3 5.4h.1c.3-1.8.6-3.6 1.1-5.4l1.8-7.2h4l-5 16.3h-3.8l-1.9-6.6c-.5-1.7-.9-3.4-1.2-5.2-.3 1.8-.7 3.5-1.2 5.2l-2.1 6.6h-3.8l-4.9-16.3 4.2-.1zM287.8 138.7c-.1-1.4 1-2.6 2.4-2.6h.2c1.5.1 2.6 1.3 2.5 2.8-.1 1.3-1.1 2.4-2.5 2.5-1.4 0-2.5-1.1-2.5-2.4v-.3zM415.5 143.6l-2.5-2.5 8.7-9-9.3-9.1 2.5-2.5 11.8 11.5z" class="st4"/>
    <path d="M398.9 130.3h23.4v3.6h-23.4zM251.4 336.4v-16.1c-9.4-.1-18.7-2.6-26.9-7.3l4.4-15.6c7.8 4.6 16.7 7.2 25.8 7.3 10.5 0 17.6-5.1 17.6-13.1 0-7.5-5.8-12.3-18.1-16.7-17.4-6.3-28.7-14.2-28.7-29.7 0-14.2 9.9-25.2 26.7-28.2v-16.3H266v15.4c7.9.1 15.8 2 22.9 5.5l-4.5 15.2c-7-3.6-14.7-5.6-22.5-5.6-11.6 0-15.8 6-15.8 11.6 0 6.8 6 10.6 20 16.2 18.6 7 26.8 15.9 26.8 30.7 0 14.1-9.8 26.5-28 29.5v17.1l-13.5.1z" class="st4"/>
</svg>
