<svg xmlns="http://www.w3.org/2000/svg" width="45" height="60">
    <path fill="#4C4C4C" fill-rule="evenodd" d="M39.558 59.695H5.35c-2.694 0-4.886-2.219-4.886-4.949V5.254C.464 2.524 2.656.305 5.35.305h25.656c.325 0 .635.13.864.362L44.087 13.04c.229.232.358.547.358.875v40.831c0 2.73-2.193 4.949-4.887 4.949zM32.227 4.529v5.674c0 1.364 1.096 2.475 2.444 2.475h5.603l-8.047-8.149zm9.774 10.623h-7.33c-2.694 0-4.887-2.219-4.887-4.949V2.78H5.35c-1.348 0-2.443 1.11-2.443 2.474v49.492c0 1.364 1.095 2.474 2.443 2.474h34.208c1.348 0 2.443-1.11 2.443-2.474V15.152zm-6.108 29.696H9.015a1.229 1.229 0 0 1-1.221-1.238c0-.684.546-1.237 1.221-1.237h26.878a1.23 1.23 0 0 1 1.222 1.237 1.23 1.23 0 0 1-1.222 1.238zm0-7.424H9.015a1.229 1.229 0 0 1-1.221-1.237c0-.684.546-1.238 1.221-1.238h26.878a1.23 1.23 0 0 1 1.222 1.238 1.23 1.23 0 0 1-1.222 1.237zm0-7.424H9.015a1.228 1.228 0 0 1-1.221-1.237c0-.684.546-1.238 1.221-1.238h26.878a1.23 1.23 0 0 1 1.222 1.238c0 .684-.547 1.237-1.222 1.237zm0-7.424h-14.66a1.228 1.228 0 0 1-1.222-1.237c0-.684.546-1.237 1.222-1.237h14.66c.675 0 1.222.553 1.222 1.237s-.547 1.237-1.222 1.237zM9.015 49.797h14.661c.675 0 1.221.553 1.221 1.237s-.546 1.237-1.221 1.237H9.015a1.228 1.228 0 0 1-1.221-1.237c0-.684.546-1.237 1.221-1.237z"/>
    <path fill="#F78631" fill-rule="evenodd" d="M16.681 9.845h-1.05a5.087 5.087 0 0 0-.879-2.012h1.929c.526 0 .953-.451.953-1.007 0-.555-.427-1.006-.953-1.006H7.159c-.528 0-.954.451-.954 1.006 0 .556.426 1.007.954 1.007h3.807c1.241 0 2.288.843 2.683 2.012h-6.49c-.528 0-.954.451-.954 1.006 0 .556.426 1.006.954 1.006h6.49c-.395 1.17-1.442 2.012-2.683 2.012H7.159a.924.924 0 0 0-.366.077.998.998 0 0 0-.517.545 1.073 1.073 0 0 0 0 .769.974.974 0 0 0 .209.328l7.617 8.047a.923.923 0 0 0 .675.296.926.926 0 0 0 .674-.294 1.045 1.045 0 0 0 0-1.422l-5.996-6.333h1.511c2.303 0 4.224-1.731 4.665-4.025h1.05c.526 0 .953-.45.953-1.006 0-.555-.427-1.006-.953-1.006z"/>
</svg>
