<svg id="Layer_1" data-name="Layer 1" xmlns="http://www.w3.org/2000/svg" viewBox="0 0 50 50"><defs><style>.cls-1{fill:#f78631;}.cls-2{fill:none;stroke:#000;stroke-miterlimit:10;}</style></defs><title>Language</title><polygon class="cls-1" points="15.42 15.28 14.9 15.28 13.92 20.18 16.4 20.18 15.42 15.28"/><path class="cls-1" d="M37.25,28.63a13,13,0,0,0,2.09-3.55h-4.1A12.83,12.83,0,0,0,37.25,28.63Z"/><path class="cls-2" d="M42.23,11.53H27L30.19,37a3.76,3.76,0,0,1-.91,2.78L23.91,45.9H42.23a3.68,3.68,0,0,0,3.67-3.67V15.28A3.75,3.75,0,0,0,42.23,11.53Zm0,13.55H41.9A15.56,15.56,0,0,1,39,30.45c.9.82,1.86,1.49,2.82,2.25a1.22,1.22,0,1,1-1.53,1.91c-1-.82-2-1.51-3-2.4-1,.89-1.87,1.58-2.91,2.4a1.22,1.22,0,1,1-1.53-1.91c.95-.76,1.83-1.43,2.73-2.25a15.48,15.48,0,0,1-2.86-5.37h-.33a1.23,1.23,0,1,1,0-2.45H36V21.41a1.23,1.23,0,1,1,2.45,0v1.22h3.76a1.23,1.23,0,0,1,0,2.45Z"/><path class="cls-2" d="M7.77,38.55H27.09c.35-.4.65-.66.67-1.19,0-.14-3.71-29.91-3.73-30A3.66,3.66,0,0,0,20.39,4.1H7.77A3.68,3.68,0,0,0,4.1,7.77V34.88A3.67,3.67,0,0,0,7.77,38.55Zm4.92-24.73a1.24,1.24,0,0,1,1.21-1h2.53a1.24,1.24,0,0,1,1.2,1l2.45,12.25a1.22,1.22,0,0,1-2.4.48l-.79-3.92H13.43l-.78,3.92a1.22,1.22,0,1,1-2.4-.48Z"/><path d="M20.74,45.53,24.85,41H18.41l.21,1.68A3.7,3.7,0,0,0,20.74,45.53Z"/></svg>