<svg xmlns="http://www.w3.org/2000/svg" width="18" height="18">
    <path fill="#FB8F3E" fill-rule="evenodd" d="M16.418 18H8.531l2.313-2.643c.292-.33.415-.752.39-1.2L9.869 3.199h6.549c.872 0 1.582.745 1.582 1.618v11.601C18 17.29 17.29 18 16.418 18zm0-10.02h-1.617v-.527a.527.527 0 0 0-1.055 0v.527h-1.582a.527.527 0 0 0 0 1.055h.141c.3.963.741 1.716 1.235 2.31-.387.354-.766.645-1.178.97a.527.527 0 0 0 .659.823c.447-.353.832-.649 1.252-1.034.42.385.841.681 1.288 1.034a.527.527 0 0 0 .659-.823c-.412-.325-.826-.616-1.213-.97a6.698 6.698 0 0 0 1.27-2.31h.141a.527.527 0 0 0 0-1.055zm-3.01 1.055h1.766c-.227.612-.565 1.107-.901 1.528a5.487 5.487 0 0 1-.865-1.528zm-3.51 5.801H1.582C.71 14.836 0 14.126 0 13.254V1.582C0 .71.71 0 1.582 0h5.432c.796 0 1.472.596 1.57 1.386.007.057 1.604 12.877 1.603 12.934-.006.23-.135.34-.289.516zM5.826 4.186a.528.528 0 0 0-.517-.424h-1.09a.526.526 0 0 0-.517.424L2.647 9.459a.527.527 0 0 0 .414.62.523.523 0 0 0 .62-.413l.337-1.686h1.491l.337 1.686a.527.527 0 1 0 1.034-.207L5.826 4.186zm-1.175.631h.226l.421 2.109H4.229l.422-2.109zM7.164 17.84a1.594 1.594 0 0 1-.912-1.226l-.091-.723h2.773l-1.77 1.949z"/>
</svg>
