<?xml version="1.0" encoding="utf-8"?>
<!-- Generator: Adobe Illustrator 23.0.3, SVG Export Plug-In . SVG Version: 6.00 Build 0)  -->
<svg version="1.1" id="Layer_1" xmlns="http://www.w3.org/2000/svg" xmlns:xlink="http://www.w3.org/1999/xlink" x="0px" y="0px"
	 viewBox="0 0 36.9 36.9" style="enable-background:new 0 0 36.9 36.9;" xml:space="preserve">
<style type="text/css">
	.st0{fill-rule:evenodd;clip-rule:evenodd;fill:#E4294C;}
	.st1{fill-rule:evenodd;clip-rule:evenodd;fill:#57A90D;}
</style>
<path id="Forma_1" class="st0" d="M28.1,9.7c0-5.3-4.3-9.7-9.7-9.7c-5.3,0-9.7,4.3-9.7,9.7c0,7.7,9.7,19.1,9.7,19.1
	S28.1,17.4,28.1,9.7z M13.7,9.1c0-2.6,2.2-4.8,4.8-4.7c2.6,0,4.8,2.2,4.7,4.8c0,2.6-2.1,4.7-4.8,4.8C15.8,13.9,13.7,11.8,13.7,9.1z
	 M18.5,6.8c1.3,0,2.4,1,2.4,2.4s-1,2.4-2.4,2.4s-2.4-1-2.4-2.4c0,0,0,0,0,0C16.1,7.8,17.2,6.8,18.5,6.8z"/>
<path id="Forma_1-2" class="st1" d="M23.9,25.4c-0.8,1.2-1.5,2.2-2.1,2.9c6.1,0.4,10.1,1.7,11.6,2.7c-1.8,1.2-6.9,2.8-14.9,2.8
	S5.3,32.2,3.5,31c1.5-1,5.5-2.3,11.6-2.7c-0.6-0.8-1.4-1.8-2.1-2.9c-7.5,0.8-13,3-13,5.6c0,3.2,8.3,5.9,18.5,5.9S37,34.3,37,31
	C36.9,28.4,31.5,26.2,23.9,25.4z"/>
</svg>
