<svg xmlns="http://www.w3.org/2000/svg" width="44" height="44">
    <path fill="#EA068C" fill-rule="evenodd" d="M22 0c12.151 0 22 9.85 22 22s-9.849 22-22 22C9.85 44 0 34.15 0 22S9.85 0 22 0z"/>
    <path fill="#FFF" fill-rule="evenodd" d="M35.703 23.712l-6.06 6a.993.993 0 0 1-1.409-.01 1.002 1.002 0 0 1 .01-1.414L32.574 24H20.97a.998.998 0 0 1-.997-1c0-.553.446-1 .997-1h11.604l-4.33-4.288a1 1 0 0 1-.01-1.414.994.994 0 0 1 1.409-.01l6.06 6a1.003 1.003 0 0 1 0 1.424zM23.96 13h-8.97a1 1 0 0 0-.997 1v18a1 1 0 0 0 .997 1h8.97c.551 0 .997.447.997 1 0 .553-.446 1-.997 1h-8.97A2.999 2.999 0 0 1 12 32V14c0-1.654 1.342-3 2.99-3h8.97c.551 0 .997.447.997 1 0 .553-.446 1-.997 1z"/>
</svg>
