<?xml version="1.0" encoding="utf-8"?>
<!-- Generator: Adobe Illustrator 22.1.0, SVG Export Plug-In . SVG Version: 6.00 Build 0)  -->
<svg version="1.1" id="Layer_1" xmlns="http://www.w3.org/2000/svg" xmlns:xlink="http://www.w3.org/1999/xlink" x="0px" y="0px"
	 viewBox="0 0 32 32" style="enable-background:new 0 0 32 32;" xml:space="preserve">
<style type="text/css">
	.st0{fill:#FF7E00;}
	.st1{fill:#DB640E;}
</style>
<path id="_-e-Forma_1" class="st0" d="M28.4,0H3.6C1.6,0,0,1.6,0,3.6c0,0,0,0,0,0v7.1h3.6V3.6h24.9v24.9H3.6v-7.1H0v7.1
	c0,2,1.6,3.6,3.6,3.6c0,0,0,0,0,0h24.9c2,0,3.6-1.6,3.6-3.6c0,0,0,0,0,0V3.6C32,1.6,30.4,0,28.4,0z"/>
<path id="_-e-Forma_1_copy_2" class="st1" d="M12.6,22.4l2.5,2.5L24,16l-8.9-8.9l-2.5,2.5l4.6,4.6H0v3.6h17.2L12.6,22.4z"/>
</svg>
