<svg xmlns="http://www.w3.org/2000/svg" width="14" height="14">
    <path fill="#007381" fill-rule="evenodd" d="M8.536 0a5.47 5.47 0 0 0-5.465 5.465c0 1.218.414 2.411 1.167 3.369l-1.842 1.842L1.12 9.399a.652.652 0 0 0-.464-.192.652.652 0 0 0-.656.656c0 .175.068.34.192.464l1.276 1.277L.192 12.88a.652.652 0 0 0-.192.464.652.652 0 0 0 .656.656c.175 0 .34-.068.464-.192l1.276-1.277 1.277 1.277a.65.65 0 0 0 .464.192.652.652 0 0 0 .656-.656.652.652 0 0 0-.192-.464l-1.277-1.276 1.842-1.842a5.47 5.47 0 0 0 3.37 1.167A5.47 5.47 0 0 0 14 5.465 5.47 5.47 0 0 0 8.536 0zm0 9.617a4.157 4.157 0 0 1-4.153-4.152 4.158 4.158 0 0 1 4.153-4.153 4.157 4.157 0 0 1 4.152 4.153 4.157 4.157 0 0 1-4.152 4.152z"/>
</svg>
