<svg xmlns="http://www.w3.org/2000/svg" width="20" height="26">
    <path fill="#00ACC1" fill-rule="evenodd" d="M17.692 3.047h-.769v2.285a.765.765 0 0 1-.769.762H3.846a.765.765 0 0 1-.769-.762V3.047h-.769C1.035 3.047 0 4.072 0 5.332v18.383C0 24.975 1.035 26 2.308 26h15.384C18.965 26 20 24.975 20 23.715V5.332c0-1.26-1.035-2.285-2.308-2.285zM9.005 19.683L5.928 22.73a.773.773 0 0 1-1.087 0l-1.539-1.523a.758.758 0 0 1 0-1.078.776.776 0 0 1 1.088 0l.995.985 2.533-2.508a.773.773 0 0 1 1.087 0 .755.755 0 0 1 0 1.077zm0-5.383l-3.077 3.047a.773.773 0 0 1-1.087 0l-1.539-1.523a.757.757 0 0 1 0-1.077.774.774 0 0 1 1.088 0l.995.984 2.533-2.508a.774.774 0 0 1 1.087 0 .755.755 0 0 1 0 1.077zm0-5.332l-3.077 3.047a.773.773 0 0 1-1.087 0l-1.539-1.523a.757.757 0 0 1 0-1.077.774.774 0 0 1 1.088 0l.995.984 2.533-2.508a.774.774 0 0 1 1.087 0 .755.755 0 0 1 0 1.077zm7.149 12.462h-4.616a.765.765 0 0 1-.769-.762c0-.421.344-.762.769-.762h4.616c.425 0 .769.341.769.762a.765.765 0 0 1-.769.762zm0-5.383h-4.616a.765.765 0 0 1-.769-.762c0-.421.344-.762.769-.762h4.616c.425 0 .769.341.769.762a.765.765 0 0 1-.769.762zm0-5.332h-4.616a.765.765 0 0 1-.769-.762c0-.421.344-.762.769-.762h4.616c.425 0 .769.341.769.762a.765.765 0 0 1-.769.762z"/>
    <path fill="#006470" fill-rule="evenodd" d="M13.077 1.523h-.901A2.311 2.311 0 0 0 10 0a2.311 2.311 0 0 0-2.176 1.523h-.901c-1.272 0-2.308 1.026-2.308 2.286v.761h10.77v-.761c0-1.26-1.036-2.286-2.308-2.286z"/>
</svg>
