<svg xmlns="http://www.w3.org/2000/svg" width="50" height="41">
    <path fill="#00ACC1" fill-rule="evenodd" d="M46.295 0h-34.31C9.926 0 8.279 1.71 8.279 3.744v21.54c0 2.08 1.693 3.744 3.706 3.744h23.651l5.352 5.454c.229.232.503.37.823.37.641 0 1.19-.508 1.19-1.202v-4.622h3.294c2.058 0 3.705-1.71 3.705-3.744V3.744C50 1.664 48.307 0 46.295 0zM17.246 18.536c-1.876 0-3.431-1.572-3.431-3.467s1.555-3.467 3.431-3.467c1.876 0 3.431 1.572 3.431 3.467s-1.51 3.467-3.431 3.467zm12.031 0c-1.876 0-3.431-1.572-3.431-3.467s1.555-3.467 3.431-3.467c1.875 0 3.431 1.572 3.431 3.467s-1.556 3.467-3.431 3.467zm11.985 0c-1.875 0-3.43-1.572-3.43-3.467s1.555-3.467 3.43-3.467c1.876 0 3.431 1.572 3.431 3.467s-1.555 3.467-3.431 3.467z"/>
    <path fill="#006F7D" fill-rule="evenodd" d="M6.175 25.377v-7.35H2.424C1.098 18.027 0 19.136 0 20.477v14.144c-.046 1.433 1.051 2.542 2.424 2.542h2.15v3.051c0 .416.366.786.778.786a.753.753 0 0 0 .548-.231l3.523-3.559h15.554c1.326 0 2.424-1.11 2.424-2.45v-3.513H11.985c-3.202 0-5.81-2.635-5.81-5.87z"/>
</svg>
