<?xml version="1.0" encoding="utf-8"?>
<!-- Generator: Adobe Illustrator 22.1.0, SVG Export Plug-In . SVG Version: 6.00 Build 0)  -->
<svg version="1.1" id="Layer_1" xmlns="http://www.w3.org/2000/svg" xmlns:xlink="http://www.w3.org/1999/xlink" x="0px" y="0px"
	 viewBox="0 0 21.9 39" style="enable-background:new 0 0 21.9 39;" xml:space="preserve">
<style type="text/css">
	.st0{fill:#E68738;}
</style>
<path id="Forma_1" class="st0" d="M19.1,0H2.8C1.2,0,0,1.3,0,2.8c0,0,0,0,0,0v33.3C0,37.7,1.2,39,2.8,39h16.3c1.6,0,2.8-1.3,2.8-2.8
	V2.8C22,1.3,20.7,0,19.1,0z M6.9,1.7H15c0.4,0.3,0.5,0.8,0.2,1.1C15.2,3,15.1,3,15,3.1H6.9C6.6,2.8,6.5,2.3,6.7,2
	C6.8,1.9,6.8,1.8,6.9,1.7L6.9,1.7z M11,36.2c-1,0-1.8-0.8-1.8-1.8c0-1,0.8-1.8,1.8-1.8c1,0,1.8,0.8,1.8,1.8c0,0,0,0,0,0
	C12.8,35.4,12,36.2,11,36.2z M19.8,30H2.1V4.8h17.7L19.8,30L19.8,30z"/>
</svg>
