<?xml version="1.0" encoding="utf-8"?>
<!-- Generator: Adobe Illustrator 23.0.1, SVG Export Plug-In . SVG Version: 6.00 Build 0)  -->
<svg version="1.1" id="Layer_1" xmlns="http://www.w3.org/2000/svg" xmlns:xlink="http://www.w3.org/1999/xlink" x="0px" y="0px"
	 viewBox="0 0 128 120" style="enable-background:new 0 0 128 120;" xml:space="preserve">
<style type="text/css">
	.st0{fill-rule:evenodd;clip-rule:evenodd;fill:#FFFFFF;}
	.st1{fill-rule:evenodd;clip-rule:evenodd;fill:#F78631;}
	.st2{fill:#F78631;}
	.st3{font-family:'Quicksand-Medium';}
	.st4{font-size:18px;}
</style>
<path class="st0" d="M0,0h99c11,0,20,8.9,20,20l0,0l9,100H0V0z"/>
<path class="st1" d="M75.5,36v-2c0.1-4.5-1.6-8.8-4.7-12.2c-3.1-3.3-7.4-5.1-12-5.1h-1.6c-4.5,0-8.9,1.8-12,5.1s-4.7,7.7-4.7,12.2v2
	c-3.7,0.2-6.5,3.3-6.6,6.9v3c0,3.8,3.2,6.9,7,6.9h4c0.7,0,1.3-0.6,1.3-1.3V37.2c0-0.7-0.6-1.3-1.3-1.3H43V34
	c0-8.4,6.1-14.7,14.1-14.7h1.6c8,0,14.1,6.3,14.1,14.7v1.9H71c-0.7,0-1.3,0.6-1.3,1.3v14.4c0,0.7,0.6,1.3,1.3,1.3h1.8
	c-0.5,6.6-5.1,8.2-7.3,8.5c-0.6-1.8-2.4-3.1-4.3-3.1H58c-2.5,0-4.5,2-4.5,4.5c0,2.5,2,4.5,4.5,4.5h3.2c2,0,3.8-1.3,4.4-3.3
	c1.5-0.2,3-0.7,4.4-1.5c2.3-1.3,5.1-4.1,5.4-9.6c3.7-0.2,6.6-3.2,6.6-6.9v-3C82,39.2,79.1,36.2,75.5,36z M43.7,50.3H41
	c-2.4,0-4.4-2-4.4-4.4v-3c0-2.4,2-4.4,4.4-4.4h2.7V50.3L43.7,50.3z M61.2,64.7H58c-1.1,0-1.9-0.8-1.9-1.9c0-1.1,0.8-1.9,1.9-1.9l0,0
	h3.2c1.1,0,1.9,0.9,1.9,1.9S62.3,64.7,61.2,64.7L61.2,64.7L61.2,64.7z M79.4,45.9c0,2.4-2,4.4-4.4,4.4h-2.7V38.5H75
	c2.4,0,4.4,2,4.4,4.4V45.9L79.4,45.9z"/>
<text transform="matrix(1 0 0 1 8.7129 95.9229)" class="st2 st3 st4">Need Help?</text>
</svg>
