<svg xmlns="http://www.w3.org/2000/svg" width="37" height="37">
    <path fill="#EB813C" fill-rule="evenodd" d="M37.003 26.241v7.115c0 1.184-1.176 2.12-3.496 2.784-1.95.558-4.528.865-7.259.865-2.732 0-5.31-.307-7.26-.865-2.32-.664-3.496-1.6-3.496-2.784v-7.12-.004c.003-1.179 1.181-2.114 3.502-2.778 1.953-.559 4.529-.867 7.254-.867 2.724 0 5.3.308 7.254.867 2.324.665 3.502 1.601 3.502 2.782l-.001.005zm-3.941-1.247c-1.814-.519-4.234-.805-6.814-.805s-5 .286-6.815.805c-1.934.554-2.341 1.148-2.341 1.242 0 .095.407.689 2.341 1.242 1.815.519 4.235.805 6.815.805s5-.286 6.814-.805c1.927-.551 2.338-1.143 2.342-1.24v-.002-.001c-.003-.096-.413-.689-2.342-1.241zm2.342 7.051c-1.132.481-2.447.874-3.872 1.151a.801.801 0 0 1-.305-1.572c1.597-.311 3.029-.772 4.177-1.34v-1.999c-.513.272-1.146.517-1.902.734-1.954.558-4.53.866-7.254.866-2.725 0-5.301-.308-7.254-.866-.756-.217-1.39-.462-1.902-.734v5.071c0 .114.415.695 2.336 1.244 1.811.518 4.233.803 6.82.803 2.587 0 5.009-.285 6.82-.803 1.92-.55 2.336-1.13 2.336-1.244v-1.311zm-6.342 1.508l-.026.003a.8.8 0 0 1-.151-1.595l.018-.002a.8.8 0 1 1 .159 1.594z"/>
    <path fill-rule="evenodd" d="M25.118 12.057L14.634 30.175a.467.467 0 0 1-.038.06 8.059 8.059 0 0 1-6.586 3.401 7.998 7.998 0 0 1-3.996-1.072c-3.837-2.218-5.156-7.147-2.941-10.989l5.063-8.779.001-.003.002-.002 5.063-8.78a8.07 8.07 0 0 1 6.979-4.016c1.401 0 2.783.371 3.996 1.072a7.989 7.989 0 0 1 3.739 4.896 7.976 7.976 0 0 1-.798 6.094zM2.459 22.376c-1.774 3.077-.718 7.024 2.355 8.8a6.397 6.397 0 0 0 3.196.858 6.457 6.457 0 0 0 5.258-2.694l4.987-8.618-9.399-5.433h-.001l-1.732-1.001-4.664 8.088zm21.912-16a6.397 6.397 0 0 0-2.994-3.921 6.384 6.384 0 0 0-3.196-.858 6.467 6.467 0 0 0-5.594 3.215l-4.664 8.089 1.04.6 2.238-3.881a.8.8 0 1 1 1.385.801l-2.238 3.881 8.709 5.034 4.676-8.082a6.389 6.389 0 0 0 .638-4.878zM13.775 8.359a.8.8 0 1 1-1.385-.801l.013-.022a.799.799 0 1 1 1.385.801l-.013.022z"/>
</svg>
