<svg id="_-e-Group_12" data-name="-e-Group 12" xmlns="http://www.w3.org/2000/svg" width="28.625" height="28" viewBox="0 0 28.625 28">
  <metadata><?xpacket begin="﻿" id="W5M0MpCehiHzreSzNTczkc9d"?>
<x:xmpmeta xmlns:x="adobe:ns:meta/" x:xmptk="Adobe XMP Core 5.6-c140 79.160451, 2017/05/06-01:08:21        ">
   <rdf:RDF xmlns:rdf="http://www.w3.org/1999/02/22-rdf-syntax-ns#">
      <rdf:Description rdf:about=""/>
   </rdf:RDF>
</x:xmpmeta>
                                                                                                    
                                                                                                    
                                                                                                    
                                                                                                    
                                                                                                    
                                                                                                    
                                                                                                    
                                                                                                    
                                                                                                    
                                                                                                    
                                                                                                    
                                                                                                    
                                                                                                    
                                                                                                    
                                                                                                    
                                                                                                    
                                                                                                    
                                                                                                    
                                                                                                    
                                                                                                    
                           
<?xpacket end="w"?></metadata>
<defs>
    <style>
      .cls-1 {
        fill: #fff;
      }

      .cls-2 {
        fill: #00acc1;
        fill-rule: evenodd;
      }
    </style>
  </defs>
  <ellipse id="_-e-Ellipse_1_copy" data-name="-e-Ellipse 1 copy" class="cls-1" cx="14.313" cy="14" rx="14.313" ry="14"/>
  <path id="_-e-Forma_1" data-name="-e-Forma 1" class="cls-2" d="M378.147,103.821L377.031,102a5.32,5.32,0,0,1-.789-2.783v-1.6a4.475,4.475,0,0,0-3.252-4.267V92.212a1.3,1.3,0,0,0-2.6,0v1.142a4.474,4.474,0,0,0-3.252,4.267v1.6a5.322,5.322,0,0,1-.788,2.782l-1.116,1.822a0.309,0.309,0,0,0,0,.32,0.324,0.324,0,0,0,.282.162h12.359a0.328,0.328,0,0,0,.283-0.161A0.313,0.313,0,0,0,378.147,103.821Zm-8.507,1.118a2.285,2.285,0,0,0,4.1,0h-4.1Z" transform="translate(-357.375 -85)"/>
</svg>
