<?xml version="1.0" encoding="utf-8"?>
<!-- Generator: Adobe Illustrator 22.1.0, SVG Export Plug-In . SVG Version: 6.00 Build 0)  -->
<svg version="1.1" id="Layer_1" xmlns="http://www.w3.org/2000/svg" xmlns:xlink="http://www.w3.org/1999/xlink" x="0px" y="0px"
	 viewBox="0 0 33 42" style="enable-background:new 0 0 33 42;" xml:space="preserve">
<style type="text/css">
	.st0{fill:#FF7E00;}
	.st1{fill:#DB640E;}
</style>
<path id="_-e-Forma_1" class="st0" d="M32.9,35.4l-2.8-5c-1.3-2.3-2-5-2-7.7v-4.4c0.1-5.3-3.2-10-8.2-11.7V3.5
	c0-1.8-1.5-3.3-3.3-3.3s-3.3,1.5-3.3,3.3c0,0,0,0,0,0v3.1c-5,1.7-8.3,6.4-8.2,11.7v4.4c0,2.7-0.7,5.3-2,7.7l-2.8,5
	C0,35.7,0,36,0.1,36.3c0.1,0.3,0.4,0.4,0.7,0.4h31.3c0.3,0,0.6-0.2,0.7-0.4C33,36,33,35.7,32.9,35.4z"/>
<path id="_-e-Forma_1_copy" class="st1" d="M11.3,38.5c1.2,2.9,4.4,4.3,7.3,3.1c1.4-0.6,2.5-1.7,3.1-3.1H11.3z"/>
</svg>
