<svg xmlns="http://www.w3.org/2000/svg" width="44" height="44">
    <path fill="#F78631" fill-rule="evenodd" d="M22 0c12.151 0 22 9.85 22 22s-9.849 22-22 22C9.85 44 0 34.15 0 22S9.85 0 22 0z"/>
    <path fill="#FFF" fill-rule="evenodd" d="M32.828 14.575l-5.832-5.416A.604.604 0 0 0 26.583 9h-12.25C13.047 9 12 9.972 12 11.167v21.666C12 34.028 13.047 35 14.333 35h16.334C31.953 35 33 34.028 33 32.833V14.958a.52.52 0 0 0-.172-.383zM17.25 31.75c-.965 0-1.75-.729-1.75-1.625s.785-1.625 1.75-1.625 1.75.729 1.75 1.625-.785 1.625-1.75 1.625zm0-5.417c-.965 0-1.75-.729-1.75-1.625s.785-1.625 1.75-1.625 1.75.729 1.75 1.625-.785 1.625-1.75 1.625zm3.5-5.416h-2.333c-.323 0-.584-.243-.584-.542V18.75h-1.75c-.322 0-.583-.242-.583-.542v-2.166c0-.3.261-.542.583-.542h1.75v-1.625c0-.299.261-.542.584-.542h2.333c.322 0 .583.243.583.542V15.5h1.75c.323 0 .584.242.584.542v2.166c0 .3-.261.542-.584.542h-1.75v1.625c0 .299-.261.542-.583.542zm8.167 9.75h-7c-.323 0-.584-.243-.584-.542 0-.299.261-.542.584-.542h7c.322 0 .583.243.583.542 0 .299-.261.542-.583.542zm0-5.417h-7c-.323 0-.584-.242-.584-.542 0-.299.261-.541.584-.541h7c.322 0 .583.242.583.541 0 .3-.261.542-.583.542zm-.584-10.833c-.643 0-1.166-.486-1.166-1.084v-2.484l3.841 3.568h-2.675z"/>
</svg>
