<svg xmlns="http://www.w3.org/2000/svg" width="28" height="26">
    <path fill="#00ACC1" fill-rule="evenodd" d="M27.532 9.708L14.699.264c-.466-.354-.933-.354-1.4 0L.467 9.708c-.934.591-.35 2.125.7 2.125H3.5V24.82c0 .708.466 1.18 1.166 1.18h18.666c.7 0 1.166-.472 1.166-1.18V11.833h2.334c1.05 0 1.633-1.534.7-2.125zM13.999 23.639c-3.85 0-6.999-3.187-6.999-7.083 0-3.896 3.149-7.084 6.999-7.084 3.85 0 7 3.188 7 7.084 0 3.896-3.15 7.083-7 7.083z"/>
    <path fill="#006470" fill-rule="evenodd" d="M15.749 14.785v-3.542h-3.5v3.542H8.75v3.542h3.499v3.541h3.5v-3.541h3.5v-3.542h-3.5z"/>
</svg>
