<?xml version="1.0" standalone="no"?>
<!DOCTYPE svg PUBLIC "-//W3C//DTD SVG 20010904//EN"
 "http://www.w3.org/TR/2001/REC-SVG-20010904/DTD/svg10.dtd">
<svg version="1.0" xmlns="http://www.w3.org/2000/svg"
 width="40.000000pt" height="12.000000pt" viewBox="0 0 40.000000 12.000000"
 preserveAspectRatio="xMidYMid meet">
<metadata>
Created by potrace 1.15, written by Peter Selinger 2001-2017
</metadata>
<g transform="translate(0.000000,12.000000) scale(0.100000,-0.100000)"
fill="#000000" stroke="none">
<path d="M247 113 c-4 -3 -17 -7 -29 -8 -14 -1 -25 -10 -29 -26 -7 -23 -7 -23
-8 -2 -1 24 -16 39 -26 24 -4 -7 -15 -7 -31 -1 -29 12 -48 4 -40 -16 3 -7 0
-16 -6 -20 -6 -4 -8 -3 -4 4 9 16 -23 44 -48 40 -18 -3 -21 -11 -24 -55 -3
-48 -1 -53 18 -53 12 0 19 4 16 9 -10 16 26 22 38 6 9 -12 26 -15 76 -13 l65
3 3 33 c4 43 22 41 22 -3 0 -50 27 -48 33 3 l4 37 1 -37 c2 -30 6 -38 21 -38
15 0 21 8 24 38 l4 37 1 -37 c3 -52 29 -52 35 0 l4 37 1 -37 c1 -26 7 -38 17
-38 19 0 21 83 3 97 -7 6 -37 9 -65 8 -29 -1 -53 2 -53 6 0 11 -14 12 -23 2z"/>
</g>
</svg>
