<svg xmlns="http://www.w3.org/2000/svg" width="124" height="124">
    <path fill="#FFF" fill-rule="evenodd" stroke="#000" stroke-width="2" d="M62 5c31.48 0 57 25.52 57 57s-25.52 57-57 57S5 93.48 5 62 30.52 5 62 5z"/>
    <path fill="#F78631" fill-rule="evenodd" d="M85.297 96H40.703A2.708 2.708 0 0 1 38 93.294V29.706A2.708 2.708 0 0 1 40.703 27h32.658c.104 0 .208.014.309.039.025.006.048.016.072.024.094.028.182.065.267.111.03.018.06.034.09.053.097.065.188.138.267.226.003.004.008.005.011.01l13.288 15.196c.218.247.318.559.322.876.005.051.013.101.013.152v49.607A2.708 2.708 0 0 1 85.297 96zm-11.775-3.365h3.72v-6.598h5.886v-3.021h-5.886v-3.749h6.3v-3.043h-10.02v16.411zm-16.93-.073c.926.122 2.287.243 4.209.243 3.209 0 5.836-.682 7.561-2.118 1.582-1.339 2.725-3.506 2.726-6.648 0-2.898-1.07-4.918-2.773-6.185-1.582-1.193-3.601-1.753-6.712-1.753-1.873 0-3.649.123-5.011.341v16.12zm-14.132.073h3.672v-5.868c.339.048.778.073 1.264.073 2.189 0 4.062-.537 5.326-1.73.974-.924 1.508-2.288 1.508-3.896 0-1.607-.704-2.97-1.75-3.798-1.094-.876-2.724-1.315-5.01-1.315-2.262 0-3.868.147-5.01.341v16.193zm42.837-47.732H73.361a1.352 1.352 0 0 1-1.352-1.353V29.706H40.703v43.238h44.596l-.002-28.041zM44.89 64.497l.093-.106c1.41-1.615 3.23-3.023 5.415-4.192.93-3.624 2.848-11.17 3.58-14.666-1.127-1.103-1.747-1.754-1.776-1.784-1.828-2.034-2.523-3.788-2.091-5.234.392-1.307 1.617-1.95 2.278-2.123 1.065-.291 2.087-.037 2.782.727 1.062 1.17 1.433 3.552 1.099 7.08a8.742 8.742 0 0 1-.092.642c2.531 2.433 7.259 6.773 13.031 11.11a71.822 71.822 0 0 1 2.749-.052c2.923 0 4.827.174 4.907.181.221.008 2.69.144 4.017 1.704.629.741.893 1.689.762 2.74l-.023.126c-.467 1.84-1.722 2.895-3.441 2.895-1.202-.001-2.229-.508-2.342-.567l-.077-.044a110.944 110.944 0 0 1-7.185-4.925c-4.721.228-11.233 1.045-16.444 3.581l-.361 1.395c-1.493 5.507-4.276 6.1-5.403 6.1-.257 0-.404-.032-.404-.032l-.162-.043a2.155 2.155 0 0 1-1.289-1.224c-.521-1.273.173-2.857.318-3.163l.059-.126zm31.899-3.312c.14.064.754.33 1.391.33.549 0 1.148-.157 1.46-1.303.046-.462-.05-.816-.302-1.113-.643-.756-2.134-.977-2.605-.994-.074-.006-1.954-.177-4.775-.177h-.04a105.707 105.707 0 0 0 4.871 3.257zm-23.118-22.7c-.191-.21-.406-.229-.759-.133-.006.002-.707.209-.863.756-.094.327-.121 1.3 1.64 3.262 0 0 .222.233.638.652.147-2.629-.224-4.063-.656-4.537zm12.403 17.657l-.072-.054.049-.002a149.875 149.875 0 0 1-10.333-8.882l-.002.015-.027-.025c-.731 3.251-2.002 8.313-2.884 11.769l.004-.001-.03.116c4.32-1.782 9.205-2.589 13.295-2.936zM46.389 67.017c.005.014.01.026.021.038.433-.018 2.1-.339 3.247-4.054-1.177.786-2.198 1.659-3.047 2.611-.198.48-.333 1.135-.221 1.405zm4.169 14.296c0 1.679-1.215 2.678-3.187 2.678-.533 0-.922-.025-1.239-.097v-4.847c.268-.072.779-.145 1.532-.145 1.848 0 2.894.901 2.894 2.411zm16.59 2.848c0 3.921-2.19 5.771-5.545 5.747-.462 0-.972 0-1.29-.074V79.096c.317-.073.851-.146 1.679-.146 3.186 0 5.179 1.802 5.156 5.211z"/>
</svg>
