<svg xmlns="http://www.w3.org/2000/svg" width="38" height="43">
    <path fill-rule="evenodd" d="M35.43-.014H10.704c-1.415 0-2.567 1.171-2.567 2.609v5.838C3.447 9.798.004 14.196.004 19.397c0 5.2 3.443 9.599 8.133 10.964v10.044c0 1.438 1.152 2.609 2.567 2.609H30.91c.24 0 .47-.097.639-.269l6.183-6.285a.93.93 0 0 0 .264-.65V2.595c0-1.438-1.151-2.609-2.566-2.609zM10.704 1.824H35.43c.418 0 .759.346.759.771v2.773H9.945V2.595c0-.425.34-.771.759-.771zM1.811 19.397c0-5.274 4.221-9.564 9.408-9.564 5.188 0 9.408 4.29 9.408 9.564 0 5.273-4.22 9.564-9.408 9.564-5.187 0-9.408-4.291-9.408-9.564zm8.134 21.008v-9.681c.419.049.844.074 1.274.074 3.369 0 6.396-1.518 8.453-3.916h5.538a.91.91 0 0 0 .904-.919.911.911 0 0 0-.904-.919h-4.25a11.45 11.45 0 0 0 1.432-4.659h2.818a.911.911 0 0 0 .904-.919.911.911 0 0 0-.904-.918h-2.806a11.47 11.47 0 0 0-1.368-4.659h4.174a.912.912 0 0 0 .904-.919.911.911 0 0 0-.904-.919h-5.421c-2.059-2.479-5.136-4.056-8.57-4.056-.431 0-.856.026-1.274.074v-.863h26.243v27.685h-3.616c-1.415 0-2.566 1.17-2.566 2.609v3.676H10.704a.766.766 0 0 1-.759-.771zm21.869-.529V37.5c0-.425.34-.771.758-.771h2.338l-3.096 3.147z"/>
    <path fill="#EB813C" fill-rule="evenodd" d="M31.763 26.882h-3.001a.91.91 0 0 1-.904-.919c0-.507.404-.919.904-.919h3.001c.499 0 .904.412.904.919a.911.911 0 0 1-.904.919zm0-6.497h-3.001a.91.91 0 0 1-.904-.919.91.91 0 0 1 .904-.918h3.001c.499 0 .904.411.904.918a.911.911 0 0 1-.904.919zm0-6.496h-3.001a.911.911 0 0 1-.904-.919.91.91 0 0 1 .904-.919h3.001c.499 0 .904.411.904.919a.912.912 0 0 1-.904.919zm.904 18.571a.912.912 0 0 1-.904.919h-8.455a.912.912 0 0 1-.904-.919c0-.508.405-.919.904-.919h8.455c.499 0 .904.411.904.919zm-22.429-7.307a1.545 1.545 0 0 1-1.111.468 1.55 1.55 0 0 1-1.112-.468l-3.813-3.877a1.619 1.619 0 0 1 0-2.26l1.103-1.121a1.547 1.547 0 0 1 1.111-.468c.42 0 .815.166 1.112.468l1.599 1.625 5.784-5.879a1.548 1.548 0 0 1 2.223 0l1.103 1.121a1.619 1.619 0 0 1 0 2.26l-7.999 8.131zm5.784-10.044l-6.256 6.36a.893.893 0 0 1-1.278 0l-2.072-2.105-.77.782 3.481 3.538 7.665-7.792-.77-.783z"/>
</svg>
