<?xml version="1.0" encoding="utf-8"?>
<!-- Generator: Adobe Illustrator 23.0.1, SVG Export Plug-In . SVG Version: 6.00 Build 0)  -->
<svg version="1.1" id="Layer_1" xmlns="http://www.w3.org/2000/svg" xmlns:xlink="http://www.w3.org/1999/xlink" x="0px" y="0px"
	 viewBox="0 0 20 19" style="enable-background:new 0 0 20 19;" xml:space="preserve">
<style type="text/css">
	.st0{fill-rule:evenodd;clip-rule:evenodd;fill:#E46731;}
</style>
<path id="_-e-Forma_1_copy_10" class="st0" d="M10.5,0.3l2.5,6l6.5,0.6c0.3,0,0.5,0.3,0.5,0.6c0,0.1-0.1,0.3-0.2,0.3L14.9,12
	l1.5,6.3c0.1,0.3-0.1,0.5-0.4,0.6c-0.1,0-0.3,0-0.4-0.1L10,15.6l-5.6,3.4c-0.2,0.1-0.6,0.1-0.7-0.2c-0.1-0.1-0.1-0.3-0.1-0.4L5.1,12
	L0.2,7.8C0,7.6-0.1,7.2,0.1,7c0.1-0.1,0.2-0.2,0.3-0.2L7,6.3l2.5-6C9.6,0,9.9-0.1,10.2,0C10.3,0.1,10.4,0.2,10.5,0.3z"/>
</svg>
