<?xml version="1.0" encoding="utf-8"?>
<!-- Generator: Adobe Illustrator 23.0.1, SVG Export Plug-In . SVG Version: 6.00 Build 0)  -->
<svg version="1.1" id="Layer_1" xmlns="http://www.w3.org/2000/svg" xmlns:xlink="http://www.w3.org/1999/xlink" x="0px" y="0px"
	 viewBox="0 0 31 31" style="enable-background:new 0 0 31 31;" xml:space="preserve">
<style type="text/css">
	.st0{fill-rule:evenodd;clip-rule:evenodd;fill:#E20081;}
</style>
<path id="_-e-Forma_1" class="st0" d="M29,20.2c0.2-1,0.4-2.1,0.4-3.1c0-4.8-2.5-9.3-6.6-11.8c-0.3-0.2-0.6-0.1-0.7,0.2
	C21.9,5.7,22,6,22.2,6.2c0,0,0,0,0,0c4.7,2.8,7,8.3,5.8,13.7c-0.3,0-0.5-0.1-0.8-0.1c-2.1,0-3.7,1.7-3.7,3.7c0,2.1,1.7,3.7,3.7,3.7
	c2.1,0,3.7-1.7,3.7-3.7C31,22.1,30.2,20.9,29,20.2z M20.4,29c-4.8,2-10.3,0.9-14-2.8c1.4-1.5,1.4-3.8,0-5.3s-3.8-1.4-5.3,0
	c-1.4,1.5-1.4,3.8,0,5.3c0.7,0.7,1.6,1.1,2.6,1.1c0.6,0,1.3-0.2,1.8-0.5c4,4.1,10,5.3,15.3,3.2c0.3-0.1,0.4-0.4,0.3-0.7
	C21,29,20.7,28.8,20.4,29C20.4,29,20.4,29,20.4,29L20.4,29z M2.1,16.7L2.1,16.7c0.3,0,0.5-0.2,0.6-0.5c0.4-5.4,4-9.9,9.2-11.4
	c0.6,2,2.7,3.1,4.6,2.6s3.1-2.7,2.6-4.6c-0.6-2-2.7-3.1-4.6-2.6c-1.6,0.5-2.7,1.9-2.7,3.6C6.1,5.3,2,10.3,1.6,16.1
	C1.6,16.4,1.8,16.7,2.1,16.7C2.1,16.7,2.1,16.7,2.1,16.7L2.1,16.7z"/>
</svg>
