<svg xmlns="http://www.w3.org/2000/svg" width="66" height="62">
    <defs>
        <linearGradient id="a" x1="100%" x2="0%" y1="0%" y2="0%">
            <stop offset="0%" stop-color="#F78631"/>
            <stop offset="100%" stop-color="#FF6D00"/>
        </linearGradient>
    </defs>
    <path fill="#FB9415" fill-rule="evenodd" d="M34.525 1.019l8.337 19.565 21.345 1.818c1.48.127 2.083 1.958.959 2.922l-16.19 13.907 4.851 20.688c.337 1.438-1.234 2.569-2.506 1.805L32.977 50.756 14.634 61.724c-1.275.761-2.843-.37-2.507-1.805l4.852-20.688L.786 25.321c-1.124-.964-.525-2.796.958-2.922l21.345-1.819 8.337-19.561c.579-1.361 2.52-1.361 3.099 0z"/>
    <path fill="url(#a)" d="M34.525 1.019l8.337 19.565 21.345 1.818c1.48.127 2.083 1.958.959 2.922l-16.19 13.907 4.851 20.688c.337 1.438-1.234 2.569-2.506 1.805L32.977 50.756 14.634 61.724c-1.275.761-2.843-.37-2.507-1.805l4.852-20.688L.786 25.321c-1.124-.964-.525-2.796.958-2.922l21.345-1.819 8.337-19.561c.579-1.361 2.52-1.361 3.099 0z"/>
</svg>
