<?xml version="1.0" encoding="utf-8"?>
<!-- Generator: Adobe Illustrator 23.0.1, SVG Export Plug-In . SVG Version: 6.00 Build 0)  -->
<svg version="1.1" id="Layer_1" xmlns="http://www.w3.org/2000/svg" xmlns:xlink="http://www.w3.org/1999/xlink" x="0px" y="0px"
	 viewBox="0 0 37 37" style="enable-background:new 0 0 37 37;" xml:space="preserve">
<style type="text/css">
	.st0{fill:#FF6200;}
	.st1{fill-rule:evenodd;clip-rule:evenodd;fill:#FFFFFF;}
</style>
<circle class="st0" cx="18.5" cy="18.5" r="18.5"/>
<path id="Forma_1" class="st1" d="M23.2,22.2c-1,0-2,0.4-2.7,1.1c-0.2,0.2-0.4,0.4-0.5,0.7l-6.6-4.1c0.4-0.9,0.4-2,0-2.9L20,13
	c0.7,1.1,1.9,1.8,3.2,1.8c2.2,0,3.9-1.7,4-3.8c0-2.2-1.7-3.9-3.8-4s-3.9,1.7-4,3.8c0,0,0,0.1,0,0.1c0,0.5,0.1,0.9,0.3,1.4L13,16.3
	c-0.7-1.1-1.9-1.8-3.2-1.8c-2.2,0-3.9,1.7-3.9,3.9c0,2.2,1.7,3.9,3.9,3.9c1.3,0,2.5-0.7,3.2-1.8l6.6,4.1c-0.2,0.4-0.3,0.9-0.3,1.4
	c0,1,0.4,2,1.1,2.8c1.4,1.5,3.8,1.5,5.3,0.1c0,0,0.1-0.1,0.1-0.1c1.5-1.5,1.5-4,0-5.5C25.2,22.6,24.2,22.2,23.2,22.2z"/>
</svg>
