<svg xmlns="http://www.w3.org/2000/svg" width="30" height="30">
    <path fill="#E20081" fill-rule="evenodd" d="M29.132 13.738a1.92 1.92 0 0 0 .019 2.278l.464.62c.709.952.408 2.29-.64 2.855l-.683.374a1.933 1.933 0 0 0-.992 2.057l.144.755c.22 1.155-.646 2.235-1.844 2.303l-.785.043c-.853.043-1.58.62-1.806 1.43l-.207.743c-.32 1.13-1.575 1.738-2.686 1.289l-.727-.294a2.023 2.023 0 0 0-2.265.521l-.515.578c-.784.89-2.183.896-2.986.024l-.521-.571a2.02 2.02 0 0 0-2.271-.491l-.722.301c-1.104.466-2.371-.117-2.704-1.246l-.219-.737a1.994 1.994 0 0 0-1.832-1.406l-.784-.031c-1.199-.049-2.083-1.117-1.883-2.271l.132-.756a1.934 1.934 0 0 0-1.022-2.044l-.69-.362c-1.061-.559-1.381-1.892-.691-2.849l.452-.626a1.92 1.92 0 0 0-.019-2.278l-.464-.62a1.925 1.925 0 0 1 .64-2.855l.684-.375A1.933 1.933 0 0 0 2.7 8.04l-.144-.755c-.219-1.154.646-2.235 1.845-2.302l.783-.043a1.971 1.971 0 0 0 1.807-1.431l.207-.743c.32-1.129 1.575-1.737 2.686-1.289l.728.295c.79.319 1.699.11 2.264-.522l.515-.577a2.017 2.017 0 0 1 2.986-.025l.521.571a2.018 2.018 0 0 0 2.271.491l.721-.3c1.105-.467 2.372.116 2.704 1.246l.22.737a1.993 1.993 0 0 0 1.832 1.406l.785.031c1.198.048 2.082 1.117 1.881 2.271l-.131.755a1.932 1.932 0 0 0 1.023 2.045l.69.362c1.06.559 1.38 1.891.69 2.849l-.452.626zM9.875 8.012c-2.146 0-3.882 1.7-3.882 3.801 0 2.094 1.736 3.802 3.882 3.802 2.147 0 3.882-1.7 3.882-3.802 0-2.101-1.735-3.801-3.882-3.801zm10.81.286a.962.962 0 0 0-1.333.123L9.165 20.436a.917.917 0 0 0 .127 1.306.962.962 0 0 0 1.332-.124L20.812 9.603a.915.915 0 0 0-.127-1.305zm-.576 6.111c-2.146 0-3.882 1.7-3.882 3.802 0 2.101 1.736 3.801 3.882 3.801s3.882-1.7 3.882-3.801c0-2.102-1.736-3.802-3.882-3.802zm0 5.378c-.889 0-1.609-.706-1.609-1.576 0-.871.72-1.577 1.609-1.577s1.61.706 1.61 1.577c0 .87-.721 1.576-1.61 1.576zM9.883 13.389c-.889 0-1.609-.705-1.609-1.576 0-.87.72-1.576 1.609-1.576s1.61.706 1.61 1.576c0 .871-.721 1.576-1.61 1.576z"/>
</svg>
