<svg xmlns="http://www.w3.org/2000/svg" width="56" height="53">
    <defs>
        <linearGradient id="a" x1="100%" x2="0%" y1="0%" y2="0%">
            <stop offset="0%" stop-color="#F78631"/>
            <stop offset="100%" stop-color="#FF6D00"/>
        </linearGradient>
    </defs>
    <path fill-rule="evenodd" d="M54.795 25.267a3.981 3.981 0 0 1-2.843 1.158h-5.051v-3.674h5.051c.234 0 .335-.099.335-.331V3.972c0-.232-.101-.331-.335-.331h-36.13c-.234 0-.334.099-.334.331v5.746h-3.78V3.972c0-2.25 1.839-3.972 4.114-3.972h36.13c1.104 0 2.066.405 2.843 1.159C55.59 1.928 56 2.846 56 3.972V22.42c0 1.126-.41 2.077-1.205 2.847zM44.054 12.782c.769.794 1.171 1.754 1.171 2.88v26.415c0 1.093-.393 2.06-1.171 2.847-.761.769-1.739 1.158-2.876 1.158h-7.761V53l-12.578-6.918H4.048c-1.138 0-2.116-.389-2.878-1.158A3.935 3.935 0 0 1 0 42.077V15.662c0-1.125.401-2.086 1.17-2.879.77-.796 1.74-1.192 2.878-1.192h37.13c1.137 0 2.107.396 2.876 1.191zm-40.341 2.88v26.415c0 .232.1.331.335.331h17.795l.837.43 7.057 3.939v-4.369h11.441c.234 0 .334-.099.334-.331V15.662c0-.298-.1-.43-.334-.43H4.048c-.235 0-.335.132-.335.43zm30.34 10.956H11.172c-1.036 0-1.839-.794-1.839-1.82s.803-1.821 1.839-1.821h22.881c1.037 0 1.839.795 1.839 1.821 0 1.026-.802 1.82-1.839 1.82zm-13.347 4.469h13.347c1.037 0 1.839.828 1.839 1.854 0 1.026-.802 1.82-1.839 1.82H20.706c-1.037 0-1.873-.794-1.873-1.82a1.86 1.86 0 0 1 1.873-1.854z"/>
    <path fill="url(#a)" d="M54.795 25.267a3.981 3.981 0 0 1-2.843 1.158h-5.051v-3.674h5.051c.234 0 .335-.099.335-.331V3.972c0-.232-.101-.331-.335-.331h-36.13c-.234 0-.334.099-.334.331v5.746h-3.78V3.972c0-2.25 1.839-3.972 4.114-3.972h36.13c1.104 0 2.066.405 2.843 1.159C55.59 1.928 56 2.846 56 3.972V22.42c0 1.126-.41 2.077-1.205 2.847zM44.054 12.782c.769.794 1.171 1.754 1.171 2.88v26.415c0 1.093-.393 2.06-1.171 2.847-.761.769-1.739 1.158-2.876 1.158h-7.761V53l-12.578-6.918H4.048c-1.138 0-2.116-.389-2.878-1.158A3.935 3.935 0 0 1 0 42.077V15.662c0-1.125.401-2.086 1.17-2.879.77-.796 1.74-1.192 2.878-1.192h37.13c1.137 0 2.107.396 2.876 1.191zm-40.341 2.88v26.415c0 .232.1.331.335.331h17.795l.837.43 7.057 3.939v-4.369h11.441c.234 0 .334-.099.334-.331V15.662c0-.298-.1-.43-.334-.43H4.048c-.235 0-.335.132-.335.43zm30.34 10.956H11.172c-1.036 0-1.839-.794-1.839-1.82s.803-1.821 1.839-1.821h22.881c1.037 0 1.839.795 1.839 1.821 0 1.026-.802 1.82-1.839 1.82zm-13.347 4.469h13.347c1.037 0 1.839.828 1.839 1.854 0 1.026-.802 1.82-1.839 1.82H20.706c-1.037 0-1.873-.794-1.873-1.82a1.86 1.86 0 0 1 1.873-1.854z"/>
</svg>
