<svg id="Layer_1" data-name="Layer 1" xmlns="http://www.w3.org/2000/svg" viewBox="0 0 50 50"><defs><style>.cls-1{fill:none;stroke:#000;stroke-linecap:round;stroke-miterlimit:10;}.cls-2{fill:#f78631;}</style></defs><title>Subscribed Services</title><path class="cls-1" d="M25,12.88a11.31,11.31,0,0,1,10.36-7c6.24,0,10.73,5.34,11.3,11.7A11.56,11.56,0,0,1,46.25,22a19.58,19.58,0,0,1-6,9.94L25,45.6,9.88,31.92a19.58,19.58,0,0,1-6-9.94,11.56,11.56,0,0,1-.36-4.42c.56-6.37,5.06-11.7,11.3-11.7a11,11,0,0,1,10.1,7Zm0,0"/><path class="cls-2" d="M47.85,28H36.22a.91.91,0,0,0-.87.64l-.86,2.78L32.57,17.69a.89.89,0,0,0-.85-.77.9.9,0,0,0-.92.69l-2.57,10.8-1.5-6.53a.92.92,0,0,0-.87-.7.9.9,0,0,0-.89.66l-2.7,9.74L20.83,14.72A.91.91,0,0,0,20,13.9a.89.89,0,0,0-1,.59L14.21,28.05H2.31a.91.91,0,0,0,0,1.81H14.85a.91.91,0,0,0,.85-.6L19.38,19,20.9,36.74a.9.9,0,0,0,.82.82h.08a.91.91,0,0,0,.87-.66l3.09-11.16,1.58,6.82a.89.89,0,0,0,.87.7h0a.91.91,0,0,0,.88-.69l2.35-9.89,1.82,12.94a.9.9,0,0,0,1.75.14l1.86-6h11a.91.91,0,0,0,0-1.81Zm0,0"/></svg>