<svg xmlns="http://www.w3.org/2000/svg" width="20" height="18">
    <path fill="#FB8F3E" fill-rule="evenodd" d="M19.52 8.314h-4.47l-1.01-2.087c-.199-.41-.849-.41-1.049 0l-1.819 3.76-.648-1.338c-.199-.411-.849-.411-1.048 0l-.648 1.338-1.819-3.76c-.2-.41-.85-.41-1.049 0L4.95 8.314H.48A6.477 6.477 0 0 1 0 5.863C0 2.52 2.306 0 5.313 0 7.682 0 9.203 1.695 10 3.223 10.797 1.696 12.318 0 14.687 0 17.694 0 20 2.52 20 5.863c0 .872-.169 1.677-.48 2.451zM5.837 9.19l.647-1.338 1.82 3.76c.199.41.849.41 1.048 0L10 10.273l.648 1.339a.583.583 0 0 0 .524.334.584.584 0 0 0 .524-.334l1.82-3.76.647 1.338c.1.205.302.335.524.335h4.218c-1.206 1.96-3.378 3.822-6.095 6.191-.763.665-1.574 1.373-2.426 2.136a.572.572 0 0 1-.768 0 236.058 236.058 0 0 0-2.426-2.136c-2.717-2.369-4.889-4.231-6.095-6.191h4.218c.222 0 .424-.13.524-.335z"/>
</svg>
