<?xml version="1.0" encoding="utf-8"?>
<!-- Generator: Adobe Illustrator 23.0.1, SVG Export Plug-In . SVG Version: 6.00 Build 0)  -->
<svg version="1.1" id="Layer_1" xmlns="http://www.w3.org/2000/svg" xmlns:xlink="http://www.w3.org/1999/xlink" x="0px" y="0px"
	 viewBox="0 0 28 30" style="enable-background:new 0 0 28 30;" xml:space="preserve">
<style type="text/css">
	.st0{fill-rule:evenodd;clip-rule:evenodd;fill:#F78631;}
</style>
<path class="st0" d="M27.5,5.5c-0.7-2.3-2.5-4.2-4.8-5C17,2,11,2,5.3,0.5C3,1.3,1.2,3.1,0.5,5.5c-1.1,3.4-0.4,7.1,1.9,9.9
	c1,1.2,1.6,2.7,2,4.2c0.1,0.7,0.3,1.4,0.4,2.2c0.2,1.9,0.7,3.8,1.4,5.6C6.7,29,7.6,29.9,8.7,30c0.1,0,0.1,0,0.2,0
	c1.1,0,2-0.9,2.7-2.8c0.6-1.7,1-3.4,1.1-5.2c0.1-0.9,0.4-1.8,0.8-2.6c0.2-0.3,0.5-0.3,0.8-0.1c0,0,0.1,0.1,0.1,0.1
	c0.5,0.8,0.8,1.7,0.8,2.6c0.2,1.8,0.6,3.5,1.1,5.2c0.7,1.9,1.6,2.8,2.7,2.8c0.1,0,0.1,0,0.2,0c1.1-0.1,2-1,2.7-2.6
	c0.7-1.8,1.1-3.7,1.4-5.6c0.1-0.8,0.2-1.5,0.4-2.2c0.3-1.5,1-3,2-4.2C27.9,12.6,28.6,8.9,27.5,5.5z"/>
</svg>
