<svg xmlns="http://www.w3.org/2000/svg" width="124" height="124">
    <path fill="#FFF" fill-rule="evenodd" stroke="#000" stroke-width="2" d="M62 5c31.48 0 57 25.52 57 57s-25.52 57-57 57S5 93.48 5 62 30.52 5 62 5z"/>
    <path fill="#F78631" fill-rule="evenodd" d="M87.311 91H38.689c-1.491 0-2.687-1.151-2.687-2.581V31.581c0-1.429 1.196-2.581 2.687-2.581h48.622c1.489 0 2.69 1.165 2.69 2.581v56.838c0 1.43-1.201 2.581-2.69 2.581zm-2.694-56.825H41.381v51.662h43.236V34.175zm-34.65 28.533h26.054c1.489 0 2.693 1.151 2.693 2.581s-1.204 2.582-2.693 2.582H49.967c-1.492 0-2.694-1.165-2.694-2.582 0-1.43 1.202-2.581 2.694-2.581zm0 11.589h26.054c1.489 0 2.693 1.153 2.693 2.583 0 1.429-1.204 2.58-2.693 2.58H49.967c-1.492 0-2.694-1.164-2.694-2.58 0-1.43 1.202-2.583 2.694-2.583zm19.372-24.242h-3.658v3.315c0 1.43-1.197 2.581-2.687 2.581-1.489 0-2.691-1.151-2.691-2.581v-3.315h-3.652c-1.476 0-2.69-1.152-2.69-2.582 0-1.429 1.199-2.581 2.69-2.581h3.652v-3.315c0-1.43 1.202-2.58 2.691-2.58 1.49 0 2.687 1.15 2.687 2.58v3.315h3.658c1.487 0 2.686 1.152 2.686 2.581 0 1.43-1.199 2.582-2.686 2.582z"/>
</svg>
