<?xml version="1.0" encoding="utf-8"?>
<!-- Generator: Adobe Illustrator 22.1.0, SVG Export Plug-In . SVG Version: 6.00 Build 0)  -->
<svg version="1.1" id="Layer_1" xmlns="http://www.w3.org/2000/svg" xmlns:xlink="http://www.w3.org/1999/xlink" x="0px" y="0px"
	 viewBox="0 0 80 26" style="enable-background:new 0 0 80 26;" xml:space="preserve">
<style type="text/css">
	.st0{fill:#FF6D00;}
	.st1{fill:#FFFFFF;}
	.st2{font-family:'Quicksand-Medium';}
	.st3{font-size:14px;}
</style>
<path id="Rounded_Rectangle_1" class="st0" d="M5,0h70c2.8,0,5,2.2,5,5v16c0,2.8-2.2,5-5,5H5c-2.8,0-5-2.2-5-5V5C0,2.2,2.2,0,5,0z"
	/>
<path id="Forma_1" class="st1" d="M17.6,15.3c-0.6,0-1.2,0.2-1.7,0.7c-0.1,0.1-0.2,0.3-0.3,0.4l-4.1-2.5c0.2-0.6,0.2-1.2,0-1.8
	l4.1-2.5c0.7,1.1,2.2,1.4,3.3,0.7s1.4-2.2,0.7-3.3c-0.7-1.1-2.2-1.4-3.3-0.7c-1,0.6-1.3,1.8-0.9,2.9l-4.1,2.5
	c-0.7-1.1-2.2-1.4-3.3-0.7c-1.1,0.7-1.4,2.2-0.7,3.3s2.2,1.4,3.3,0.7c0.3-0.2,0.5-0.4,0.7-0.7l4.1,2.5c-0.3,0.9-0.1,1.9,0.5,2.5
	c0.9,0.9,2.4,0.9,3.3,0c0.9-0.9,0.9-2.4,0-3.3C18.8,15.5,18.3,15.3,17.6,15.3z"/>
<text id="Share" transform="matrix(1 0 0 1 30.066 17.916)" class="st1 st2 st3">Share</text>
</svg>
