<svg xmlns="http://www.w3.org/2000/svg" width="26" height="30">
    <path fill="#FFF" fill-rule="evenodd" d="M23.679 3.063c-2.505-2.303-5.34-2.3-7.46-1.783a13.607 13.607 0 0 1-6.438 0C7.661.763 4.826.76 2.321 3.063c-4.747 4.362-.927 12.156.222 13.498 1.15 1.342 1.187 3.132 2.003 6.786.815 3.655 1.854 7.122 3.93 6.6 2.077-.522 2.633-3.057 3.152-6.45.036-.234.073-.453.111-.658.264-1.411 2.258-1.411 2.522 0 .038.205.075.424.111.658.519 3.393 1.075 5.928 3.152 6.45 2.076.522 3.115-2.945 3.93-6.6.816-3.654.853-5.444 2.003-6.786 1.149-1.342 4.969-9.136.222-13.498zM9.182 4.758a.783.783 0 0 1-.875.674c-.153-.019-3.538-.395-4.489 3.321a.782.782 0 0 1-.951.565.785.785 0 0 1-.561-.956C3.348 4.29 6.821 3.646 8.512 3.875a.785.785 0 0 1 .67.883z"/>
</svg>
