<svg xmlns="http://www.w3.org/2000/svg" width="22" height="21">
    <path fill="#FFF" fill-rule="evenodd" d="M21.504 16.623l-3.396-3.253c-.676-.645-1.796-.625-2.496.045l-1.71 1.639-.338-.181c-1.08-.573-2.558-1.358-4.114-2.85-1.56-1.494-2.382-2.913-2.982-3.948-.064-.11-.124-.215-.184-.316l1.148-1.098.564-.541c.701-.672.721-1.744.046-2.391L4.647.476C3.972-.17 2.851-.151 2.15.521l-.956.922.026.024A5.272 5.272 0 0 0 .08 4.151c-.448 3.56 1.25 6.814 5.86 11.229 6.371 6.103 11.506 5.642 11.728 5.619a5.923 5.923 0 0 0 1.414-.34 5.554 5.554 0 0 0 1.386-.752l.021.018.969-.91c.7-.671.72-1.744.046-2.392z"/>
</svg>
