<svg xmlns="http://www.w3.org/2000/svg" width="71" height="61">
    <path fill="#F78631" fill-rule="evenodd" d="M30.461 10.542V9.323c0-1.384-1.137-2.505-2.536-2.505h-4.161a4.501 4.501 0 0 0 .542-2.165c0-2.561-2.109-4.647-4.698-4.647-2.59 0-4.696 2.086-4.696 4.647 0 .779.196 1.546.543 2.165h-3.414c-1.4 0-2.535 1.121-2.535 2.505v1.219H3.85c-2.124 0-3.845 1.702-3.845 3.801v37.461c0 2.098 1.721 3.8 3.845 3.8h32.261c2.124 0 3.847-1.702 3.847-3.8V14.343c0-2.099-1.723-3.801-3.847-3.801h-5.65zM16.81 4.655c0-1.526 1.254-2.772 2.795-2.772 1.546 0 2.801 1.246 2.801 2.772 0 .873-.412 1.622-1.057 2.165h-3.485c-.642-.545-1.054-1.292-1.054-2.165zm19.303 44.889c0 1.29-1.059 2.337-2.365 2.337H6.215c-1.305 0-2.365-1.047-2.365-2.337V16.68c0-1.292 1.06-2.337 2.365-2.337h3.287c0 1.028.843 1.862 1.883 1.862h17.19a1.872 1.872 0 0 0 1.884-1.862h3.287c1.306 0 2.365 1.047 2.365 2.337v32.864h.002z"/>
    <path fill="#F78631" fill-rule="evenodd" d="M29.956 34.041H18.558a1.907 1.907 0 0 1-1.901-1.898c0-1.036.851-1.9 1.901-1.9h11.396c1.049 0 1.899.864 1.901 1.9 0 1.036-.85 1.898-1.899 1.898zm0-9.381H18.558c-1.051 0-1.901-.826-1.901-1.862s.851-1.862 1.901-1.862h11.396c1.049 0 1.899.826 1.901 1.862 0 1.036-.85 1.862-1.899 1.862zM10.942 45.456c-1.847 0-3.342-1.478-3.342-3.302 0-1.823 1.495-3.301 3.342-3.301 1.846 0 3.341 1.478 3.341 3.301 0 1.824-1.495 3.302-3.341 3.302zm0-10.009c-1.847 0-3.342-1.478-3.342-3.302 0-1.823 1.495-3.302 3.342-3.302 1.846 0 3.341 1.479 3.341 3.302 0 1.824-1.495 3.302-3.341 3.302zm0-9.366c-1.847 0-3.342-1.479-3.342-3.302 0-1.824 1.495-3.302 3.342-3.302 1.846 0 3.341 1.478 3.341 3.302 0 1.823-1.495 3.302-3.341 3.302zm7.616 14.166h11.396c1.049 0 1.899.864 1.901 1.901 0 1.034-.85 1.898-1.899 1.898H18.558a1.907 1.907 0 0 1-1.901-1.898 1.91 1.91 0 0 1 1.901-1.901zM70.446 59.494c-.562.967-1.467 1.5-2.541 1.5H44.944c-1.074 0-1.981-.533-2.545-1.5-.743-1.277-.735-3.106.023-4.443l.197-.346c.737-1.314 2.46-4.382 4.241-7.001.595-.878 1.197-1.699 1.74-2.441.872-1.189 1.954-2.664 1.968-3.104-.068-1.924-.025-6.477-.006-7.883h-1.508V32.28h14.369v1.995h-1.135c.015 1.406.061 5.96-.005 7.885.009.439 1.093 1.914 1.965 3.102.543.743 1.145 1.563 1.741 2.441 1.78 2.618 3.503 5.688 4.24 7.001l.197.346c.759 1.337.766 3.166.02 4.444zm-1.458-3.631l-.197-.355c-.727-1.292-2.425-4.318-4.166-6.878a83.248 83.248 0 0 0-1.709-2.394c-1.52-2.076-2.315-3.2-2.283-4.132.06-1.713.026-5.696.009-7.418h-8.434c-.019 1.72-.05 5.705.01 7.418.029.931-.764 2.056-2.285 4.132-.535.73-1.124 1.533-1.708 2.394-1.741 2.56-3.441 5.586-4.165 6.878l-.2.355c-.465.826-.482 2.031-.031 2.797.26.453.639.684 1.116.684h22.958c.479 0 .857-.232 1.119-.684.448-.766.434-1.971-.034-2.797zm-2.429 3.068H46.29c-.634 0-1.163-.316-1.496-.883-.437-.751-.432-1.824.014-2.612l.116-.206c.432-.768 1.445-2.573 2.492-4.114.268-.395.532-.762.789-1.109h16.44c.255.348.52.714.789 1.109 1.045 1.541 2.058 3.346 2.492 4.114l.112.206c.448.788.452 1.861.018 2.612-.334.567-.865.883-1.497.883zm-26.212-1.317c-.689-.446-.82-1.232-.82-1.447v-9.446h3.726v4.357c-.932 1.544-1.714 2.936-2.15 3.71l-.194.346c-.419.738-.599 1.622-.562 2.48zm5.997-11.248c-.328.455-.664.927-1.001 1.422-.232.339-.462.689-.688 1.038V37.685H38.12v18.377c0 .027.083 2.396 2.497 2.942.075.198.16.392.266.572.316.544.746.945 1.25 1.199-.152.01-.292.034-.452.034-4.283 0-5.247-3.514-5.247-4.746V37.684h-1.812v-3.491H47.54v.168h.617v3.324h-1.813v8.681z"/>
</svg>
