<svg xmlns="http://www.w3.org/2000/svg" width="35" height="37">
    <path fill="#FFF" fill-rule="evenodd" d="M9.975 24.361h20.752c2.353 0 4.273-1.886 4.273-4.197v-8.578-.031-.06c0-.015 0-.031-.008-.046 0-.015-.007-.038-.007-.053s-.008-.031-.008-.046c-.008-.015-.008-.031-.016-.053-.007-.015-.007-.031-.015-.046s-.008-.03-.016-.045c-.007-.016-.015-.031-.023-.054-.008-.015-.015-.03-.023-.037l-.023-.046c-.008-.015-.016-.023-.023-.038-.008-.015-.024-.031-.031-.046-.008-.015-.016-.023-.031-.038-.008-.015-.024-.023-.032-.038-.007-.015-.023-.023-.031-.038-.007-.015-.023-.023-.03-.03l-.039-.038c-.016-.008-.023-.023-.039-.031-.015-.007-.031-.022-.046-.03-.016-.008-.023-.015-.039-.023-.015-.008-.031-.015-.046-.03l-.047-.023-.046-.023-.047-.023c-.015-.007-.03-.007-.046-.015a.137.137 0 0 0-.054-.015c-.016 0-.031-.008-.039-.008-.023-.007-.039-.007-.062-.007-.008 0-.016-.008-.031-.008L7.8 7V3.396c0-.038 0-.076-.008-.106 0-.008 0-.016-.007-.031 0-.023-.008-.046-.008-.068-.008-.023-.008-.038-.015-.061 0-.015-.008-.023-.008-.038l-.023-.069c0-.007-.008-.023-.008-.03a.251.251 0 0 0-.031-.061c-.008-.007-.008-.023-.016-.03a.129.129 0 0 0-.031-.046c-.007-.015-.015-.023-.023-.038-.007-.015-.015-.023-.023-.038s-.023-.03-.031-.046l-.023-.023-.047-.045-.023-.023a.378.378 0 0 0-.054-.046c-.008-.007-.023-.015-.031-.022-.016-.015-.031-.023-.047-.038a.71.71 0 0 0-.061-.039c-.008-.007-.016-.007-.024-.015l-.1-.045L1.453.08a1.051 1.051 0 0 0-1.37.548A1.02 1.02 0 0 0 .64 1.974l5.063 2.099v22.494c0 2.129 1.625 3.893 3.723 4.159a4.098 4.098 0 0 0-.604 2.129c0 2.289 1.896 4.145 4.218 4.145 2.323 0 4.219-1.863 4.219-4.145a4.01 4.01 0 0 0-.581-2.091h9.397a4.037 4.037 0 0 0-.58 2.091c0 2.289 1.896 4.145 4.218 4.145s4.219-1.863 4.219-4.145c0-2.281-1.897-4.144-4.219-4.144H9.975c-1.207 0-2.183-.966-2.183-2.144v-2.784a4.373 4.373 0 0 0 2.183.578zm5.202 8.487c0 1.156-.96 2.091-2.129 2.091s-2.128-.943-2.128-2.091c0-1.148.959-2.091 2.128-2.091s2.129.935 2.129 2.091zm16.673 0c0 1.156-.96 2.091-2.129 2.091s-2.128-.943-2.128-2.091c0-1.148.959-2.091 2.128-2.091s2.129.935 2.129 2.091zm-1.123-10.54H9.975c-1.207 0-2.183-.966-2.183-2.144V9.069l25.118 3.399v7.688c0 1.194-.983 2.152-2.183 2.152z"/>
</svg>
