<svg xmlns="http://www.w3.org/2000/svg" width="17" height="21">
    <defs>
        <filter id="a">
            <feFlood flood-color="#FFF" flood-opacity="1" result="floodOut"/>
            <feComposite in="floodOut" in2="SourceGraphic" operator="atop" result="compOut"/>
            <feBlend in="compOut" in2="SourceGraphic"/>
        </filter>
    </defs>
    <g fill-rule="evenodd" filter="url(#a)">
        <path fill="#D8630B" d="M2.592 11.464c.037.404.262.784.641.997.314.177.638.306.968.394a10.367 10.367 0 0 1-1.138 2.527c-.578.931-.585 2.054-.018 3.082.836 1.515 2.682 2.534 4.594 2.534 1.313 0 2.481-.608 3.287-1.712 1.153-1.578 1.409-3.907.683-6.229-.672-2.152.227-3.3.822-3.794.485.47 1.143.76 1.87.76a2.706 2.706 0 0 0 2.698-2.713 2.705 2.705 0 0 0-2.698-2.712 2.706 2.706 0 0 0-2.627 3.324c-1.124.826-2.42 2.685-1.513 5.592.572 1.833.397 3.698-.459 4.869-.362.497-1.015 1.089-2.063 1.089-1.356 0-2.699-.718-3.267-1.747-.209-.38-.382-.954-.021-1.535a11.906 11.906 0 0 0 1.401-3.247 4.017 4.017 0 0 0 1.305-.438c.375-.202.606-.566.656-.959 1.783-1.62 2.606-4.539 2.653-4.71a.763.763 0 0 0-.375-.874c.247-2.191-.56-3.295-1.047-3.745a.549.549 0 0 0-.231-.556l-.894-.588a.446.446 0 0 0-.655.174l-.427.828c-.128.25-.015.517.253.596l1.012.3a.656.656 0 0 0 .708-.273c.404.427.984 1.377.784 3.189a.76.76 0 0 0-.591.543c-.242.877-.944 2.688-1.986 3.774a1.252 1.252 0 0 0-1.051.058 1.443 1.443 0 0 1-.657.183h-.046a1.453 1.453 0 0 1-.693-.202 1.244 1.244 0 0 0-1.037-.085C2.414 9.067 1.727 7.295 1.488 6.43a.761.761 0 0 0-.59-.543c-.201-1.812.379-2.762.783-3.189a.658.658 0 0 0 .709.273l1.011-.3a.404.404 0 0 0 .253-.595l-.426-.829a.446.446 0 0 0-.655-.174l-.896.588a.552.552 0 0 0-.23.557C.961 2.668.153 3.772.399 5.963a.763.763 0 0 0-.374.874c.046.168.845 2.993 2.567 4.627zm11.709-5.213c.581 0 1.054.474 1.054 1.059s-.473 1.06-1.054 1.06a1.058 1.058 0 0 1-1.055-1.06c0-.585.472-1.059 1.055-1.059z"/>
        <path fill="#F78631" d="M11.674 7.922c-1.124.826-2.42 2.685-1.513 5.592.572 1.833.397 3.698-.459 4.869-.362.497-1.015 1.089-2.063 1.089-1.356 0-2.699-.718-3.267-1.747-.209-.38-.382-.954-.021-1.535a11.906 11.906 0 0 0 1.401-3.247 4.017 4.017 0 0 0 1.305-.438c.375-.202.606-.566.656-.959 1.783-1.62 2.606-4.539 2.653-4.71a.763.763 0 0 0-.375-.874c.247-2.191-.56-3.295-1.047-3.745a.549.549 0 0 0-.231-.556l-.894-.588a.446.446 0 0 0-.655.174l-.427.828c-.128.25-.015.517.253.596l1.012.3a.656.656 0 0 0 .708-.273c.404.427.984 1.377.784 3.189a.76.76 0 0 0-.591.543c-.242.877-.944 2.688-1.986 3.774a1.252 1.252 0 0 0-1.051.058 1.443 1.443 0 0 1-.657.183h-.046a1.453 1.453 0 0 1-.693-.202 1.244 1.244 0 0 0-1.037-.085C2.414 9.067 1.727 7.295 1.488 6.43a.761.761 0 0 0-.59-.543c-.201-1.812.379-2.762.783-3.189a.658.658 0 0 0 .709.273l1.011-.3a.404.404 0 0 0 .253-.595l-.426-.829a.446.446 0 0 0-.655-.174l-.896.588a.552.552 0 0 0-.23.557C.961 2.668.153 3.772.399 5.963a.763.763 0 0 0-.374.874c.046.168.845 2.993 2.567 4.627.037.404.262.784.641.997.314.177.638.306.968.394a10.367 10.367 0 0 1-1.138 2.527c-.578.931-.585 2.054-.018 3.082.836 1.515 2.682 2.534 4.594 2.534 1.313 0 2.481-.608 3.287-1.712 1.153-1.578 1.409-3.907.683-6.229-.672-2.152.227-3.3.822-3.794"/>
    </g>
</svg>
