<svg xmlns="http://www.w3.org/2000/svg" width="15" height="16">
    <defs>
        <filter id="a">
            <feFlood flood-color="#FFF" flood-opacity="1" result="floodOut"/>
            <feComposite in="floodOut" in2="SourceGraphic" operator="atop" result="compOut"/>
            <feBlend in="compOut" in2="SourceGraphic"/>
        </filter>
    </defs>
    <path fill="#F78631" fill-rule="evenodd" d="M14.704 15.16c-.29.54-.755.837-1.306.837H1.595c-.553 0-1.019-.297-1.309-.837-.382-.711-.378-1.731.012-2.477l.101-.193c.38-.732 1.265-2.442 2.18-3.902.306-.49.616-.947.895-1.361.448-.663 1.004-1.486 1.012-1.731-.035-1.073-.013-3.611-.004-4.394h-.775V-.011h7.386v1.112h-.583c.008.784.032 3.322-.003 4.396.006.244.562 1.067 1.011 1.729.279.414.589.871.895 1.361.915 1.46 1.801 3.171 2.18 3.903l.101.193c.389.746.394 1.765.01 2.477zm-.75-2.024l-.101-.198c-.374-.72-1.247-2.407-2.141-3.834-.302-.48-.604-.928-.879-1.335-.781-1.157-1.19-1.784-1.173-2.304.031-.955.012-3.175.004-4.135H5.329c-.01.959-.026 3.18.005 4.135.015.52-.393 1.147-1.175 2.304-.275.407-.578.855-.878 1.335-.895 1.427-1.769 3.114-2.141 3.834l-.103.198c-.239.461-.247 1.132-.016 1.56.134.252.329.381.574.381h11.802c.246 0 .44-.129.575-.381.23-.428.224-1.099-.018-1.56zm-1.248 1.71H2.287c-.327 0-.599-.175-.77-.492-.225-.418-.222-1.017.007-1.456l.06-.115c.222-.428.744-1.434 1.282-2.293.137-.22.273-.425.405-.619h8.45c.132.195.268.399.407.619.537.859 1.058 1.865 1.281 2.293l.057.115c.23.439.232 1.038.009 1.456-.172.317-.444.492-.769.492z" filter="url(#a)"/>
</svg>
