<svg xmlns="http://www.w3.org/2000/svg" width="686" height="126">
    <defs>
        <linearGradient id="a" x1="100%" x2="0%" y1="0%" y2="0%">
            <stop offset="0%" stop-color="#FF6D00"/>
            <stop offset="100%" stop-color="#FFB074"/>
        </linearGradient>
    </defs>
    <path fill="#F78631" fill-rule="evenodd" d="M20 0h645.999C677.046 0 686 8.954 686 20v86c0 11.046-8.954 20-20.001 20H20c-11.046 0-20-8.954-20-20V20C0 8.954 8.954 0 20 0z"/>
    <path fill="url(#a)" d="M20 0h645.999C677.046 0 686 8.954 686 20v86c0 11.046-8.954 20-20.001 20H20c-11.046 0-20-8.954-20-20V20C0 8.954 8.954 0 20 0z"/>
    <path fill="#FFF" fill-rule="evenodd" d="M476.267 107.86c-4.541 7.056-13.392 9.488-20.745 6.211l-9.608 14.931c-9.171 14.251-28.042 18.271-42.095 8.949-14.056-9.323-18.057-28.514-8.888-42.766l11-17.108c-4.964-4.343-8.164-11.055-9.369-19.668-.176-1.267.284-2.455 1.046-3.372-.907-12.429 2.534-26.314 8.124-35.002 8.643-13.43 15.454-10.861 26.734-6.652l.009.003c1.433-.796 3.219-.881 4.697.099 2.071 1.374 2.651 4.184 1.321 6.256a4.431 4.431 0 0 1-6.189 1.314c-.871-.578-1.364-1.4-1.705-2.328l-.051.01c-10.992-4.132-13.9-5.208-20.099 4.424-4.918 7.643-7.933 20.247-7.239 31.276a4.345 4.345 0 0 1 1.678 2.835c.687 5.102 2.639 11.92 7.889 15.402 5.253 3.485 12.215 2.527 17.099 1.107a4.23 4.23 0 0 1 3.239.424c10.195-3.767 20.336-11.627 25.248-19.259 6.195-9.627 4.016-11.929-4.069-20.449l-.065-.091c-.927.087-1.918-.078-2.736-.62-2.071-1.374-2.654-4.186-1.304-6.284a4.424 4.424 0 0 1 6.175-1.286c1.474.977 2.118 2.674 1.929 4.302l-.002.034c8.331 8.768 13.358 14.088 4.736 27.487-5.585 8.678-16.689 17.423-28.21 21.612-.52 1.076-1.403 1.979-2.619 2.328-8.281 2.374-15.677 2.071-21.595-.803l-10.957 17.14c-7.488 11.636-4.246 27.265 7.233 34.879 11.48 7.615 26.875 4.35 34.365-7.288l9.608-14.931c-5.91-5.523-7.225-14.698-2.684-21.754 5.045-7.84 15.469-10.029 23.202-4.899 7.733 5.129 9.942 15.697 4.897 23.537zm-7.943-18.803c-5.155-3.419-12.126-1.965-15.49 3.263-3.377 5.248-1.89 12.315 3.265 15.734 5.153 3.419 12.079 1.931 15.456-3.317 3.364-5.228 1.922-12.261-3.231-15.68zm-10.686 16.605c-3.872-2.568-4.985-7.83-2.444-11.777a8.298 8.298 0 0 1 11.593-2.44c3.87 2.567 4.982 7.834 2.456 11.759-2.54 3.947-7.736 5.025-11.605 2.458z" opacity=".302"/>
</svg>
