<svg xmlns="http://www.w3.org/2000/svg" width="40" height="43">
    <path fill="#FFF" fill-rule="evenodd" d="M39.378 39.166L29.52 28.522c2.535-3.128 3.923-7.064 3.923-11.161C33.443 7.789 25.941 0 16.72 0 7.498 0-.004 7.789-.004 17.361c0 9.573 7.502 17.361 16.724 17.361 3.461 0 6.76-1.084 9.581-3.141l9.933 10.724a2.126 2.126 0 0 0 3.084.063 2.33 2.33 0 0 0 .06-3.202zM16.72 4.529c6.816 0 12.361 5.757 12.361 12.832 0 7.076-5.545 12.832-12.361 12.832-6.816 0-12.361-5.756-12.361-12.832 0-7.075 5.545-12.832 12.361-12.832z"/>
</svg>
