<svg xmlns="http://www.w3.org/2000/svg" width="17" height="17">
    <path fill="#FBFAFA" fill-rule="evenodd" d="M14.508 10.988a8.484 8.484 0 0 0-3.23-2.027 4.912 4.912 0 0 0-2.78-8.965 4.912 4.912 0 1 0-2.781 8.965 8.484 8.484 0 0 0-3.23 2.027A8.446 8.446 0 0 0-.003 17h1.328c0-3.956 3.218-7.174 7.173-7.174 3.954 0 7.172 3.218 7.172 7.174h1.328a8.446 8.446 0 0 0-2.49-6.012zm-6.01-2.49a3.59 3.59 0 0 1-3.586-3.587 3.59 3.59 0 0 1 3.586-3.587 3.59 3.59 0 0 1 3.585 3.587 3.59 3.59 0 0 1-3.585 3.587z"/>
</svg>
