<svg xmlns="http://www.w3.org/2000/svg" width="24" height="27">
    <path fill="#ffffff" fill-rule="evenodd" d="M2.126 8.949h-.071c-.894 0-1.623.718-1.623 1.594v6.937c0 .879.729 1.596 1.623 1.596h.071c.894 0 1.624-.719 1.624-1.596v-6.937c0-.876-.731-1.594-1.624-1.594zm2.402 11.209c0 .806.671 1.462 1.492 1.462h1.596v3.748c0 .88.731 1.596 1.624 1.596h.069c.896 0 1.627-.717 1.627-1.596V21.62h2.229v3.748c0 .88.734 1.596 1.627 1.596h.068c.895 0 1.626-.717 1.626-1.596V21.62h1.596c.82 0 1.492-.656 1.492-1.462V9.203H4.528v10.955zm11.27-17.597L17.064.642a.26.26 0 0 0-.079-.365.271.271 0 0 0-.373.077L15.299 2.34a8.688 8.688 0 0 0-3.248-.619 8.693 8.693 0 0 0-3.249.619L7.491.354a.272.272 0 0 0-.374-.077.261.261 0 0 0-.08.365l1.268 1.919C6.019 3.66 4.478 5.731 4.478 8.108c0 .146.009.29.021.432h15.104c.013-.142.021-.286.021-.432.001-2.377-1.542-4.448-3.826-5.547zM8.549 5.996a.719.719 0 0 1-.727-.712c0-.395.326-.711.727-.711.404 0 .727.316.727.711a.718.718 0 0 1-.727.712zm7.003 0a.719.719 0 0 1-.727-.712c0-.395.326-.711.727-.711.402 0 .726.316.726.711a.717.717 0 0 1-.726.712zm6.493 2.953h-.069c-.893 0-1.626.718-1.626 1.594v6.937c0 .879.733 1.596 1.626 1.596h.069c.895 0 1.624-.719 1.624-1.596v-6.937c0-.876-.73-1.594-1.624-1.594z"/>
</svg>
