<svg xmlns="http://www.w3.org/2000/svg" width="23" height="28">
    <path fill="#ffffff" fill-rule="evenodd" d="M22.198 20.417a14.665 14.665 0 0 1-1.827 3.745c-1.048 1.531-2.236 3.267-4.171 3.303-.905.017-1.517-.249-2.111-.506-.603-.261-1.226-.531-2.204-.531-1.026 0-1.681.279-2.314.549-.564.24-1.147.489-1.955.521l-.098.002c-1.717 0-2.972-1.609-4.21-3.401-2.482-3.585-3.909-9.497-1.664-13.393 1.18-2.053 3.32-3.35 5.586-3.383l.069-.001c.974 0 1.894.365 2.706.688.607.241 1.132.449 1.536.449.36 0 .881-.206 1.485-.444.874-.345 1.963-.774 3.099-.774.146 0 .29.007.431.021.967.041 3.37.387 4.938 2.683a.215.215 0 0 1-.062.305l-.021.014c-.456.282-2.727 1.837-2.698 4.774.032 3.616 3.021 4.942 3.361 5.082a.219.219 0 0 1 .132.273l-.008.024zM11.599 7.409c-.094 0-.189-.004-.281-.011a.217.217 0 0 1-.199-.188c-.215-1.628.602-3.244 1.438-4.212C13.54 1.845 15.186 1 16.558.944a.22.22 0 0 1 .225.194c.159 1.451-.367 3.071-1.407 4.333-.988 1.196-2.435 1.938-3.777 1.938z"/>
</svg>
