<?xml version="1.0" encoding="utf-8"?>
<!-- Generator: Adobe Illustrator 22.1.0, SVG Export Plug-In . SVG Version: 6.00 Build 0)  -->
<svg version="1.1" id="Layer_1" xmlns="http://www.w3.org/2000/svg" xmlns:xlink="http://www.w3.org/1999/xlink" x="0px" y="0px"
	 viewBox="0 0 29 22" style="enable-background:new 0 0 29 22;" xml:space="preserve">
<style type="text/css">
	.st0{fill:#FFFFFF;}
</style>
<path id="_-e-Forma_1_copy_9" class="st0" d="M18.2,1.2c-0.5-0.4-1.1-0.4-1.5,0c-0.4,0.4-0.4,1,0,1.4l0,0l7.5,7.4H2.2
	c-0.6,0.1-1,0.5-1,1.1l0,0c0,0.6,0.5,1,1,1l0,0h22l-7.5,7.4c-0.4,0.4-0.4,1,0,1.5l0,0c0.4,0.4,1.1,0.5,1.5,0l0,0l9.4-9.1
	c0.4-0.4,0.5-1,0-1.4l0,0L18.2,1.2z"/>
</svg>
