<svg xmlns="http://www.w3.org/2000/svg" width="14" height="15">
    <path fill="#F78631" fill-rule="evenodd" d="M7.45 14.464l6.111-6.11c.231-.231.347-.516.347-.854 0-.344-.116-.626-.347-.845L7.45.545a1.162 1.162 0 0 0-.854-.356 1.15 1.15 0 0 0-.844.356l-.704.704a1.115 1.115 0 0 0-.357.845c0 .338.119.619.357.845l2.75 2.759H1.19a1 1 0 0 0-.793.352 1.255 1.255 0 0 0-.305.849v1.202c0 .331.102.614.305.849a.999.999 0 0 0 .793.352h6.608l-2.75 2.759a1.116 1.116 0 0 0-.357.845c0 .332.119.617.357.854l.704.704c.244.232.525.347.844.347.326 0 .61-.115.854-.347z"/>
</svg>
