<svg xmlns="http://www.w3.org/2000/svg" width="37" height="42">
    <path fill="#FFF" fill-rule="evenodd" d="M35.585 30.715l-8.836 8.971c-.196.2-.441.345-.708.42l-6.51 1.834a1.582 1.582 0 0 1-1.584-.435 1.66 1.66 0 0 1-.389-1.623l1.928-6.457c.077-.259.216-.494.404-.685l8.854-8.987a4.784 4.784 0 0 1 6.84.001c1.887 1.919 1.887 5.042.001 6.961zm-7.156-2.007l-5.974 6.064-.959 3.21 3.275-.923 5.939-6.03-2.281-2.321zm4.875-2.634a1.597 1.597 0 0 0-2.281 0l-.311.316 2.281 2.321.312-.318a1.662 1.662 0 0 0-.001-2.319zm-15.162.176H8.054c-.89 0-1.612-.735-1.612-1.641s.722-1.64 1.612-1.64h10.088c.891 0 1.613.734 1.613 1.64 0 .906-.722 1.641-1.613 1.641zm6.523-13.125H8.054c-.89 0-1.612-.735-1.612-1.641s.722-1.64 1.612-1.64h16.611c.89 0 1.612.734 1.612 1.64 0 .906-.722 1.641-1.612 1.641zm0 6.563H8.054c-.89 0-1.612-.735-1.612-1.641s.722-1.641 1.612-1.641h16.611c.89 0 1.612.735 1.612 1.641s-.722 1.641-1.612 1.641zm6.45-1.395c-.89 0-1.612-.735-1.612-1.641V6.563c0-1.81-1.447-3.282-3.226-3.282H6.451c-1.779 0-3.226 1.472-3.226 3.282v28.874c0 1.81 1.447 3.282 3.226 3.282h5.393c.891 0 1.613.734 1.613 1.64 0 .906-.722 1.641-1.613 1.641H6.451C2.894 42 0 39.056 0 35.437V6.563C0 2.944 2.894 0 6.451 0h19.826c3.557 0 6.451 2.944 6.451 6.563v10.089c0 .906-.722 1.641-1.613 1.641z"/>
</svg>
