<svg xmlns="http://www.w3.org/2000/svg" width="28" height="28">
    <path fill="#FA7D1F" fill-rule="evenodd" d="M25.102 27.438H3.076c-1.367 0-2.473-1.095-2.473-2.428V5.916c0-1.309 1.082-2.373 2.4-2.412v3.258c0 1.473 1.224 2.659 2.732 2.659h1.723c1.508 0 2.747-1.186 2.747-2.659v-3.27h7.767v3.27c0 1.473 1.239 2.659 2.747 2.659h1.723c1.507 0 2.731-1.186 2.731-2.659V3.504c1.319.039 2.4 1.103 2.4 2.412V25.01c0 1.331-1.108 2.428-2.471 2.428zm-.73-13.48c0-.576-.478-1.044-1.068-1.044H4.825c-.59 0-1.068.468-1.068 1.044v9.863c0 .576.478 1.044 1.068 1.044h18.479c.59 0 1.068-.468 1.068-1.044v-9.863zm-3.731 9.482h-2.185a.618.618 0 0 1-.625-.612v-2.132c0-.338.279-.611.625-.611h2.185c.345 0 .625.273.625.611v2.132c0 .338-.28.612-.625.612zm0-5.332h-2.185a.617.617 0 0 1-.625-.611v-2.133c0-.338.279-.611.625-.611h2.185c.345 0 .625.273.625.611v2.133c0 .338-.28.611-.625.611zM15.18 23.44h-2.184a.62.62 0 0 1-.626-.612v-2.132c0-.338.281-.611.626-.611h2.184c.346 0 .626.273.626.611v2.132c0 .338-.28.612-.626.612zm0-5.332h-2.184a.619.619 0 0 1-.626-.611v-2.133c0-.338.281-.611.626-.611h2.184c.346 0 .626.273.626.611v2.133c0 .338-.28.611-.626.611zM9.72 23.44H7.536a.618.618 0 0 1-.625-.612v-2.132c0-.338.279-.611.625-.611H9.72c.346 0 .626.273.626.611v2.132c0 .338-.28.612-.626.612zm0-5.332H7.536a.617.617 0 0 1-.625-.611v-2.133c0-.338.279-.611.625-.611H9.72c.346 0 .626.273.626.611v2.133c0 .338-.28.611-.626.611zM22.401 7.675h-1.704a.927.927 0 0 1-.937-.915V1.419c0-.505.42-.914.937-.914h1.704c.517 0 .936.409.936.914V6.76a.926.926 0 0 1-.936.915zm-14.968 0H5.729a.927.927 0 0 1-.938-.915V1.419c0-.505.42-.914.938-.914h1.704c.518 0 .936.409.936.914V6.76a.925.925 0 0 1-.936.915z"/>
</svg>
