<svg id="Layer_1" data-name="Layer 1" xmlns="http://www.w3.org/2000/svg" viewBox="0 0 50 50"><defs><style>.cls-1{fill:#f78631;stroke:#040507;stroke-linecap:round;}.cls-1,.cls-2{stroke-miterlimit:10;}.cls-2{fill:#fff;stroke:#000;}.cls-3{fill:none;}</style></defs><title>Calendar</title><path class="cls-1" d="M20.1,26.84a.81.81,0,0,0-.82-.81H16.42a.82.82,0,0,0-.82.81V29.7a.82.82,0,0,0,.82.82h2.86a.81.81,0,0,0,.82-.82Zm0,0"/><path class="cls-1" d="M27.25,26.84a.82.82,0,0,0-.82-.81H23.57a.82.82,0,0,0-.82.81V29.7a.82.82,0,0,0,.82.82h2.86a.82.82,0,0,0,.82-.82Zm0,0"/><path class="cls-1" d="M34.4,26.84a.82.82,0,0,0-.82-.81H30.72a.82.82,0,0,0-.82.81V29.7a.82.82,0,0,0,.82.82h2.86a.82.82,0,0,0,.82-.82Zm0,0"/><path class="cls-1" d="M20.1,34a.82.82,0,0,0-.82-.82H16.42a.82.82,0,0,0-.82.82v2.86a.82.82,0,0,0,.82.82h2.86a.81.81,0,0,0,.82-.82Zm0,0"/><path class="cls-1" d="M27.25,34a.82.82,0,0,0-.82-.82H23.57a.82.82,0,0,0-.82.82v2.86a.82.82,0,0,0,.82.82h2.86a.82.82,0,0,0,.82-.82Zm0,0"/><path class="cls-1" d="M34.4,34a.82.82,0,0,0-.82-.82H30.72a.82.82,0,0,0-.82.82v2.86a.82.82,0,0,0,.82.82h2.86a.82.82,0,0,0,.82-.82Zm0,0"/><path class="cls-2" d="M39.51,10.94v4.37a3.57,3.57,0,0,1-3.57,3.57H33.68a3.58,3.58,0,0,1-3.59-3.57V10.93H19.92v4.38a3.58,3.58,0,0,1-3.6,3.57H14.07a3.57,3.57,0,0,1-3.58-3.57V10.94a3.26,3.26,0,0,0-3.14,3.24v25.6A3.25,3.25,0,0,0,10.58,43H39.42a3.25,3.25,0,0,0,3.24-3.25V14.18a3.26,3.26,0,0,0-3.15-3.24Zm-1,27.24a1.4,1.4,0,0,1-1.4,1.4H12.88a1.39,1.39,0,0,1-1.4-1.4V25a1.4,1.4,0,0,1,1.4-1.4H37.07a1.4,1.4,0,0,1,1.4,1.4Zm0,0"/><rect class="cls-3" x="7.35" y="6.92" width="35.31" height="36.15"/><path class="cls-2" d="M14.06,16.54h2.23a1.23,1.23,0,0,0,1.23-1.23V8.15a1.23,1.23,0,0,0-1.23-1.23H14.06a1.23,1.23,0,0,0-1.23,1.23v7.16a1.23,1.23,0,0,0,1.23,1.23Zm0,0"/><path class="cls-2" d="M33.65,16.54h2.24a1.23,1.23,0,0,0,1.22-1.23V8.15a1.23,1.23,0,0,0-1.22-1.23H33.65a1.23,1.23,0,0,0-1.22,1.23v7.16a1.23,1.23,0,0,0,1.22,1.23Zm0,0"/></svg>