<?xml version="1.0" encoding="utf-8"?>
<!-- Generator: Adobe Illustrator 23.0.3, SVG Export Plug-In . SVG Version: 6.00 Build 0)  -->
<svg version="1.1" id="Layer_1" xmlns="http://www.w3.org/2000/svg" xmlns:xlink="http://www.w3.org/1999/xlink" x="0px" y="0px"
	 viewBox="0 0 50 50" style="enable-background:new 0 0 50 50;" xml:space="preserve">
<style type="text/css">
	.st0{fill:#F78631;}
	.st1{fill:#FFFFFF;stroke:#000000;stroke-miterlimit:10;}
	.st2{fill:none;}
</style>
<title>Calendar</title>
<path class="st0" d="M20.1,26.8c0-0.4-0.4-0.8-0.8-0.8c0,0,0,0,0,0h-2.9c-0.4,0-0.8,0.4-0.8,0.8v2.9c0,0.5,0.4,0.8,0.8,0.8h2.9
	c0.4,0,0.8-0.4,0.8-0.8c0,0,0,0,0,0V26.8z"/>
<path class="st0" d="M27.2,26.8c0-0.4-0.4-0.8-0.8-0.8h-2.9c-0.4,0-0.8,0.4-0.8,0.8v2.9c0,0.5,0.4,0.8,0.8,0.8h2.9
	c0.5,0,0.8-0.4,0.8-0.8V26.8z"/>
<path class="st0" d="M34.4,26.8c0-0.4-0.4-0.8-0.8-0.8h-2.9c-0.4,0-0.8,0.4-0.8,0.8v2.9c0,0.5,0.4,0.8,0.8,0.8h2.9
	c0.5,0,0.8-0.4,0.8-0.8L34.4,26.8z"/>
<path class="st0" d="M20.1,34c0-0.5-0.4-0.8-0.8-0.8h-2.9c-0.5,0-0.8,0.4-0.8,0.8v2.9c0,0.5,0.4,0.8,0.8,0.8h2.9
	c0.4,0,0.8-0.4,0.8-0.8c0,0,0,0,0,0V34z"/>
<path class="st0" d="M27.2,34c0-0.5-0.4-0.8-0.8-0.8h-2.9c-0.5,0-0.8,0.4-0.8,0.8v2.9c0,0.5,0.4,0.8,0.8,0.8h2.9
	c0.5,0,0.8-0.4,0.8-0.8V34z"/>
<path class="st0" d="M34.4,34c0-0.5-0.4-0.8-0.8-0.8h-2.9c-0.5,0-0.8,0.4-0.8,0.8v2.9c0,0.5,0.4,0.8,0.8,0.8h2.9
	c0.5,0,0.8-0.4,0.8-0.8L34.4,34z"/>
<path class="st1" d="M39.5,10.9v4.4c0,2-1.6,3.6-3.6,3.6h-2.3c-2,0-3.6-1.6-3.6-3.6c0,0,0,0,0,0v-4.4H19.9v4.4c0,2-1.6,3.6-3.6,3.6
	c0,0,0,0,0,0h-2.2c-2,0-3.6-1.6-3.6-3.6c0,0,0,0,0,0v-4.4c-1.7,0.1-3.1,1.5-3.1,3.2v25.6c0,1.8,1.5,3.2,3.2,3.2h28.8
	c1.8,0,3.2-1.5,3.2-3.2V14.2C42.7,12.4,41.3,11,39.5,10.9z M38.5,38.2c0,0.8-0.6,1.4-1.4,1.4h0H12.9c-0.8,0-1.4-0.6-1.4-1.4
	c0,0,0,0,0,0V25c0-0.8,0.6-1.4,1.4-1.4h24.2c0.8,0,1.4,0.6,1.4,1.4c0,0,0,0,0,0L38.5,38.2z"/>
<rect x="7.3" y="6.9" class="st2" width="35.3" height="36.2"/>
<path class="st1" d="M14.1,16.5h2.2c0.7,0,1.2-0.6,1.2-1.2V8.1c0-0.7-0.6-1.2-1.2-1.2h-2.2c-0.7,0-1.2,0.6-1.2,1.2c0,0,0,0,0,0v7.2
	C12.8,16,13.4,16.5,14.1,16.5z"/>
<path class="st1" d="M33.7,16.5h2.2c0.7,0,1.2-0.6,1.2-1.2V8.1c0-0.7-0.5-1.2-1.2-1.2h-2.2c-0.7,0-1.2,0.6-1.2,1.2v7.2
	C32.4,16,33,16.5,33.7,16.5z"/>
</svg>
