<svg xmlns="http://www.w3.org/2000/svg" width="32" height="32">
    <path fill="#FFF" fill-rule="evenodd" d="M31.98 25.254c.068.52-.09.972-.474 1.356l-4.505 4.475a2.525 2.525 0 0 1-.796.576c-.327.158-.649.26-.965.305-.023 0-.09.006-.203.017a4.71 4.71 0 0 1-.441.017c-.429 0-1.123-.073-2.083-.22-.959-.147-2.134-.509-3.522-1.085-1.389-.576-2.964-1.441-4.726-2.593-1.761-1.153-3.635-2.735-5.622-4.746-1.581-1.559-2.891-3.051-3.93-4.475-1.038-1.423-1.874-2.74-2.506-3.949-.632-1.209-1.107-2.305-1.423-3.288-.316-.983-.53-1.83-.643-2.542C.028 8.39-.017 7.831.005 7.424c.023-.407.034-.633.034-.678.045-.317.147-.639.305-.966a2.53 2.53 0 0 1 .576-.797L5.425.475C5.741.158 6.102 0 6.509 0c.293 0 .553.085.779.254.226.17.417.379.576.627l3.624 6.882c.203.361.26.757.169 1.186-.09.43-.282.791-.576 1.085l-1.659 1.661a.558.558 0 0 0-.119.22.84.84 0 0 0-.051.254c.091.475.294 1.017.61 1.628.271.542.689 1.203 1.253 1.983.565.779 1.366 1.678 2.405 2.695 1.016 1.039 1.92 1.847 2.71 2.423.79.576 1.451 1 1.981 1.272.531.271.938.435 1.22.491l.423.085a.799.799 0 0 0 .22-.051.577.577 0 0 0 .221-.119l1.93-1.966a2.078 2.078 0 0 1 1.423-.542c.384 0 .689.068.914.203h.034l6.538 3.864c.474.294.756.667.846 1.119z"/>
</svg>
