<svg xmlns="http://www.w3.org/2000/svg" width="33" height="32">
    <path fill="#F78621" fill-rule="evenodd" d="M29.834 32H3.167A2.666 2.666 0 0 1 .5 29.333V5.666A2.666 2.666 0 0 1 3.167 3H7.5V1a1 1 0 1 1 2 0v2h6V1a1 1 0 1 1 2 0v2h6V1a1 1 0 1 1 2 0v2h4.334A2.665 2.665 0 0 1 32.5 5.666v23.667A2.665 2.665 0 0 1 29.834 32zM30.5 5.666A.667.667 0 0 0 29.834 5H25.5v2a1 1 0 1 1-2 0V5h-6v2a1 1 0 1 1-2 0V5h-6v2a1 1 0 1 1-2 0V5H3.167a.667.667 0 0 0-.667.666v23.667c0 .368.299.667.667.667h26.667a.667.667 0 0 0 .666-.667V5.666zM21.5 22h4v3h-4v-3zm0-5h4v3h-4v-3zm0-5h4v3h-4v-3zm-7 10h4v3h-4v-3zm0-5h4v3h-4v-3zm0-5h4v3h-4v-3zm-7 10h4v3h-4v-3zm0-5h4v3h-4v-3zm0-5h4v3h-4v-3z"/>
</svg>
