<svg xmlns="http://www.w3.org/2000/svg" width="18" height="18" viewBox="0 0 18 18">
    <defs>
        <style>
            .a {
                fill: #3593d2;
            }
        </style>
    </defs>
    <path class="a"
        d="M5.4,14.4a1.8,1.8,0,1,0,1.8,1.8A1.805,1.805,0,0,0,5.4,14.4ZM0,0V1.8H1.8L5.04,8.64,3.78,10.8a3.2,3.2,0,0,0-.18.9,1.805,1.805,0,0,0,1.8,1.8H16.2V11.7H5.76a.194.194,0,0,1-.18-.18v-.09L6.39,9.9h6.66A1.641,1.641,0,0,0,14.58,9l3.24-5.85A.5.5,0,0,0,18,2.7a.85.85,0,0,0-.9-.9H3.78L2.97,0ZM14.4,14.4a1.8,1.8,0,1,0,1.8,1.8A1.805,1.805,0,0,0,14.4,14.4Z" />
</svg>