<svg xmlns="http://www.w3.org/2000/svg" width="35" height="37">
    <path fill="#F78631" fill-rule="evenodd" d="M9.975 24.361h20.752c2.354 0 4.273-1.886 4.273-4.197v-8.578-.031-.06c0-.016 0-.031-.008-.046 0-.015-.008-.038-.008-.053 0-.016-.007-.031-.007-.046-.008-.015-.008-.03-.016-.053-.008-.015-.008-.03-.015-.046-.008-.015-.008-.03-.016-.045-.007-.016-.015-.031-.023-.054-.008-.015-.015-.03-.023-.038a.956.956 0 0 1-.023-.045c-.008-.015-.016-.023-.024-.038-.007-.015-.023-.031-.03-.046-.008-.015-.016-.023-.031-.038-.008-.015-.024-.023-.031-.038-.008-.015-.024-.023-.031-.038-.008-.015-.024-.023-.031-.03a1.38 1.38 0 0 0-.039-.038c-.015-.008-.023-.023-.039-.031-.015-.007-.031-.023-.046-.03-.016-.008-.023-.015-.039-.023s-.031-.015-.046-.031a.991.991 0 0 1-.047-.022l-.046-.023-.047-.023c-.015-.008-.031-.008-.046-.015a.142.142 0 0 0-.054-.015c-.016 0-.031-.008-.039-.008-.023-.007-.039-.007-.062-.007-.008 0-.015-.008-.031-.008L7.8 7V3.396c0-.038 0-.076-.007-.107 0-.007 0-.015-.008-.03 0-.023-.008-.045-.008-.069-.008-.022-.008-.037-.015-.06 0-.015-.008-.023-.008-.038l-.023-.069c0-.007-.008-.023-.008-.03a.22.22 0 0 0-.031-.061c-.008-.008-.008-.023-.016-.03a.129.129 0 0 0-.031-.046c-.007-.015-.015-.023-.023-.038l-.023-.038c-.008-.015-.023-.03-.031-.046l-.023-.022-.047-.046-.023-.023a.378.378 0 0 0-.054-.046c-.008-.007-.023-.015-.031-.022-.015-.016-.031-.023-.046-.038a.89.89 0 0 0-.062-.039c-.008-.007-.016-.007-.023-.015-.031-.015-.07-.03-.101-.045L1.453.08a1.051 1.051 0 0 0-1.37.548 1.019 1.019 0 0 0 .558 1.346l5.062 2.099v22.494c0 2.129 1.625 3.893 3.723 4.159a4.089 4.089 0 0 0-.604 2.129c0 2.29 1.896 4.145 4.219 4.145 2.322 0 4.218-1.863 4.218-4.145 0-.76-.209-1.482-.58-2.091h9.396a4.037 4.037 0 0 0-.58 2.091c0 2.29 1.896 4.145 4.218 4.145 2.323 0 4.219-1.863 4.219-4.145 0-2.281-1.896-4.144-4.219-4.144H9.975c-1.207 0-2.182-.966-2.182-2.144v-2.784a4.377 4.377 0 0 0 2.182.578zm5.202 8.487c0 1.156-.96 2.091-2.129 2.091-1.168 0-2.128-.943-2.128-2.091 0-1.148.96-2.091 2.128-2.091 1.169 0 2.129.935 2.129 2.091zm16.673 0c0 1.156-.96 2.091-2.129 2.091s-2.129-.943-2.129-2.091c0-1.148.96-2.091 2.129-2.091s2.129.935 2.129 2.091zm-1.123-10.54H9.975c-1.207 0-2.182-.966-2.182-2.144V9.069l25.117 3.399v7.688c0 1.194-.983 2.152-2.183 2.152z"/>
</svg>
