<svg xmlns="http://www.w3.org/2000/svg" width="241" height="151">
    <defs>
        <linearGradient id="a" x1="100%" x2="0%" y1="0%" y2="0%">
            <stop offset="0%" stop-color="#F78631"/>
            <stop offset="100%" stop-color="#FF6D00"/>
        </linearGradient>
    </defs>
    <path fill="#EF5350" fill-rule="evenodd" d="M71 0h98c16.569 0 23 8.431 23 25l12 105c0 7.393 10.284 15.113 20.294 15.55 12.63.551 22.603 5.044 9.706 4.45L4 151c-10.06 0 2.766-4.219 15.751-6.626C27.66 142.907 35 136.508 35 130L46 24C46 7.431 54.431 0 71 0z"/>
    <path fill="url(#a)" d="M71 0h98c16.569 0 23 8.431 23 25l12 105c0 7.393 10.284 15.113 20.294 15.55 12.63.551 22.603 5.044 9.706 4.45L4 151c-10.06 0 2.766-4.219 15.751-6.626C27.66 142.907 35 136.508 35 130L46 24C46 7.431 54.431 0 71 0z"/>
</svg>
