<svg xmlns="http://www.w3.org/2000/svg" width="23.029" height="21.188" viewBox="0 0 23.029 21.188"><defs><style>.a{fill:#fff;}</style></defs><g transform="translate(0 1.332)"><path class="a" d="M19.863-1.332H3.166A3.17,3.17,0,0,0,0,1.834V12.052a3.17,3.17,0,0,0,3.155,3.166v4.637l6.664-4.637H19.863a3.17,3.17,0,0,0,3.166-3.166V1.834A3.17,3.17,0,0,0,19.863-1.332ZM21.68,12.052a1.819,1.819,0,0,1-1.817,1.817H9.4L4.5,17.273v-3.4H3.166a1.819,1.819,0,0,1-1.817-1.817V1.834A1.819,1.819,0,0,1,3.166.017h16.7A1.819,1.819,0,0,1,21.68,1.834Zm0,0"/><path class="a" d="M171.293,131.172h10.7v1.349h-10.7Zm0,0" transform="translate(-165.129 -127.736)"/><path class="a" d="M171.293,211.172h10.7v1.349h-10.7Zm0,0" transform="translate(-165.129 -204.857)"/><path class="a" d="M171.293,291.172h10.7v1.349h-10.7Zm0,0" transform="translate(-165.129 -281.979)"/></g></svg>