<?xml version="1.0" encoding="utf-8"?>
<!-- Generator: Adobe Illustrator 23.0.2, SVG Export Plug-In . SVG Version: 6.00 Build 0)  -->
<svg version="1.1" id="Layer_1" xmlns="http://www.w3.org/2000/svg" xmlns:xlink="http://www.w3.org/1999/xlink" x="0px" y="0px"
	 viewBox="0 0 303.294 303.294" enable-background="new 0 0 303.294 303.294" xml:space="preserve">
<g>
	<path fill="#FFFFFF" d="M222.367,170.661c4.423,7.311,7.041,16.225,7.564,25.23c8.525,1.936,14.91,9.558,14.91,18.655
		c0,10.556-8.588,19.144-19.144,19.144c-10.556,0-19.144-8.588-19.144-19.144c0-8.971,6.213-16.5,14.553-18.565
		c-0.846-12.218-6.345-24.493-15.226-30.165c-2.157-0.38-4.343-0.69-6.558-0.892c-0.322,14.323-21.537,25.874-47.684,25.874
		c-26.144,0-47.365-11.551-47.675-25.874c-2.826,0.259-5.601,0.682-8.331,1.231c-6.899,4.929-12.473,14.553-12.779,26.236
		c1.707,0.989,3.089,2.525,3.936,4.383c6.292,2.968,11.85,9.218,16.104,18.117c0.712,1.499,0.807,3.19,0.283,4.735
		c2.551,6.566,4.008,13.739,4.008,19.765c0,8.444,0,16.429-9.204,18.479c-0.997,0.831-2.243,1.283-3.555,1.283h-6.149
		c-3.085,0-5.594-2.511-5.594-5.594l0.006-0.219c0.118-2.971,2.606-5.376,5.588-5.376h6.149c0.63,0,1.247,0.107,1.839,0.317
		c0.372-0.107,0.489-0.193,0.49-0.196c0.684-1.214,0.684-6.267,0.684-8.694c0-4.895-1.225-10.806-3.372-16.299
		c-1.113-0.633-2.013-1.591-2.569-2.747c-3.729-7.809-8.8-12.85-12.918-12.85c-4.212,0-9.537,5.45-13.249,13.561
		c-0.605,1.32-1.67,2.399-2.978,3.04c-1.94,5.257-3.006,10.667-3.006,15.295c0,2.039,0,7.449,0.778,8.718
		c0.01,0,0.183,0.106,0.67,0.227c0.637-0.244,1.32-0.371,2.003-0.371h6.161c2.872,0,5.271,2.189,5.561,5.028l0.03,0.348
		c0,3.302-2.508,5.813-5.591,5.813H62.8c-1.221,0-2.404-0.406-3.377-1.151c-3.519-0.661-5.998-2.214-7.57-4.743
		c-1.901-3.054-2.249-7.067-2.249-13.869c0-5.971,1.378-12.842,3.883-19.406c-0.369-1.403-0.244-2.87,0.367-4.193
		c2.607-5.7,5.923-10.584,9.586-14.116c2.015-1.941,4.181-3.503,6.446-4.642c0.849-1.988,2.33-3.618,4.135-4.651
		c0.173-7.74,2.307-15.086,5.804-21.258c-27.767,12.108-47.178,39.789-47.178,72.019c0,39.11,28.583,41.037,66.008,41.037
		c4.078,0,8.266-0.023,12.54-0.023h80.904c4.257,0,8.45,0.023,12.534,0.023c37.425,0,66.014-1.921,66.014-41.037
		C270.647,210.485,250.715,182.514,222.367,170.661z"/>
	<path fill="#FFFFFF" d="M151.645,175.18c36.179,0,65.499-54.4,65.499-90.565c0-36.177-29.32-65.502-65.499-65.502
		c-36.174,0-65.496,29.325-65.496,65.502C86.149,120.786,115.477,175.18,151.645,175.18z M112.518,55.18
		c9.782,29.78,77.36,16.371,77.36,16.371c19.466-1.484,18.057,25.276,18.034,25.569c-5.143,30.528-28.376,67.797-56.266,67.797
		c-28.94,0-52.876-40.163-56.77-71.249C97.935,67.289,112.518,55.18,112.518,55.18z"/>
	<circle fill="#FFFFFF" cx="225.698" cy="214.546" r="8.836"/>
</g>
</svg>
