<svg xmlns="http://www.w3.org/2000/svg" width="41" height="41">
    <path fill="#757575" fill-rule="evenodd" d="M26.732 21.746H14.266a1.247 1.247 0 0 0 0 2.493h12.466a1.246 1.246 0 1 0 0-2.493zm2.494-7.48H11.773a1.247 1.247 0 0 0 0 2.494h17.453a1.247 1.247 0 0 0 0-2.494zM20.499.553C9.484.553.553 8.367.553 18.006c0 5.509 2.924 10.413 7.48 13.612v8.828l8.738-5.302c1.209.199 2.453.315 3.728.315 11.017 0 19.947-7.814 19.947-17.453S31.516.553 20.499.553zm0 32.413c-1.456 0-2.862-.17-4.213-.457l-5.87 3.527.079-5.782c-4.499-2.706-7.449-7.179-7.449-12.248 0-8.261 7.814-14.96 17.453-14.96s17.454 6.699 17.454 14.96c0 8.262-7.815 14.96-17.454 14.96z"/>
</svg>
