<svg xmlns="http://www.w3.org/2000/svg" width="5.004" height="8.472" viewBox="0 0 5.004 8.472"><defs><style>.a{fill:#f78631;}</style></defs><g transform="translate(105.702) rotate(90)"><g transform="translate(0 100.698)"><path class="a" d="M8.336,101.116l-.278-.279a.465.465,0,0,0-.656,0L4.238,104l-3.169-3.169a.465.465,0,0,0-.655,0l-.278.278a.464.464,0,0,0,0,.655l3.773,3.787a.474.474,0,0,0,.329.149h0a.474.474,0,0,0,.328-.149l3.77-3.777a.47.47,0,0,0,0-.66Z" transform="translate(0 -100.698)"/></g></g></svg>