<svg xmlns="http://www.w3.org/2000/svg" width="15.839" height="15.839" viewBox="0 0 15.839 15.839"><defs><style>.a{fill:#8ea51d;}</style></defs><g transform="translate(3.761 1.99)"><path class="a" d="M133.193,64.5a.6.6,0,0,0-.844,0l-7.161,7.142L122.6,68.838a.6.6,0,1,0-.878.809l3,3.263a.6.6,0,0,0,.426.192h.013a.6.6,0,0,0,.421-.174l7.6-7.581A.6.6,0,0,0,133.193,64.5Z" transform="translate(-121.568 -64.327)"/></g><path class="a" d="M15.242,7.322a.6.6,0,0,0-.6.6A6.726,6.726,0,1,1,7.919,1.194.6.6,0,1,0,7.919,0a7.919,7.919,0,1,0,7.919,7.919A.6.6,0,0,0,15.242,7.322Z"/></svg>