<svg xmlns="http://www.w3.org/2000/svg" width="40" height="40">
    <path fill="#4FC243" fill-rule="evenodd" stroke="#FFF" stroke-width="4" d="M20 8c6.627 0 12 5.373 12 12s-5.373 12-12 12S8 26.627 8 20 13.373 8 20 8z"/>
    <path fill="#FFF" fill-rule="evenodd" d="M13.859 20.511a.56.56 0 0 1-.151-.36c0-.103.05-.258.151-.361l.708-.721a.484.484 0 0 1 .709 0l.05.052 2.781 3.038a.243.243 0 0 0 .355 0l6.777-7.158h.05a.483.483 0 0 1 .708 0l.708.721a.503.503 0 0 1 0 .721l-8.092 8.548a.454.454 0 0 1-.354.154.454.454 0 0 1-.354-.154l-3.945-4.326-.101-.154z"/>
</svg>
