<svg xmlns="http://www.w3.org/2000/svg" width="77" height="77">
    <path fill="#1B97FD" fill-rule="evenodd" d="M38.5 0C59.763 0 77 17.237 77 38.5S59.763 77 38.5 77 0 59.763 0 38.5 17.237 0 38.5 0z"/>
    <path fill="#1B97FD" fill-rule="evenodd" stroke="#0673CD" d="M38.485 8.125c16.766 0 30.359 13.592 30.359 30.359 0 16.767-13.593 30.36-30.359 30.36-16.767 0-30.36-13.593-30.36-30.36S21.718 8.125 38.485 8.125z"/>
    <path fill="#FFF" fill-rule="evenodd" d="M49.453 22.067h-3.124a2.235 2.235 0 0 0-2.102-1.494h-2.256A3.738 3.738 0 0 0 39 19.08c-1.167 0-2.27.563-2.971 1.493h-2.256c-.972 0-1.793.626-2.102 1.494h-3.124a2.989 2.989 0 0 0-2.987 2.986v26.88a2.99 2.99 0 0 0 2.987 2.987h20.906a2.99 2.99 0 0 0 2.987-2.987v-26.88a2.989 2.989 0 0 0-2.987-2.986zm-16.426.746c0-.412.334-.746.746-.746h2.655a.748.748 0 0 0 .645-.372 2.216 2.216 0 0 1 3.854 0c.134.23.38.372.646.372h2.654c.412 0 .746.334.746.746v.747c0 .823-.67 1.493-1.493 1.493h-8.96c-.823 0-1.493-.67-1.493-1.493v-.747zM45.72 50.44H32.28a.746.746 0 1 1 0-1.493h13.44a.746.746 0 1 1 0 1.493zm0-4.48H32.28a.746.746 0 1 1 0-1.493h13.44a.746.746 0 1 1 0 1.493zm0-7.467h-1.493a.747.747 0 0 1-.668-.412l-.728-1.456-1.638 4.371a.75.75 0 0 1-.7.484l-.042-.001a.747.747 0 0 1-.682-.565l-1.75-7.001-2.084 4.168a.747.747 0 0 1-.668.412H32.28a.746.746 0 1 1 0-1.493h2.525l2.78-5.561a.75.75 0 0 1 .75-.408.744.744 0 0 1 .642.561l1.659 6.634 1.398-3.729a.747.747 0 0 1 1.367-.071L44.688 37h1.032a.746.746 0 1 1 0 1.493z"/>
</svg>
