<?xml version="1.0" encoding="utf-8"?>
<!-- Generator: Adobe Illustrator 24.0.3, SVG Export Plug-In . SVG Version: 6.00 Build 0)  -->
<svg version="1.1" id="Layer_1" xmlns="http://www.w3.org/2000/svg" xmlns:xlink="http://www.w3.org/1999/xlink" x="0px" y="0px"
	 viewBox="0 0 50 50" style="enable-background:new 0 0 50 50;" xml:space="preserve">
<style type="text/css">
	.st0{fill:#F68631;}
</style>
<path class="st0" d="M41.7,33.4L37.3,29c-1.2-1.2-3.2-1.2-4.4,0l-0.7,0.7l8.7,8.7l0.7-0.7C42.9,36.5,42.9,34.6,41.7,33.4z"/>
<path class="st0" d="M27.6,31L19,22.3c-0.8-0.8-0.9-2.2-0.2-3.1l-8.7-8.7c-3.8,4.4-3.6,11,0.5,15.1l13.7,13.7c4,4,10.5,4.5,15.1,0.5
	l-8.7-8.7C29.8,31.9,28.5,31.8,27.6,31z"/>
<path class="st0" d="M21,17c1.2-1.2,1.2-3.2,0-4.4l-4.4-4.4c-1.2-1.2-3.2-1.2-4.4,0L11.5,9l8.7,8.7L21,17z"/>
</svg>
