<svg xmlns="http://www.w3.org/2000/svg" width="96.414" height="230.954" viewBox="0 0 96.414 230.954"><defs><style>.a{fill:#3a332d;}.b{fill:#e1cfb5;}.c{fill:#323643;}.d{fill:#68707f;}.e{fill:#dad9ca;}.f{fill:#777f87;}.g{fill:#434d55;}.h{fill:#919ca6;}.i{fill:#6baa9e;}.j{fill:#272525;opacity:0.1;}</style></defs><g transform="translate(-102.507 -201.012)"><g transform="translate(120.757 229.703)"><path class="a" d="M204.463,329.608a.962.962,0,0,0,.778,1.416c6.57,1.98,13.618.23,20.253-1.521,1.109-.293,2.218-.585,3.32-.9a3.952,3.952,0,0,0,1.516-.69,3.054,3.054,0,0,0,.906-2.091,11.454,11.454,0,0,0-1.255-5.346,110.617,110.617,0,0,0-6.37-12.682,5.754,5.754,0,0,0-1.077-1.453,3.945,3.945,0,0,0-3.373-.732,10.658,10.658,0,0,0-3.257,1.436c-3.606,2.137-6.005,4.332-6.745,8.464C208.279,320.422,205.623,324.773,204.463,329.608Z" transform="translate(-182.714 -293.253)"/><path class="b" d="M239.5,297.314c-2.806-9.979-15.331-7.121-18.251,1.413-1.761,5.144,1.428,12.054,6.318,14.648a25.134,25.134,0,0,0,.227,4.817l5.257,0a37.365,37.365,0,0,0-.075-3.9,8.494,8.494,0,0,0,1.852-.551,9.858,9.858,0,0,0,5.385-7.193A19.743,19.743,0,0,0,239.5,297.314Z" transform="translate(-192.674 -284.421)"/><g transform="translate(0 0.961)"><g transform="translate(19.135 121.454)"><g transform="translate(5.924 70.433)"><path class="c" d="M222.982,769.666l-.32,3.283-6.739,2.848-2.89-3.5,3.529-3.065,6.739-2.848Z" transform="translate(-213.033 -766.382)"/></g><path class="d" d="M219.416,593.806l-5.189,65.512-6.493.87-5.374-55.837-4.444-17.714Z" transform="translate(-197.915 -586.637)"/></g><g transform="translate(35.003 111.07)"><path class="d" d="M257.6,560.137l3.893,77.847-3.947,1.461L245.2,580.54l-6.789-17.056Z" transform="translate(-238.411 -560.137)"/><g transform="translate(19.026 77.383)"><path class="c" d="M287.6,762.12l7.037,2.123,2.571-3.906-3.835-2.717-6.406,1.189Z" transform="translate(-286.965 -757.619)"/></g></g><g transform="translate(3.018 30.245)"><path class="e" d="M201.06,353.945a15.721,15.721,0,0,0-4.093.163,62.611,62.611,0,0,0-12.024,2.908,19.837,19.837,0,0,0-3.648,1.6c-5.551,3.311-5.1,8.5-6.119,14.272-.71,4.026-1.75,8.159-2.031,12.245-.733,10.651-4.079,21.425-8.7,31.178-1.947,4.112-4.267,8.078-5.652,12.406-2.294,7.172-2.288,15.62-1.639,23.043,6.529,1.77,12.645,5.085,19.36,5.944,5.524.707,11.1-.3,16.652-.78,6.562-.573,13.17-.42,19.738-.918s13.208-1.689,19.021-4.745c-.6.315-8.921-21.931-9.508-23.925a82.28,82.28,0,0,1-2.061-10.226c-2.727-16.962-6.171-33.882-11.71-50.191-1.423-4.19-1.707-11.844-7.012-12.887Q201.351,353.981,201.06,353.945Z" transform="translate(-156.784 -353.87)"/></g><g transform="translate(12.314)"><g transform="translate(25.286 2.935)"><path class="a" d="M245.038,290.485c3.039.545,6.785,3.106,7.517,6.268.353,1.523-.15,2.925.293,4.54.861,3.187-3.048,7.882.822,10.1,1.989,1.138,4.475.77,6.738.366a1.7,1.7,0,0,0,.779-.276,1.158,1.158,0,0,0,.282-1.248,4.721,4.721,0,0,0-.68-1.175c-2.659-3.944-2.015-9.6-3.049-14.093s-3.474-8.948-7.976-10.788a10.2,10.2,0,0,0-4.436,6.351Z" transform="translate(-245.038 -284.175)"/></g><path class="a" d="M194.725,310.755a8.9,8.9,0,0,0,3.673-3.445c1.344-2.656.777-6.783.938-9.665.168-3.037.448-6.347,2.56-8.564a7.352,7.352,0,0,1,4.991-2.038c1.312-.132,1.4.354,2.455-.435a5.583,5.583,0,0,0,1.511-3.2,5.36,5.36,0,0,0-1.744-4.334,7.73,7.73,0,0,0-6.223-2.366c-8.576.535-14.568,6.081-16.267,14.532-.817,4.063.424,8.4-.484,12.324-.56,2.42-1.955,4.118-2.358,6.679-1.046,6.645-3.972,15.276-3.112,21.984a.942.942,0,0,0,.289.671c.415.3.956-.154,1.258-.568l5.3-7.235a12.541,12.541,0,0,0,1.8-3.009c1-2.735.071-6.087,1.8-8.445A11.832,11.832,0,0,1,194.725,310.755Z" transform="translate(-180.508 -276.684)"/></g><g transform="translate(0 34.817)"><path class="e" d="M166.79,367.666,149.082,400.4l19.781,14.525,4.591-4.486-11.2-10.248,17.022-13.182-2.008-21.468Z" transform="translate(-149.082 -365.538)"/></g></g><g transform="translate(22.007)"><path class="f" d="M256.99,339.312a6.51,6.51,0,0,0,6.51-6.509h1.294a7.8,7.8,0,0,1-7.8,7.8Z" transform="translate(-236.714 -309.852)"/><rect class="g" width="4.863" height="2.61" rx="1.305" transform="translate(20.503 31.549) rotate(180)"/><g transform="translate(3.453)"><path class="h" d="M237.311,292.4v-5.353a10.476,10.476,0,1,0-20.952,0V292.4h-2.3v-5.393a12.777,12.777,0,1,1,25.554,0V292.4Z" transform="translate(-214.058 -274.231)"/></g><g transform="translate(0 14.903)"><path class="f" d="M205.641,317.016a2.3,2.3,0,0,0-.4,1.507v1.956a2.3,2.3,0,0,0,.4,1.506l.646.757V316.26Z" transform="translate(-205.245 -314.694)"/><rect class="g" width="5.72" height="9.613" rx="2.86" transform="translate(1.041)"/></g><g transform="translate(25.885 14.903)"><path class="f" d="M286.542,317.016a2.3,2.3,0,0,1,.4,1.507v1.956a2.3,2.3,0,0,1-.4,1.506l-.646.757V316.26Z" transform="translate(-280.178 -314.694)"/><rect class="g" width="5.72" height="9.613" rx="2.86" transform="translate(5.72 9.613) rotate(180)"/></g></g></g><g transform="translate(102.507 201.012)"><path class="i" d="M102.92,221c-1.265,10.242-.153,26.492,10.863,48.423s23.388,32.524,32.36,37.624a22.8,22.8,0,0,0,21.419.251l3.861-1.94a6.156,6.156,0,0,0,3.011-8.159l-9.224-18.364a6.157,6.157,0,0,0-8.343-2.455l-5.395,2.71a5.859,5.859,0,0,1-5.512-.057c-8.388-4.8-14.973-18.252-14.973-18.252s-6.86-13.313-5.7-22.909a5.859,5.859,0,0,1,3.245-4.456l5.395-2.71a6.156,6.156,0,0,0,3.011-8.159l-9.224-18.364a6.157,6.157,0,0,0-8.343-2.455l-3.861,1.939A22.805,22.805,0,0,0,102.92,221Z" transform="translate(-102.507 -201.012)"/><path class="j" d="M121.107,353.352c1.16,2.8,2.472,5.7,3.988,8.719C136.111,384,148.483,394.6,157.455,399.7a22.8,22.8,0,0,0,21.419.251l3.861-1.94a6.626,6.626,0,0,0,2.388-2.051C150.573,401.821,121.648,354.248,121.107,353.352Z" transform="translate(-113.819 -293.658)"/></g></g></svg>