<svg xmlns="http://www.w3.org/2000/svg" width="64" height="64">
    <path fill="#F78631" fill-opacity="0" fill-rule="evenodd" stroke="#000" d="M32 3.5c15.74 0 28.5 12.76 28.5 28.5S47.74 60.5 32 60.5 3.5 47.74 3.5 32 16.26 3.5 32 3.5z"/>
    <path fill="#F78631" fill-rule="evenodd" d="M34.992 41.734a1.055 1.055 0 0 1-1.478 0 .998.998 0 0 1 0-1.427l7.496-7.309H21.3c-.577-.001-1.036-.448-1.036-1.01a1.03 1.03 0 0 1 1.036-1.024h19.71l-7.496-7.295c-.4-.404-.4-1.053 0-1.442a1.055 1.055 0 0 1 1.478 0l9.271 9.04a.974.974 0 0 1 0 1.426l-9.271 9.041z"/>
</svg>
