<svg xmlns="http://www.w3.org/2000/svg" width="20" height="16">
    <path fill="#F78631" fill-rule="evenodd" d="M13.944 1.055l4.743 3.796c.291.251.438.594.438 1.026 0 .432-.146.775-.438 1.026l-4.743 3.796c-.412.363-.863.425-1.354.188-.491-.251-.737-.656-.737-1.214V6.972H3.069v7.619c0 .224-.073.398-.219.524l-.919.055c-.199.168-.432.195-.697.084-.24-.112-.359-.314-.359-.607V5.451c0-.196.06-.356.179-.482a.604.604 0 0 1 .458-.189h10.341V2.081c0-.559.246-.963.737-1.215.478-.251.929-.188 1.354.189z"/>
</svg>
