<svg xmlns="http://www.w3.org/2000/svg" width="24" height="24">
    <path fill="#F78B2E" fill-rule="evenodd" d="M2.143 9.028L9.316 2.06a4 4 0 0 1 5.656.083l6.968 7.173a4 4 0 0 1-.083 5.656l-7.173 6.968a4 4 0 0 1-5.656-.083L2.06 14.684a4 4 0 0 1 .083-5.656z"/>
    <path fill="#FFF" fill-rule="evenodd" d="M15.366 7.846l2.846 2.277c.175.151.263.356.263.616 0 .259-.088.464-.263.615l-2.846 2.278c-.247.218-.517.255-.812.113a.762.762 0 0 1-.442-.729v-1.62H8.841v4.571a.39.39 0 0 1-.131.314l-.552.034c-.119.1-.259.117-.418.05-.143-.067-.215-.189-.215-.365v-5.517c0-.118.036-.214.107-.289a.362.362 0 0 1 .275-.113h6.205v-1.62c0-.335.147-.578.442-.729.287-.151.558-.113.812.114z"/>
</svg>
