<svg id="Layer_1" data-name="Layer 1" xmlns="http://www.w3.org/2000/svg" viewBox="0 0 50 50"><defs><style>.cls-1{fill:none;stroke:#000;stroke-miterlimit:10;}.cls-2{fill:#f78631;}</style></defs><title>dentist</title><path class="cls-1" d="M39.71,9.12A10.83,10.83,0,0,0,29.43,6.68a18.69,18.69,0,0,1-8.86,0A10.81,10.81,0,0,0,10.3,9.12c-6.54,6-1.28,16.65.3,18.49s1.64,4.29,2.76,9.29,2.55,9.75,5.41,9,3.63-4.19,4.34-8.84c.05-.31.1-.62.16-.9a1.76,1.76,0,0,1,3.47,0c.05.28.1.59.15.9.72,4.65,1.48,8.12,4.34,8.84s4.29-4,5.41-9,1.18-7.45,2.76-9.29S46.24,15.1,39.71,9.12Z"/><path class="cls-2" d="M18.54,12.37a5.67,5.67,0,0,0-6.18,4.54,1.08,1.08,0,0,1-1,.81,1.24,1.24,0,0,1-.27,0,1.09,1.09,0,0,1-.78-1.31,7.77,7.77,0,0,1,8.55-6.15,1.08,1.08,0,0,1-.28,2.14Z"/></svg>