<svg xmlns="http://www.w3.org/2000/svg" width="32.308" height="32.308" viewBox="0 0 32.308 32.308"><defs><style>.a{fill:#f78631;}.b{fill:#fff;fill-rule:evenodd;}.c{fill:none;stroke:#f78631;stroke-width:0.5px;stroke-dasharray:2;}</style></defs><g transform="translate(2.494 2.584)"><circle class="a" cx="13.569" cy="13.569" r="13.569"/><path class="b" d="M4442.185,1434.711a3.028,3.028,0,0,0-4.277,0l-2.494,2.494,2.83,2.83a3.33,3.33,0,0,1,2.137-.79,3.371,3.371,0,0,1,1.318.271l.485-.529A3.028,3.028,0,0,0,4442.185,1434.711Zm-4.411,5.8-2.836-2.833-2.44,2.441a3.041,3.041,0,0,0,4.3,4.3l.494-.5a3.311,3.311,0,0,1,.482-3.412Zm-.08,2.093a2.674,2.674,0,0,0,2.351,2.653v-5.309A2.678,2.678,0,0,0,4437.693,1442.608Zm3.023-2.656v5.309a2.675,2.675,0,0,0,0-5.309Z" transform="translate(-4424.469 -1426.48)"/><circle class="c" cx="15.904" cy="15.904" r="15.904" transform="translate(-2.244 -2.334)"/></g></svg>