<svg xmlns="http://www.w3.org/2000/svg" width="32.308" height="32.308" viewBox="0 0 32.308 32.308"><defs><style>.a{fill:#f78631;}.b{fill:#fff;}.c{fill:none;stroke:#f78631;stroke-width:0.5px;stroke-dasharray:2;}</style></defs><g transform="translate(2.494 2.584)"><circle class="a" cx="13.569" cy="13.569" r="13.569"/><g transform="translate(-26.758 6.142)"><g transform="translate(37.568)"><path class="b" d="M155.245,0A2.944,2.944,0,0,0,152.3,2.941V4.465a2.941,2.941,0,1,0,5.881,0V2.941A2.944,2.944,0,0,0,155.245,0Z" transform="translate(-152.304)"/></g><g transform="translate(34.007 7.883)"><g transform="translate(0)"><path class="b" d="M46.994,265.251a7.459,7.459,0,0,0-4.238-3.35.117.117,0,0,0-.117.029,12.279,12.279,0,0,1-2.128,1.617,15.281,15.281,0,0,1-2.132-1.617.117.117,0,0,0-.117-.029,7.457,7.457,0,0,0-4.238,3.35.118.118,0,0,0,0,.119,7.541,7.541,0,0,0,12.97,0A.117.117,0,0,0,46.994,265.251Zm-2.486.877a.123.123,0,0,1-.127.115h-.8a.137.137,0,0,0-.136.121v.824a.1.1,0,0,1-.1.114h-.715a.123.123,0,0,1-.126-.114v-.824a.114.114,0,0,0-.109-.121h-.831a.116.116,0,0,1-.119-.115v-.709a.118.118,0,0,1,.119-.117H42.4a.111.111,0,0,0,.109-.118v-.825a.124.124,0,0,1,.126-.116h.708a.108.108,0,0,1,.107.116v.827a.125.125,0,0,0,.128.115h.8a.128.128,0,0,1,.127.12Z" transform="translate(-34.007 -261.896)"/></g></g></g><circle class="c" cx="15.904" cy="15.904" r="15.904" transform="translate(-2.244 -2.334)"/></g></svg>