<svg xmlns="http://www.w3.org/2000/svg" width="32.308" height="32.308" viewBox="0 0 32.308 32.308"><defs><style>.a{fill:#f78631;}.b{fill:#fff;fill-rule:evenodd;}.c{fill:none;stroke:#f78631;stroke-width:0.5px;stroke-dasharray:2;}</style></defs><g transform="translate(2.494 2.584)"><circle class="a" cx="13.569" cy="13.569" r="13.569"/><path class="b" d="M3962.621,1435.009a1.076,1.076,0,0,0,.408.912,3.4,3.4,0,0,0,.75.448,8.855,8.855,0,0,1-1.234,1.981,2.56,2.56,0,0,0-.382,2.586,4.422,4.422,0,0,0,3.481,2.676,3.292,3.292,0,0,0,2.905-1.042,6.057,6.057,0,0,0,1.3-5.142,2.809,2.809,0,0,1,1.125-3.084,2.244,2.244,0,0,0,2.794.655,2.313,2.313,0,0,0,1.188-2.65,2.259,2.259,0,0,0-4.433.257,2.548,2.548,0,0,0-.014.521,4.1,4.1,0,0,0-1.908,4.511,4.832,4.832,0,0,1-.954,4.026,2.064,2.064,0,0,1-1.826.668,3.168,3.168,0,0,1-2.481-1.858,1.259,1.259,0,0,1,.162-1.29,10.148,10.148,0,0,0,1.539-2.556,3.336,3.336,0,0,0,1.125-.211,1.07,1.07,0,0,0,.655-.725,9.59,9.59,0,0,0,2.74-3.632.65.65,0,0,0-.2-.778,3.6,3.6,0,0,0-.418-3.268.473.473,0,0,0-.125-.495l-.665-.6a.365.365,0,0,0-.559.067l-.451.642a.349.349,0,0,0-.061.3.344.344,0,0,0,.2.231l.8.374a.54.54,0,0,0,.616-.147,3.284,3.284,0,0,1,.266,2.77.639.639,0,0,0-.549.384,8.409,8.409,0,0,1-2.083,2.927,1.029,1.029,0,0,0-.872-.077,1.15,1.15,0,0,1-.562.073l-.036,0a1.212,1.212,0,0,1-.546-.254,1.031,1.031,0,0,0-.846-.2,8.643,8.643,0,0,1-1.158-3.358.642.642,0,0,0-.421-.528,3.27,3.27,0,0,1,1.023-2.579.543.543,0,0,0,.549.314l.869-.13a.336.336,0,0,0,.255-.163.348.348,0,0,0,.025-.3l-.253-.748a.373.373,0,0,0-.207-.233.364.364,0,0,0-.31.01l-.81.388a.464.464,0,0,0-.253.438,3.584,3.584,0,0,0-1.306,3.014.649.649,0,0,0-.412.692A9.788,9.788,0,0,0,3962.621,1435.009Zm10.254-2.967a.888.888,0,0,1,.737.662.905.905,0,0,1-.322.944.874.874,0,0,1-.983.057.9.9,0,0,1-.425-.9.884.884,0,0,1,.994-.762Z" transform="translate(-3954.532 -1421.287)"/><circle class="c" cx="15.904" cy="15.904" r="15.904" transform="translate(-2.244 -2.334)"/></g></svg>