<?xml version="1.0" encoding="utf-8"?>
<!-- Generator: Adobe Illustrator 22.1.0, SVG Export Plug-In . SVG Version: 6.00 Build 0)  -->
<svg version="1.1" xmlns="http://www.w3.org/2000/svg" xmlns:xlink="http://www.w3.org/1999/xlink" x="0px" y="0px"
	 viewBox="0 0 1333.4 392.4" style="enable-background:new 0 0 1333.4 392.4;" xml:space="preserve">
<style type="text/css">
	.st0{fill:#FFFFFF;}
	.st1{enable-background:new    ;}
</style>
<g id="Layer_2">
</g>
<g id="Layer_1">
	<title>_dpAsset 1</title>
	<g id="Layer_2_1_">
		<g id="Layer_2-2">
			<g>
				<rect x="600.9" y="27.4" class="st0" width="2" height="364"/>
			</g>
			<g class="st1">
				<path class="st0" d="M652,24.5v21.9h26c1.5,0,2.7,0.5,3.6,1.4c1,0.9,1.4,2.1,1.4,3.6c0,1.3-0.5,2.4-1.4,3.3
					c-1,0.9-2.2,1.4-3.6,1.4h-26v27.7c0,1.4-0.5,2.6-1.5,3.6c-1,1-2.2,1.5-3.6,1.5c-1.5,0-2.7-0.5-3.7-1.5c-1-1-1.5-2.2-1.5-3.6
					V19.9c0-1.4,0.5-2.6,1.5-3.6c1-1,2.2-1.5,3.6-1.5h36c1.5,0,2.7,0.5,3.6,1.4c1,0.9,1.4,2.1,1.4,3.6c0,1.3-0.5,2.4-1.5,3.3
					c-1,1-2.2,1.4-3.6,1.4H652z"/>
				<path class="st0" d="M759.1,82.1c0.4,0.7,0.6,1.5,0.6,2.3c0,1.5-0.5,2.6-1.4,3.3c-1,0.7-2.1,1.1-3.4,1.1c-1.3,0-2.5-0.3-3.4-0.8
					c-2.1-1.2-3.8-3.1-5.2-5.8c-1.3-2.7-2-6.6-2-11.8c0-3.5-1.1-6.1-3.2-7.8c-2.1-1.7-4.9-2.5-8.2-2.5h-21.3v23.8
					c0,1.5-0.4,2.7-1.3,3.6c-0.8,1-1.9,1.4-3.3,1.4c-1.6,0-3-0.5-4.2-1.5c-1.2-1-1.7-2.2-1.7-3.6V19.9c0-1.4,0.5-2.6,1.5-3.6
					c1-1,2.2-1.5,3.6-1.5h29.7c3.8,0,7.3,0.9,10.5,2.8c3.2,1.9,5.7,4.4,7.6,7.7c1.9,3.3,2.9,7,2.9,11c0,3.9-1.1,7.6-3.2,11
					c-2.1,3.4-4.8,6-8.1,7.7c2.6,1.3,4.7,3.2,6.2,5.6c1.5,2.4,2.3,5.2,2.5,8.3c0.3,4,0.6,6.7,1,8.2c0.4,1.4,1.1,2.5,2.3,3.1
					C758.2,80.8,758.7,81.4,759.1,82.1z M740.7,49c1.6-1.3,2.9-3,3.9-5.1c1-2.1,1.5-4.6,1.5-7.2c0-3.4-1-6.2-3.1-8.6
					c-2.1-2.4-4.6-3.5-7.5-3.5h-23.8v26.6h24.1C737.5,51,739.1,50.3,740.7,49z"/>
				<path class="st0" d="M818.4,80.5c1,1,1.4,2.1,1.4,3.5c0,1.4-0.5,2.6-1.4,3.4c-1,0.9-2.2,1.3-3.6,1.3H778c-1.4,0-2.6-0.5-3.6-1.5
					c-1-1-1.5-2.2-1.5-3.6V19.9c0-1.4,0.5-2.6,1.5-3.6c1-1,2.2-1.5,3.6-1.5h36.7c1.5,0,2.7,0.5,3.6,1.4c1,0.9,1.4,2.1,1.4,3.6
					c0,1.4-0.5,2.6-1.4,3.4c-1,0.9-2.2,1.3-3.6,1.3h-31.4v21.5H810c1.5,0,2.7,0.5,3.6,1.4c0.9,0.9,1.4,2.1,1.4,3.5
					c0,1.5-0.5,2.6-1.4,3.5c-1,0.8-2.2,1.3-3.6,1.3h-26.6V79h31.4C816.3,79,817.5,79.5,818.4,80.5z"/>
				<path class="st0" d="M878.6,80.5c1,1,1.4,2.1,1.4,3.5c0,1.4-0.5,2.6-1.4,3.4c-1,0.9-2.2,1.3-3.6,1.3h-36.7
					c-1.4,0-2.6-0.5-3.6-1.5c-1-1-1.5-2.2-1.5-3.6V19.9c0-1.4,0.5-2.6,1.5-3.6c1-1,2.2-1.5,3.6-1.5h36.7c1.5,0,2.7,0.5,3.6,1.4
					c1,0.9,1.4,2.1,1.4,3.6c0,1.4-0.5,2.6-1.4,3.4c-1,0.9-2.2,1.3-3.6,1.3h-31.4v21.5h26.6c1.5,0,2.7,0.5,3.6,1.4
					c1,0.9,1.4,2.1,1.4,3.5c0,1.5-0.5,2.6-1.4,3.5c-1,0.8-2.2,1.3-3.6,1.3h-26.6V79h31.4C876.4,79,877.6,79.5,878.6,80.5z"/>
			</g>
			<g class="st1">
				<path class="st0" d="M652,151.2v21.9h26c1.5,0,2.7,0.5,3.6,1.4c1,0.9,1.4,2.1,1.4,3.6c0,1.3-0.5,2.4-1.4,3.3
					c-1,0.9-2.2,1.4-3.6,1.4h-26v27.7c0,1.4-0.5,2.6-1.5,3.6c-1,1-2.2,1.5-3.6,1.5c-1.5,0-2.7-0.5-3.7-1.5c-1-1-1.5-2.2-1.5-3.6
					v-63.8c0-1.4,0.5-2.6,1.5-3.6c1-1,2.2-1.5,3.6-1.5h36c1.5,0,2.7,0.5,3.6,1.4c1,0.9,1.4,2.1,1.4,3.6c0,1.3-0.5,2.4-1.5,3.3
					c-1,1-2.2,1.4-3.6,1.4H652z"/>
			</g>
			<g class="st1">
				<path class="st0" d="M746.3,160.8c1,0.9,1.4,2.2,1.4,3.7v45.8c0,1.4-0.5,2.6-1.4,3.6c-1,1-2.2,1.5-3.6,1.5s-2.7-0.5-3.6-1.4
					c-0.9-1-1.4-2.2-1.4-3.6v-2.7c-1.8,2.5-4.3,4.6-7.5,6.3s-6.6,2.6-10.2,2.6c-4.8,0-9.1-1.2-13-3.7c-3.9-2.5-7-5.9-9.2-10.3
					c-2.2-4.4-3.3-9.3-3.3-14.8c0-5.5,1.1-10.4,3.3-14.8c2.2-4.4,5.3-7.8,9.1-10.3c3.9-2.5,8.1-3.7,12.8-3.7c3.7,0,7.2,0.8,10.4,2.3
					c3.2,1.5,5.8,3.5,7.7,5.9v-2.5c0-1.5,0.5-2.7,1.4-3.7c0.9-1,2.1-1.5,3.6-1.5S745.4,159.8,746.3,160.8z M730,204.6
					c2.6-1.7,4.6-4,6-7c1.4-3,2.2-6.3,2.2-10c0-3.7-0.7-7-2.2-9.9c-1.4-3-3.4-5.3-6-7c-2.6-1.7-5.5-2.6-8.8-2.6
					c-3.3,0-6.2,0.8-8.8,2.5c-2.6,1.7-4.6,4-6,7c-1.4,3-2.2,6.3-2.2,10c0,3.7,0.7,7.1,2.2,10c1.4,3,3.4,5.3,6,7
					c2.6,1.7,5.5,2.5,8.8,2.5C724.5,207.2,727.4,206.3,730,204.6z"/>
				<path class="st0" d="M844.5,182.1v28.2c0,1.5-0.5,2.7-1.4,3.6c-0.9,1-2.1,1.4-3.6,1.4c-1.5,0-2.7-0.5-3.6-1.5
					c-1-1-1.4-2.2-1.4-3.6v-28.1c0-9.2-3.9-13.8-11.6-13.8c-2.7,0-5.2,0.6-7.4,1.8c-2.2,1.2-3.9,2.9-5.2,5c-1.2,2.1-1.8,4.4-1.8,7
					v28.1c0,1.4-0.5,2.6-1.4,3.6c-1,1-2.2,1.5-3.6,1.5c-1.5,0-2.7-0.5-3.6-1.4c-0.9-1-1.4-2.2-1.4-3.6v-28.2c0-4.2-0.9-7.5-2.6-10
					c-1.8-2.5-4.7-3.7-8.8-3.7c-4.2,0-7.6,1.3-10.3,4c-2.7,2.6-4.1,5.9-4.1,9.8v28.2c0,1.4-0.5,2.6-1.4,3.6c-1,1-2.2,1.5-3.6,1.5
					c-1.5,0-2.7-0.5-3.6-1.4c-0.9-1-1.4-2.2-1.4-3.6v-45.2c0-1.4,0.5-2.6,1.4-3.6c0.9-1,2.1-1.5,3.5-1.5c1.5,0,2.7,0.5,3.6,1.5
					c1,1,1.4,2.2,1.4,3.6v3.7c1.8-2.7,4.3-5,7.3-6.9c3.1-1.9,6.4-2.8,10-2.8c8.7,0,14.4,3.9,17,11.6c1.5-3,4.1-5.6,7.7-8
					c3.6-2.4,7.4-3.6,11.4-3.6C838.4,159.1,844.5,166.8,844.5,182.1z"/>
				<path class="st0" d="M859.6,151.5c-0.9-0.7-1.3-1.9-1.3-3.5v-1.7c0-1.7,0.5-2.9,1.4-3.6c0.9-0.7,2.4-1.1,4.4-1.1
					c2,0,3.4,0.4,4.3,1.1c0.9,0.7,1.3,1.9,1.3,3.5v1.7c0,1.7-0.5,2.9-1.4,3.6c-0.9,0.7-2.4,1.1-4.3,1.1
					C861.9,152.6,860.5,152.2,859.6,151.5z M867.6,213.9c-1,1-2.2,1.5-3.6,1.5c-1.4,0-2.6-0.5-3.5-1.5c-1-1-1.4-2.2-1.4-3.6v-45.7
					c0-1.4,0.5-2.6,1.4-3.6c1-1,2.1-1.5,3.5-1.5c1.5,0,2.7,0.5,3.6,1.5c0.9,1,1.4,2.2,1.4,3.6v45.7
					C869,211.7,868.6,212.9,867.6,213.9z"/>
			</g>
			<g class="st1">
				<path class="st0" d="M892.9,213.9c-1,1-2.2,1.5-3.6,1.5c-1.4,0-2.6-0.5-3.5-1.5c-0.9-1-1.4-2.2-1.4-3.6v-68
					c0-1.4,0.5-2.6,1.5-3.6c1-1,2.2-1.5,3.6-1.5c1.4,0,2.6,0.5,3.5,1.5c1,1,1.4,2.2,1.4,3.6v68C894.4,211.7,893.9,212.9,892.9,213.9
					z"/>
			</g>
			<g class="st1">
				<path class="st0" d="M953.4,161c1,1,1.4,2.2,1.4,3.6v45.6c0,8.8-2.4,15.4-7.3,19.7c-4.9,4.4-11.3,6.5-19.2,6.5
					c-2.6,0-5.2-0.2-7.7-0.7c-2.5-0.5-4.6-1.2-6.2-2c-2.6-1.2-3.9-2.8-3.9-4.9c0-0.4,0.1-0.8,0.2-1.4c0.4-1.2,1-2.1,1.8-2.7
					c0.8-0.6,1.7-1,2.6-1c0.6,0,1.1,0.1,1.6,0.3c2.2,1,4.1,1.8,5.8,2.3c1.7,0.6,3.7,0.8,5.9,0.8c10.9,0,16.4-5.6,16.4-16.8v-2.1
					c-1.9,2.5-4.3,4.5-7.3,5.9c-3,1.4-6.4,2.1-10.3,2.1c-5.8,0-10.4-1.9-13.7-5.6c-3.3-3.7-4.9-8.6-4.9-14.7v-31.6
					c0-1.5,0.5-2.7,1.4-3.6c0.9-1,2.1-1.4,3.6-1.4c1.5,0,2.7,0.5,3.6,1.5c1,1,1.4,2.2,1.4,3.6v28.9c0,4.6,1,8.1,3.1,10.3
					c2,2.2,5.1,3.3,9.3,3.3c4,0,7.3-1.3,9.9-3.8c2.6-2.5,3.9-5.8,3.9-9.8v-28.9c0-1.5,0.5-2.7,1.4-3.6c0.9-1,2.1-1.4,3.6-1.4
					S952.5,160,953.4,161z"/>
			</g>
			<g class="st1">
				<path class="st0" d="M1048.3,146.5c4.7,3.3,8.3,7.8,10.7,13.4c2.4,5.6,3.6,11.8,3.6,18.6c0,6.9-1.2,13.1-3.6,18.7
					c-2.4,5.6-5.9,10-10.7,13.3c-4.7,3.3-10.4,4.9-17,4.9h-26c-1.4,0-2.6-0.5-3.6-1.5c-1-1-1.5-2.2-1.5-3.6v-63.8
					c0-1.4,0.5-2.6,1.5-3.6c1-1,2.2-1.5,3.6-1.5h26C1037.9,141.5,1043.5,143.2,1048.3,146.5z M1046.4,198c3.6-5.1,5.4-11.6,5.4-19.6
					c0-7.9-1.8-14.4-5.4-19.5c-3.6-5.1-9-7.7-16.1-7.7h-19.5v54.5h19.5C1037.4,205.7,1042.8,203.1,1046.4,198z"/>
			</g>
			<g class="st1">
				<path class="st0" d="M1124.1,202.5c-2.5,4.4-5.8,7.8-10.1,10.2c-4.3,2.5-9,3.7-14.1,3.7c-5.1,0-9.8-1.2-14.1-3.7
					c-4.3-2.5-7.6-5.9-10.1-10.2c-2.5-4.4-3.7-9.3-3.7-14.8c0-5.5,1.2-10.5,3.7-14.9c2.5-4.4,5.8-7.9,10.1-10.3
					c4.3-2.5,9-3.7,14.1-3.7c5.1,0,9.8,1.2,14.1,3.7c4.3,2.5,7.6,5.9,10.1,10.3c2.5,4.4,3.7,9.4,3.7,14.9
					C1127.8,193.2,1126.6,198.1,1124.1,202.5z M1115.4,177.5c-1.6-3-3.7-5.3-6.4-7c-2.7-1.7-5.7-2.5-9-2.5c-3.3,0-6.3,0.8-9,2.5
					c-2.7,1.7-4.9,4-6.4,7c-1.6,3-2.4,6.4-2.4,10.2c0,3.7,0.8,7.1,2.4,10c1.6,3,3.7,5.3,6.4,6.9c2.7,1.7,5.7,2.5,9,2.5
					c3.3,0,6.3-0.8,9-2.5c2.7-1.7,4.9-4,6.4-6.9c1.6-3,2.4-6.3,2.4-10C1117.8,183.9,1117,180.5,1115.4,177.5z"/>
				<path class="st0" d="M1177.4,161.4c3.7,1.8,5.5,4,5.5,6.8c0,1.2-0.4,2.3-1.2,3.2c-0.8,1-1.8,1.4-3,1.4c-0.9,0-1.6-0.1-2.2-0.4
					c-0.5-0.3-1.2-0.7-2.2-1.4c-0.4-0.4-1.1-0.9-2-1.5c-0.8-0.4-2-0.8-3.6-1.1c-1.5-0.3-3-0.4-4.2-0.4c-3.7,0-6.9,0.8-9.7,2.5
					c-2.8,1.7-5,4-6.5,7c-1.5,3-2.3,6.3-2.3,10c0,3.7,0.8,7.1,2.3,10c1.5,3,3.6,5.3,6.4,7c2.7,1.7,5.9,2.5,9.4,2.5
					c3.7,0,6.6-0.6,8.9-1.7c0.5-0.3,1.2-0.7,2-1.4c0.7-0.6,1.3-1,1.8-1.3c0.5-0.3,1.2-0.4,2-0.4c1.4,0,2.5,0.4,3.3,1.3
					c0.8,0.9,1.2,2,1.2,3.4c0,1.5-0.9,2.9-2.8,4.4c-1.9,1.4-4.4,2.6-7.5,3.5c-3.1,0.9-6.5,1.4-10.1,1.4c-5.3,0-10.1-1.2-14.1-3.7
					c-4.1-2.5-7.2-5.9-9.4-10.3c-2.2-4.4-3.3-9.3-3.3-14.7c0-5.4,1.2-10.3,3.5-14.7c2.3-4.4,5.6-7.8,9.7-10.3
					c4.2-2.5,8.9-3.7,14.2-3.7C1169.1,158.8,1173.7,159.7,1177.4,161.4z"/>
			</g>
			<g class="st1">
				<path class="st0" d="M1208.7,169.9v31.5c0,3.5,1.6,5.3,4.8,5.3c0.5,0,1.2-0.1,2-0.4c0.8-0.2,1.5-0.4,2-0.4
					c0.9,0,1.7,0.4,2.3,1.2c0.6,0.8,1,1.8,1,3c0,1.5-0.8,2.7-2.5,3.8c-1.7,1.1-3.6,1.6-5.7,1.6c-2.3,0-4.5-0.2-6.4-0.7
					c-1.9-0.5-3.7-1.7-5.2-3.7c-1.5-2-2.3-5-2.3-9.1v-31.9h-6.1c-1.3,0-2.4-0.4-3.3-1.3c-0.9-0.9-1.3-2-1.3-3.3
					c0-1.3,0.4-2.4,1.3-3.3c0.9-0.8,2-1.3,3.3-1.3h6.1v-8.9c0-1.4,0.5-2.6,1.4-3.6c0.9-1,2.2-1.5,3.6-1.5c1.4,0,2.6,0.5,3.5,1.5
					c0.9,1,1.4,2.2,1.4,3.6v8.9h8.8c1.3,0,2.4,0.4,3.3,1.3c0.9,0.9,1.3,2,1.3,3.3c0,1.3-0.4,2.4-1.3,3.3c-0.9,0.8-2,1.3-3.3,1.3
					H1208.7z"/>
			</g>
			<g class="st1">
				<path class="st0" d="M1282,202.5c-2.5,4.4-5.8,7.8-10.1,10.2c-4.3,2.5-9,3.7-14.1,3.7c-5.1,0-9.8-1.2-14.1-3.7
					c-4.3-2.5-7.6-5.9-10.1-10.2c-2.5-4.4-3.7-9.3-3.7-14.8c0-5.5,1.2-10.5,3.7-14.9c2.5-4.4,5.8-7.9,10.1-10.3
					c4.3-2.5,9-3.7,14.1-3.7c5.1,0,9.8,1.2,14.1,3.7c4.3,2.5,7.6,5.9,10.1,10.3c2.5,4.4,3.7,9.4,3.7,14.9
					C1285.7,193.2,1284.4,198.1,1282,202.5z M1273.2,177.5c-1.6-3-3.7-5.3-6.4-7c-2.7-1.7-5.7-2.5-9-2.5c-3.3,0-6.3,0.8-9,2.5
					c-2.7,1.7-4.9,4-6.4,7c-1.6,3-2.4,6.4-2.4,10.2c0,3.7,0.8,7.1,2.4,10c1.6,3,3.7,5.3,6.4,6.9c2.7,1.7,5.7,2.5,9,2.5
					c3.3,0,6.3-0.8,9-2.5c2.7-1.7,4.9-4,6.4-6.9c1.6-3,2.4-6.3,2.4-10C1275.6,183.9,1274.8,180.5,1273.2,177.5z"/>
				<path class="st0" d="M1329.6,160.2c1.3,1,2,2.1,2,3.5c0,1.7-0.4,3-1.3,3.9c-0.9,0.9-2,1.3-3.2,1.3c-0.6,0-1.6-0.2-2.9-0.6
					c-1.5-0.5-2.6-0.7-3.5-0.7c-2.2,0-4.3,0.8-6.4,2.3c-2.1,1.5-3.8,3.6-5.1,6.2c-1.3,2.6-2,5.6-2,8.8v25.4c0,1.4-0.5,2.6-1.4,3.6
					c-1,1-2.2,1.5-3.6,1.5c-1.5,0-2.7-0.5-3.6-1.4c-0.9-1-1.4-2.2-1.4-3.6v-45.2c0-1.4,0.5-2.6,1.4-3.6c0.9-1,2.1-1.5,3.5-1.5
					c1.5,0,2.7,0.5,3.6,1.5c1,1,1.4,2.2,1.4,3.6v5.4c1.5-3.4,3.9-6.2,7-8.4c3.1-2.1,6.6-3.3,10.6-3.3
					C1326.6,158.8,1328.2,159.3,1329.6,160.2z"/>
			</g>
			<g class="st1">
				<path class="st0" d="M652,277.9v21.9h26c1.5,0,2.7,0.5,3.6,1.4c1,0.9,1.4,2.1,1.4,3.6c0,1.3-0.5,2.4-1.4,3.3
					c-1,0.9-2.2,1.4-3.6,1.4h-26V337c0,1.4-0.5,2.6-1.5,3.6c-1,1-2.2,1.5-3.6,1.5c-1.5,0-2.7-0.5-3.7-1.5c-1-1-1.5-2.2-1.5-3.6
					v-63.8c0-1.4,0.5-2.6,1.5-3.6c1-1,2.2-1.5,3.6-1.5h36c1.5,0,2.7,0.5,3.6,1.4c1,0.9,1.4,2.1,1.4,3.6c0,1.3-0.5,2.4-1.5,3.3
					c-1,1-2.2,1.4-3.6,1.4H652z"/>
			</g>
			<g class="st1">
				<path class="st0" d="M747,329.2c-2.5,4.4-5.8,7.8-10.1,10.2c-4.3,2.5-9,3.7-14.1,3.7c-5.1,0-9.8-1.2-14.1-3.7
					c-4.3-2.5-7.6-5.9-10.1-10.2c-2.5-4.4-3.7-9.3-3.7-14.8c0-5.5,1.2-10.5,3.7-14.9c2.5-4.4,5.8-7.9,10.1-10.3
					c4.3-2.5,9-3.7,14.1-3.7c5.1,0,9.8,1.2,14.1,3.7c4.3,2.5,7.6,5.9,10.1,10.3c2.5,4.4,3.7,9.4,3.7,14.9
					C750.7,319.9,749.5,324.8,747,329.2z M738.3,304.2c-1.6-3-3.7-5.3-6.4-7c-2.7-1.7-5.7-2.5-9-2.5c-3.3,0-6.3,0.8-9,2.5
					c-2.7,1.7-4.9,4-6.4,7c-1.6,3-2.4,6.4-2.4,10.2c0,3.7,0.8,7.1,2.4,10c1.6,3,3.7,5.3,6.4,6.9c2.7,1.7,5.7,2.5,9,2.5
					c3.3,0,6.3-0.8,9-2.5c2.7-1.7,4.9-4,6.4-6.9c1.6-3,2.4-6.3,2.4-10C740.7,310.6,739.9,307.2,738.3,304.2z"/>
				<path class="st0" d="M794.6,286.9c1.3,1,2,2.1,2,3.5c0,1.7-0.4,3-1.3,3.9c-0.9,0.9-2,1.3-3.2,1.3c-0.6,0-1.6-0.2-2.9-0.6
					c-1.5-0.5-2.6-0.7-3.5-0.7c-2.2,0-4.3,0.8-6.4,2.3c-2.1,1.5-3.8,3.6-5.1,6.2c-1.3,2.6-2,5.6-2,8.8V337c0,1.4-0.5,2.6-1.4,3.6
					c-1,1-2.2,1.5-3.6,1.5c-1.5,0-2.7-0.5-3.6-1.4c-0.9-1-1.4-2.2-1.4-3.6v-45.2c0-1.4,0.5-2.6,1.4-3.6c0.9-1,2.1-1.5,3.5-1.5
					c1.5,0,2.7,0.5,3.6,1.5c1,1,1.4,2.2,1.4,3.6v5.4c1.5-3.4,3.9-6.2,7-8.4c3.1-2.1,6.6-3.3,10.6-3.3
					C791.7,285.5,793.3,285.9,794.6,286.9z"/>
				<path class="st0" d="M880.8,333.6c1,0.9,1.4,2.1,1.4,3.6c0,1.4-0.5,2.6-1.4,3.5c-1,0.9-2.2,1.4-3.6,1.4h-35.7
					c-1.5,0-2.7-0.5-3.6-1.5c-1-1-1.4-2.2-1.4-3.6v-63.8c0-1.4,0.5-2.6,1.5-3.6c1-1,2.3-1.5,3.8-1.5c1.4,0,2.6,0.5,3.6,1.5
					c1,1,1.5,2.2,1.5,3.6v59h30.3C878.6,332.2,879.9,332.7,880.8,333.6z"/>
				<path class="st0" d="M893.3,278.1c-0.9-0.7-1.3-1.9-1.3-3.5v-1.7c0-1.7,0.5-2.9,1.4-3.6c0.9-0.7,2.4-1.1,4.4-1.1
					c2,0,3.4,0.4,4.3,1.1c0.9,0.7,1.3,1.9,1.3,3.5v1.7c0,1.7-0.5,2.9-1.4,3.6c-0.9,0.7-2.4,1.1-4.3,1.1
					C895.6,279.2,894.1,278.9,893.3,278.1z M901.3,340.6c-1,1-2.2,1.5-3.6,1.5c-1.4,0-2.6-0.5-3.5-1.5c-1-1-1.4-2.2-1.4-3.6v-45.7
					c0-1.4,0.5-2.6,1.4-3.6c1-1,2.1-1.5,3.5-1.5c1.5,0,2.7,0.5,3.6,1.5c0.9,1,1.4,2.2,1.4,3.6V337
					C902.7,338.4,902.2,339.6,901.3,340.6z"/>
				<path class="st0" d="M935.7,275.1c-1.1,1.4-1.6,3.1-1.6,5.2v7.4h10.5c1.4,0,2.5,0.4,3.4,1.3c0.9,0.9,1.3,2,1.3,3.3
					c0,1.3-0.4,2.4-1.3,3.3c-0.9,0.8-2,1.3-3.4,1.3h-10.5V337c0,1.4-0.5,2.6-1.4,3.6c-1,1-2.2,1.5-3.6,1.5c-1.4,0-2.6-0.5-3.5-1.5
					c-1-1-1.4-2.2-1.4-3.6v-40.1h-6.5c-1.3,0-2.5-0.4-3.4-1.3c-0.9-0.8-1.4-1.9-1.4-3.3c0-1.3,0.5-2.4,1.4-3.3
					c0.9-0.9,2-1.3,3.4-1.3h6.5v-7.4c0-4.9,1.6-8.8,4.8-11.8c3.2-2.9,7.6-4.4,13.4-4.4c2.4,0,4.5,0.4,6.3,1.3c1.8,0.9,2.7,2.2,2.7,4
					c0,1.3-0.4,2.4-1.2,3.3c-0.8,0.9-1.8,1.3-2.9,1.3c-0.3,0-1.1-0.1-2.3-0.4c-1.5-0.4-2.9-0.6-4-0.6
					C938.5,273,936.8,273.7,935.7,275.1z"/>
				<path class="st0" d="M1005.3,315.5c-1,0.9-2.1,1.3-3.5,1.3h-37.2c0.5,5.1,2.4,9.3,5.9,12.4c3.4,3.1,7.6,4.6,12.5,4.6
					c3.4,0,6.1-0.5,8.2-1.5c2.1-1,4-2.3,5.6-3.8c1.1-0.6,2.1-1,3.1-1c1.2,0,2.2,0.4,3,1.3c0.8,0.8,1.2,1.8,1.2,3
					c0,1.5-0.7,2.8-2.1,4c-2,2-4.8,3.8-8.1,5.2s-6.8,2.1-10.3,2.1c-5.7,0-10.7-1.2-15-3.6c-4.3-2.4-7.7-5.7-10-10
					c-2.4-4.3-3.5-9.1-3.5-14.6c0-5.9,1.2-11.1,3.6-15.6c2.4-4.5,5.6-7.9,9.6-10.3c4-2.4,8.2-3.6,12.8-3.6c4.5,0,8.7,1.2,12.7,3.5
					c3.9,2.3,7.1,5.5,9.5,9.6c2.4,4.1,3.6,8.7,3.7,13.7C1006.8,313.5,1006.3,314.6,1005.3,315.5z M970.8,298.1
					c-2.9,2.2-4.8,5.6-5.7,10.3h31.1v-0.8c-0.4-3.7-2-6.8-5-9.2c-3-2.4-6.4-3.6-10.2-3.6C977.1,294.8,973.7,295.9,970.8,298.1z"/>
			</g>
		</g>
		<g id="Layer_1-2">
			<path id="_Compound_Path_" class="st0" d="M86.8,258.1c-15.5,0.1-30.7-3.8-44.1-11.5c-13.1-7.5-24-18.3-31.4-31.5
				C3.7,201.6-0.2,186.3,0,170.7c0-16.1,3.5-31,10.5-44.2c6.7-12.9,16.7-23.8,29.1-31.5C52.1,87.4,66.4,83.4,81,83.6
				c11.9-0.1,23.6,2.5,34.3,7.6c5.4,2.6,10.4,5.8,15.1,9.5V38.3c-0.4-11.5,8.7-21.1,20.2-21.5c0.5,0,0.9,0,1.4,0
				c6.3,0,11.5,2,15.5,6s6,9.2,6,15.5v132.4c0.2,15.6-3.8,30.9-11.5,44.4c-7.4,13.1-18.2,24-31.2,31.5
				C117.4,254.3,102.2,258.3,86.8,258.1z M86.8,123c-8-0.1-15.9,2-22.8,6.1c-6.8,4.1-12.4,10-16.2,17c-4.1,7.5-6.1,16-6,24.5
				c-0.1,8.6,1.9,17.1,6,24.7c3.8,7.1,9.4,13,16.2,17.1c6.9,4.1,14.8,6.2,22.8,6.1c8,0.1,15.9-2,22.8-6.1c6.8-4.1,12.4-9.9,16-17
				c4-7.6,6-16.1,5.9-24.7c0.1-8.5-1.9-17-5.9-24.5c-3.7-7-9.2-12.8-16-16.9C102.8,125,94.9,122.8,86.8,123L86.8,123z"/>
			<path id="_Compound_Path_2" class="st0" d="M274.8,251.3c-16.6,0-31.7-3.8-44.8-11.2c-13.1-7.3-23.8-18.1-31-31.2
				c-7.3-13.1-11-28.2-11-44.8c0-16.8,3.7-31.9,11-45.1c7.2-13.1,18-23.9,31-31.2c13.2-7.4,28.2-11.2,44.8-11.2
				c16.4,0,31.3,3.8,44.4,11.2c13,7.4,23.7,18.1,31,31.1c7.4,13.2,11.2,28.3,11.2,45.1c0,16.6-3.7,31.6-11,44.8
				c-7.2,13.1-17.9,23.8-30.9,31.2C306.4,247.6,291.4,251.3,274.8,251.3z M274.8,116.3c-8.1-0.1-16.1,1.9-23.2,6
				c-6.8,4-12.3,9.9-15.9,16.9c-4,7.7-6,16.3-5.9,25c-0.1,8.6,1.9,17.2,5.9,24.8c3.6,7,9.2,12.8,16,16.7c6.9,4.1,14.4,6,23.2,6
				c8.1,0.1,16.2-1.9,23.2-6c6.8-4,12.2-9.8,15.8-16.7c3.9-7.7,5.9-16.3,5.8-24.9c0.2-8.7-1.8-17.3-5.8-25.1
				c-3.5-7-9-12.8-15.8-16.8C291,118.2,282.9,116.2,274.8,116.3z"/>
			<path class="st0" d="M148.4,280c5.1,2.9,9.3,7.2,12.2,12.3c3,5.3,4.5,11.3,4.4,17.4c0.1,6-1.3,12-4.1,17.4
				c-2.6,5-6.5,9.3-11.3,12.2c-4.8,3-10.4,4.5-16,4.4c-4.6,0-9.2-1-13.3-3c-4.1-1.9-7.6-4.7-10.5-8.2v33.2c0.1,1.7-0.6,3.3-1.7,4.6
				c-1.2,1.2-2.9,1.8-4.6,1.7c-1.7,0-3.3-0.6-4.5-1.7c-1.2-1.2-1.9-2.9-1.8-4.6v-56.1c-0.1-6.1,1.5-12.1,4.5-17.4
				c6-10.5,17.3-17,29.4-16.8C137.2,275.4,143.1,277,148.4,280z M142.2,329.6c3.3-2,6-4.8,7.9-8.2c1.9-3.6,2.9-7.6,2.9-11.7
				s-1-8.2-2.9-11.8c-1.8-3.4-4.6-6.3-7.9-8.3c-6.9-4-15.3-4-22.2,0c-3.3,2-6,4.9-7.8,8.3c-1.9,3.6-2.9,7.7-2.8,11.8
				c-0.1,4.1,0.9,8.1,2.8,11.7c1.8,3.4,4.5,6.2,7.8,8.2s7.2,3.1,11.1,3C135,332.8,138.9,331.7,142.2,329.6L142.2,329.6z"/>
			<path class="st0" d="M226.9,277.2c2.5,1.3,3.7,3,3.7,4.9c0,0.4,0,0.8-0.1,1.2c-0.4,2.3-2.5,4-4.9,3.9c-0.4,0-1-0.1-1.8-0.2
				c-2.6-0.5-5.3-0.8-8-0.9c-5.9,0-10.7,1.4-14.3,4.1c-3.5,2.5-5.5,6.6-5.4,10.9V337c0.1,1.7-0.4,3.3-1.5,4.6
				c-1.2,1.2-2.9,1.7-4.6,1.6c-1.7,0.1-3.3-0.4-4.6-1.5c-1.2-1.2-1.7-2.9-1.6-4.6v-55c-0.1-1.7,0.4-3.3,1.6-4.5
				c1.2-1.1,2.9-1.7,4.6-1.6c4.1,0,6.1,2,6.1,6.1v2.3c2.5-2.9,5.6-5.2,9.1-6.8c3.6-1.6,7.6-2.5,11.6-2.5
				C220.3,275,223.7,275.8,226.9,277.2z"/>
			<path class="st0" d="M246.5,277.7c1.2-1.1,2.8-1.8,4.5-1.7c1.7-0.1,3.3,0.6,4.6,1.7c1.1,1.2,1.8,2.8,1.7,4.5v54.7
				c0,1.7-0.6,3.3-1.7,4.5c-1.2,1.2-2.9,1.9-4.6,1.8c-3.4,0.1-6.2-2.6-6.3-6c0-0.1,0-0.2,0-0.3v-54.7
				C244.6,280.5,245.3,278.9,246.5,277.7z"/>
			<path class="st0" d="M368.6,282.4c4.4,4.7,6.6,11.2,6.6,19.6v35.2c0,1.7-0.6,3.3-1.7,4.5c-1.2,1.2-2.9,1.9-4.6,1.8
				c-3.4,0.1-6.2-2.6-6.3-6c0-0.1,0-0.2,0-0.3V302c0-5-1.3-8.8-3.8-11.4c-2.6-2.7-6.3-4.1-10-3.9c-4-0.1-7.8,1.5-10.5,4.4
				c-2.8,3.1-4.2,7.1-4.1,11.3v34.7c0,1.7-0.6,3.3-1.7,4.5c-1.2,1.2-2.9,1.9-4.6,1.8c-3.4,0.1-6.2-2.6-6.3-6c0-0.1,0-0.2,0-0.3
				v-35.2c0-5-1.3-8.8-3.8-11.4c-2.6-2.7-6.3-4.1-10-3.9c-4-0.1-7.9,1.5-10.6,4.4c-2.8,3.1-4.2,7.1-4.1,11.3V337
				c0,1.7-0.6,3.3-1.7,4.5c-1.2,1.2-2.9,1.9-4.6,1.8c-3.4,0.1-6.2-2.6-6.3-6c0-0.1,0-0.2,0-0.3v-54.6c-0.1-1.7,0.6-3.3,1.8-4.5
				c1.2-1.1,2.8-1.7,4.5-1.7c1.6-0.1,3.2,0.6,4.4,1.7c1.2,1.2,1.8,2.8,1.8,4.4c2.2-2.1,4.8-3.8,7.6-5c3.1-1.2,6.3-1.8,9.6-1.8
				c3.9-0.1,7.8,0.8,11.3,2.5c3.3,1.7,6.1,4.2,8.2,7.2c2.5-3,5.6-5.5,9.2-7.1c3.9-1.8,8.1-2.6,12.3-2.6
				C358.5,275.4,364.2,277.7,368.6,282.4z"/>
			<path class="st0" d="M454.8,312.4c-1.1,1-2.6,1.6-4.1,1.5H404c0.7,5.5,3.5,10.4,7.8,13.9c4.5,3.6,10.1,5.4,15.8,5.3
				c2.6,0,5.2-0.5,7.7-1.4c2.4-0.7,4.6-1.8,6.6-3.3c1.2-0.9,2.6-1.4,4.1-1.4c1.3-0.1,2.7,0.3,3.7,1.2c1.4,1,2.2,2.5,2.2,4.2
				c0,1.5-0.8,2.9-2,3.7c-3.1,2.4-6.7,4.2-10.4,5.4c-3.8,1.3-7.8,2.1-11.9,2.1c-6.3,0.1-12.5-1.4-18.1-4.4c-5.2-2.8-9.5-7-12.5-12.1
				c-3-5.4-4.6-11.4-4.5-17.6c-0.1-6.1,1.3-12.2,4.2-17.6c2.7-5.1,6.8-9.3,11.8-12.2c5.2-3,11.2-4.5,17.2-4.4
				c5.8-0.1,11.4,1.3,16.4,4.2c4.6,2.8,8.3,6.9,10.6,11.7c2.6,5.4,3.8,11.3,3.7,17.2C456.4,309.9,455.9,311.4,454.8,312.4z
				 M411.2,291c-3.8,3.5-6.3,8.1-7.1,13.2h41c-0.5-5-2.6-9.6-6.1-13.2c-3.4-3.3-7.7-4.9-13.2-4.9C419.8,286,414.9,287.7,411.2,291z"
				/>
			<circle class="st0" cx="526.2" cy="178.9" r="17.2"/>
			<circle class="st0" cx="495.5" cy="108.2" r="17.2"/>
			<path id="_Path_" class="st0" d="M502.3,219.9c-3.8-9.3-14.4-13.8-23.7-10.1c-25.8,10.1-54.9-2.7-65-28.5
				c-9.9-25.4,2.2-54,27.4-64.5c9.3-3.8,13.9-14.4,10.1-23.7S436.7,79.2,427.4,83l0,0c-44.5,17.6-66.3,68-48.6,112.4
				s68,66.3,112.4,48.6c0.4-0.2,0.8-0.3,1.2-0.5C501.7,239.8,506.1,229.2,502.3,219.9z"/>
		</g>
	</g>
</g>
</svg>
