<svg xmlns="http://www.w3.org/2000/svg" width="41" height="41">
    <path fill="#9C27B0" fill-opacity="0" fill-rule="evenodd" stroke="#000" d="M20.39 3.5c9.328 0 16.89 7.562 16.89 16.89s-7.562 16.89-16.89 16.89S3.5 29.718 3.5 20.39 11.062 3.5 20.39 3.5z"/>
    <path fill="#F78631" fill-rule="evenodd" d="M24.323 17.726h-1.855a3.601 3.601 0 0 0-1.465-2.522h3.32a.363.363 0 0 0 .365-.36.363.363 0 0 0-.365-.36h-7.728c-.2 0-.364.162-.364.36 0 .198.164.36.364.36h2.214c1.504 0 2.746 1.117 2.925 2.522h-5.139c-.2 0-.364.163-.364.361 0 .198.164.36.364.36h5.139c-.183 1.459-1.439 2.555-2.925 2.558h-2.21a.369.369 0 0 0-.365.371.37.37 0 0 0 .114.26l5.524 5.155a.365.365 0 0 0 .501-.53l-4.86-4.536h1.292c1.906 0 3.48-1.44 3.663-3.278h1.855a.363.363 0 0 0 .365-.36.364.364 0 0 0-.365-.361z"/>
    <path fill="#F78631" fill-rule="evenodd" d="M14.934 15.627a.238.238 0 0 1 0 .338.244.244 0 0 1-.342 0l-2.896-2.863a.239.239 0 0 1 0-.338l2.896-2.862a.244.244 0 0 1 .342 0 .237.237 0 0 1 0 .337l-2.485 2.456h7.385a.24.24 0 0 1 .241.238.24.24 0 0 1-.241.239h-7.385l2.485 2.455zM23.693 31.134a.236.236 0 0 0 0 .338.245.245 0 0 0 .342 0l2.905-2.863a.239.239 0 0 0 0-.338l-2.905-2.862a.243.243 0 0 0-.342 0 .235.235 0 0 0 0 .337l2.492 2.456h-7.406a.24.24 0 0 0-.242.238.24.24 0 0 0 .242.239h7.406l-2.492 2.455z"/>
</svg>
