<svg xmlns="http://www.w3.org/2000/svg" width="114" height="119">
    <path fill-rule="evenodd" d="M32.721 77.916h66.978c7.398 0 13.401-5.874 13.401-13.058V37.36c0-1.602-1.345-2.913-2.989-2.913s-2.989 1.311-2.989 2.913v27.474c0 4.004-3.338 7.232-7.423 7.232H32.721c-4.11 0-7.423-3.252-7.423-7.232V11.148c0-.098 0-.219-.025-.316v-.073c0-.072-.024-.145-.024-.194a.446.446 0 0 0-.05-.17c0-.024-.025-.073-.025-.097-.025-.073-.05-.121-.075-.194 0-.024-.025-.049-.025-.073-.025-.048-.05-.121-.075-.17-.025-.024-.025-.073-.05-.097a9.918 9.918 0 0 0-.074-.145c-.025-.049-.05-.073-.075-.122-.025-.024-.05-.073-.074-.097-.025-.048-.076-.097-.1-.121l-.075-.073c-.05-.049-.075-.097-.124-.146-.025-.024-.05-.048-.075-.048a.638.638 0 0 0-.15-.121 5.095 5.095 0 0 0-.075-.073c-.049-.025-.099-.073-.149-.097-.05-.049-.124-.073-.174-.122-.025 0-.05-.024-.05-.048l-.299-.146L5.048.881C3.528.25 1.785.954 1.137 2.435c-.647 1.456.075 3.179 1.594 3.81l16.564 6.82v72.229c0 6.844 5.406 12.45 12.28 13.009a12.585 12.585 0 0 0-2.217 7.135c0 7.111 5.953 12.912 13.251 12.912 7.299 0 13.252-5.801 13.252-12.912a12.65 12.65 0 0 0-2.167-7.087h31.708a12.642 12.642 0 0 0-2.167 7.087c0 7.111 5.953 12.912 13.251 12.912 7.298 0 13.251-5.801 13.251-12.912 0-7.111-5.953-12.912-13.251-12.912H32.721c-4.11 0-7.423-3.252-7.423-7.232v-9.587a13.577 13.577 0 0 0 7.423 2.209zm17.162 27.522c0 3.907-3.263 7.087-7.274 7.087-4.01 0-7.273-3.18-7.273-7.087 0-3.907 3.263-7.087 7.273-7.087 4.011 0 7.274 3.18 7.274 7.087zm53.851 0c0 3.907-3.263 7.087-7.273 7.087s-7.273-3.18-7.273-7.087c0-3.907 3.263-7.087 7.273-7.087s7.273 3.18 7.273 7.087z" opacity=".302"/>
    <path fill="#B2B2B2" fill-rule="evenodd" d="M77.794 38.326a4.675 4.675 0 1 1 0-9.35 4.675 4.675 0 0 1 0 9.35zm3.79 22.23a1.1 1.1 0 1 1-2.09.683 14.846 14.846 0 0 0-10.499-9.825c-5.049-1.286-10.303.11-14.055 3.735a1.106 1.106 0 0 1-1.557-.028 1.1 1.1 0 0 1 .026-1.556c4.303-4.157 10.332-5.759 16.126-4.284a17.046 17.046 0 0 1 12.049 11.275zm-26.065-22.23a4.675 4.675 0 1 1 0-9.35 4.675 4.675 0 0 1 0 9.35z"/>
</svg>
