<svg xmlns="http://www.w3.org/2000/svg" width="102" height="155.5">
    <path fill-rule="evenodd" d="M28.928 118.741h60.889c6.726 0 12.183-5.339 12.183-11.87V81.872c0-1.456-1.223-2.647-2.717-2.647-1.495 0-2.718 1.191-2.718 2.647v24.977c0 3.64-3.034 6.575-6.748 6.575H28.928c-3.736 0-6.748-2.957-6.748-6.575V58.043c0-.088 0-.198-.022-.287v-.066c0-.066-.023-.132-.023-.176a.415.415 0 0 0-.045-.155c0-.022-.023-.066-.023-.088-.023-.066-.045-.11-.068-.176 0-.023-.023-.045-.023-.067-.022-.044-.045-.11-.068-.154-.022-.022-.022-.066-.045-.088a8.354 8.354 0 0 0-.068-.133c-.022-.044-.045-.066-.068-.11-.022-.022-.045-.066-.068-.088-.022-.044-.068-.089-.09-.111l-.068-.066c-.045-.044-.068-.088-.113-.132-.023-.022-.046-.044-.068-.044-.046-.044-.091-.089-.136-.111l-.068-.066c-.045-.022-.091-.066-.136-.088-.045-.044-.113-.066-.158-.11-.023 0-.046-.022-.046-.045l-.271-.132-16.734-6.84c-1.382-.573-2.967.066-3.555 1.412-.589 1.324.068 2.891 1.449 3.464l15.058 6.2V125.449c0 6.222 4.914 11.319 11.163 11.826a11.443 11.443 0 0 0-2.015 6.487c0 6.465 5.412 11.738 12.047 11.738 6.634 0 12.046-5.273 12.046-11.738a11.49 11.49 0 0 0-1.97-6.443H76.82a11.497 11.497 0 0 0-1.97 6.443c0 6.465 5.412 11.738 12.046 11.738 6.635 0 12.047-5.273 12.047-11.738s-5.412-11.738-12.047-11.738H28.928c-3.736 0-6.748-2.957-6.748-6.575v-8.715a12.345 12.345 0 0 0 6.748 2.007zm15.602 25.021c0 3.552-2.967 6.443-6.612 6.443-3.646 0-6.612-2.891-6.612-6.443 0-3.552 2.966-6.443 6.612-6.443 3.645 0 6.612 2.891 6.612 6.443zm48.956 0c0 3.552-2.967 6.443-6.612 6.443-3.646 0-6.612-2.891-6.612-6.443 0-3.552 2.966-6.443 6.612-6.443 3.645 0 6.612 2.891 6.612 6.443z" opacity=".302"/>
    <path fill="#B2B2B2" fill-rule="evenodd" stroke="#B2B2B2" d="M96.174 10.492c-.152.462-.729.901-1.262.489-.865-.601-1.022-1.676-1.569-2.644l-1.534-2.515c-1.947.539-3.621 1.561-5.151 3.103-.801.641-1.774-.349-1.138-1.084 1.811-2.04 3.933-3.466 6.493-4.313.39-.108.887.174 1.125.528.878 1.156 1.663 2.479 2.282 3.707.475.708 1.188 1.77.754 2.729zm-9.269 10.957c.028 1.111-.499 2.236-.601 3.384-.008.982.019 2.093.141 3.039.05.686-.859.937-1.039.287-.704-2.044-1.011-5.177.281-7.073.282-.498 1.039-.287 1.218.363zm-.694 10.125c.417 1.004.091 2.353-.177 3.407-.267 1.053-.665 2.143-1.228 3.138-.376.663-1.37.099-.995-.565.398-1.089.594-2.402.696-3.55.044-.852-.078-1.797.392-2.627.281-.497 1.038-.287 1.312.197zm-3.421 10.88c-.597-1.654-1.23-3.438-2.216-4.984-.274-.484.397-1.09.931-.677 1.635 1.366 1.95 3.518 2.194 5.409.143.52-.765.771-.909.252zm.005 17.207c-.657 1.161-1.516 2.098-2.375 3.035-.765.771-1.4 1.506-2.367 2.053-.484.274-1.125-.528-.677-.932.895-.807 1.66-1.578 2.353-2.609.729-.901 1.199-1.73 2.129-2.407.578-.44 1.219.362.937.86zm-4.567-27.139c-1.412-1.569-3.048-2.935-4.329-4.54-.404-.448.066-1.277.599-.865 1.859 1.165 3.213 3.029 4.307 4.965.238.354-.34.794-.577.44zM76.66 43.029c.591.116.583 1.098.064 1.241-2.726.754-6.439-.039-8.796-1.486-.663-.376-.099-1.372.564-.995 1.456.717 2.97 1.138 4.635 1.097 1.276.067 2.351-.09 3.533.143zm-9.632-16.645c-.828-.471-1.751-.775-2.602-.82-.851-.045-1.594.301-2.445.256-.555.014-.77-.766-.287-1.04 1.638-1.152 4.312-.073 5.804.774.367.318-.008.982-.47.83zm-2.5 13.702c.367.319.027 1.112-.528 1.126-2.386-.04-4.807-2.729-5.901-4.665-.273-.484.398-1.089.801-.641.807.896 1.614 1.792 2.644 2.487.865.6 2.083.963 2.984 1.693zm-6.154-12.15c-.873.382-1.4 1.507-1.574 2.394a2.603 2.603 0 0 0-.03 1.408c.108.39.179.65.028 1.111-.282.498-.895.807-1.299.359-.936-.86-.365-2.837.069-3.796.527-1.126 1.494-1.673 2.662-1.996.39-.107.534.413.144.52zm-6.958 22.35c-2.213-.927-4.132.723-6.295.481-.721-.08-.937-.86-.359-1.299.93-.677 2.56-.848 3.8-.911 1.147.103 2.163.242 3.158.806.367.318.158 1.076-.304.923zm-6.126 4.632c-.491 1.255-1.077 2.676-1.107 4.084-.008.981.539 1.949.567 3.061-.022.426-.6.865-1.097.583-2.76-1.896-.614-6.266.772-8.328.282-.498 1.075-.158.865.6zm.835 8.583c.771.767 1.542 1.533 2.537 2.097.958.435 1.881.74 2.839 1.174.462.153.252.91-.138 1.018-2.56.847-4.721-1.913-5.815-3.849-.237-.354.34-.794.577-.44zm9.846 4.274c1.586.681 3.202-.045 4.867-.086.426.022.605.672.346.744-1.71.892-3.801.911-5.495-.16-.331-.188-.049-.686.282-.498zm5.86-12.672c-.735-.637-1.729-1.201-2.558-1.672-.663-.376-1.586-.681-2.061-1.389-.368-.318.044-.851.469-.829.981.009 1.918.869 2.782 1.469.829.471 1.434 1.143 2.039 1.815.403.448-.138 1.018-.671.606zm-1.217 28.458c1.638-1.153 3.038-2.659 4.439-4.165.447-.404 1.276.067.994.564-.759 2.309-2.988 3.345-4.922 4.439-.613.309-.958-.435-.511-.838zm4.046-8.114c.433-.959.867-1.919 1.171-2.842.303-.923.24-2.165.745-2.864.188-.332.837-.512 1.11-.028.548.969.056 2.224-.378 3.183-.563.995-1.126 1.99-1.82 3.021-.281.498-1.11.028-.828-.47zm2.937-10.606c-.539-1.949-1.856-3.684-2.561-5.727-.274-.485.469-.83.837-.512 1.671 1.497 1.799 3.98 2.244 6.096.107.39-.412.533-.52.143zm-1.17 2.842c1.875-.798 4.529-1.812 6.505-1.238.591.116.712 1.062-.031 1.407-.908.251-1.925.113-2.87.234-1.11.027-2.278.35-3.353.507-.555.014-.771-.766-.251-.91zm17.187-19.721c-.014-.556.765-.771 1.038-.287.799 1.878-.01 3.501-.985 5.029-.318.368-.815.086-.663-.376.585-1.421.616-2.829.61-4.366zm2.907-31.444c.08-.721.254-1.609.759-2.308.412-.534.881-1.363 1.696-1.448.425.022.663.376.569.542-.08.722-.823 1.067-1.234 1.6-.376.664-.492 1.255-.738 1.883-.08.722-1.132.453-1.052-.269z"/>
</svg>
