<svg xmlns="http://www.w3.org/2000/svg" width="32" height="27">
    <path fill-rule="evenodd" d="M30.327 13.713L18.909 16.2v2.274c0 .426-.291.71-.727.71h-4.364c-.436 0-.727-.284-.727-.71V16.2L1.673 13.713C.727 13.5 0 12.647 0 11.653V7.105c0-1.208.945-2.131 2.182-2.131h27.636c1.237 0 2.182.923 2.182 2.131v4.547c0 .995-.727 1.848-1.673 2.061zm-15.781 4.05h2.909v-2.842h-2.909v2.842zM30.545 7.105c0-.426-.29-.71-.727-.71H2.182c-.436 0-.727.284-.727.71v4.548c0 .355.218.639.582.71l11.054 2.416v-.569c0-.426.291-.71.727-.71h4.364c.436 0 .727.284.727.71v.569l11.055-2.416a.696.696 0 0 0 .581-.711V7.105zm-29.09 7.816c.436 0 .727.284.727.71v9.237c0 .427.291.711.727.711h26.182c.436 0 .727-.284.727-.711v-9.237c0-.426.291-.71.727-.71.437 0 .728.284.728.71v9.237c0 1.208-.946 2.132-2.182 2.132H2.909c-1.236 0-2.182-.924-2.182-2.132v-9.237c0-.426.291-.71.728-.71z"/>
    <path fill="#F78631" fill-rule="evenodd" d="M19.636 0h-7.272c-1.237 0-2.182.924-2.182 2.131v.711c0 .426.291.711.727.711s.727-.285.727-.711v-.711c0-.426.291-.71.728-.71h7.272c.437 0 .728.284.728.71v.711c0 .426.291.711.727.711s.727-.285.727-.711v-.711C21.818.924 20.873 0 19.636 0z"/>
</svg>
