<svg xmlns="http://www.w3.org/2000/svg" width="14.728" height="18.001" viewBox="0 0 14.728 18.001">
  <g id="file-formats" transform="translate(-46.545)">
    <g id="Group_62" data-name="Group 62" transform="translate(46.545)">
      <g id="Group_61" data-name="Group 61" transform="translate(0)">
        <path id="Path_125" data-name="Path 125" d="M60.455,7.091H55a.818.818,0,0,1-.818-.818V0H47.363a.818.818,0,0,0-.818.818V17.183a.818.818,0,0,0,.818.818H60.455a.818.818,0,0,0,.818-.818V7.091Z" transform="translate(-46.545)" fill="#3593d2"/>
      </g>
    </g>
    <g id="Group_64" data-name="Group 64" transform="translate(56.756 10.865)">
      <g id="Group_63" data-name="Group 63">
        <path id="Path_126" data-name="Path 126" d="M337.207,309.026h-.218v.562h.218c.131,0,.209,0,.209-.257v-.052C337.416,309.026,337.342,309.026,337.207,309.026Z" transform="translate(-336.989 -309.026)" fill="#3593d2"/>
      </g>
    </g>
    <g id="Group_66" data-name="Group 66" transform="translate(50.635 10.865)">
      <g id="Group_65" data-name="Group 65" transform="translate(0)">
        <path id="Path_127" data-name="Path 127" d="M163.086,309.026h-.218v.562h.218c.13,0,.209,0,.209-.257v-.052C163.295,309.026,163.221,309.026,163.086,309.026Z" transform="translate(-162.868 -309.026)" fill="#3593d2"/>
      </g>
    </g>
    <g id="Group_68" data-name="Group 68" transform="translate(55.818 0.479)">
      <g id="Group_67" data-name="Group 67" transform="translate(0)">
        <path id="Path_128" data-name="Path 128" d="M310.3,13.633v4.975h4.975Z" transform="translate(-310.303 -13.633)" fill="#3593d2"/>
      </g>
    </g>
  </g>
</svg>
