<?xml version="1.0" encoding="utf-8"?>
<!-- Generator: Adobe Illustrator 23.0.1, SVG Export Plug-In . SVG Version: 6.00 Build 0)  -->
<svg version="1.1" id="Layer_1" xmlns="http://www.w3.org/2000/svg" xmlns:xlink="http://www.w3.org/1999/xlink" x="0px" y="0px"
	 viewBox="0 0 512 512" style="enable-background:new 0 0 512 512;" xml:space="preserve">
<style type="text/css">
	.st0{fill:#F78631;}
</style>
<path d="M435.41,443.59l-108.27-263.9c-6-14.64-9.05-30.09-9.05-45.91V64.02c0-7.51,2.93-14.57,8.24-19.89
	c6.48-6.48,10.05-15.09,10.05-24.25V10c0-5.52-4.48-10-10-10H186.76c-5.52,0-10,4.48-10,10v9.88c0,9.16,3.57,17.77,10.04,24.25
	c5.31,5.31,8.24,12.38,8.24,19.89v69.75c0,15.82-3.04,31.27-9.05,45.91l-29.75,72.52c-0.01,0.03-0.02,0.05-0.04,0.08l-78.48,191.3
	c-6.29,15.32-4.53,32.69,4.7,46.44C91.64,503.79,107.04,512,123.6,512h265.94c16.56,0,31.96-8.21,41.19-21.97
	C439.95,476.27,441.7,458.91,435.41,443.59z M204.49,187.28c7-17.06,10.55-35.06,10.55-53.5V64.02c0-12.85-5-24.94-14.09-34.03
	c-2.67-2.67-4.16-6.22-4.19-9.99h119.62c-0.03,3.77-1.52,7.32-4.19,9.99c-9.09,9.09-14.09,21.17-14.09,34.03v69.75
	c0,18.44,3.55,36.44,10.55,53.5l24.14,58.85H180.35L204.49,187.28z M414.11,478.89c-5.59,8.33-14.54,13.11-24.57,13.11H123.6
	c-10.03,0-18.98-4.78-24.57-13.11c-4.21-6.29-5.82-13.57-4.73-20.76h16.48c5.52,0,10-4.48,10-10c0-5.52-4.48-10-10-10h-9.19
	l11.48-28h16.87c5.52,0,10-4.48,10-10c0-5.52-4.48-10-10-10h-8.66l11.48-28h17.34c5.52,0,10-4.48,10-10c0-5.52-4.48-10-10-10h-9.14
	l11.49-28h17.81c5.52,0,10-4.48,10-10c0-5.52-4.48-10-10-10h-9.61l11.49-28h168.84l75.92,185.05
	C420.71,460.46,419.7,470.56,414.11,478.89z"/>
<path class="st0" d="M386.03,444.21c-2.09-5.11-7.93-7.56-13.04-5.47c-5.11,2.09-7.56,7.93-5.47,13.04l0.05,0.12
	c1.59,3.87,5.32,6.21,9.26,6.21c1.26,0,2.54-0.24,3.79-0.75c5.11-2.09,7.56-7.93,5.46-13.04L386.03,444.21z"/>
<path class="st0" d="M371.9,409.76l-35.81-87.29c-2.09-5.11-7.93-7.55-13.05-5.46c-5.11,2.09-7.55,7.94-5.46,13.05l35.81,87.29
	c1.59,3.87,5.32,6.21,9.26,6.21c1.26,0,2.55-0.24,3.79-0.75C371.55,420.71,374,414.87,371.9,409.76z"/>
</svg>
