<svg id="Layer_1" data-name="Layer 1" xmlns="http://www.w3.org/2000/svg" viewBox="0 0 50 50"><defs><style>.cls-1{fill:none;stroke:#000;stroke-miterlimit:10;}.cls-2{fill:#f78631;}</style></defs><title>general physician</title><path class="cls-1" d="M24.89,24.72a9,9,0,0,0,9-9V11.07a9,9,0,0,0-18,0v4.66A9,9,0,0,0,24.89,24.72Z"/><path class="cls-1" d="M44.71,36.43A22.84,22.84,0,0,0,31.76,26.19a.39.39,0,0,0-.36.09,38.3,38.3,0,0,1-6.5,4.95,45.86,45.86,0,0,1-6.52-4.95.39.39,0,0,0-.36-.09A22.78,22.78,0,0,0,5.07,36.43a.35.35,0,0,0,0,.37,23.05,23.05,0,0,0,39.64,0A.35.35,0,0,0,44.71,36.43Z"/><path class="cls-2" d="M30.67,39.46H28.13a.35.35,0,0,1-.36-.35V37a.36.36,0,0,1,.36-.36h2.54a.33.33,0,0,0,.33-.36V33.71a.39.39,0,0,1,.39-.36h2.16a.33.33,0,0,1,.33.36v2.53a.38.38,0,0,0,.39.35h2.46a.39.39,0,0,1,.38.36v2.16a.37.37,0,0,1-.38.35H34.29a.42.42,0,0,0-.41.37v2.52a.31.31,0,0,1-.31.35H31.39a.38.38,0,0,1-.39-.35V39.83A.35.35,0,0,0,30.67,39.46Z"/></svg>