<svg xmlns="http://www.w3.org/2000/svg" width="91.5" height="91.5">
    <path fill="none" fill-rule="evenodd" stroke="#F78631" stroke-dasharray="4 2" d="M45.5.572c24.813 0 44.928 20.115 44.928 44.928S70.313 90.428 45.5 90.428.572 70.313.572 45.5 20.687.572 45.5.572z" opacity=".988"/>
    <path fill="#F78631" fill-rule="evenodd" d="M45.5 7.515c20.978 0 37.985 17.007 37.985 37.985 0 20.978-17.007 37.985-37.985 37.985-20.978 0-37.985-17.007-37.985-37.985 0-20.978 17.007-37.985 37.985-37.985z"/>
    <path fill="#FFF" fill-rule="evenodd" d="M62.216 57.488L50.681 37.545V26.428h2.334v-2.333H39.014v2.333h2.333v11.117L29.813 57.488c-.774 1.339-.775 2.938-.002 4.277.773 1.34 2.159 2.14 3.706 2.14h24.995c1.547 0 2.933-.8 3.706-2.14.773-1.339.772-2.938-.002-4.277zm-24.369-4.546c0-.859.697-1.555 1.556-1.555.859 0 1.555.696 1.555 1.555s-.696 1.555-1.555 1.555-1.556-.696-1.556-1.555zm3.111 6.22c-.858 0-1.555-.696-1.555-1.555s.697-1.555 1.555-1.555c.86 0 1.556.696 1.556 1.555s-.696 1.555-1.556 1.555zm7.001-3.499c-1.289 0-2.334-1.045-2.334-2.333 0-1.288 1.045-2.332 2.334-2.332 1.289 0 2.334 1.044 2.334 2.332 0 1.288-1.045 2.333-2.334 2.333zM39.59 45.244l4.091-7.074V26.428h4.667V38.17l4.091 7.074H39.59zm15.37 13.918c-.859 0-1.556-.696-1.556-1.555s.697-1.555 1.556-1.555c.859 0 1.555.696 1.555 1.555s-.696 1.555-1.555 1.555z"/>
</svg>
