<svg xmlns="http://www.w3.org/2000/svg" width="91.5" height="91.5">
    <path fill="none" fill-rule="evenodd" stroke="#F78631" stroke-dasharray="4 2" d="M45.5.572c24.813 0 44.928 20.115 44.928 44.928S70.313 90.428 45.5 90.428.572 70.313.572 45.5 20.687.572 45.5.572z" opacity=".988"/>
    <path fill="#F78631" fill-rule="evenodd" d="M45.5 7.924c20.753 0 37.576 16.823 37.576 37.576S66.253 83.076 45.5 83.076 7.924 66.253 7.924 45.5 24.747 7.924 45.5 7.924z"/>
    <path fill="#FFF" fill-rule="evenodd" d="M57.563 45.624c-1.302-.558-2.734-.871-4.239-.871-2.623 0-4.999.977-6.873 2.538l-9.105-9.104 8.02-8.018c3.793-3.791 9.962-3.791 13.756 0 3.791 3.792 3.791 9.962 0 13.753l-1.559 1.702zm-15.046 9.935c0 1.504.312 2.936.87 4.238l-1.59 1.599c-3.793 3.79-10.035 3.718-13.828-.072-3.791-3.792-3.791-9.962 0-13.754l7.849-7.855 9.117 9.116c-1.489 1.852-2.418 4.172-2.418 6.728zm9.726-8.535v17.07c-4.258-.537-7.565-4.131-7.565-8.535s3.307-7.998 7.565-8.535zm9.727 8.535c0 4.404-3.306 7.998-7.566 8.535v-17.07c4.26.537 7.566 4.131 7.566 8.535z"/>
</svg>
