<svg xmlns="http://www.w3.org/2000/svg" width="91.5" height="91.5">
    <path fill="#F78631" fill-rule="evenodd" d="M45.5 7.924c20.753 0 37.576 16.823 37.576 37.576S66.253 83.076 45.5 83.076 7.924 66.253 7.924 45.5 24.747 7.924 45.5 7.924z"/>
    <path fill="none" fill-rule="evenodd" stroke="#F78631" stroke-dasharray="4 2" d="M45.5.572c24.813 0 44.928 20.115 44.928 44.928S70.313 90.428 45.5 90.428.572 70.313.572 45.5 20.687.572 45.5.572z" opacity=".988"/>
    <path fill="#FFF" fill-rule="evenodd" d="M32.319 45.961c-.055 1.027.374 2.062 1.244 2.732.722.558 1.484 1 2.28 1.339-.694 1.52-1.88 3.693-3.758 5.933-1.783 2.129-2.205 4.946-1.156 7.731 1.544 4.105 5.795 7.324 10.578 8.011 3.284.471 6.424-.635 8.838-3.115 3.453-3.549 4.932-9.303 3.955-15.391-.905-5.646 1.757-8.204 3.423-9.23 1.043 1.353 2.585 2.317 4.403 2.578 3.727.536 7.186-2.079 7.726-5.839.54-3.76-2.044-7.241-5.771-7.777-3.727-.535-7.187 2.079-7.727 5.839-.076.529-.084 1.052-.041 1.562-3.109 1.669-7.022 5.871-5.8 13.493.77 4.806-.34 9.425-2.903 12.058-1.087 1.117-2.933 2.369-5.554 1.993-3.392-.487-6.493-2.774-7.541-5.561-.387-1.028-.613-2.533.499-3.861 2.483-2.966 3.929-5.858 4.674-7.646 1.144-.009 2.291-.217 3.425-.632 1.01-.371 1.717-1.202 1.986-2.172 5.042-3.426 8.155-10.457 8.333-10.868.367-.845.086-1.807-.622-2.329 1.407-5.411-.213-8.473-1.268-9.777.167-.515.041-1.11-.378-1.48l-2.025-1.796c-.528-.469-1.292-.38-1.702.201l-1.365 1.926c-.41.581-.224 1.291.419 1.587l2.421 1.116c.615.283 1.427.084 1.872-.431.854 1.216 1.963 3.81.81 8.287-.707.034-1.37.454-1.674 1.151-.923 2.114-3.331 6.408-6.329 8.758-.783-.442-1.739-.563-2.651-.23-.594.218-1.154.29-1.708.222l-.114-.017c-.582-.096-1.127-.343-1.662-.756-.758-.585-1.692-.761-2.564-.585-2.154-3.103-3.234-7.799-3.52-10.055-.096-.754-.615-1.344-1.281-1.575.152-4.622 1.946-6.798 3.109-7.724.283.619 1.006 1.038 1.675.939l2.638-.389c.698-.103 1.079-.733.847-1.405l-.767-2.232c-.231-.673-.938-.973-1.577-.672l-2.451 1.155c-.504.236-.794.771-.778 1.313-1.377.955-3.796 3.436-3.969 9.025-.826.301-1.365 1.146-1.252 2.06.055.437 1.034 7.817 4.753 12.536zm31.166-8.88c1.456.209 2.466 1.569 2.255 3.038-.211 1.47-1.564 2.491-3.019 2.282-1.456-.21-2.466-1.57-2.254-3.039.21-1.469 1.562-2.49 3.018-2.281z"/>
</svg>
