<svg xmlns="http://www.w3.org/2000/svg" width="77" height="77">
    <path fill="#5BB923" fill-rule="evenodd" d="M38.5 0C59.763 0 77 17.237 77 38.5S59.763 77 38.5 77 0 59.763 0 38.5 17.237 0 38.5 0z"/>
    <path fill="#5BB923" fill-rule="evenodd" stroke="#377312" d="M38.484 8.125c16.767 0 30.36 13.592 30.36 30.359 0 16.767-13.593 30.36-30.36 30.36S8.125 55.251 8.125 38.484 21.717 8.125 38.484 8.125z"/>
    <path fill="#FFF" fill-rule="evenodd" d="M36.985 33.185a.507.507 0 0 0-.381-.155h-2.827c-.188-.954-.541-1.783-1.059-2.484h3.853a.507.507 0 0 0 .381-.155.556.556 0 0 0 .148-.397v-1.76a.553.553 0 0 0-.148-.397.504.504 0 0 0-.381-.156H22.812a.502.502 0 0 0-.38.156.55.55 0 0 0-.149.397v2.294c0 .15.053.279.157.388.105.11.229.164.372.164h2.398c2.326 0 3.804.65 4.432 1.95h-6.83a.505.505 0 0 0-.38.155.552.552 0 0 0-.149.397v1.76c0 .161.05.293.149.397a.505.505 0 0 0 .38.155h7.062c-.243.943-.808 1.662-1.695 2.157-.888.494-2.059.742-3.514.742h-1.853a.497.497 0 0 0-.372.164.543.543 0 0 0-.157.388v2.191c0 .15.05.276.149.38 2.117 2.346 4.862 5.63 8.235 9.852.1.138.237.207.414.207h3.224c.232 0 .392-.103.48-.311.11-.207.089-.402-.066-.587-3.219-4.117-5.749-7.2-7.59-9.247 1.874-.231 3.395-.863 4.564-1.898 1.168-1.035 1.879-2.381 2.133-4.038h2.778a.504.504 0 0 0 .381-.155.55.55 0 0 0 .149-.397v-1.76a.552.552 0 0 0-.149-.397zM55.156 27.997h-5.402v-5.719c0-.514-.164-.935-.491-1.263-.328-.327-.761-.491-1.298-.491-.515 0-.942.164-1.281.491-.339.328-.509.749-.509 1.263v5.719h-5.367c-.468 0-.848.14-1.14.421-.293.28-.439.643-.439 1.087 0 .445.152.819.456 1.123.304.304.678.456 1.123.456h5.367v5.367c0 .515.17.942.509 1.281.339.339.766.509 1.281.509.537 0 .97-.17 1.298-.509.327-.339.491-.766.491-1.281v-5.367h5.402c.468 0 .848-.14 1.14-.421.293-.281.439-.643.439-1.088 0-.467-.146-.847-.439-1.14-.292-.292-.672-.438-1.14-.438z"/>
</svg>
