<?xml version="1.0" encoding="utf-8"?>
<!-- Generator: Adobe Illustrator 23.0.6, SVG Export Plug-In . SVG Version: 6.00 Build 0)  -->
<svg version="1.1" id="Layer_1" xmlns="http://www.w3.org/2000/svg" xmlns:xlink="http://www.w3.org/1999/xlink" x="0px" y="0px"
	 viewBox="0 0 50 50" style="enable-background:new 0 0 50 50;" xml:space="preserve">
<style type="text/css">
	.st0{fill:none;stroke:#000000;stroke-miterlimit:10;}
	.st1{fill:#F78631;}
	.st2{fill:#FFFFFF;stroke:#000000;stroke-miterlimit:10;}
</style>
<path class="st0" d="M13.1,15.8c-1.5-1.5-7.8-1.9-9.9-2.1c-0.2,0-0.4,0-0.6,0.2c-0.2,0.2-0.3,0.5-0.4,0.8v16.8
	c0,0.5,0.3,0.9,0.8,0.9h5.7c0.4,0,0.8-0.2,0.9-0.6c0-0.6,3.4-10.4,3.7-15.3C13.6,16.2,13.4,15.9,13.1,15.8z"/>
<path class="st1" d="M28.1,18.4c-3.4-1.5-4.9-0.8-7.8,2.2c-1.3,1.3-2.2,3.2-2.1,3.9c0,0.2,0,0.2,0.4,0.4c0.9,0.4,2.2,0.6,3.5-1.5
	c0.2-0.2,0.5-0.4,0.8-0.4c0.5,0,0.9-0.2,1.3-0.4s0.9-0.4,1.3-0.6h0.4c0.2,0,0.5,0.2,0.7,0.2c0.9,0.9,2.6,2.2,4.3,3.7
	c2.4,1.8,4.6,3.8,6.5,6h0.2c-1.3-3.7-3.5-10.1-4.5-11.8C31.2,19.7,29.6,18.9,28.1,18.4z"/>
<path class="st0" d="M46.2,15.6c-3.9-0.1-7.9,0.6-11.6,1.9L34,18c0,0.3,0,0.5,0.2,0.7c1.1,1.9,4.8,12.1,5.4,14.7
	c0.2,0.4,0.5,0.7,0.9,0.8h5.6c0.5,0,0.9-0.3,0.9-0.8V16.5C47,16,46.7,15.6,46.2,15.6z"/>
<path class="st2" d="M29.4,27.5c-1.5-1.3-3-2.4-4.1-3.4c-0.2,0.2-0.6,0.2-0.6,0.4c-0.5,0.2-1,0.4-1.5,0.4c-1.5,1.9-3.4,2.6-5.4,1.9
	c-0.8-0.2-1.5-0.8-1.7-1.7c-0.4-1.9,1.3-4.5,2.6-5.8H15c-0.8,3.8-1.8,7.5-3,11.2c0.6,0.7,1.3,1.4,2.1,2c3.5,3,7.7,6,8.4,6.5
	c0.7,0.4,1.4,0.7,2.2,0.8h0.6l-3-3c-0.4-0.4-0.4-0.9,0-1.3s0.9-0.4,1.3,0l3.7,3.7c0.4,0.4,0.7,0.2,1.1,0.2c0.6-0.2,0.7-0.6,0.9-1.1
	L25.1,34c-0.4-0.3-0.4-0.9,0-1.3c0.3-0.4,0.9-0.4,1.2-0.1l0.1,0.1l4.7,4.7c0.5,0.2,1,0.2,1.5,0c0.3-0.2,0.6-0.4,0.8-0.7l-5.2-5.2
	c-0.3-0.4-0.3-1,0.1-1.3c0.3-0.3,0.8-0.3,1.2,0l5.4,5.4c0.4,0.1,0.8,0.1,1.1-0.2c0.4-0.4,0.5-1,0.2-1.5
	C35.3,32.2,32.2,29.8,29.4,27.5z"/>
</svg>
