<svg id="Layer_1" data-name="Layer 1" xmlns="http://www.w3.org/2000/svg" viewBox="0 0 50 50"><defs><style>.cls-1{fill:none;}.cls-1,.cls-3{stroke:#000;stroke-miterlimit:10;}.cls-2{fill:#f78631;}.cls-3{fill:#fff;}</style></defs><title>hands</title><path class="cls-1" d="M13.15,15.76c-1.5-1.5-7.84-1.87-9.89-2.06a.67.67,0,0,0-.56.19,1.41,1.41,0,0,0-.38.75V31.43a.88.88,0,0,0,.94.93H8.85a1,1,0,0,0,.94-.56c0-.56,3.36-10.45,3.73-15.3A.74.74,0,0,0,13.15,15.76Z"/><path class="cls-2" d="M28.07,18.37c-3.35-1.49-4.85-.75-7.83,2.24-1.31,1.3-2.24,3.17-2.06,3.92,0,.18,0,.18.38.37.93.37,2.24.56,3.54-1.49a1,1,0,0,1,.75-.38,3.41,3.41,0,0,0,1.31-.37,8.82,8.82,0,0,1,1.3-.56h.38c.18,0,.55.19.74.19.93.93,2.61,2.24,4.29,3.73a41.91,41.91,0,0,1,6.53,6h.19c-1.3-3.73-3.54-10.08-4.48-11.76C31.25,19.67,29.57,18.93,28.07,18.37Z"/><path class="cls-1" d="M46.18,15.57a32.61,32.61,0,0,0-11.57,1.87l-.56.56a1.14,1.14,0,0,0,.18.74c1.12,1.87,4.85,12.13,5.41,14.74a1.23,1.23,0,0,0,.94.75h5.6a.88.88,0,0,0,.93-.93V16.5A.88.88,0,0,0,46.18,15.57Z"/><path class="cls-3" d="M29.38,27.51c-1.49-1.3-3-2.42-4.1-3.36-.19.19-.56.19-.56.38a3.64,3.64,0,0,1-1.5.37c-1.49,1.87-3.36,2.61-5.41,1.87a2.23,2.23,0,0,1-1.68-1.68c-.37-1.87,1.31-4.48,2.61-5.79H15a94.61,94.61,0,0,1-3,11.2,20.67,20.67,0,0,0,2.05,2c3.54,3,7.65,6,8.4,6.53a5.22,5.22,0,0,0,2.24.75h.56l-3-3a.92.92,0,1,1,1.31-1.3l3.73,3.73c.37.37.74.19,1.12.19.56-.19.74-.56.93-1.12L25.09,34a.9.9,0,0,1,0-1.3.88.88,0,0,1,1.3,0l4.67,4.66a2,2,0,0,0,1.49,0,2.74,2.74,0,0,0,.75-.74l-5.23-5.23a.93.93,0,0,1,1.31-1.31l5.41,5.42a1.24,1.24,0,0,0,1.12-.19,1.27,1.27,0,0,0,.19-1.49C35.35,32.18,32.18,29.75,29.38,27.51Z"/></svg>