<svg width="48px" height="48px" viewBox="0 0 48 48" version="1.1" xmlns="http://www.w3.org/2000/svg" xmlns:xlink="http://www.w3.org/1999/xlink">
    <g id="Page-1" stroke="none" stroke-width="1" fill="none" fill-rule="evenodd">
        <g id="Home_Screen_(Gradient_1)" transform="translate(-304.000000, -309.000000)" fill-rule="nonzero">
            <g id="Group-71" transform="translate(133.000000, 278.000000)">
                <g id="Group-6" transform="translate(140.000000, 0.000000)">
                    <g id="Group-Copy" transform="translate(32.000000, 31.000000)">
                        <path d="M16.5524441,23.0381808 C18.1048412,23.1660107 9.04263471,13.2382439 1.86140315,19.9203103 C-0.86862271,23.159795 -0.452779927,27.6643961 3.1089315,33.4341137 C11.635819,42.4957013 16.2612808,46.8272011 16.9853169,46.4286132 C10.70418,39.979507 7.15662804,34.6491559 6.34266089,30.4375598 C5.76662008,27.4570327 7.04774051,24.2264095 8.53492799,23.3585553 C11.7878828,21.4602805 15.5290844,22.9539137 16.5524441,23.0381808 Z" id="Path-5" fill="#DEEBFF"></path>
                        <path d="M17.2438678,22.0968684 C21.1430946,17.3294624 24.7118459,15.5676163 27.9501217,16.81133 C33.0104,18.754814 34.5221643,22.9863363 31.9294379,30.2815873 C30.2326769,35.0558267 25.3836748,40.6519736 17.3824315,47.0700279 L17.3824264,47.0700216 C17.1205425,47.2800871 16.7461584,47.2737607 16.4915214,47.054967 C8.77797187,40.427195 3.85367548,35.1207721 1.71863224,31.1356983 C-1.54425265,25.0454998 0.00103793666,19.3672759 4.98151713,17.4535987 C8.16769841,16.2293546 11.9097937,17.7932932 16.2078031,22.1454143 L16.2078347,22.1453831 C16.478474,22.4194298 16.9200293,22.422192 17.1940759,22.1515526 C17.2116287,22.1342181 17.2282494,22.1159644 17.2438678,22.0968684 Z" id="Path-2" stroke="#ffffff" stroke-width="1.39487171" stroke-linecap="round" stroke-linejoin="round"></path>
                        <path d="M32.7052932,3.19255996 C32.9267502,10.4829013 35.1381532,13.9543564 39.2894186,13.9543564 C43.4407324,13.9543564 45.6528239,10.4828574 45.8756452,3.19255996 L32.7052932,3.19255996 Z" id="Shape" stroke="#ffffff" stroke-width="1.39487171" fill-opacity="0" fill="#D8D8D8"></path>
                        <path d="M39.4332492,13.7298167 L39.676564,31.3037415 C39.8038483,34.9917885 39.7227433,37.4492107 39.4332492,38.6760083 C38.5875522,42.2598427 36.8066926,43.5922268 34.8218075,43.8306816 C30.3157075,44.3720233 27.9706143,40.0271097 25.0170926,34.7269642" id="Path-4" stroke="#ffffff" stroke-width="1.39487171"></path>
                        <ellipse id="Oval" stroke="#ffffff" stroke-width="1.39487171" fill="#DEEBFF" cx="23.2999867" cy="31.1745939" rx="3.43421178" ry="3.47333375"></ellipse>
                        <ellipse id="Oval-Copy" stroke="#ffffff" stroke-width="1.39487171" fill="#DEEBFF" cx="34.5928086" cy="2.61312217" rx="1.89079944" ry="1.91568632"></ellipse>
                        <ellipse id="Oval-Copy-3" stroke="#ffffff" stroke-width="1.39487171" fill="#DEEBFF" cx="44" cy="2.61312217" rx="1.89079944" ry="1.91568632"></ellipse>
                        <path d="M23.9307054,20.1853032 C26.4696595,19.9878235 28.2630001,21.3212454 29.3107272,24.1855687" id="Path-7" stroke="#ffffff" stroke-width="1.39487171" stroke-linecap="round"></path>
                    </g>
                </g>
            </g>
        </g>
    </g>
</svg>