<svg xmlns="http://www.w3.org/2000/svg" width="20" height="19.362" viewBox="0 0 20 19.362"><defs><style>.a{fill:#f78631;}</style></defs><g transform="translate(0 -4.89)"><path class="a" d="M19.749,14.337a.954.954,0,0,0-.078-1.365L10.733,5.151a1.114,1.114,0,0,0-1.453.017L.311,13.389a.948.948,0,0,0-.043,1.363l.225.234a.981.981,0,0,0,1.346.1l.67-.6v8.788a.975.975,0,0,0,.976.976h3.5a.975.975,0,0,0,.976-.976V17.129h4.459v6.148a.922.922,0,0,0,.917.975h3.7a.975.975,0,0,0,.976-.976V14.613l.414.363c.228.2.707.04,1.069-.359Z" transform="translate(0)"/></g></svg>