<svg xmlns="http://www.w3.org/2000/svg" width="31" height="31">
    <path fill-rule="evenodd" d="M26.127 31.001h-6.879a.473.473 0 0 1-.477-.47v-9.568h-6.547v9.568c0 .26-.213.47-.476.47H4.867a.474.474 0 0 1-.477-.47v-15.61H.465a.47.47 0 1 1-.328-.811L15.168.112a.483.483 0 0 1 .656 0L30.86 14.11a.467.467 0 0 1 .115.515.476.476 0 0 1-.443.296h-3.929v15.61c0 .26-.213.47-.476.47zm-6.403-.94h5.926V14.452c0-.26.214-.47.477-.47h3.206L15.496 1.1 1.664 13.982h3.203c.263 0 .476.21.476.47v15.609h5.928v-9.568c0-.26.214-.47.477-.47h7.5c.263 0 .476.21.476.47v9.568z"/>
    <path fill="#838383" fill-opacity="0" fill-rule="evenodd" stroke="#F78631" d="M15.5 8.611a3.445 3.445 0 1 1 0 6.89 3.445 3.445 0 0 1 0-6.89z"/>
</svg>
