<?xml version="1.0" encoding="utf-8"?>
<!-- Generator: Adobe Illustrator 23.0.1, SVG Export Plug-In . SVG Version: 6.00 Build 0)  -->
<svg version="1.1" id="Layer_1" xmlns="http://www.w3.org/2000/svg" xmlns:xlink="http://www.w3.org/1999/xlink" x="0px" y="0px"
	 viewBox="0 0 488 488" style="enable-background:new 0 0 488 488;" xml:space="preserve">
<style type="text/css">
	.st0{fill:#F78631;}
</style>
<path d="M400.06,97H398V31.43C398.04,14.11,384.04,0.05,366.73,0H121.27C103.96,0.05,89.96,14.11,90,31.43V97h-2.06
	C70.64,97,57,111.41,57,128.72v349.24c0,5.52,4.03,10.04,9.55,10.04h354.89c5.52,0,9.55-4.51,9.55-10.04V128.72
	C431,111.41,417.36,97,400.06,97z M110,31.43c-0.02-3.01,1.15-5.91,3.26-8.05c2.12-2.14,5-3.36,8.01-3.38h245.46
	c3.01,0.02,5.89,1.23,8.01,3.38c2.11,2.14,3.29,5.04,3.26,8.05V97h-2V73.96c-0.04-8.29-3.38-16.21-9.28-22.02
	c-5.9-5.81-13.88-9.03-22.16-8.94H143.44c-8.29-0.09-16.26,3.13-22.16,8.94c-5.9,5.81-9.24,13.73-9.28,22.02V97h-2V31.43z
	 M356,201.61c0,6.29-5.1,11.39-11.39,11.39H143.39c-6.29,0-11.39-5.1-11.39-11.39V74.39C132,68.1,137.1,63,143.39,63h201.22
	C350.9,63,356,68.1,356,74.39V201.61z M311,468H171v-82.34c0.04-2.63,1.14-5.13,3.04-6.95c1.9-1.82,4.45-2.8,7.07-2.72h120.34
	c2.57-0.05,5.05,0.95,6.85,2.78c1.81,1.83,2.78,4.32,2.7,6.89V468z M411,468h-80v-82.34c0.08-7.87-3-15.45-8.56-21.02
	s-13.12-8.69-20.99-8.64H181.11c-7.93-0.07-15.56,3.02-21.21,8.58c-5.65,5.57-8.86,13.15-8.9,21.08V468H77V128.72
	c0-6.28,4.66-11.72,10.94-11.72H112v84.54c0.04,17.35,14.09,31.41,31.44,31.46h201.12c17.35-0.05,31.4-14.11,31.44-31.46V117h24.06
	c6.28,0,10.94,5.44,10.94,11.72V468z"/>
<path d="M166.72,294h-51.26c-5.52,0-10,4.48-10,10s4.48,10,10,10h51.26c5.52,0,10-4.48,10-10S172.25,294,166.72,294z"/>
<path d="M372.54,294h-51.26c-5.52,0-10,4.48-10,10s4.48,10,10,10h51.26c5.52,0,10-4.48,10-10S378.06,294,372.54,294z"/>
<path d="M269.63,294h-51.26c-5.52,0-10,4.48-10,10s4.48,10,10,10h51.26c5.52,0,10-4.48,10-10S275.15,294,269.63,294z"/>
<path class="st0" d="M298,115h-28V87c0-5.52-4.48-10-10-10h-32c-5.52,0-10,4.48-10,10v28h-28c-5.52,0-10,4.48-10,10v32
	c0,5.52,4.48,10,10,10h28v28c0,5.52,4.48,10,10,10h32c5.52,0,10-4.48,10-10v-28h28c5.52,0,10-4.48,10-10v-32
	C308,119.48,303.52,115,298,115z M288,147h-28c-5.52,0-10,4.48-10,10v28h-12v-28c0-5.52-4.48-10-10-10h-28v-12h28
	c5.52,0,10-4.48,10-10V97h12v28c0,5.52,4.48,10,10,10h28V147z"/>
</svg>
