<svg xmlns="http://www.w3.org/2000/svg" width="59.186" height="59.186" viewBox="0 0 59.186 59.186"><defs><style>.a,.c{fill:#41a2f9;}.a{opacity:0.1;}.b{fill:none;stroke:#0378ad;stroke-width:0.5px;stroke-dasharray:6;}</style></defs><g transform="translate(0.25 0.25)"><circle class="a" cx="25.036" cy="25.036" r="25.036" transform="translate(4.307 4.307)"/><circle class="b" cx="29.343" cy="29.343" r="29.343"/><g transform="translate(-16.814 15.343)"><g transform="translate(40.47)"><path class="c" d="M157.642,0A5.344,5.344,0,0,0,152.3,5.339V8.1a5.338,5.338,0,1,0,10.676,0V5.339A5.344,5.344,0,0,0,157.642,0Z" transform="translate(-152.304)"/></g><g transform="translate(34.007 14.309)"><g transform="translate(0)"><path class="c" d="M57.58,267.986a13.539,13.539,0,0,0-7.693-6.081.213.213,0,0,0-.213.052,22.289,22.289,0,0,1-3.862,2.936,27.736,27.736,0,0,1-3.87-2.936.213.213,0,0,0-.213-.052,13.536,13.536,0,0,0-7.693,6.081.214.214,0,0,0,0,.216,13.689,13.689,0,0,0,23.544,0A.213.213,0,0,0,57.58,267.986Zm-4.512,1.592a.224.224,0,0,1-.23.208H51.393a.249.249,0,0,0-.246.219v1.5a.183.183,0,0,1-.181.207h-1.3a.222.222,0,0,1-.229-.207v-1.5a.207.207,0,0,0-.2-.219H47.732a.211.211,0,0,1-.215-.208v-1.287a.215.215,0,0,1,.215-.213H49.24a.2.2,0,0,0,.2-.214v-1.5a.225.225,0,0,1,.229-.211h1.284a.2.2,0,0,1,.195.211v1.5a.227.227,0,0,0,.232.21h1.46a.232.232,0,0,1,.23.217Z" transform="translate(-34.007 -261.896)"/></g></g></g></g></svg>