<svg xmlns="http://www.w3.org/2000/svg" width="59.186" height="59.186" viewBox="0 0 59.186 59.186"><defs><style>.a,.b{fill:#41a2f9;}.a{opacity:0.1;}.b{fill-rule:evenodd;}.c{fill:none;stroke:#0378ad;stroke-width:0.5px;stroke-dasharray:6;}</style></defs><g transform="translate(0.25 0.25)"><circle class="a" cx="25.036" cy="25.036" r="25.036" transform="translate(4.007 4.307)"/><path class="b" d="M4449.045,1435.285a4.992,4.992,0,0,0-7.05,0l-4.111,4.112,4.666,4.666a5.493,5.493,0,0,1,3.522-1.3,5.562,5.562,0,0,1,2.174.446l.8-.872A4.991,4.991,0,0,0,4449.045,1435.285Zm-7.271,9.567-4.676-4.671-4.023,4.025a5.014,5.014,0,0,0,7.09,7.091l.815-.82a5.458,5.458,0,0,1,.8-5.624Zm-.132,3.451a4.41,4.41,0,0,0,3.875,4.373l0-8.752A4.416,4.416,0,0,0,4441.642,1448.3Zm4.984-4.378v8.752a4.409,4.409,0,0,0,0-8.752Z" transform="translate(-4411.941 -1413.871)"/><circle class="c" cx="29.343" cy="29.343" r="29.343"/></g></svg>