<svg xmlns="http://www.w3.org/2000/svg" width="59.186" height="59.186" viewBox="0 0 59.186 59.186"><defs><style>.a,.c{fill:#41a2f9;}.a{opacity:0.1;}.b{fill:none;stroke:#0378ad;stroke-width:0.5px;stroke-dasharray:6;}</style></defs><g transform="translate(0.25 0.25)"><circle class="a" cx="25.036" cy="25.036" r="25.036" transform="translate(4.307 4.307)"/><circle class="b" cx="29.343" cy="29.343" r="29.343"/><path class="c" d="M14.73,20.405,8.53,8.218V1.425H9.784V0H2.258V1.425H3.512V8.218l-6.2,12.187a2.893,2.893,0,0,0,0,2.614A2.242,2.242,0,0,0-.7,24.326H12.739a2.243,2.243,0,0,0,1.992-1.307A2.893,2.893,0,0,0,14.73,20.405ZM1.63,17.627a.9.9,0,0,1,.836-.95.958.958,0,0,1,0,1.9A.9.9,0,0,1,1.63,17.627Zm1.672,3.8a.958.958,0,0,1,0-1.9.958.958,0,0,1,0,1.9ZM7.066,19.29a1.437,1.437,0,0,1,0-2.851,1.437,1.437,0,0,1,0,2.851Zm-4.5-6.367L4.766,8.6V1.425H7.275V8.6l2.2,4.322Zm8.262,8.5a.958.958,0,0,1,0-1.9.958.958,0,0,1,0,1.9Zm0,0" transform="translate(23.431 16.769)"/></g></svg>