<svg xmlns="http://www.w3.org/2000/svg" width="59.186" height="59.186" viewBox="0 0 59.186 59.186"><defs><style>.a,.b{fill:#41a2f9;}.a{opacity:0.1;}.b{fill-rule:evenodd;}.c{fill:none;stroke:#0378ad;stroke-width:0.5px;stroke-dasharray:6;}</style></defs><g transform="translate(4.39 4.557)"><circle class="a" cx="25.036" cy="25.036" r="25.036"/><path class="b" d="M3963.946,1442.408a1.985,1.985,0,0,0,.753,1.683,6.287,6.287,0,0,0,1.384.826,16.336,16.336,0,0,1-2.276,3.656,4.723,4.723,0,0,0-.7,4.771,8.159,8.159,0,0,0,6.422,4.938,6.073,6.073,0,0,0,5.36-1.923c2.1-2.189,3-5.733,2.4-9.487-.552-3.477,1.069-5.055,2.076-5.69a4.139,4.139,0,0,0,5.154,1.209,4.268,4.268,0,0,0,2.193-4.888,4.167,4.167,0,0,0-8.178.474,4.691,4.691,0,0,0-.025.962c-1.888,1.029-4.26,3.619-3.52,8.322.467,2.959-.207,5.807-1.76,7.428a3.807,3.807,0,0,1-3.369,1.233,5.847,5.847,0,0,1-4.577-3.427,2.324,2.324,0,0,1,.3-2.38,18.714,18.714,0,0,0,2.84-4.716,6.153,6.153,0,0,0,2.076-.389,1.973,1.973,0,0,0,1.209-1.338c3.059-2.115,4.946-6.448,5.056-6.7a1.2,1.2,0,0,0-.376-1.436c.856-3.335-.126-5.222-.771-6.029a.873.873,0,0,0-.23-.912l-1.227-1.1a.674.674,0,0,0-1.032.124l-.832,1.184a.645.645,0,0,0-.112.554.636.636,0,0,0,.367.426l1.468.69a1,1,0,0,0,1.136-.272c.521.752,1.2,2.349.492,5.11a1.179,1.179,0,0,0-1.014.709,15.512,15.512,0,0,1-3.843,5.4,1.9,1.9,0,0,0-1.608-.142,2.119,2.119,0,0,1-1.038.136l-.067-.006a2.237,2.237,0,0,1-1.007-.469,1.9,1.9,0,0,0-1.561-.363,15.946,15.946,0,0,1-2.137-6.2,1.184,1.184,0,0,0-.776-.974c.091-2.848,1.184-4.186,1.888-4.759a1,1,0,0,0,1.013.579l1.6-.24a.619.619,0,0,0,.47-.3.641.641,0,0,0,.046-.562l-.467-1.381a.688.688,0,0,0-.382-.43.671.671,0,0,0-.571.018l-1.494.715a.856.856,0,0,0-.467.807c-.837.592-2.307,2.121-2.41,5.561a1.2,1.2,0,0,0-.759,1.276C3961.094,1434.949,3961.688,1439.5,3963.946,1442.408Zm18.919-5.474a1.638,1.638,0,0,1,1.36,1.222,1.67,1.67,0,0,1-.594,1.742,1.612,1.612,0,0,1-1.813.1,1.664,1.664,0,0,1-.785-1.663,1.63,1.63,0,0,1,1.833-1.405Z" transform="translate(-3949.023 -1417.091)"/><circle class="c" cx="29.343" cy="29.343" r="29.343" transform="translate(-4.14 -4.307)"/></g></svg>