<?xml version="1.0" encoding="utf-8"?>
<!-- Generator: Adobe Illustrator 23.0.1, SVG Export Plug-In . SVG Version: 6.00 Build 0)  -->
<svg version="1.1" id="_-e-Group_106" xmlns="http://www.w3.org/2000/svg" xmlns:xlink="http://www.w3.org/1999/xlink" x="0px"
	 y="0px" viewBox="0 0 40 40" style="enable-background:new 0 0 40 40;" xml:space="preserve">
<style type="text/css">
	.st0{fill-rule:evenodd;clip-rule:evenodd;fill:#F78631;}
	.st1{fill-rule:evenodd;clip-rule:evenodd;fill:#030303;}
</style>
<path class="st0" d="M20.3,10c1.1,0,2.1,0.9,2.1,2.1c0,1.1-0.9,2.1-2.1,2.1c-1.1,0-2-0.9-2.1-2.1C18.3,10.9,19.2,10,20.3,10
	C20.3,10,20.3,10,20.3,10z M19.8,17.4c-0.7,0-1.2,0.5-1.2,1.2c0,0,0,0,0,0v10.5c0,0.7,0.6,1.2,1.3,1.2c0.7,0,1.2-0.5,1.2-1.2V18.7
	C21,18,20.5,17.4,19.8,17.4L19.8,17.4z"/>
<path class="st1" d="M20,0C9,0,0,9,0,20s9,20,20,20c11,0,20-9,20-20C40,9,31,0,20,0z M20,37.5c-9.7,0-17.5-7.9-17.5-17.5
	c0-9.7,7.9-17.5,17.5-17.5c9.7,0,17.5,7.9,17.5,17.5c0,0,0,0,0,0C37.5,29.7,29.7,37.5,20,37.5z"/>
</svg>
