<svg xmlns="http://www.w3.org/2000/svg" width="30" height="30">
    <path fill="#D06C21" fill-rule="evenodd" d="M15 .6C22.953.6 29.4 7.047 29.4 15S22.953 29.4 15 29.4.6 22.953.6 15 7.047.6 15 .6z"/>
    <path fill="#FFF" fill-rule="evenodd" d="M20.69 14.01a.725.725 0 0 1-.655.388h-2.877v8.595c0 .365-.322.661-.719.661h-2.878c-.397 0-.719-.296-.719-.661v-8.595H9.965a.726.726 0 0 1-.655-.388.616.616 0 0 1 .114-.708l5.035-5.29A.747.747 0 0 1 15 7.786c.207 0 .404.084.541.226l5.035 5.29c.187.194.23.472.114.708z"/>
</svg>
