<svg 
 xmlns="http://www.w3.org/2000/svg"
 xmlns:xlink="http://www.w3.org/1999/xlink"
 width="26px" height="32px">
<path fill-rule="evenodd"  fill="rgb(250, 125, 31)"
 d="M25.998,27.804 C25.999,27.304 26.002,27.732 25.998,27.804 ZM25.998,28.390 C25.998,28.390 24.085,32.000 13.004,32.000 C1.923,32.000 0.011,28.390 0.011,28.390 C0.011,27.970 0.010,27.729 0.008,27.599 C0.012,27.668 0.017,27.637 0.029,27.039 C0.176,19.710 1.290,17.598 9.237,16.255 C9.237,16.255 10.367,17.604 13.004,17.604 C15.641,17.604 16.770,16.255 16.770,16.255 C24.807,17.612 25.857,19.757 25.983,27.283 C25.992,27.765 25.997,27.848 25.998,27.805 C25.998,27.932 25.998,28.120 25.998,28.390 ZM13.004,15.654 C9.204,15.654 6.124,12.152 6.124,7.832 C6.124,3.511 7.136,0.009 13.004,0.009 C18.872,0.009 19.884,3.511 19.884,7.832 C19.884,12.152 16.804,15.654 13.004,15.654 ZM0.010,27.599 C0.006,27.525 0.008,27.335 0.010,27.599 Z"/>
</svg>