<svg xmlns="http://www.w3.org/2000/svg" width="30" height="30">
    <path fill="#FA7D1F" fill-rule="evenodd" d="M15 .6C22.953.6 29.4 7.047 29.4 15S22.953 29.4 15 29.4.6 22.953.6 15 7.047.6 15 .6z"/>
    <path fill="#FFF" fill-rule="evenodd" d="M19.476 14.711h-3.388v-3.586c0-.322-.103-.586-.308-.792-.206-.205-.477-.308-.814-.308a1.11 1.11 0 0 0-.803.308c-.213.206-.319.47-.319.792v3.586h-3.366c-.294 0-.532.088-.715.264a.902.902 0 0 0-.275.682c0 .279.095.514.286.704.19.191.425.286.704.286h3.366v3.366c0 .323.106.591.319.803.212.213.48.319.803.319.337 0 .608-.106.814-.319a1.11 1.11 0 0 0 .308-.803v-3.366h3.388c.293 0 .531-.088.715-.264a.904.904 0 0 0 .275-.682c0-.293-.092-.531-.275-.715-.184-.183-.422-.275-.715-.275z"/>
</svg>
