<svg xmlns="http://www.w3.org/2000/svg" width="42" height="28">
    <path fill="#FA7D1F" fill-rule="evenodd" d="M36.849 27.619H5.339a4.699 4.699 0 0 1-4.701-4.7V4.864A4.698 4.698 0 0 1 5.339.165H36.849a4.704 4.704 0 0 1 4.702 4.699v18.055a4.7 4.7 0 0 1-4.702 4.7zm-13.626-9.157H36.95v-1.751H23.223v1.751zm0-3.695H36.95v-1.751H23.223v1.751zM12.412 5.761a8.138 8.138 0 0 0-8.137 8.135c0 4.49 3.645 8.135 8.137 8.135 4.5 0 8.137-3.645 8.137-8.135a8.138 8.138 0 0 0-8.137-8.135zM36.95 9.322H23.223v1.75H36.95v-1.75zm-22.703 6.333l-.813 2.581-.15.485v-.008l-.134.411-.428-1.224c1.09-1.516-.285-1.457-.285-1.457s-1.374-.059-.285 1.457l-.436 1.232-.134-.419-.972-3.066s-1.047.737-2.338 1.064c-.67.167-.897.771-.955 1.298a6.568 6.568 0 0 1 5.12-10.681c3.629 0 6.57 2.94 6.554 6.576a6.54 6.54 0 0 1-1.45 4.114c-.059-.528-.285-1.131-.955-1.299-1.291-.327-2.339-1.064-2.339-1.064zm.545-3.46c.042-.117.076-.234.092-.343.352-2.153-.704-2.229-.704-2.229s-.176-.343-.637-.595c-.31-.184-.737-.326-1.307-.276a1.803 1.803 0 0 0-.52.1 2.419 2.419 0 0 0-.569.294c-.21.134-.411.301-.587.485-.277.294-.528.662-.637 1.123-.084.352-.067.712.008 1.098.026.117.051.226.093.343-.21-.025-.461.101-.227.93.168.612.336.779.453.788.109.72.67 1.633 1.584 1.96.377.134.788.134 1.165 0 .896-.327 1.475-1.24 1.584-1.96.117-.009.285-.185.452-.788.235-.829-.017-.947-.243-.93z"/>
</svg>
