<svg width="43px" height="46px" viewBox="0 0 43 46" version="1.1" xmlns="http://www.w3.org/2000/svg" xmlns:xlink="http://www.w3.org/1999/xlink">
  
    <g id="India" stroke="none" stroke-width="1" fill="none" fill-rule="evenodd">
        <g id="Home_Screen_(India)-Copy" transform="translate(-169.000000, -310.000000)">
            <g id="Group-71" transform="translate(135.000000, 278.000000)">
                <g id="Group-69">
                    <g id="Group-3" transform="translate(34.000000, 33.000000)">
                        <g id="Artboard-2-copy-4" transform="translate(0.265137, 0.337322)">
                            <path d="M22.0753211,1.22443883 L22.0753211,4.11285863" id="Shape" stroke="#ffffff" stroke-width="1.06765632" stroke-linecap="round" stroke-linejoin="round"></path>
                            <path d="M22.0753211,20.0148655 L22.0753211,34.4569645" id="Shape" stroke="#ffffff" stroke-width="1.39" stroke-linecap="round" stroke-linejoin="round"></path>
                            <path d="M28.8363191,22.7933997 C29.5362812,21.2236064 32.145231,20.0148655 35.1996112,20.0148655 C38.8266878,20.0148655 41.7856187,21.5846588 41.7856187,23.6253902 C41.7849586,16.8220276 38.1932963,10.5101978 32.3069715,6.96803173 C26.4206468,3.42586565 19.0896291,3.16484251 12.9599051,6.27917348" id="Shape" stroke="#ffffff" stroke-width="1.39" stroke-linecap="round" stroke-linejoin="round"></path>
                            <path d="M1.87546063,22.7933997 C2.57542277,21.2236064 5.18437257,20.0148655 8.23875281,20.0148655 C11.8658294,20.0148655 14.8247602,21.5846588 14.8247602,23.6253902 C14.8243372,19.2648428 13.3487156,15.1062191 10.7392228,11.7493527" id="Shape" stroke="#ffffff" stroke-width="1.39" stroke-linecap="round" stroke-linejoin="round" transform="translate(8.350110, 17.687371) scale(-1, 1) translate(-8.350110, -17.687371) "></path>
                            <path d="M22.0481776,4.11285863 C18.2698796,4.11285863 15.1624944,12.0129664 14.7740713,22.1309324 C14.7709899,22.3122821 14.8861018,22.4778578 15.0667001,22.5518466 C15.2472984,22.6258353 15.4586115,22.5939917 15.6038844,22.470896 C17.4045047,21.0941665 19.7072069,20.3942262 22.0481776,20.5120578 C24.3985233,20.412192 26.7023317,21.1356183 28.4924708,22.535651 C28.6377437,22.6587467 28.8490567,22.6905903 29.029655,22.6166015 C29.2102534,22.5426127 29.3253652,22.3770371 29.3222839,22.1956874 C28.9422295,12.2323572 25.959113,4.45434008 22.2914375,4.12380423 C22.210676,4.11652589 22.1295825,4.11285863 22.0481776,4.11285863 Z" id="Shape" fill="#DEEBFF" fill-rule="nonzero"></path>
                            <path d="M22.0481776,4.11285863 C18.2698796,4.11285863 15.1624944,12.0129664 14.7740713,22.1309324 C14.7709899,22.3122821 14.8861018,22.4778578 15.0667001,22.5518466 C15.2472984,22.6258353 15.4586115,22.5939917 15.6038844,22.470896 C17.4045047,21.0941665 19.7072069,20.3942262 22.0481776,20.5120578 C24.3985233,20.412192 26.7023317,21.1356183 28.4924708,22.535651 C28.6377437,22.6587467 28.8490567,22.6905903 29.029655,22.6166015 C29.2102534,22.5426127 29.3253652,22.3770371 29.3222839,22.1956874 C28.9422295,12.2323572 25.959113,4.45434008 22.2914375,4.12380423 C22.210676,4.11652589 22.1295825,4.11285863 22.0481776,4.11285863 Z" id="Shape" stroke="#ffffff" stroke-width="1.39" fill-rule="nonzero"></path>
                            <path d="M20.6117639,38.8052921 C20.6117639,41.1981374 22.5775346,43.1379218 25.0024355,43.1379218 C27.4273365,43.1379218 29.3931071,41.1981374 29.3931071,38.8052921 C29.3931071,38.007677 28.7378503,37.3610822 27.9295499,37.3610822 C27.1212496,37.3610822 26.4659927,38.007677 26.4659927,38.8052921 C26.4659927,39.6029072 25.8107359,40.249502 25.0024355,40.249502 C24.1941352,40.249502 23.5388783,39.6029072 23.5388783,38.8052921 L23.5388783,34.5354541 L20.6117639,34.5354541 L20.6117639,38.8052921 Z" id="Shape" stroke="#ffffff" stroke-width="1.2" fill="#DEEBFF" fill-rule="nonzero"></path>
                            <path d="M12.9599051,6.27917348 C13.5489975,8.21408653 12.8652507,10.3069312 11.2418162,11.5379813 C9.80549982,12.5659509 7.88902065,12.6583521 6.35798944,11.7734503" id="Shape" stroke="#ffffff" stroke-width="1.06765632" stroke-linecap="round" stroke-linejoin="round"></path>
                            <path d="M10.9713763,6.9384867 C10.9713763,4.83496358 8.0124454,1.55409544 8.0124454,1.55409544 C8.0124454,1.55409544 5.05351454,4.83496358 5.05351454,6.9384867 C5.05349114,8.5536154 6.3757031,9.86536325 8.0124454,9.8740003 C9.64918771,9.86536325 10.9713997,8.5536154 10.9713763,6.9384867 Z" id="Shape-2" stroke="#ffffff" stroke-width="1.08" fill="#DEEBFF" fill-rule="nonzero"></path>
                            <path d="M4.11492894,3.42214955 C4.11492894,2.13491898 2.30139067,0.141281403 2.30139067,0.141281403 C2.30139067,0.141281403 0.503760631,2.13491898 0.503760631,3.42214955 C0.439342,4.09862534 0.768707744,4.7527495 1.35397541,5.11068589 C1.93924308,5.46862227 2.6794465,5.46862227 3.26471417,5.11068589 C3.84998183,4.7527495 4.17934757,4.09862534 4.11492894,3.42214955 L4.11492894,3.42214955 Z" id="Shape-3" stroke="#ffffff" stroke-width="1.08" fill="#DEEBFF" fill-rule="nonzero"></path>
                        </g>
                    </g>
                </g>
            </g>
        </g>
    </g>
</svg>