<?xml version="1.0" encoding="utf-8"?>
<!-- Generator: Adobe Illustrator 23.0.4, SVG Export Plug-In . SVG Version: 6.00 Build 0)  -->
<svg version="1.1" id="Layer_1" xmlns="http://www.w3.org/2000/svg" xmlns:xlink="http://www.w3.org/1999/xlink" x="0px" y="0px"
	 viewBox="0 0 35.8 26.9" style="enable-background:new 0 0 35.8 26.9;" xml:space="preserve">
<style type="text/css">
	.st0{fill-rule:evenodd;clip-rule:evenodd;fill:#F78631;}
</style>
<path id="Shape_1_copy_7" class="st0" d="M35.1,9.7c0.4,0,0.7-0.3,0.8-0.7c0,0,0,0,0,0V3c0-1.7-1.3-3-3-3H3C1.3,0,0,1.3,0,3v6
	c0,0.4,0.3,0.7,0.7,0.8c0,0,0,0,0,0c2.1,0,3.7,1.7,3.7,3.7c0,2.1-1.7,3.7-3.7,3.7c0,0,0,0,0,0c-0.4,0-0.7,0.3-0.8,0.7c0,0,0,0,0,0v6
	c0,1.7,1.3,3,3,3h29.9c1.7,0,3-1.3,3-3v-6c0-0.4-0.3-0.7-0.7-0.8c0,0,0,0,0,0c-2.1,0-3.7-1.7-3.7-3.7C31.4,11.4,33,9.7,35.1,9.7z
	 M29.9,13.4c0,2.6,1.9,4.8,4.5,5.2v5.3c0,0.8-0.7,1.5-1.5,1.5H3c-0.8,0-1.5-0.7-1.5-1.5v-5.3c2.9-0.4,4.8-3.1,4.4-5.9
	c-0.3-2.3-2.1-4.1-4.4-4.4V3c0-0.8,0.7-1.5,1.5-1.5h29.9c0.8,0,1.5,0.7,1.5,1.5v5.3C31.8,8.6,29.9,10.8,29.9,13.4L29.9,13.4z
	 M9.7,2.8C9.3,2.8,9,3.1,9,3.5c0,0,0,0,0,0v1.7C9,5.6,9.3,6,9.7,6c0.4,0,0.7-0.3,0.7-0.7V3.5C10.4,3.1,10.1,2.8,9.7,2.8
	C9.7,2.8,9.7,2.8,9.7,2.8z M9.7,9C9.3,9,9,9.3,9,9.7c0,0,0,0,0,0v1.5c0,0.4,0.3,0.7,0.7,0.7s0.7-0.3,0.7-0.7c0,0,0,0,0,0V9.7
	C10.4,9.3,10.1,9,9.7,9C9.7,9,9.7,9,9.7,9z M9.7,14.9c-0.4,0-0.7,0.3-0.8,0.7c0,0,0,0,0,0v1.5c0,0.4,0.3,0.7,0.7,0.7
	s0.7-0.3,0.7-0.7c0,0,0,0,0,0v-1.5C10.4,15.3,10.1,14.9,9.7,14.9z M9.7,20.9c-0.4,0-0.7,0.3-0.8,0.7c0,0,0,0,0,0v1.5
	c0,0.4,0.3,0.7,0.7,0.7c0.4,0,0.7-0.3,0.7-0.7v-1.5C10.4,21.2,10.1,20.9,9.7,20.9C9.7,20.9,9.7,20.9,9.7,20.9z M25,6.1
	c-0.3-0.2-0.8-0.1-1,0.2c0,0,0,0,0,0l-9,13.4c-0.2,0.3-0.1,0.8,0.2,1c0,0,0,0,0,0c0.1,0.1,0.3,0.1,0.4,0.1c0.3,0,0.5-0.1,0.6-0.3
	l9-13.4C25.5,6.8,25.4,6.3,25,6.1C25,6.1,25,6.1,25,6.1z M19.4,9.7c0-2.1-1.3-3.7-3-3.7s-3,1.7-3,3.7s1.3,3.7,3,3.7
	S19.4,11.8,19.4,9.7z M14.9,9.7c0-1.2,0.7-2.2,1.5-2.2s1.5,1,1.5,2.2S17.2,12,16.4,12S14.9,10.9,14.9,9.7z M23.9,13.4
	c-1.6,0-3,1.7-3,3.7s1.3,3.7,3,3.7s3-1.7,3-3.7S25.5,13.4,23.9,13.4z M23.9,19.4c-0.8,0-1.5-1-1.5-2.2s0.7-2.2,1.5-2.2
	s1.5,1,1.5,2.2S24.7,19.4,23.9,19.4z"/>
</svg>
