<svg xmlns="http://www.w3.org/2000/svg" width="43" height="43">
    <path fill="none" stroke="#FF7B26" stroke-width="2" d="M36.846 23.22l-.487-.652a2.02 2.02 0 0 1-.02-2.397l.474-.659a2.036 2.036 0 0 0-.725-2.998l-.724-.381a2.034 2.034 0 0 1-1.074-2.151l.138-.795c.211-1.214-.718-2.339-1.976-2.39l-.825-.033a2.092 2.092 0 0 1-1.923-1.479l-.23-.775c-.349-1.189-1.679-1.802-2.84-1.311l-.757.316a2.113 2.113 0 0 1-2.384-.517l-.548-.6a2.114 2.114 0 0 0-3.134.026l-.54.607a2.125 2.125 0 0 1-2.379.549l-.764-.31c-1.166-.471-2.484.168-2.82 1.356l-.217.782a2.07 2.07 0 0 1-1.897 1.505l-.823.046c-1.259.071-2.169 1.207-1.937 2.422l.151.794a2.036 2.036 0 0 1-1.041 2.165l-.718.394a2.028 2.028 0 0 0-.672 3.004l.488.652c.527.711.54 1.674.02 2.397l-.475.659c-.725 1.007-.389 2.409.725 2.997l.724.381a2.036 2.036 0 0 1 1.074 2.151l-.138.795c-.212 1.215.717 2.339 1.976 2.391l.823.032a2.093 2.093 0 0 1 1.924 1.479l.231.776c.349 1.188 1.68 1.801 2.839 1.311l.757-.317a2.116 2.116 0 0 1 2.385.517l.548.601c.841.918 2.312.91 3.135-.026l.54-.607a2.123 2.123 0 0 1 2.378-.549l.765.31c1.165.471 2.483-.168 2.82-1.357l.215-.782a2.074 2.074 0 0 1 1.898-1.504l.824-.046c1.258-.071 2.167-1.208 1.937-2.422l-.152-.796a2.035 2.035 0 0 1 1.041-2.164l.718-.393a2.027 2.027 0 0 0 .672-3.004z"/>
    <path fill="#F78631" fill-rule="evenodd" d="M15.221 29.349l-1.473-1.476 14.03-13.126 1.473 1.476-14.03 13.126zm1.277-9.361a2.5 2.5 0 0 1-2.506-2.488c0-1.371 1.125-2.486 2.506-2.486 1.383 0 2.507 1.115 2.507 2.486a2.5 2.5 0 0 1-2.507 2.488zm.157-3.866c-.737 0-1.337.604-1.337 1.347s.6 1.348 1.337 1.348c.738 0 1.337-.605 1.337-1.348 0-.743-.599-1.347-1.337-1.347zm9.849 7.893a2.491 2.491 0 0 1 2.488 2.488 2.491 2.491 0 0 1-2.488 2.488 2.49 2.49 0 0 1-2.487-2.488 2.49 2.49 0 0 1 2.487-2.488zm.046 3.96c.738 0 1.337-.605 1.337-1.348 0-.743-.599-1.347-1.337-1.347-.737 0-1.336.604-1.336 1.347s.599 1.348 1.336 1.348z"/>
</svg>
