<svg xmlns="http://www.w3.org/2000/svg" width="36" height="28">
    <defs>
        <linearGradient id="a" x1="100%" x2="0%" y1="0%" y2="0%">
            <stop offset="0%" stop-color="#F78631"/>
            <stop offset="100%" stop-color="#FF6D00"/>
        </linearGradient>
    </defs>
    <path fill-rule="evenodd" d="M35.173 17.733c.413 0 .747.335.747.747v5.974a2.989 2.989 0 0 1-2.987 2.986H3.067A2.99 2.99 0 0 1 .08 24.454V18.48c0-.412.334-.747.747-.747A3.738 3.738 0 0 0 4.56 14a3.738 3.738 0 0 0-3.733-3.734.746.746 0 0 1-.747-.746V3.547A2.99 2.99 0 0 1 3.067.56h29.866a2.99 2.99 0 0 1 2.987 2.987V9.52a.746.746 0 0 1-.747.746A3.737 3.737 0 0 0 31.441 14a3.737 3.737 0 0 0 3.732 3.733zM29.947 14c0-2.628 1.95-4.81 4.479-5.173v-5.28c0-.824-.67-1.493-1.493-1.493H3.067c-.823 0-1.494.669-1.494 1.493v5.28A5.235 5.235 0 0 1 6.054 14a5.234 5.234 0 0 1-4.481 5.173v5.281c0 .823.671 1.493 1.494 1.493h29.866c.823 0 1.493-.67 1.493-1.493v-5.281A5.233 5.233 0 0 1 29.947 14zm-5.973 7.467c-1.648 0-2.987-1.675-2.987-3.734 0-2.058 1.339-3.733 2.987-3.733 1.647 0 2.986 1.675 2.986 3.733 0 2.059-1.339 3.734-2.986 3.734zm0-5.974c-.81 0-1.494 1.026-1.494 2.24 0 1.214.684 2.24 1.494 2.24.808 0 1.492-1.026 1.492-2.24 0-1.214-.684-2.24-1.492-2.24zm-7.593 5.641a.744.744 0 0 1-1.035.207.746.746 0 0 1-.208-1.035l8.961-13.44a.746.746 0 1 1 1.243.828l-8.961 13.44zM16.507 14c-1.648 0-2.987-1.675-2.987-3.734 0-2.058 1.339-3.733 2.987-3.733 1.647 0 2.987 1.675 2.987 3.733 0 2.059-1.34 3.734-2.987 3.734zm0-5.973c-.81 0-1.493 1.026-1.493 2.239 0 1.215.683 2.241 1.493 2.241.809 0 1.493-1.026 1.493-2.241 0-1.213-.684-2.239-1.493-2.239zM9.786 24.454a.747.747 0 0 1-.746-.747v-1.493a.746.746 0 1 1 1.493 0v1.493a.746.746 0 0 1-.747.747zm0-5.974a.746.746 0 0 1-.746-.747V16.24a.746.746 0 1 1 1.493 0v1.493a.746.746 0 0 1-.747.747zm0-5.973a.746.746 0 0 1-.746-.747v-1.494a.746.746 0 0 1 1.493 0v1.494a.746.746 0 0 1-.747.747zm0-5.974a.746.746 0 0 1-.746-.746v-1.68a.746.746 0 1 1 1.493 0v1.68a.746.746 0 0 1-.747.746z"/>
    <path fill="url(#a)" d="M35.173 17.733c.413 0 .747.335.747.747v5.974a2.989 2.989 0 0 1-2.987 2.986H3.067A2.99 2.99 0 0 1 .08 24.454V18.48c0-.412.334-.747.747-.747A3.738 3.738 0 0 0 4.56 14a3.738 3.738 0 0 0-3.733-3.734.746.746 0 0 1-.747-.746V3.547A2.99 2.99 0 0 1 3.067.56h29.866a2.99 2.99 0 0 1 2.987 2.987V9.52a.746.746 0 0 1-.747.746A3.737 3.737 0 0 0 31.441 14a3.737 3.737 0 0 0 3.732 3.733zM29.947 14c0-2.628 1.95-4.81 4.479-5.173v-5.28c0-.824-.67-1.493-1.493-1.493H3.067c-.823 0-1.494.669-1.494 1.493v5.28A5.235 5.235 0 0 1 6.054 14a5.234 5.234 0 0 1-4.481 5.173v5.281c0 .823.671 1.493 1.494 1.493h29.866c.823 0 1.493-.67 1.493-1.493v-5.281A5.233 5.233 0 0 1 29.947 14zm-5.973 7.467c-1.648 0-2.987-1.675-2.987-3.734 0-2.058 1.339-3.733 2.987-3.733 1.647 0 2.986 1.675 2.986 3.733 0 2.059-1.339 3.734-2.986 3.734zm0-5.974c-.81 0-1.494 1.026-1.494 2.24 0 1.214.684 2.24 1.494 2.24.808 0 1.492-1.026 1.492-2.24 0-1.214-.684-2.24-1.492-2.24zm-7.593 5.641a.744.744 0 0 1-1.035.207.746.746 0 0 1-.208-1.035l8.961-13.44a.746.746 0 1 1 1.243.828l-8.961 13.44zM16.507 14c-1.648 0-2.987-1.675-2.987-3.734 0-2.058 1.339-3.733 2.987-3.733 1.647 0 2.987 1.675 2.987 3.733 0 2.059-1.34 3.734-2.987 3.734zm0-5.973c-.81 0-1.493 1.026-1.493 2.239 0 1.215.683 2.241 1.493 2.241.809 0 1.493-1.026 1.493-2.241 0-1.213-.684-2.239-1.493-2.239zM9.786 24.454a.747.747 0 0 1-.746-.747v-1.493a.746.746 0 1 1 1.493 0v1.493a.746.746 0 0 1-.747.747zm0-5.974a.746.746 0 0 1-.746-.747V16.24a.746.746 0 1 1 1.493 0v1.493a.746.746 0 0 1-.747.747zm0-5.973a.746.746 0 0 1-.746-.747v-1.494a.746.746 0 0 1 1.493 0v1.494a.746.746 0 0 1-.747.747zm0-5.974a.746.746 0 0 1-.746-.746v-1.68a.746.746 0 1 1 1.493 0v1.68a.746.746 0 0 1-.747.746z"/>
</svg>
