<svg xmlns="http://www.w3.org/2000/svg" width="34" height="36">
    <path fill="#F78631" fill-rule="evenodd" d="M27.523 23.128c-2.07 0-3.916.987-5.097 2.512l-9.888-5.525a6.448 6.448 0 0 0 .359-2.122c0-.748-.127-1.458-.366-2.131l9.88-5.516a6.423 6.423 0 0 0 5.104 2.526 6.445 6.445 0 0 0 6.435-6.436A6.44 6.44 0 0 0 27.515 0a6.44 6.44 0 0 0-6.435 6.436c0 .748.127 1.465.367 2.131l-9.873 5.516a6.405 6.405 0 0 0-5.104-2.527 6.446 6.446 0 0 0-6.435 6.437c0 3.55 2.892 6.435 6.442 6.435a6.434 6.434 0 0 0 5.112-2.533l9.881 5.523a6.395 6.395 0 0 0-.374 2.146c0 3.543 2.884 6.436 6.435 6.436a6.44 6.44 0 0 0 6.434-6.436c0-3.551-2.892-6.436-6.442-6.436zm0-21.102a4.421 4.421 0 0 1 4.417 4.417 4.421 4.421 0 0 1-4.417 4.418 4.421 4.421 0 0 1-4.417-4.418 4.426 4.426 0 0 1 4.417-4.417zM6.477 22.41a4.42 4.42 0 0 1-4.417-4.417 4.421 4.421 0 0 1 4.417-4.418 4.42 4.42 0 0 1 4.417 4.418 4.425 4.425 0 0 1-4.417 4.417zm21.046 11.564a4.421 4.421 0 0 1-4.417-4.417 4.422 4.422 0 0 1 4.417-4.418 4.422 4.422 0 0 1 4.417 4.418 4.421 4.421 0 0 1-4.417 4.417z"/>
</svg>
