<?xml version="1.0" encoding="utf-8"?>
<!-- Generator: Adobe Illustrator 23.0.1, SVG Export Plug-In . SVG Version: 6.00 Build 0)  -->
<svg version="1.1" id="Layer_1" xmlns="http://www.w3.org/2000/svg" xmlns:xlink="http://www.w3.org/1999/xlink" x="0px" y="0px"
	 viewBox="0 0 50 50" style="enable-background:new 0 0 50 50;" xml:space="preserve">
<style type="text/css">
	.st0{fill:none;stroke:#000000;stroke-width:0.7;stroke-linecap:round;stroke-miterlimit:10;}
	.st1{fill:#F78631;}
</style>
<title>lab</title>
<path class="st0" d="M13.9,44.5h20.2c1.8,0.2,3.5-1,4.1-2.7h-0.8c-0.2,0-0.5-0.1-0.7-0.1c-1.8-0.5-3-2.1-3-3.9V22.4h-0.9
	c-0.4,0-0.7-0.3-0.7-0.7c0-0.4,0.3-0.7,0.7-0.7l0,0h5.6v-9c0.2-2.2-1.4-4.1-3.6-4.3c-0.2,0-0.5,0-0.7,0h-3.6v4.2
	c0,0.4-0.3,0.7-0.7,0.7H18.2c-0.4,0-0.7-0.3-0.7-0.7V7.7h-3.6c-2.2-0.2-4.1,1.4-4.3,3.6c0,0.2,0,0.4,0,0.7v28.2
	c-0.2,2.2,1.5,4.1,3.7,4.3C13.5,44.5,13.7,44.5,13.9,44.5z"/>
<path class="st1" d="M17.7,18h12.5c0.4,0,0.7,0.3,0.7,0.7c0,0.4-0.3,0.7-0.7,0.7H17.7c-0.4,0-0.7-0.3-0.7-0.7S17.3,18,17.7,18z"/>
<path class="st1" d="M17.7,22.2h12.5c0.4,0,0.7,0.3,0.7,0.7c0,0.4-0.3,0.7-0.7,0.7H17.7c-0.4,0-0.7-0.3-0.7-0.7S17.3,22.2,17.7,22.2
	z"/>
<path class="st1" d="M17.7,26.3h12.5c0.4,0,0.7,0.4,0.7,0.8c0,0.3-0.3,0.6-0.7,0.7H17.7c-0.4,0-0.7-0.4-0.7-0.8
	C17.1,26.6,17.4,26.3,17.7,26.3z"/>
<path class="st1" d="M17.7,30.4h12.5c0.4,0,0.7,0.3,0.7,0.7c0,0.4-0.3,0.7-0.7,0.7H17.7c-0.4,0-0.7-0.3-0.7-0.7
	C17,30.8,17.3,30.4,17.7,30.4z"/>
<path class="st1" d="M17.7,34.6h12.5c0.4,0,0.7,0.3,0.7,0.7S30.6,36,30.2,36H17.7c-0.4,0-0.7-0.3-0.7-0.7S17.3,34.6,17.7,34.6
	L17.7,34.6z"/>
<path class="st0" d="M19,7.7v3.4h10V6.6H19V7.7z"/>
<path class="st0" d="M40.2,22.7h-5.1v15.1c-0.1,1.4,0.9,2.6,2.3,2.7c1.4,0.1,2.5-0.9,2.7-2.2c0-0.1,0-0.3,0-0.5L40.2,22.7z"/>
</svg>
