<?xml version="1.0" encoding="utf-8"?>
<!-- Generator: Adobe Illustrator 24.0.3, SVG Export Plug-In . SVG Version: 6.00 Build 0)  -->
<svg version="1.1" id="Layer_1" xmlns="http://www.w3.org/2000/svg" xmlns:xlink="http://www.w3.org/1999/xlink" x="0px" y="0px"
	 viewBox="0 0 50 50" style="enable-background:new 0 0 50 50;" xml:space="preserve">
<style type="text/css">
	.st0{fill:#F78631;}
</style>
<path class="st0" d="M25,23.5c3.7,0,6.7-3,6.7-6.7v-3.4c0.1-3.7-2.7-6.8-6.4-6.9s-6.8,2.7-6.9,6.4c0,0.2,0,0.3,0,0.5v3.5
	C18.3,20.5,21.3,23.5,25,23.5z"/>
<path class="st0" d="M39.7,32.2c-2.1-3.6-5.6-6.4-9.6-7.6c-0.1,0-0.2,0-0.3,0.1c-1.5,1.4-3.1,2.6-4.8,3.7c-1.7-1.1-3.3-2.3-4.8-3.7
	c-0.1-0.1-0.2-0.1-0.3-0.1c-4,1.2-7.5,4-9.6,7.6c-0.1,0.1-0.1,0.2,0,0.3c4.8,8.1,15.3,10.8,23.5,6c2.5-1.5,4.5-3.5,6-6
	C39.8,32.4,39.8,32.3,39.7,32.2z"/>
</svg>
