<svg id="Layer_1" data-name="Layer 1" xmlns="http://www.w3.org/2000/svg" viewBox="0 0 543.4 355.2"><defs><style>.cls-1{fill:#fff;}</style></defs><title>Logo_smile</title><path class="cls-1" d="M122.9,349.7a87.39,87.39,0,0,1-44.1-11.5,83.31,83.31,0,0,1-31.4-31.5,89.12,89.12,0,0,1-11.3-44.4c0-16.1,3.5-31,10.5-44.2a80.44,80.44,0,0,1,29.1-31.5,77.66,77.66,0,0,1,41.4-11.4,79.67,79.67,0,0,1,34.3,7.6,78.43,78.43,0,0,1,15.1,9.5V129.9a20.86,20.86,0,0,1,21.6-21.5c6.3,0,11.5,2,15.5,6s6,9.2,6,15.5V262.3a88,88,0,0,1-11.5,44.4,84.23,84.23,0,0,1-31.2,31.5A86.49,86.49,0,0,1,122.9,349.7Zm0-135.1a43,43,0,0,0-22.8,6.1,44.16,44.16,0,0,0-16.2,17,49.68,49.68,0,0,0-6,24.5,50.73,50.73,0,0,0,6,24.7A44.44,44.44,0,0,0,100.1,304a43,43,0,0,0,22.8,6.1,43,43,0,0,0,22.8-6.1,42.32,42.32,0,0,0,16-17,51.8,51.8,0,0,0,5.9-24.7,50.72,50.72,0,0,0-5.9-24.5,43.4,43.4,0,0,0-16-16.9A41.19,41.19,0,0,0,122.9,214.6Z" transform="translate(-36.1 -108.4)"/><path class="cls-1" d="M310.9,342.9c-16.6,0-31.7-3.8-44.8-11.2a79.49,79.49,0,0,1-31-31.2c-7.3-13.1-11-28.2-11-44.8,0-16.8,3.7-31.9,11-45.1a80.15,80.15,0,0,1,31-31.2c13.2-7.4,28.2-11.2,44.8-11.2,16.4,0,31.3,3.8,44.4,11.2a81.94,81.94,0,0,1,31,31.1c7.4,13.2,11.2,28.3,11.2,45.1,0,16.6-3.7,31.6-11,44.8a80.56,80.56,0,0,1-30.9,31.2C342.5,339.2,327.5,342.9,310.9,342.9Zm0-135a45.06,45.06,0,0,0-23.2,6,41.85,41.85,0,0,0-15.9,16.9,52.44,52.44,0,0,0-5.9,25,51.36,51.36,0,0,0,5.9,24.8,41.53,41.53,0,0,0,16,16.7c6.9,4.1,14.4,6,23.2,6a44.81,44.81,0,0,0,23.2-6A41.06,41.06,0,0,0,350,280.6a56.78,56.78,0,0,0,0-50,40.7,40.7,0,0,0-15.8-16.8A46.64,46.64,0,0,0,310.9,207.9Z" transform="translate(-36.1 -108.4)"/><path class="cls-1" d="M184.5,371.6a32,32,0,0,1,12.2,12.3,34.12,34.12,0,0,1,4.4,17.4,37.22,37.22,0,0,1-4.1,17.4,30.28,30.28,0,0,1-11.3,12.2,29.42,29.42,0,0,1-16,4.4,29.83,29.83,0,0,1-13.3-3,31.16,31.16,0,0,1-10.5-8.2v33.2a6.52,6.52,0,0,1-1.7,4.6,6.35,6.35,0,0,1-4.6,1.7,6.44,6.44,0,0,1-4.5-1.7,6,6,0,0,1-1.8-4.6V401.2a34.19,34.19,0,0,1,4.5-17.4A33.29,33.29,0,0,1,167.2,367,35.48,35.48,0,0,1,184.5,371.6Zm-6.2,49.6a23,23,0,0,0,7.9-8.2,24.15,24.15,0,0,0,2.9-11.7,24.55,24.55,0,0,0-2.9-11.8,21.75,21.75,0,0,0-7.9-8.3,22,22,0,0,0-22.2,0,21.5,21.5,0,0,0-7.8,8.3,24.48,24.48,0,0,0-2.8,11.8,23.82,23.82,0,0,0,2.8,11.7,21.23,21.23,0,0,0,7.8,8.2,21,21,0,0,0,11.1,3A19.33,19.33,0,0,0,178.3,421.2Z" transform="translate(-36.1 -108.4)"/><path class="cls-1" d="M263,368.8c2.5,1.3,3.7,3,3.7,4.9a3.45,3.45,0,0,1-.1,1.2,4.73,4.73,0,0,1-4.9,3.9c-.4,0-1-.1-1.8-.2a46.2,46.2,0,0,0-8-.9c-5.9,0-10.7,1.4-14.3,4.1a13,13,0,0,0-5.4,10.9v35.9a6.53,6.53,0,0,1-1.5,4.6,6,6,0,0,1-4.6,1.6,6.53,6.53,0,0,1-4.6-1.5,6,6,0,0,1-1.6-4.6v-55a5.76,5.76,0,0,1,1.6-4.5,6.14,6.14,0,0,1,4.6-1.6c4.1,0,6.1,2,6.1,6.1V376a26.86,26.86,0,0,1,9.1-6.8,28.43,28.43,0,0,1,11.6-2.5A23.37,23.37,0,0,1,263,368.8Z" transform="translate(-36.1 -108.4)"/><path class="cls-1" d="M282.6,369.3a6.44,6.44,0,0,1,4.5-1.7,6.52,6.52,0,0,1,4.6,1.7,6.27,6.27,0,0,1,1.7,4.5v54.7a6.44,6.44,0,0,1-1.7,4.5,6,6,0,0,1-4.6,1.8,6.15,6.15,0,0,1-6.3-6.3V373.8A6,6,0,0,1,282.6,369.3Z" transform="translate(-36.1 -108.4)"/><path class="cls-1" d="M404.7,374c4.4,4.7,6.6,11.2,6.6,19.6v35.2a6.44,6.44,0,0,1-1.7,4.5,6,6,0,0,1-4.6,1.8,6.15,6.15,0,0,1-6.3-6.3V393.6c0-5-1.3-8.8-3.8-11.4a13.18,13.18,0,0,0-10-3.9,13.73,13.73,0,0,0-10.5,4.4,16.18,16.18,0,0,0-4.1,11.3v34.7a6.44,6.44,0,0,1-1.7,4.5A6,6,0,0,1,364,435a6.15,6.15,0,0,1-6.3-6.3V393.5c0-5-1.3-8.8-3.8-11.4a13.18,13.18,0,0,0-10-3.9,14,14,0,0,0-10.6,4.4,16.18,16.18,0,0,0-4.1,11.3v34.7a6.44,6.44,0,0,1-1.7,4.5,6,6,0,0,1-4.6,1.8,6.15,6.15,0,0,1-6.3-6.3V374a5.8,5.8,0,0,1,1.8-4.5,6.44,6.44,0,0,1,4.5-1.7,6,6,0,0,1,4.4,1.7,6.1,6.1,0,0,1,1.8,4.4,23.37,23.37,0,0,1,7.6-5,25.24,25.24,0,0,1,9.6-1.8,24.69,24.69,0,0,1,11.3,2.5,22.66,22.66,0,0,1,8.2,7.2,25.87,25.87,0,0,1,9.2-7.1,29.13,29.13,0,0,1,12.3-2.6C394.6,367,400.3,369.3,404.7,374Z" transform="translate(-36.1 -108.4)"/><path class="cls-1" d="M490.9,404a5.75,5.75,0,0,1-4.1,1.5H440.1a21.71,21.71,0,0,0,7.8,13.9,24.32,24.32,0,0,0,15.8,5.3,21.68,21.68,0,0,0,7.7-1.4A22.58,22.58,0,0,0,478,420a6.36,6.36,0,0,1,4.1-1.4,5.31,5.31,0,0,1,3.7,1.2A5.22,5.22,0,0,1,488,424a4.52,4.52,0,0,1-2,3.7,35.13,35.13,0,0,1-10.4,5.4,36.9,36.9,0,0,1-11.9,2.1,37.58,37.58,0,0,1-18.1-4.4,31.63,31.63,0,0,1-12.5-12.1,34.4,34.4,0,0,1-4.5-17.6,36.34,36.34,0,0,1,4.2-17.6,30.79,30.79,0,0,1,11.8-12.2,33.85,33.85,0,0,1,17.2-4.4,31,31,0,0,1,16.4,4.2,28,28,0,0,1,10.6,11.7,37.85,37.85,0,0,1,3.7,17.2A5.42,5.42,0,0,1,490.9,404Zm-43.6-21.4a22.51,22.51,0,0,0-7.1,13.2h41a22,22,0,0,0-6.1-13.2c-3.4-3.3-7.7-4.9-13.2-4.9C455.9,377.6,451,379.3,447.3,382.6Z" transform="translate(-36.1 -108.4)"/><circle class="cls-1" cx="526.2" cy="162.1" r="17.2"/><circle class="cls-1" cx="495.5" cy="91.4" r="17.2"/><path class="cls-1" d="M538.4,311.5a18.32,18.32,0,0,0-23.7-10.1,50.16,50.16,0,0,1-37.6-93,18.22,18.22,0,0,0-13.6-33.8,86.63,86.63,0,1,0,65,160.6A18.19,18.19,0,0,0,538.4,311.5Z" transform="translate(-36.1 -108.4)"/></svg>