<svg id="Layer_1" data-name="Layer 1" xmlns="http://www.w3.org/2000/svg" viewBox="0 0 50 50"><defs><style>.cls-1{fill:#f78631;stroke:#040507;stroke-miterlimit:10;}.cls-1,.cls-2{stroke-linecap:round;}.cls-2{fill:#fff;stroke:#000;stroke-linejoin:round;}</style></defs><title>Mail 2</title><path class="cls-1" d="M8.27,11.4l15,11.88a3.88,3.88,0,0,0,2.52.73,3.84,3.84,0,0,0,2.53-.73l15-11.88c1.19-1,.93-1.72-.6-1.72H8.86c-1.52,0-1.79.77-.59,1.72Zm0,0"/><path class="cls-2" d="M44.39,14.53,28,27a3.95,3.95,0,0,1-4.43,0L7.19,14.53C6,13.61,5,14.11,5,15.63V36a2.79,2.79,0,0,0,2.78,2.78H43.83A2.78,2.78,0,0,0,46.6,36V15.63c0-1.52-1-2-2.21-1.1Zm0,0"/></svg>