<svg xmlns="http://www.w3.org/2000/svg" width="1118" height="1522" viewBox="0 0 1118 1522"><defs><style>.a{fill:rgba(65,162,249,0.06);}</style></defs><g transform="translate(-178 -1132)"><path class="a" d="M135.5,0A135.5,135.5,0,1,1,0,135.5,135.5,135.5,0,0,1,135.5,0Z" transform="translate(639 1972)"/><path class="a" d="M135.5,0A135.5,135.5,0,1,1,0,135.5,135.5,135.5,0,0,1,135.5,0Z" transform="translate(1025 1360)"/><path class="a" d="M135.5,0A135.5,135.5,0,1,1,0,135.5,135.5,135.5,0,0,1,135.5,0Z" transform="translate(178 1132)"/><path class="a" d="M135.5,0A135.5,135.5,0,1,1,0,135.5,135.5,135.5,0,0,1,135.5,0Z" transform="translate(910 2383)"/></g></svg>