<svg xmlns="http://www.w3.org/2000/svg" width="1118" height="1955" viewBox="0 0 1118 1955"><defs><style>.a{fill:rgba(65,162,249,0.12);}</style></defs><g transform="translate(-178 -1132)"><path class="a" d="M135.5,0A135.5,135.5,0,1,1,0,135.5,135.5,135.5,0,0,1,135.5,0Z" transform="translate(890 1981)"/><path class="a" d="M135.5,0A135.5,135.5,0,1,1,0,135.5,135.5,135.5,0,0,1,135.5,0Z" transform="translate(1025 1360)"/><path class="a" d="M135.5,0A135.5,135.5,0,1,1,0,135.5,135.5,135.5,0,0,1,135.5,0Z" transform="translate(178 1738)"/><path class="a" d="M135.5,0A135.5,135.5,0,1,1,0,135.5,135.5,135.5,0,0,1,135.5,0Z" transform="translate(178 1132)"/><path class="a" d="M135.5,0A135.5,135.5,0,1,1,0,135.5,135.5,135.5,0,0,1,135.5,0Z" transform="translate(271 2400)"/><path class="a" d="M135.5,0A135.5,135.5,0,1,1,0,135.5,135.5,135.5,0,0,1,135.5,0Z" transform="translate(890 2816)"/></g></svg>