<svg xmlns="http://www.w3.org/2000/svg" width="82" height="82">
    <path fill="#1B97FD" fill-rule="evenodd" d="M41 .15C63.561.15 81.85 18.439 81.85 41S63.561 81.85 41 81.85C18.44 81.85.15 63.561.15 41S18.44.15 41 .15z" opacity=".102"/>
    <path fill="#1B97FD" fill-rule="evenodd" d="M54.44 19.8h-4.017a2.875 2.875 0 0 0-2.703-1.92h-2.9A4.806 4.806 0 0 0 41 15.96a4.806 4.806 0 0 0-3.82 1.92h-2.9c-1.25 0-2.306.805-2.703 1.92H27.56a3.844 3.844 0 0 0-3.84 3.84V58.2a3.844 3.844 0 0 0 3.84 3.84h26.88a3.844 3.844 0 0 0 3.84-3.84V23.64a3.844 3.844 0 0 0-3.84-3.84zm-21.12.96c0-.53.43-.96.96-.96h3.413a.96.96 0 0 0 .829-.477 2.847 2.847 0 0 1 4.956 0 .961.961 0 0 0 .83.477h3.412c.53 0 .96.43.96.96v.96c0 1.058-.861 1.92-1.92 1.92H35.24a1.923 1.923 0 0 1-1.92-1.92v-.96zm16.32 35.52H32.36a.959.959 0 1 1 0-1.92h17.28a.959.959 0 1 1 0 1.92zm0-5.76H32.36a.959.959 0 1 1 0-1.92h17.28a.959.959 0 1 1 0 1.92zm0-9.6h-1.92a.96.96 0 0 1-.859-.531l-.935-1.871-2.107 5.619a.962.962 0 0 1-.953.621.958.958 0 0 1-.877-.726l-2.251-9.001-2.679 5.358a.96.96 0 0 1-.859.531h-3.84a.959.959 0 1 1 0-1.92h3.247l3.574-7.15a.961.961 0 0 1 1.79.197l2.133 8.529 1.797-4.794a.96.96 0 0 1 1.758-.091L48.313 39h1.327a.959.959 0 1 1 0 1.92z"/>
</svg>
