<svg xmlns="http://www.w3.org/2000/svg" width="33" height="32">
    <path fill-rule="evenodd" d="M30.834 3H25.5V1a1 1 0 1 0-2 0v2h-6V1a1 1 0 1 0-2 0v2h-6V1a1 1 0 1 0-2 0v2H3.167A2.666 2.666 0 0 0 .5 5.666v23.667A2.666 2.666 0 0 0 3.167 32h26.667a2.665 2.665 0 0 0 2.666-2.667V5.666C32.5 4.193 32.307 3 30.834 3zm.666 27.333a.667.667 0 0 1-.666.667H2.167a.667.667 0 0 1-.667-.667V4.666c0-.367.299-.666.667-.666H7.5v3a1 1 0 1 0 2 0V4h6v3a1 1 0 1 0 2 0V4h6v3a1 1 0 1 0 2 0V4l5.334 1c.367 0 .666.299.666.666v24.667z"/>
    <path fill="#FF6E00" fill-rule="evenodd" d="M21.5 25v-3h4v3h-4zm0-8h4v3h-4v-3zm0-5h4v3h-4v-3zm-7 10h4v3h-4v-3zm0-5h4v3h-4v-3zm0-5h4v3h-4v-3zm-7 10h4v3h-4v-3zm0-5h4v3h-4v-3zm0-5h4v3h-4v-3z"/>
</svg>
