<svg xmlns="http://www.w3.org/2000/svg" width="15" height="22">
    <path fill-rule="evenodd" d="M12.803 2.258C11.386.803 9.503.002 7.5.002c-2.004 0-3.887.801-5.303 2.256-2.622 2.692-2.948 7.758-.706 10.827L7.5 21.998l5.999-8.901c2.251-3.081 1.926-8.147-.696-10.839zm.062 10.37L7.5 20.586l-5.374-7.971C.092 9.831.384 5.256 2.75 2.826A6.587 6.587 0 0 1 7.5.805c1.794 0 3.481.718 4.75 2.021 2.366 2.43 2.658 7.005.615 9.802z"/>
    <path fill="#F78631" fill-rule="evenodd" d="M7.569 4.822c-1.509 0-2.737 1.262-2.737 2.812 0 1.55 1.228 2.812 2.737 2.812 1.509 0 2.738-1.262 2.738-2.812 0-1.55-1.229-2.812-2.738-2.812zm0 4.82c-1.078 0-1.955-.9-1.955-2.008 0-1.107.877-2.008 1.955-2.008s1.956.901 1.956 2.008c0 1.108-.878 2.008-1.956 2.008z"/>
</svg>
