<svg xmlns="http://www.w3.org/2000/svg" width="12" height="15" viewBox="0 0 12 15"><defs><style>.a{fill:#7F1B7D;}</style></defs><g transform="translate(-53.014 0)"><path class="a" d="M184.9,465.044a2.266,2.266,0,0,0,4.148,0Z" transform="translate(-127.964 -451.397)"/><path class="a" d="M198.017,1.433a5.1,5.1,0,0,1,1.74.3V1.671A1.673,1.673,0,0,0,198.086,0h-.138a1.673,1.673,0,0,0-1.671,1.671v.066A5.107,5.107,0,0,1,198.017,1.433Z" transform="translate(-139.004)"/><path class="a" d="M64.557,89.289H53.47a.451.451,0,0,1-.446-.343.426.426,0,0,1,.237-.486,2.335,2.335,0,0,0,.716-.964,11.05,11.05,0,0,0,.746-4.41,4.29,4.29,0,0,1,8.579-.017q0,.008,0,.017a11.05,11.05,0,0,0,.746,4.41,2.334,2.334,0,0,0,.716.964.426.426,0,0,1,.237.486A.451.451,0,0,1,64.557,89.289Zm.213-.826h0Z" transform="translate(0 -76.523)"/></g></svg>