<svg xmlns="http://www.w3.org/2000/svg" width="34" height="41">
    <path fill="none" stroke="#000" d="M30.497 33.048c.001-.533.004-.077 0 0zm-13.492 4.458c-11.504 0-13.49-3.837-13.49-3.837 0-.446-.002-.701-.002-.84.002.074.009.041.02-.596.154-7.789 1.309-10.034 9.561-11.461 0 0 1.175 1.433 3.911 1.433 2.738 0 3.912-1.433 3.912-1.433 8.343 1.442 9.433 3.722 9.566 11.721.008.512.013.6.013.555v.621s-1.985 3.837-13.491 3.837zM3.513 32.829c-.002-.079 0-.28 0 0z"/>
    <path fill="none" stroke="#F78631" d="M23.5 26.5a3 3 0 1 1 0 6 3 3 0 0 1 0-6z"/>
    <path fill="none" stroke="#000" d="M17.005 20.134c3.946 0 7.144-3.722 7.144-8.315 0-4.592-1.049-8.314-7.144-8.314-6.093 0-7.143 3.722-7.143 8.314 0 4.593 3.199 8.315 7.143 8.315z"/>
</svg>
