<svg xmlns="http://www.w3.org/2000/svg" width="27" height="27">
    <path fill="#F7831C" fill-rule="evenodd" d="M13.5 26.555C6.29 26.555.445 20.71.445 13.5S6.29.445 13.5.445C20.706.454 26.546 6.294 26.555 13.5c0 7.21-5.845 13.055-13.055 13.055zm.56-24.962v2.296a.56.56 0 1 1-1.12 0V1.593A11.93 11.93 0 0 0 1.593 12.94h2.296a.56.56 0 1 1 0 1.12H1.593A11.93 11.93 0 0 0 12.94 25.407v-2.296a.56.56 0 1 1 1.12 0v2.296A11.93 11.93 0 0 0 25.412 14.06H23.111a.56.56 0 1 1 0-1.12h2.296A11.93 11.93 0 0 0 14.06 1.593zm4.548 17.9l-5.506-5.601a.563.563 0 0 1-.162-.392V7.619a.56.56 0 0 1 1.12 0v5.651l5.349 5.439a.56.56 0 0 1-.801.784z"/>
</svg>
