<svg xmlns="http://www.w3.org/2000/svg" width="42" height="43">
    <path fill="#F78631" fill-opacity="0" fill-rule="evenodd" stroke="#000" d="M38.051 23.913l-.542-.725a2.252 2.252 0 0 1-.022-2.663l.527-.732c.805-1.121.433-2.678-.805-3.331l-.804-.423a2.263 2.263 0 0 1-1.194-2.391l.154-.882c.233-1.35-.798-2.6-2.195-2.656l-.917-.037a2.325 2.325 0 0 1-2.137-1.643l-.256-.861c-.388-1.321-1.866-2.003-3.155-1.458l-.841.352a2.348 2.348 0 0 1-2.649-.574l-.608-.668a2.35 2.35 0 0 0-3.484.029l-.6.675a2.362 2.362 0 0 1-2.644.61l-.848-.345c-1.295-.523-2.759.187-3.133 1.508l-.24.869a2.306 2.306 0 0 1-2.109 1.672l-.915.05c-1.399.079-2.409 1.342-2.151 2.691l.167.883a2.26 2.26 0 0 1-1.156 2.405l-.798.438c-1.222.668-1.575 2.232-.747 3.338l.542.724c.585.79.6 1.86.022 2.664l-.527.732c-.806 1.119-.432 2.677.805 3.33l.804.424a2.261 2.261 0 0 1 1.194 2.39l-.153.883c-.235 1.35.796 2.598 2.195 2.655l.914.037c.997.043 1.861.703 2.138 1.643l.257.862c.388 1.321 1.867 2.002 3.154 1.457l.842-.352a2.351 2.351 0 0 1 2.65.574l.608.667c.936 1.021 2.569 1.013 3.484-.028l.599-.675a2.36 2.36 0 0 1 2.643-.609l.849.343c1.296.525 2.76-.186 3.133-1.507l.241-.868a2.304 2.304 0 0 1 2.109-1.672l.914-.051c1.398-.079 2.409-1.342 2.153-2.691l-.17-.884a2.262 2.262 0 0 1 1.158-2.404l.797-.438a2.252 2.252 0 0 0 .747-3.337z"/>
    <path fill="#F78631" fill-rule="evenodd" d="M15.134 28.501l-.525-.529 13.368-13.473.525.529-13.368 13.473zm1.593-8.732a2.239 2.239 0 0 1-2.227-2.246c0-1.238.999-2.245 2.227-2.245a2.24 2.24 0 0 1 2.229 2.245c0 1.239-1 2.246-2.229 2.246zm0-3.743c-.818 0-1.484.672-1.484 1.497 0 .826.666 1.497 1.484 1.497.821 0 1.487-.671 1.487-1.497 0-.825-.666-1.497-1.487-1.497zm8.773 7.205a2.239 2.239 0 0 1 2.228 2.246 2.239 2.239 0 0 1-2.228 2.245 2.24 2.24 0 0 1-2.228-2.245c0-1.239 1-2.246 2.228-2.246zm0 3.743c.82 0 1.486-.672 1.486-1.497 0-.826-.666-1.498-1.486-1.498-.819 0-1.484.672-1.484 1.498 0 .825.665 1.497 1.484 1.497z"/>
</svg>
