<svg xmlns="http://www.w3.org/2000/svg" width="154" height="174" viewBox="0 0 154 174">
  <defs>
    <style>
      .cls-1, .cls-2 {
        fill-rule: evenodd;
      }

      .cls-2 {
        fill: #f78631;
      }
    </style>
  </defs>
  <path id="Forma_1" data-name="Forma 1" class="cls-1" d="M81.68,196m15.4-96.95c4.25-4.71,9.671-7.317,15.4-7.317,6.043,0,11.766,2.874,16.108,8.093,0.059,0.07.148,0.1,0.213,0.162a2.9,2.9,0,0,0,.194.239,3.225,3.225,0,0,0,.4.215,2.868,2.868,0,0,0,.472.254,2.994,2.994,0,0,0,.767.166,3.105,3.105,0,0,0,.326.07c0.049,0,.095-0.021.142-0.024a2.58,2.58,0,0,0,.459-0.08,3.129,3.129,0,0,0,.613-0.178,2.893,2.893,0,0,0,.437-0.248,3.17,3.17,0,0,0,.311-0.175,2.077,2.077,0,0,0,.172-0.215c0.071-.07.167-0.107,0.235-0.187,4.345-5.219,10.068-8.093,16.111-8.093s11.766,2.874,16.108,8.093c0.031,0.037.074,0.046,0.108,0.083a3.128,3.128,0,0,0,.755.577,2.556,2.556,0,0,0,.271.181,3.087,3.087,0,0,0,1.238.266h0a3.015,3.015,0,0,0,1.112-.224,3.286,3.286,0,0,0,.382-0.217,2.823,2.823,0,0,0,.468-0.267c0.037-.031.052-0.074,0.086-0.107a3.025,3.025,0,0,0,.416-0.512,3.208,3.208,0,0,0,.3-0.445,2.646,2.646,0,0,0,.157-0.524A2.99,2.99,0,0,0,170.972,98c0-.046.028-0.086,0.028-0.135,0-41.247-33.885-74.971-74.92-76.59v-6.21C96.08,13.371,95.7,12,94,12s-2.08,1.371-2.08,3.067v6.21C50.885,22.9,17,56.62,17,97.867c0,0.049.025,0.089,0.028,0.138a2.875,2.875,0,0,0,.129.635,3.264,3.264,0,0,0,.154.527,7.009,7.009,0,0,0,.718.957c0.034,0.03.049,0.076,0.086,0.107a2.893,2.893,0,0,0,.363.2,2.227,2.227,0,0,0,1.217.433c0.132,0.012.25,0.073,0.385,0.073,0.046,0,.083-0.024.129-0.024a3.025,3.025,0,0,0,.678-0.135,2.842,2.842,0,0,0,.487-0.144,3.106,3.106,0,0,0,.48-0.322,3.117,3.117,0,0,0,.483-0.39c0.034-.037.08-0.052,0.114-0.092,4.343-5.219,10.065-8.093,16.108-8.093s11.766,2.874,16.108,8.093c0.059,0.07.148,0.1,0.212,0.162a2.844,2.844,0,0,0,.194.239,3.24,3.24,0,0,0,.4.218,2.743,2.743,0,0,0,.468.251,2.93,2.93,0,0,0,.767.166c0.114,0.012.219,0.07,0.33,0.07,0.049,0,.1-0.021.142-0.024a2.835,2.835,0,0,0,.456-0.077,2.9,2.9,0,0,0,.616-0.181,2.747,2.747,0,0,0,.434-0.248A2.671,2.671,0,0,0,59,100.225c0.074-.061.108-0.147,0.175-0.215a2.612,2.612,0,0,0,.231-0.187c4.349-5.216,10.072-8.09,16.115-8.09,5.729,0,11.15,2.607,15.4,7.317M149.44,87.6a26.421,26.421,0,0,0-18.48,7.771,25.859,25.859,0,0,0-36.96,0,25.859,25.859,0,0,0-36.96,0c-5.2-5.026-11.649-8.771-18.48-8.771-5.39,0-13.527,4.736-18.015,7.922C24.247,59.068,51.121,24.333,94,24.333c41.148,0,70.753,35.735,74.455,71.189C163.967,92.336,154.83,87.6,149.44,87.6Z" transform="translate(-17 -12)"/>
  <path id="Forma_1_copy" data-name="Forma 1 copy" class="cls-2" d="M91.92,99.05v72.617c0,5.072-5.146,10.2-10.24,10.2s-10.24-5.128-10.24-10.2c0-1.7-.38-3.067-2.08-3.067s-2.08,1.371-2.08,3.067c0,8.454,5.908,14.333,14.4,14.333s14.4-5.879,14.4-14.333V99.05" transform="translate(-17 -12)"/>
</svg>
