<svg xmlns="http://www.w3.org/2000/svg" width="22" height="20">
    <path fill="#3379EE" fill-rule="evenodd" d="M16.553 19.608H3.648V9.398h17.745v10.21h-4.84zm3.549-6.753l-.526-.513c-.067.012-.129.038-.2.038-.578 0-1.047-.455-1.047-1.018 0-.069.026-.13.041-.195l-.527-.512H7.197l-.527.513c.014.065.04.125.04.194 0 .563-.468 1.019-1.046 1.019-.071 0-.133-.025-.2-.039l-.526.512v3.298l.527.513c.067-.013.128-.039.199-.039.578 0 1.047.456 1.047 1.019 0 .069-.027.129-.04.195l.526.512h10.646l.527-.513c-.013-.065-.04-.125-.04-.194 0-.563.468-1.02 1.046-1.02.071 0 .133.026.2.04l.526-.513v-3.297zm-2.339 2.668c-.578 0-1.047-.457-1.047-1.02s.469-1.019 1.047-1.019 1.047.456 1.047 1.019-.469 1.02-1.047 1.02zm-5.243 1.662c-1.749 0-3.166-1.201-3.166-2.682 0-1.481 1.417-2.681 3.166-2.681 1.749 0 3.167 1.2 3.167 2.681s-1.418 2.682-3.167 2.682zm-5.243-1.663a1.032 1.032 0 0 1-1.046-1.019c0-.563.468-1.018 1.046-1.018.578 0 1.046.455 1.046 1.018s-.468 1.019-1.046 1.019zm8.229-9.987c.578 0 1.046.456 1.046 1.019 0 .562-.468 1.018-1.046 1.018-.577 0-1.047-.456-1.047-1.018 0-.563.47-1.019 1.047-1.019zm-1.822 1.99c.125.221.196.456.242.695H8.092a3.358 3.358 0 0 1 1.492-1.566c1.534-.818 3.369-.428 4.1.871zm3.808.696c.084-.229.24-.434.477-.56.062-.033.13-.04.193-.059l.209-.696-1.627-2.891-.715-.205c-.051.043-.093.094-.154.127a1.06 1.06 0 0 1-1.422-.404c-.035-.06-.042-.126-.063-.189l-.714-.203L4.339 8.12l-.03.1h-.661c-.668 0-1.21.528-1.21 1.178v2.536L.606 8.677l4.245-2.263 7.075-3.772h-.001L16.17.379l2.327 4.133h-.001l2.086 3.709h-3.09z"/>
</svg>
