<?xml version="1.0" encoding="utf-8"?>
<!-- Generator: Adobe Illustrator 22.1.0, SVG Export Plug-In . SVG Version: 6.00 Build 0)  -->
<svg version="1.1" id="Layer_1" xmlns="http://www.w3.org/2000/svg" xmlns:xlink="http://www.w3.org/1999/xlink" x="0px" y="0px"
	 viewBox="0 0 511.8 81" style="enable-background:new 0 0 511.8 81;" xml:space="preserve">
<style type="text/css">
	.st0{fill:#FFFFFF;}
	.st1{fill:#0076AF;}
	.st2{fill:#1791C5;}
	.st3{font-family:'ArialMT';}
	.st4{font-size:30.9467px;}
</style>
<title>Asset 1</title>
<g id="Layer_2_1_">
	<g id="Layer_1-2">
		<path class="st0" d="M0,23.2h3.7c2.9,0,5.8,0,8.7,0c0.5,0,0.7,0.1,0.7,0.7c0,1.8,0,3.6,0,5.4V30l0.2,0.1c0.1-0.2,0.3-0.4,0.4-0.5
			c1.8-3,4.6-5.2,7.8-6.4c6.3-2.1,13,0,16,7.9c1.3,3.8,1.8,7.8,1.5,11.8c-0.2,3.9-1.2,7.8-3.1,11.2c-2.9,5-7.4,7.4-13.2,6.9
			c-3.2-0.3-6.3-1.7-8.6-4c-0.3-0.3-0.5-0.6-0.7-0.9l-0.2,0.1v17.6H6.5c0-0.2,0-0.3,0-0.5c0-13.9,0-27.8,0-41.6
			c0-1.1-0.1-2.1-0.2-3.1c-0.1-1.6-1.3-2.8-2.9-2.9c-0.9-0.1-1.7-0.2-2.6-0.3c-0.4,0-0.6-0.2-0.6-0.6S0.1,23.8,0,23.4V23.2z
			 M13,42.9c0,3.3,0,6.7,0,10c0,0.4,0.2,0.7,0.5,1c2.4,1.9,5.3,3.1,8.3,3.6c2.3,0.4,4.7-0.3,6.4-1.9c1.4-1.4,2.3-3.1,2.8-5
			c1.2-4.6,1.4-9.5,0.5-14.2c-0.4-2.5-1.3-4.8-2.7-6.9c-1.6-2.7-4.9-3.9-7.8-2.9c-3.2,0.9-5.9,2.9-7.7,5.6c-0.1,0.3-0.2,0.5-0.2,0.8
			C13,36.4,13,39.7,13,42.9z"/>
		<path class="st0" d="M193.2,8.4v-2h13V30c0.9-1.1,1.7-2.2,2.6-3.1c3.7-4,9.4-5.6,14.6-3.9c3.6,1,5.8,3.6,7.5,6.8
			c1.3,2.7,2,5.6,2.2,8.5c0.4,4.4-0.2,8.9-1.8,13c-1.2,3.4-3.6,6.3-6.7,8.1c-5.4,3-12.2,2.3-16.9-1.8c-0.4-0.4-0.9-0.8-1.3-1.2
			c-0.1-0.1-0.3-0.2-0.5-0.2c-0.1,0-0.2,0.3-0.2,0.5c-0.2,1.2-0.4,2.4-0.7,3.6c0,0.2-0.3,0.5-0.4,0.5c-1.7,0-3.4,0-5.2,0V60
			c0-15,0-30.1,0-45.1c0-1.4-0.1-2.9-0.3-4.3c0-0.8-0.6-1.5-1.4-1.6c-1.2-0.2-2.5-0.4-3.7-0.6C193.7,8.4,193.4,8.4,193.2,8.4z
			 M206.2,43c0,3.3,0,6.7,0,10c0,0.3,0.1,0.5,0.3,0.7c2.4,1.8,5.1,3.1,8.1,3.6c4.9,0.8,8.4-1.1,10.1-5.8c0.8-2.4,1.2-4.9,1.2-7.4
			c0.2-3.4-0.1-6.9-0.9-10.3c-0.4-2-1.5-3.8-2.9-5.3c-2.2-2-4.8-2.2-7.5-1.7c-3.1,0.7-5.9,2.5-7.9,5c-0.3,0.4-0.5,0.9-0.5,1.4
			C206.2,36.5,206.2,39.8,206.2,43L206.2,43z"/>
		<path class="st0" d="M268.6,58l0.1,0.8c0.1,1.8,0.1,1.8-1.6,2.2c-1,0.2-2.1,0.3-3.2,0.3c-2.8-0.2-4.4-1.9-5.3-4.3
			c-0.2-0.5-0.3-1-0.5-1.5c-0.7,0.6-1.4,1.3-2.1,1.8c-2.2,1.9-4.9,3.2-7.8,3.8c-4.6,1-9.4-1.1-11.8-5.2c-2.8-5.2-0.9-11.6,4.2-14.5
			c2.5-1.4,5.2-2.2,8-2.4c2.4-0.2,4.8-0.3,7.1-0.4h0.9c-0.1-3.1,0.3-6.2-0.7-9.2c-0.7-2.7-3.2-4.4-6-4.2c-1.2,0.1-2.3,0.2-3.4,0.6
			c-2.4,0.7-4,2.8-4,5.3c0,0.5-0.1,0.9-0.1,1.4h-4.6v-0.9c0-1.8,0-3.6,0-5.4c0-0.3,0.1-0.5,0.4-0.7c4.6-2.2,9.7-3.2,14.8-2.9
			c2,0.1,4,0.6,5.8,1.6c2.4,1.4,4,4,4.3,6.8c0.2,1.2,0.2,2.3,0.2,3.5c0,5.3,0,10.6,0,16c0,1.8,0.2,3.5,0.5,5.2
			c0.1,1.5,1.3,2.6,2.8,2.6C267.2,58.2,267.9,58.1,268.6,58z M256.6,40.5c-3.2,0-6.3,0.1-9.2,1.5c-3.4,1.4-5.5,4.8-5.1,8.5
			c0.2,4,3.6,7.1,7.6,6.9c0.2,0,0.5,0,0.7-0.1c2-0.4,3.9-1.2,5.6-2.4c0.3-0.2,0.5-0.5,0.5-0.9c0-4.1,0-8.2,0-12.2L256.6,40.5z"/>
		<path class="st0" d="M355.5,32.3H351c0-0.2,0-0.4,0-0.5c0-1.9,0-3.8,0-5.7c0-0.3,0.1-0.5,0.4-0.7c4.6-2.2,9.7-3.2,14.8-2.9
			c1.4,0.1,2.8,0.4,4.1,0.9c3.6,1.2,5.4,4,6,7.6c0.1,0.9,0.2,1.8,0.2,2.7c0,5.6,0,11.3,0,16.9c0,1.6,0.2,3.2,0.5,4.8
			c0.5,2.3,1.8,3.1,4.2,2.6l0.6-0.1c0.1,0.8,0.1,1.5,0.2,2.2c0,0.2-0.1,0.3-0.3,0.4c-1.8,0.7-3.7,0.9-5.6,0.6
			c-1.9-0.5-3.5-1.9-4.1-3.8c-0.2-0.6-0.4-1.3-0.6-2c-0.7,0.6-1.4,1.2-2,1.8c-2.2,2-4.9,3.4-7.9,3.9c-4.6,0.7-8.6-0.6-11.4-4.5
			c-3.2-5-1.8-11.6,3.1-14.9c0.3-0.2,0.6-0.4,0.9-0.5c2.4-1.3,5.1-2.1,7.8-2.3c2.4-0.2,4.9-0.3,7.3-0.4h0.6c0.1-0.1,0.1-0.1,0.1-0.2
			c0-2.4,0-4.8-0.2-7.1s-1.1-4.4-3.4-5.5c-1.9-0.9-4.1-0.9-6-0.2c-3.5,1.2-4.2,2.9-4.5,6.4C355.5,31.9,355.5,32.1,355.5,32.3z
			 M369.5,40.5c-2.9-0.2-5.8,0.2-8.5,1.2c-3.7,1.5-5.7,4.1-5.8,8.2c0,4,3.2,7.3,7.2,7.4c0.4,0,0.7,0,1.1-0.1c2-0.4,3.8-1.2,5.5-2.3
			c0.4-0.2,0.6-0.6,0.5-1c0-4.2,0-8.5,0-12.7C369.6,41,369.6,40.8,369.5,40.5L369.5,40.5z"/>
		<path class="st0" d="M331.4,38.4c-0.1-3.1,0.4-6.2-0.7-9.2c-0.8-2.6-3.2-4.3-5.9-4.1c-1.5,0-3,0.3-4.4,1c-1.6,0.8-2.7,2.4-2.9,4.2
			c-0.1,0.6-0.1,1.3-0.2,2h-4.4c0-0.1,0-0.3-0.1-0.5c0-2,0-3.9,0-5.9c0-0.3,0.2-0.5,0.4-0.6c3.5-1.6,7.4-2.6,11.2-2.9
			c2.2-0.2,4.3,0,6.4,0.5c4,0.9,6.9,4.4,7.1,8.5c0.1,1,0.1,2.1,0.1,3.1c0,5.9,0,11.8,0,17.8c0,1.1,0.2,2.1,0.4,3.1
			c0.5,2.2,1.8,3,4,2.7c0.2,0,0.5-0.1,0.8-0.2c0.1,0.8,0.1,1.6,0.2,2.5c-2.2,0.7-4.5,1.3-6.8,0.4s-3.3-3.1-3.9-5.4
			c-1.1,0.9-2,1.8-3.1,2.5c-2.3,1.9-5.1,3-8.1,3.3c-6.1,0.4-10.8-3.5-11.6-8.5c-1-5.1,1.7-10.1,6.5-12.1c2.5-1.1,5.2-1.8,8-2
			c2.1-0.2,4.2-0.2,6.2-0.3L331.4,38.4z M331.4,40.5c-3.1,0-6.1,0.1-9,1.4c-3.5,1.6-5.4,4.2-5.4,8.2c0,4,3.3,7.3,7.3,7.3
			c0.4,0,0.7,0,1.1-0.1c1.9-0.4,3.8-1.2,5.4-2.3c0.4-0.2,0.6-0.6,0.6-1c0-4.2,0-8.5,0-12.7V40.5z"/>
		<path class="st0" d="M59.9,61c-8.8,0.1-15.4-5.4-17.3-14.1c-1.3-6-0.6-11.7,2.8-17c2.7-4.3,7.3-7.1,12.3-7.4
			c3.9-0.5,7.8,0.3,11.2,2.2c4.1,2.4,7,6.4,8,11.1c1.6,5.7,0.8,11.9-2.2,17.1c-2.5,4.5-7.1,7.5-12.2,8c-0.2,0-0.5,0.1-0.7,0.1
			C61.1,61.1,60.5,61,59.9,61z M70.7,41c-0.1-0.9-0.2-2.6-0.5-4.2c-0.4-3.2-1.7-6.3-3.6-8.9c-3.1-3.9-8.1-4.7-11.9-1.8
			c-1.7,1.4-3.1,3.3-3.8,5.4c-2.1,5.2-2.5,10.9-1.3,16.4c0.5,3.1,1.8,5.9,3.8,8.3c2.6,3.2,7.3,4,10.8,1.7c1.7-1.2,3.1-2.7,3.9-4.6
			C70,49.7,70.6,45.8,70.7,41z"/>
		<path class="st0" d="M282.7,57.8H307v2.5h-32.4c-0.2-1.1,0.1-2.2,0.7-3.1c7.6-10.5,15.1-21,22.6-31.5l0.3-0.5h-0.8
			c-4.6,0-9.3,0-14,0c-0.9,0-1.9,0.1-2.8,0.2c-0.6,0-1.1,0.5-1.2,1.1c-0.1,0.7-0.2,1.4-0.2,2c0,0.9,0,1.7,0,2.6h-3.6v-8H306
			c0.2,1.1-0.1,2.2-0.7,3.1c-7.4,10.3-14.8,20.6-22.2,30.9L282.7,57.8z"/>
		<path class="st0" d="M384.2,25.1v-1.9h13V30c3.4-5.2,7.8-8.4,14.4-7.3v10.2H408c-0.1-1-0.2-2.1-0.4-3.1c-0.3-1.6-0.5-1.9-2.2-1.8
			c-3,0.1-5.2,1.6-7.1,3.9c-0.7,0.9-1.1,2-1,3.1c0.1,5.5,0,11,0,16.5c0,1.4,0.1,2.7,0.2,4.1c0,1.2,0.9,2.2,2.1,2.3
			c1.2,0.2,2.4,0.3,3.6,0.4c0.4,0,0.8,0,1.2,0.1v2.1h-20.3c0-0.6,0-1.2,0-1.8c0-0.1,0.4-0.3,0.6-0.3c1.1-0.2,2.3-0.3,3.4-0.5
			c1.2-0.1,2.1-1,2.1-2.2c0.1-1.3,0.2-2.6,0.2-3.8c0-6.6,0-13.3,0-19.9c0-1.4-0.2-2.8-0.3-4.2c0-0.8-0.7-1.5-1.5-1.7
			C387.2,25.6,385.8,25.4,384.2,25.1z"/>
		<path class="st0" d="M77.2,8.2V6.4c0.3,0,0.5,0,0.7,0c3.8,0,7.6,0,11.3,0c0.7,0,0.8,0.2,0.8,0.8c0,8.3,0,16.6,0.1,24.8
			c0,9.1,0,18.2,0.1,27.2c0,1,0,1-1,1H83c0-0.3,0-0.5,0-0.7c0-5,0.1-10,0.1-15c0-3.6,0.1-7.2,0.2-10.7c0.1-6.7,0.1-13.4,0.2-20.1
			c0-0.8-0.1-1.7-0.3-2.5C82.9,10,82,9,80.7,8.8C79.6,8.5,78.4,8.4,77.2,8.2z"/>
		<path class="st0" d="M187.3,23.3c-0.8,1.4-1.5,2.8-2.1,4.1c-3.7,8.1-7.4,16.2-11,24.2c-2.7,5.9-5.3,11.8-8,17.6
			c-1,2.1-2.4,3.9-4.9,4.2c-1,0.1-2,0.2-2.9,0.2c-2,0-3.9-0.1-5.8-0.1c-0.4,0-0.8-0.1-1.2-0.1c-0.2-1.1-0.2-1.2,0.8-1.2
			c1.3,0,2.6,0.1,3.8,0.2c2.1,0.2,4.1-0.2,6-1.1c1.2-0.5,2.1-1.4,2.6-2.6c0.8-1.7,1.4-3.5,2.1-5.3c0.3-0.9,0.6-1.8,1-2.6
			c0.2-0.4,0.2-0.8,0-1.2c-3.9-9.2-7.7-18.5-11.6-27.7c-0.5-1.2-1-2.4-1.5-3.6c-0.7-1.8-2.3-3-4.2-3.2c-0.1,0-0.3-0.3-0.4-0.4
			c0,0,0-0.1,0-0.1c0-1.7-0.2-1.4,1.4-1.4c3.1,0,6.3,0,9.4,0h0.9c0,0.8,0.1,1.6,0,2.4c-0.1,1.5,0.2,2.9,0.9,4.3c3,7.2,6,14.4,9,21.6
			c0.1,0.2,0.2,0.4,0.3,0.7c0.1-0.1,0.2-0.3,0.3-0.4c3.1-7,6.2-13.9,9.2-20.9c1-2.3,1.6-4.7,2.4-7.1c0.1-0.4,0.4-0.7,0.8-0.6
			c0,0,0,0,0,0C185.5,23.3,186.4,23.3,187.3,23.3z"/>
		<path class="st0" d="M146.2,56.3c0,0.8,0,1.5,0,2.3c0,0.2-0.1,0.4-0.3,0.5c-5.1,1.9-10.3,2.7-15.7,1.1c-5.2-1.5-9.4-5.5-11.1-10.7
			c-2.5-6.8-2.1-13.4,1.8-19.6c2.8-4.5,7.1-6.8,12.3-7.4c4.3-0.5,8.4,0.5,12.6,1.4c0.4,0.1,0.5,0.3,0.5,0.6c0,2.5,0,5.1,0,7.6
			c0,0.4-0.2,0.6-0.6,0.6c-0.9,0-1.8,0-2.8,0c-0.5,0-0.7-0.1-0.7-0.7c-0.1-1-0.2-2-0.5-3c-1-3.6-3.4-4.8-6.9-4.6
			c-4,0.2-6.5,2.5-8.2,5.9c-1.1,2.4-1.8,4.9-2,7.5c-0.4,3.8,0.1,7.7,1.3,11.3c1.5,4.6,4.5,7.6,9.4,8.5c3.4,0.6,6.9,0.2,10.1-1.1
			L146.2,56.3z"/>
		<path class="st0" d="M99.2,25.2v-1.9H112c0.1,12.3,0.2,24.6,0.3,36.9h-7.1v-1.7c0.1-5.3,0.1-10.5,0.2-15.8c0-4,0.1-7.9,0.1-11.8
			c0-0.8-0.1-1.6-0.2-2.5c-0.1-1.6-1.4-2.8-3-2.9c-0.5-0.1-1-0.2-1.5-0.2S99.8,25.2,99.2,25.2z"/>
		<path class="st0" d="M112,9.8v6.4h-6.5V9.8H112z"/>
		<circle class="st1" cx="471.2" cy="40.5" r="40.5"/>
		<ellipse class="st2" cx="471.5" cy="26.8" rx="32.9" ry="24.1"/>
		<text transform="matrix(0.9243 -0.3818 0.3818 0.9243 448.2605 60.3608)" class="st0 st3 st4">com</text>
		
			<image style="overflow:visible;enable-background:new    ;" width="519" height="352" id="Layer_1-3" xlink:href="96A14BD2E8A182DC.png"  transform="matrix(0.1392 0 0 0.1392 435.2664 28.85)">
		</image>
	</g>
</g>
</svg>
