<svg xmlns="http://www.w3.org/2000/svg" width="130.334" height="136.001" viewBox="0 0 130.334 136.001">
  <g id="profit" transform="translate(-10.666)">
    <path id="Path_360" data-name="Path 360" d="M37.249,277.535a2.833,2.833,0,0,0-3.088.612l-9.327,9.333-9.327-9.333a2.833,2.833,0,0,0-4.839,2.006V336.82a2.834,2.834,0,0,0,2.833,2.833H36.166A2.834,2.834,0,0,0,39,336.82V280.153A2.833,2.833,0,0,0,37.249,277.535Z" transform="translate(0 -203.652)" fill="#64b5f6"/>
    <path id="Path_361" data-name="Path 361" d="M154.839,192.822a2.833,2.833,0,0,0-4.006,0L139.5,204.155a2.834,2.834,0,0,0-.833,2.006v68a2.834,2.834,0,0,0,2.833,2.833h22.667A2.834,2.834,0,0,0,167,274.161v-68a2.832,2.832,0,0,0-.827-2.006Z" transform="translate(-94 -140.994)" fill="#42a5f5"/>
    <path id="Path_362" data-name="Path 362" d="M282.839,150.155a2.833,2.833,0,0,0-4.006,0L267.5,161.488a2.834,2.834,0,0,0-.833,2.006v79.334a2.834,2.834,0,0,0,2.833,2.833h22.667A2.834,2.834,0,0,0,295,242.828V163.494a2.832,2.832,0,0,0-.827-2.006Z" transform="translate(-188 -109.66)" fill="#2196f3"/>
    <path id="Path_363" data-name="Path 363" d="M422.172,113.161l-5.667-5.667a2.834,2.834,0,0,0-2.006-.827h-5.667a2.832,2.832,0,0,0-2.006.827l-11.333,11.333a2.834,2.834,0,0,0-.827,2.006V211.5a2.834,2.834,0,0,0,2.833,2.833h22.667A2.834,2.834,0,0,0,423,211.5V115.167A2.833,2.833,0,0,0,422.172,113.161Z" transform="translate(-281.999 -78.333)" fill="#1976d2"/>
    <path id="Path_364" data-name="Path 364" d="M138.271,0h-17a2.833,2.833,0,0,0-2.006,4.839l6.5,6.494L104.271,32.827l-9.327-9.333a2.833,2.833,0,0,0-4.006,0L70.271,44.161l-9.327-9.333a2.833,2.833,0,0,0-4.006,0l-32,32L15.61,57.494A2.833,2.833,0,0,0,11.6,61.5L22.937,72.834a2.834,2.834,0,0,0,4.006,0L58.937,40.84l9.327,9.327a2.833,2.833,0,0,0,4.006,0L92.938,29.507l9.327,9.327a2.833,2.833,0,0,0,4.006,0l23.5-23.494,6.494,6.494a2.834,2.834,0,0,0,2.006.833,2.8,2.8,0,0,0,1.082-.215,2.833,2.833,0,0,0,1.751-2.618v-17A2.834,2.834,0,0,0,138.271,0Z" transform="translate(-0.104)" fill="#455a64"/>
  </g>
</svg>
