<svg xmlns="http://www.w3.org/2000/svg" width="64" height="64">
    <path fill="#D7BCAB" fill-opacity="0" fill-rule="evenodd" stroke="#F78631" d="M32 3.5c15.74 0 28.5 12.76 28.5 28.5S47.74 60.5 32 60.5 3.5 47.74 3.5 32 16.26 3.5 32 3.5z"/>
    <path fill="#F78631" fill-rule="evenodd" d="M43.32 23.932l-6.109-6.248a.602.602 0 0 0-.433-.184H23.944c-1.347 0-2.444 1.121-2.444 2.5v25c0 1.379 1.097 2.5 2.444 2.5h17.112c1.347 0 2.444-1.121 2.444-2.5V24.375a.633.633 0 0 0-.18-.443zM27 43.75c-1.011 0-1.833-.841-1.833-1.875S25.989 40 27 40c1.011 0 1.833.841 1.833 1.875S28.011 43.75 27 43.75zm0-6.25c-1.011 0-1.833-.841-1.833-1.875S25.989 33.75 27 33.75c1.011 0 1.833.841 1.833 1.875S28.011 37.5 27 37.5zm3.667-6.25h-2.445a.618.618 0 0 1-.611-.625V28.75h-1.833a.618.618 0 0 1-.611-.625v-2.5c0-.346.273-.625.611-.625h1.833v-1.875c0-.345.273-.625.611-.625h2.445c.337 0 .611.28.611.625V25h1.833c.338 0 .611.28.611.625v2.5a.617.617 0 0 1-.611.625h-1.833v1.875a.619.619 0 0 1-.611.625zm8.555 11.25h-7.333a.618.618 0 0 1-.611-.625c0-.345.273-.625.611-.625h7.333c.338 0 .611.28.611.625a.618.618 0 0 1-.611.625zm0-6.25h-7.333a.618.618 0 0 1-.611-.625c0-.345.273-.625.611-.625h7.333c.338 0 .611.28.611.625a.618.618 0 0 1-.611.625zm-.611-12.5c-.674 0-1.222-.561-1.222-1.25v-2.866l4.025 4.116h-2.803z"/>
</svg>
