<svg xmlns="http://www.w3.org/2000/svg" width="25" height="24">
    <path fill="#F78631" fill-rule="evenodd" d="M22.356 9.172l.322-3.123-2.833-1.277a.406.406 0 0 1-.208-.21l-1.26-2.869-3.084.327a.411.411 0 0 1-.282-.077L12.5.1 9.989 1.943a.411.411 0 0 1-.282.077l-3.084-.327-1.26 2.869a.406.406 0 0 1-.208.21L2.322 6.049l.322 3.123a.419.419 0 0 1-.076.285L.749 12l1.819 2.543a.419.419 0 0 1 .076.285l-.322 3.123 2.833 1.277a.41.41 0 0 1 .208.21l1.26 2.869 3.084-.326c.014 0 .029-.003.041-.003.086 0 .17.028.24.08L12.5 23.9l2.511-1.842a.401.401 0 0 1 .282-.077l3.084.326 1.26-2.869a.406.406 0 0 1 .208-.21l2.833-1.277-.322-3.123a.419.419 0 0 1 .076-.285L24.251 12l-1.819-2.543a.419.419 0 0 1-.076-.285zm-3.93-.106l-8.088 8.191a.406.406 0 0 1-.578 0l-3.468-3.512a.416.416 0 0 1 0-.586l1.156-1.167a.405.405 0 0 1 .577 0l2.024 2.046 6.644-6.728a.403.403 0 0 1 .577 0l1.156 1.171c.16.161.16.423 0 .585z"/>
</svg>
