<svg xmlns="http://www.w3.org/2000/svg" width="31" height="31">
    <path fill="#FD6F6F" fill-rule="evenodd" d="M15.5.7c8.174 0 14.8 6.626 14.8 14.8s-6.626 14.8-14.8 14.8S.7 23.674.7 15.5 7.326.7 15.5.7z"/>
    <path fill="#FFF" fill-rule="evenodd" d="M22.688 22.434a1.38 1.38 0 0 1-1.951 0l-5.121-5.115-5.365 5.358a1.38 1.38 0 0 1-1.951 0 1.376 1.376 0 0 1 0-1.948l5.365-5.358-5.122-5.115a1.377 1.377 0 1 1 1.951-1.948l5.122 5.115 4.877-4.871a1.38 1.38 0 0 1 1.95 0c.539.538.539 1.41 0 1.948l-4.877 4.871 5.122 5.115c.538.538.538 1.41 0 1.948z"/>
</svg>
