<svg xmlns="http://www.w3.org/2000/svg" width="36" height="26">
    <path fill="#FA7D1F" fill-rule="evenodd" d="M36 3.224v10.887s-2.332.46-2.813.519c-.479.061-1.984.546-3.075-.501-1.682-1.611-7.659-7.549-7.659-7.549s-1.03-1.011-2.685-.138c-1.52.8-3.771 1.972-4.711 2.429-1.778.945-3.252-.555-3.252-1.697 0-.887.554-1.488 1.345-1.93 2.144-1.299 6.665-3.834 8.547-4.833 1.145-.609 1.969-.661 3.54.662 1.935 1.625 3.657 3.107 3.657 3.107s.561.469 1.457.28C32.55 3.996 36 3.224 36 3.224zM12.21 21.672c.29-.743.192-1.574-.362-2.145-.499-.509-1.227-.644-1.921-.485.194-.688.087-1.42-.415-1.937-.5-.508-1.226-.645-1.92-.485.192-.687.085-1.419-.416-1.934-.786-.805-2.144-.77-3.037.079-.888.851-1.456 2.394-.664 3.301.791.903 1.7.354 2.393.196-.193.687-.77 1.326-.059 2.225.711.9 1.7.354 2.394.198-.194.684-.746 1.387-.062 2.221.69.836 1.82.39 2.567.159-.288.739-.905 1.537-.112 2.431.79.901 2.619.485 3.512-.367.89-.851.976-2.2.193-3.007-.541-.554-1.348-.683-2.091-.45zm16.295-5.665c-6.455-6.45-3.419-3.415-6.893-6.893 0 0-1.044-1.039-2.42-.435a140.7 140.7 0 0 0-3.146 1.439c-1.029.539-1.769.705-2.116.703-1.988-.013-3.601-1.609-3.601-3.594 0-1.287.684-2.408 1.704-3.044 1.435-.991 4.737-2.746 4.737-2.746S15.764.163 13.56.163c-2.203 0-6.805 3.013-6.805 3.013s-1.306.835-3.167.083L0 2.01v12.459s1.024.296 1.945.672a4.09 4.09 0 0 1 1.008-1.591c1.527-1.453 4.059-1.468 5.448-.039.418.434.711.953.86 1.526.56.172 1.066.478 1.474.898.419.431.711.952.861 1.522a3.51 3.51 0 0 1 2.385 2.568c.584.17 1.113.487 1.538.921.835.857 1.132 2.02.951 3.141.002 0 .005 0 .006.002.014.018.517.579.831.896a1.59 1.59 0 0 0 2.239 0 1.586 1.586 0 0 0 0-2.236c-.022-.022-2.222-2.32-2.044-2.498.176-.177 2.976 2.735 3.028 2.788.616.615 1.62.615 2.237 0a1.582 1.582 0 0 0 0-2.234c-.03-.029-.156-.15-.203-.198 0 0-2.777-2.471-2.566-2.683.214-.212 3.664 3.004 3.67 3.004a1.58 1.58 0 0 0 2.172-.042c.58-.58.592-1.497.078-2.115-.011-.034-2.63-2.767-2.425-2.973.208-.208 2.798 2.457 2.803 2.463.614.614 1.62.614 2.237 0a1.588 1.588 0 0 0 0-2.238l-.028-.016z"/>
</svg>
