<?xml version="1.0" encoding="utf-8"?>
<!-- Generator: Adobe Illustrator 23.0.3, SVG Export Plug-In . SVG Version: 6.00 Build 0)  -->
<svg version="1.1" id="_-e-send" xmlns="http://www.w3.org/2000/svg" xmlns:xlink="http://www.w3.org/1999/xlink" x="0px" y="0px"
	 viewBox="0 0 67 66" style="enable-background:new 0 0 67 66;" xml:space="preserve">
<style type="text/css">
	.st0{fill-rule:evenodd;clip-rule:evenodd;fill:#1E723F;}
	.st1{fill-rule:evenodd;clip-rule:evenodd;fill:#FFFFFF;}
</style>
<path class="st0" d="M28.5,0.4C46.8-2.4,63.9,9.9,66.6,28s-9.9,34.9-28.2,37.7S3.1,56.1,0.4,38S10.2,3.2,28.5,0.4z"/>
<path id="Forma_1" class="st1" d="M47.9,28.1l-25.6-6.5c-1.1-0.3-2.2,0.1-2.9,0.9c-0.7,0.9-0.9,2-0.5,3.1l3.4,8.2l10.5-1.6
	c0.5,0,0.9,0.4,0.9,0.9c0,0.4-0.3,0.8-0.7,0.9l-10.5,1.6l-0.8,8.8c-0.1,1.1,0.4,2.2,1.4,2.8c0.9,0.6,2.1,0.6,3,0l22.5-13.8
	c1.4-0.9,1.8-2.7,1-4.1C49.2,28.7,48.6,28.2,47.9,28.1z"/>
</svg>
