<?xml version="1.0" encoding="utf-8"?>
<!-- Generator: Adobe Illustrator 24.0.3, SVG Export Plug-In . SVG Version: 6.00 Build 0)  -->
<svg version="1.1" id="Layer_1" xmlns="http://www.w3.org/2000/svg" xmlns:xlink="http://www.w3.org/1999/xlink" x="0px" y="0px"
	 viewBox="0 0 50 50" style="enable-background:new 0 0 50 50;" xml:space="preserve">
<style type="text/css">
	.st0{fill:#7F1B7D;}
	.st1{fill:#FFFFFF;stroke:#7F1B7D;stroke-width:0.75;stroke-miterlimit:10;}
	.st2{fill:none;stroke:#FFFFFF;stroke-width:2;stroke-linecap:round;stroke-miterlimit:10;}
	.st3{fill:none;stroke:#7F1B7D;stroke-linecap:round;stroke-linejoin:round;stroke-miterlimit:10;}
	.st4{fill:none;stroke:#7F1B7D;stroke-miterlimit:10;}
	.st5{fill:none;stroke:#7F1B7D;stroke-linecap:round;stroke-miterlimit:10;}
</style>
<path class="st0" d="M35.7,44.8H11.5c-1.4,0-2.5-1.1-2.5-2.5V8.1c0-1.4,1.1-2.5,2.5-2.5h24.2c1.4,0,2.5,1.1,2.5,2.5v34.2
	C38.2,43.7,37.1,44.8,35.7,44.8z"/>
<path class="st1" d="M37.5,47.9h-1c-4.8,0-8.7-3.9-8.7-8.7v0c0-4.8,3.9-8.7,8.7-8.7h1c4.8,0,8.7,3.9,8.7,8.7v0
	C46.3,43.9,42.3,47.9,37.5,47.9z"/>
<g >
	<polygon class="st0" points="40.9,37.6 38.5,35.3 32.4,41.4 31.4,44.7 34.8,43.7 	"/>
	<path class="st0" d="M42.1,34c-0.6-0.6-1.7-0.6-2.4,0l-0.3,0.3l2.4,2.4l0.3-0.3C42.8,35.7,42.8,34.7,42.1,34z"/>
</g>
<line class="st2" x1="13.6" y1="16.1" x2="33.1" y2="16.1"/>
<line class="st2" x1="13.6" y1="22.7" x2="33.1" y2="22.7"/>
<line class="st2" x1="13.6" y1="29.4" x2="27.2" y2="29.4"/>
<polygon class="st3" points="93.9,35.9 91.6,33.5 85.4,39.7 84.4,42.9 87.8,42 "/>
<path class="st4" d="M96.6,30.9c-0.6-0.6-1.7-0.6-2.4,0l-0.3,0.3l2.4,2.4l0.3-0.3C97.3,32.6,97.3,31.5,96.6,30.9z"/>
<path class="st5" d="M94.4,26V8.8c0-1.8-1.4-3.2-3.2-3.2H68.3c-1.8,0-3.2,1.4-3.2,3.2v32.9c0,1.8,1.4,3.2,3.2,3.2h12.3"/>
<line class="st5" x1="69.7" y1="16.1" x2="89.2" y2="16.1"/>
<line class="st5" x1="69.7" y1="22.7" x2="89.2" y2="22.7"/>
<line class="st5" x1="69.7" y1="29.4" x2="83.3" y2="29.4"/>
<g>
	<path class="st4" d="M142.9,33.6l-4.4-4.4c-1.2-1.2-3.2-1.2-4.4,0l-0.7,0.7l8.7,8.7l0.7-0.7C144.1,36.7,144.1,34.8,142.9,33.6z"/>
	<path class="st4" d="M128.8,31.2l-8.6-8.7c-0.8-0.8-0.9-2.2-0.2-3.1l-8.7-8.7c-3.8,4.4-3.6,11,0.5,15.1l13.7,13.7
		c4,4,10.5,4.5,15.1,0.5l-8.7-8.7C131,32.1,129.7,32,128.8,31.2z"/>
	<path class="st4" d="M122.2,17.2c1.2-1.2,1.2-3.2,0-4.4l-4.4-4.4c-1.2-1.2-3.2-1.2-4.4,0l-0.7,0.7l8.7,8.7L122.2,17.2z"/>
</g>
</svg>
