<svg xmlns="http://www.w3.org/2000/svg" width="78" height="78">
    <path fill="#FFB139" fill-rule="evenodd" d="M39.003.5c21.154 0 38.302 17.148 38.302 38.302S60.157 77.104 39.003 77.104C17.85 77.104.701 59.956.701 38.802S17.85.5 39.003.5z"/>
    <path fill="#FFB139" fill-rule="evenodd" stroke="#F49A22" d="M38.982 8.559c16.691 0 30.222 13.531 30.222 30.222 0 16.691-13.531 30.222-30.222 30.222-16.691 0-30.222-13.531-30.222-30.222 0-16.691 13.531-30.222 30.222-30.222z"/>
    <path fill="#FFF" fill-rule="evenodd" d="M40.181 31.423a.503.503 0 0 0-.379-.155h-2.814c-.187-.95-.538-1.775-1.054-2.473h3.835c.154 0 .28-.052.379-.154a.551.551 0 0 0 .148-.395v-1.753c0-.16-.05-.292-.148-.395a.502.502 0 0 0-.379-.154H26.073a.502.502 0 0 0-.379.154.551.551 0 0 0-.148.395v2.285c0 .148.052.277.157.386a.493.493 0 0 0 .37.163h2.387c2.316 0 3.786.647 4.412 1.941h-6.799a.502.502 0 0 0-.379.154.553.553 0 0 0-.148.395v1.753c0 .16.05.292.148.394a.5.5 0 0 0 .379.155h7.029c-.241.939-.803 1.655-1.687 2.147-.884.492-2.05.739-3.498.739h-1.844a.493.493 0 0 0-.37.163.538.538 0 0 0-.157.386v2.182c0 .149.05.275.148.378 2.107 2.335 4.84 5.604 8.198 9.807a.48.48 0 0 0 .412.206h3.21c.231 0 .39-.103.478-.309a.486.486 0 0 0-.066-.584c-3.205-4.099-5.723-7.168-7.556-9.206 1.865-.229 3.38-.859 4.543-1.889 1.164-1.031 1.871-2.371 2.124-4.02h2.765c.154 0 .28-.051.379-.154a.547.547 0 0 0 .148-.395v-1.752a.545.545 0 0 0-.148-.395zM53.711 41.088a1.132 1.132 0 0 1 1.614 0 1.16 1.16 0 0 1 0 1.614l-6.763 6.764a1.16 1.16 0 0 1-.822.339c-.323 0-.614-.13-.824-.339l-6.763-6.764a1.132 1.132 0 0 1 0-1.614 1.132 1.132 0 0 1 1.614 0l4.826 4.843V28.739a1.135 1.135 0 0 1 1.146-1.129c.629 0 1.129.5 1.129 1.129V45.93l4.843-4.842z"/>
</svg>
