<svg xmlns="http://www.w3.org/2000/svg" width="78" height="78">
    <path fill="#FFB139" fill-rule="evenodd" d="M39.003.5c21.154 0 38.302 17.148 38.302 38.302S60.157 77.104 39.003 77.104C17.85 77.104.701 59.956.701 38.802S17.85.5 39.003.5z"/>
    <path fill="#FFB139" fill-rule="evenodd" stroke="#F49A22" d="M38.982 8.559c16.691 0 30.222 13.531 30.222 30.222 0 16.691-13.531 30.222-30.222 30.222-16.691 0-30.222-13.531-30.222-30.222 0-16.691 13.531-30.222 30.222-30.222z"/>
    <path fill="#FFF" fill-rule="evenodd" d="M50.25 47.8c0 .825-.675 1.5-1.5 1.5.825 0 1.5.675 1.5 1.5s-.675 1.5-1.5 1.5h-1.5a1.5 1.5 0 0 1 0 3h-7.035c-.81 0-1.605-.135-2.37-.39l-2.595-.861V43.196c2.928-.672 4.088-3.987 4.83-6.876.075-.345.435-.57.72-.57h.45A2.257 2.257 0 0 1 43.5 38c0 1.68.015 2.555-.9 5.3h6.15c.825 0 1.5.675 1.5 1.5s-.675 1.5-1.5 1.5c.825 0 1.5.675 1.5 1.5zm-4.757-12.232a.75.75 0 1 1-1.061-1.061l1.061-1.06a.749.749 0 1 1 1.06 1.06l-1.06 1.061zM41.25 34.25c-.42 0-.75-.33-.75-.75v-1.55c0-.42.33-.75.75-.75s.75.33.75.75v1.55c0 .42-.33.75-.75.75zm-4.243 1.318l-1.06-1.061a.749.749 0 1 1 1.06-1.06l1.061 1.06a.75.75 0 1 1-1.061 1.061zM31.5 56.8h-3a.749.749 0 0 1-.75-.75v-13.5c0-.415.335-.75.75-.75h3a2.252 2.252 0 0 1 2.25 2.25v10.5a2.252 2.252 0 0 1-2.25 2.25zm0-4.5a.75.75 0 1 0 0 1.5.75.75 0 0 0 0-1.5zM43.974 16.358a.748.748 0 0 0 .189-.768.743.743 0 0 0-.602-.51l-2.519-.367a.327.327 0 0 1-.247-.181l-1.126-2.291a.741.741 0 0 0-.669-.418.74.74 0 0 0-.669.418l-1.126 2.291a.33.33 0 0 1-.248.181l-2.518.367a.744.744 0 0 0-.603.51.747.747 0 0 0 .189.768l1.822 1.783a.332.332 0 0 1 .095.293l-.43 2.518a.738.738 0 0 0 .163.608.753.753 0 0 0 .919.182l2.252-1.189a.333.333 0 0 1 .307 0l2.252 1.189a.738.738 0 0 0 .92-.182.738.738 0 0 0 .162-.608l-.43-2.518a.335.335 0 0 1 .095-.293l1.822-1.783zM56.974 20.358a.748.748 0 0 0 .189-.768.743.743 0 0 0-.602-.51l-2.519-.367a.327.327 0 0 1-.247-.181l-1.126-2.291a.741.741 0 0 0-.669-.418.74.74 0 0 0-.669.418l-1.126 2.291a.33.33 0 0 1-.248.181l-2.518.367a.744.744 0 0 0-.603.51.747.747 0 0 0 .189.768l1.822 1.783a.332.332 0 0 1 .095.293l-.43 2.518a.738.738 0 0 0 .163.608.753.753 0 0 0 .919.182l2.252-1.189a.333.333 0 0 1 .307 0l2.252 1.189a.738.738 0 0 0 .92-.182.738.738 0 0 0 .162-.608l-.43-2.518a.335.335 0 0 1 .095-.293l1.822-1.783zM30.974 20.358a.748.748 0 0 0 .189-.768.743.743 0 0 0-.602-.51l-2.519-.367a.327.327 0 0 1-.247-.181l-1.126-2.291a.741.741 0 0 0-.669-.418.74.74 0 0 0-.669.418l-1.126 2.291a.33.33 0 0 1-.248.181l-2.518.367a.744.744 0 0 0-.603.51.747.747 0 0 0 .189.768l1.822 1.783a.332.332 0 0 1 .095.293l-.43 2.518a.738.738 0 0 0 .163.608.753.753 0 0 0 .919.182l2.252-1.189a.333.333 0 0 1 .307 0l2.252 1.189a.738.738 0 0 0 .92-.182.738.738 0 0 0 .162-.608l-.43-2.518a.335.335 0 0 1 .095-.293l1.822-1.783zM66.974 30.358a.748.748 0 0 0 .189-.768.743.743 0 0 0-.602-.51l-2.519-.367a.327.327 0 0 1-.247-.181l-1.126-2.291a.741.741 0 0 0-.669-.418.74.74 0 0 0-.669.418l-1.126 2.291a.33.33 0 0 1-.248.181l-2.518.367a.744.744 0 0 0-.603.51.747.747 0 0 0 .189.768l1.822 1.783a.332.332 0 0 1 .095.293l-.43 2.518a.738.738 0 0 0 .163.608.753.753 0 0 0 .919.182l2.252-1.189a.333.333 0 0 1 .307 0l2.252 1.189a.738.738 0 0 0 .92-.182.738.738 0 0 0 .162-.608l-.43-2.518a.335.335 0 0 1 .095-.293l1.822-1.783z"/>
    <path fill="#FFF" fill-rule="evenodd" d="M65.974 30.358a.748.748 0 0 0 .189-.768.743.743 0 0 0-.602-.51l-2.519-.367a.327.327 0 0 1-.247-.181l-1.126-2.291a.741.741 0 0 0-.669-.418.74.74 0 0 0-.669.418l-1.126 2.291a.33.33 0 0 1-.248.181l-2.518.367a.744.744 0 0 0-.603.51.747.747 0 0 0 .189.768l1.822 1.783a.332.332 0 0 1 .095.293l-.43 2.518a.738.738 0 0 0 .163.608.753.753 0 0 0 .919.182l2.252-1.189a.333.333 0 0 1 .307 0l2.252 1.189a.738.738 0 0 0 .92-.182.738.738 0 0 0 .162-.608l-.43-2.518a.335.335 0 0 1 .095-.293l1.822-1.783zM22.974 30.358a.748.748 0 0 0 .189-.768.743.743 0 0 0-.602-.51l-2.519-.367a.327.327 0 0 1-.247-.181l-1.126-2.291a.741.741 0 0 0-.669-.418.74.74 0 0 0-.669.418l-1.126 2.291a.33.33 0 0 1-.248.181l-2.518.367a.744.744 0 0 0-.603.51.747.747 0 0 0 .189.768l1.822 1.783a.332.332 0 0 1 .095.293l-.43 2.518a.738.738 0 0 0 .163.608.753.753 0 0 0 .919.182l2.252-1.189a.333.333 0 0 1 .307 0l2.252 1.189a.738.738 0 0 0 .92-.182.738.738 0 0 0 .162-.608l-.43-2.518a.335.335 0 0 1 .095-.293l1.822-1.783z"/>
</svg>
