<svg xmlns="http://www.w3.org/2000/svg" width="13" height="18">
    <path fill-rule="evenodd" d="M11.914 3.995h-1.191c-.162-.745-.522-1.417-1-2.001h2.191c.599 0 1.083-.448 1.083-1.001 0-.551-.484-.999-1.083-.999H1.094C.495-.006.009.442.009.993c0 .553.486 1.001 1.085 1.001h4.327c1.411 0 2.599.838 3.048 2.001H1.094c-.599 0-1.085.448-1.085 1s.486 1 1.085 1h7.375C8.02 7.158 6.832 7.996 5.421 7.996H1.094c-.144 0-.283.026-.415.075a1.051 1.051 0 0 0-.586.543.918.918 0 0 0 0 .764.94.94 0 0 0 .237.326l8.655 8.001c.21.197.489.294.767.294.276 0 .552-.097.766-.292a.95.95 0 0 0 0-1.414L3.707 9.997h1.714c2.617 0 4.8-1.721 5.302-4.002h1.191c.599 0 1.083-.448 1.083-1s-.484-1-1.083-1z"/>
</svg>
