<svg xmlns="http://www.w3.org/2000/svg" width="139" height="139">
    <path fill="#F78631" fill-rule="evenodd" d="M69.33.303c38.126 0 69.034 30.905 69.034 69.029 0 38.124-30.908 69.03-69.034 69.03-38.126 0-69.033-30.906-69.033-69.03S31.204.303 69.33.303z"/>
    <path fill="#FFF" fill-rule="evenodd" d="M100.16 63.629L50.093 42.2c-2.11-.903-4.492-.506-6.219 1.036-1.727 1.542-2.45 3.918-1.885 6.2l4.457 18.028h21.819c1.004 0 1.818.84 1.818 1.875 0 1.036-.814 1.875-1.818 1.875H46.446l-4.457 18.028c-.565 2.282.158 4.658 1.885 6.2 1.73 1.544 4.113 1.937 6.219 1.036l50.067-21.43c2.28-.976 3.695-3.164 3.695-5.709 0-2.546-1.415-4.734-3.695-5.71z"/>
</svg>
