<svg xmlns="http://www.w3.org/2000/svg" width="28" height="28">
    <path fill="#255180" fill-rule="evenodd" d="M27.742 26.565l-6.803-6.801a11.886 11.886 0 0 0 2.93-7.824c0-6.584-5.357-11.932-11.938-11.932C5.346.008-.006 5.363-.006 11.94S5.35 23.872 11.931 23.872c2.993 0 5.73-1.105 7.828-2.929l6.804 6.801a.824.824 0 0 0 1.179 0 .838.838 0 0 0 0-1.179zM1.663 11.94c0-5.659 4.607-10.257 10.26-10.257 5.664 0 10.261 4.605 10.261 10.257 0 5.653-4.597 10.263-10.261 10.263-5.653 0-10.26-4.604-10.26-10.263z"/>
</svg>
