<svg xmlns="http://www.w3.org/2000/svg" width="32" height="32">
    <path fill-rule="evenodd" d="M27.319 4.682c-6.241-6.241-16.396-6.242-22.637 0-6.242 6.241-6.241 16.395 0 22.637 6.241 6.241 16.396 6.241 22.637 0 6.241-6.242 6.241-16.397 0-22.637zm-5.006 17.63a1.23 1.23 0 0 1-1.741 0L16 17.741l-4.788 4.789a1.23 1.23 0 1 1-1.741-1.741L14.26 16l-4.572-4.571a1.23 1.23 0 1 1 1.741-1.741L16 14.259l4.354-4.353a1.23 1.23 0 1 1 1.741 1.741L17.742 16l4.571 4.571a1.23 1.23 0 0 1 0 1.741z" opacity=".4"/>
</svg>
