<svg xmlns="http://www.w3.org/2000/svg" width="20" height="19">
    <defs>
        <linearGradient id="a" x1="100%" x2="0%" y1="0%" y2="0%">
            <stop offset="0%" stop-color="#F78631"/>
            <stop offset="100%" stop-color="#FF6D00"/>
        </linearGradient>
    </defs>
    <path fill="#E46731" fill-rule="evenodd" d="M10.466.301l2.542 5.996 6.507.557c.452.039.636.6.293.896l-4.936 4.262 1.479 6.341a.513.513 0 0 1-.765.553l-5.592-3.362-5.593 3.362a.513.513 0 0 1-.765-.553l1.48-6.341L.178 7.749a.511.511 0 0 1 .293-.896l6.507-.557L9.52.301a.514.514 0 0 1 .946 0z"/>
    <path fill="url(#a)" d="M10.466.301l2.542 5.996 6.507.557c.452.039.636.6.293.896l-4.936 4.262 1.479 6.341a.513.513 0 0 1-.765.553l-5.592-3.362-5.593 3.362a.513.513 0 0 1-.765-.553l1.48-6.341L.178 7.749a.511.511 0 0 1 .293-.896l6.507-.557L9.52.301a.514.514 0 0 1 .946 0z"/>
</svg>
