<svg xmlns="http://www.w3.org/2000/svg" width="24" height="41">
    <path fill-rule="evenodd" d="M19.836 16.248h-2.843a5.515 5.515 0 0 0-2.245-3.865h5.088c.308 0 .56-.248.56-.551a.558.558 0 0 0-.56-.553H7.993a.558.558 0 0 0-.559.553c0 .303.252.551.559.551h3.392c2.306 0 4.209 1.712 4.483 3.865H7.993a.558.558 0 0 0-.559.553c0 .303.252.552.559.552h7.875c-.28 2.236-2.205 3.915-4.483 3.92H7.999a.565.565 0 0 0-.559.569.57.57 0 0 0 .173.398l8.468 7.901a.558.558 0 1 0 .767-.812l-7.449-6.952h1.98c2.922 0 5.334-2.208 5.614-5.024h2.843c.308 0 .56-.249.56-.552a.558.558 0 0 0-.56-.553z"/>
    <path fill="#F78631" fill-rule="evenodd" d="M5.447 9.749a.36.36 0 0 1 0 .516.37.37 0 0 1-.524 0L.484 5.878a.347.347 0 0 1-.08-.119.356.356 0 0 1 0-.279.347.347 0 0 1 .08-.119L4.923.974a.374.374 0 0 1 .524 0 .362.362 0 0 1 0 .517L1.638 5.254h11.318c.204 0 .369.164.369.366a.367.367 0 0 1-.369.365H1.638l3.809 3.764zM18.87 40.08a.362.362 0 0 0 0 .517.373.373 0 0 0 .525 0l4.452-4.387a.365.365 0 0 0 0-.518l-4.452-4.387a.375.375 0 0 0-.525 0 .362.362 0 0 0 0 .517l3.82 3.764H11.34a.368.368 0 0 0-.371.365c0 .203.166.366.371.366h11.35l-3.82 3.763z"/>
</svg>
