<svg xmlns="http://www.w3.org/2000/svg" width="19.405" height="18.596" viewBox="0 0 19.405 18.596"><defs><style>.a{fill:#ffc107;}</style></defs><path class="a" d="M19.354,7.519a1.029,1.029,0,0,0-.888-.709l-5.6-.509L10.651,1.118a1.031,1.031,0,0,0-1.9,0L6.539,6.3l-5.6.509a1.033,1.033,0,0,0-.585,1.8l4.233,3.713-1.248,5.5a1.03,1.03,0,0,0,1.534,1.114L9.7,16.054l4.829,2.887a1.031,1.031,0,0,0,1.535-1.114l-1.248-5.5,4.233-3.712A1.032,1.032,0,0,0,19.354,7.519Zm0,0" transform="translate(0 -0.492)"/></svg>