<svg xmlns="http://www.w3.org/2000/svg" width="25.827" height="24.751" viewBox="0 0 25.827 24.751">
  <path id="Path_485" data-name="Path 485" d="M25.76,20.317a1.37,1.37,0,0,0-1.182-.944L17.124,18.7l-2.948-6.9a1.373,1.373,0,0,0-2.525,0L8.7,18.7l-7.456.677a1.374,1.374,0,0,0-.779,2.4L6.1,26.717,4.442,34.036a1.371,1.371,0,0,0,2.041,1.483l6.43-3.843,6.428,3.843a1.372,1.372,0,0,0,2.043-1.483l-1.662-7.319,5.635-4.941A1.373,1.373,0,0,0,25.76,20.317Z" transform="translate(0 -10.964)" fill="#ffc107"/>
</svg>
