<svg xmlns="http://www.w3.org/2000/svg" width="26" height="26">
    <path fill="#17AF07" fill-rule="evenodd" d="M13 .76A12.204 12.204 0 0 0 .76 13c0 6.788 5.452 12.24 12.24 12.24S25.24 19.788 25.24 13 19.788.76 13 .76zm7.066 8.401l-8.902 9.236a.506.506 0 0 1-.389.167c-.167 0-.334-.056-.39-.167l-4.34-4.674-.111-.111a.601.601 0 0 1-.167-.389c0-.112.056-.279.167-.39l.779-.779a.539.539 0 0 1 .779 0l.056.056 3.06 3.282a.267.267 0 0 0 .389 0l7.455-7.733h.056a.537.537 0 0 1 .779 0l.779.779c.222.167.222.501 0 .723z"/>
</svg>
