<svg xmlns="http://www.w3.org/2000/svg" id="Layer_1" data-name="Layer 1" viewBox="0 0 50 50">
    <defs>
        <style>
            .cls-1{fill:none;stroke:#000;stroke-miterlimit:10}.cls-2{fill:#f78631}
        </style>
    </defs>
    <path d="M24.89 24.72a9 9 0 0 0 9-9v-4.65a9 9 0 0 0-18 0v4.66a9 9 0 0 0 9 8.99zM44.71 36.43a22.84 22.84 0 0 0-12.95-10.24.39.39 0 0 0-.36.09 38.3 38.3 0 0 1-6.5 4.95 45.86 45.86 0 0 1-6.52-4.95.39.39 0 0 0-.36-.09A22.78 22.78 0 0 0 5.07 36.43a.35.35 0 0 0 0 .37 23.05 23.05 0 0 0 39.64 0 .35.35 0 0 0 0-.37z" class="cls-1"/>
    <path d="M30.67 39.46h-2.54a.35.35 0 0 1-.36-.35V37a.36.36 0 0 1 .36-.36h2.54a.33.33 0 0 0 .33-.36v-2.57a.39.39 0 0 1 .39-.36h2.16a.33.33 0 0 1 .33.36v2.53a.38.38 0 0 0 .39.35h2.46a.39.39 0 0 1 .38.36v2.16a.37.37 0 0 1-.38.35h-2.44a.42.42 0 0 0-.41.37v2.52a.31.31 0 0 1-.31.35h-2.18a.38.38 0 0 1-.39-.35v-2.52a.35.35 0 0 0-.33-.37z" class="cls-2"/>
</svg>
