<svg id="Layer_1" data-name="Layer 1" xmlns="http://www.w3.org/2000/svg" viewBox="0 0 50 50"><defs><style>.cls-1{fill:#fff;stroke:#000;}.cls-1,.cls-2{stroke-miterlimit:10;}.cls-2{fill:#f78631;stroke:#040507;stroke-linecap:round;}</style></defs><title>User</title><path class="cls-1" d="M25,23.47a6.69,6.69,0,0,0,6.68-6.68V13.34a6.68,6.68,0,1,0-13.35,0v3.45A6.68,6.68,0,0,0,25,23.47Z"/><path class="cls-2" d="M39.72,32.17a16.93,16.93,0,0,0-9.62-7.6.25.25,0,0,0-.26.06A28.11,28.11,0,0,1,25,28.3a34.25,34.25,0,0,1-4.84-3.67.27.27,0,0,0-.27-.06,16.93,16.93,0,0,0-9.62,7.6.26.26,0,0,0,0,.27,17.12,17.12,0,0,0,29.44,0A.26.26,0,0,0,39.72,32.17Z"/></svg>