<svg xmlns="http://www.w3.org/2000/svg" width="29" height="28">
    <path fill="#FFF" fill-rule="evenodd" d="M14.6.466c7.563 0 13.694 6.131 13.694 13.693 0 7.563-6.131 13.694-13.694 13.694-7.563 0-13.694-6.131-13.694-13.694C.906 6.597 7.037.466 14.6.466z"/>
    <path fill-rule="evenodd" d="M16.584 14.668l4.544-4.54c.201-.2.302-.412.302-.636 0-.247-.132-.474-.396-.68a1.436 1.436 0 0 0-.908-.309c-.202 0-.404.044-.606.133a1.627 1.627 0 0 0-.536.379l-4.007 4.046-4.101-4.134a1.564 1.564 0 0 0-1.141-.459c-.358 0-.684.106-.979.318-.295.212-.442.465-.442.759 0 .236.1.448.302.636l4.497 4.523-4.497 4.61c-.233.224-.349.466-.349.725 0 .247.124.465.373.653.248.189.543.283.885.283.466 0 .854-.165 1.165-.495l4.031-4.151 4.147 4.187c.31.306.691.459 1.141.459.342 0 .66-.1.955-.3.295-.2.443-.454.443-.76a.905.905 0 0 0-.279-.654l-4.544-4.593z" opacity=".6"/>
</svg>
