<svg xmlns="http://www.w3.org/2000/svg" width="40" height="37">
    <path fill="#FFF" fill-rule="evenodd" d="M39.308 19.929a2.293 2.293 0 0 1-1.621.667 2.295 2.295 0 0 1-1.621-.667L20.912 4.866c-.491-.487-1.361-.487-1.855.001L3.906 19.929a2.3 2.3 0 0 1-3.242 0 2.269 2.269 0 0 1 0-3.222L15.816 1.646c2.226-2.217 6.105-2.22 8.336-.004l4.512 4.485 4.584 4.556 6.06 6.024a2.269 2.269 0 0 1 0 3.222zM19.19 9.191a1.13 1.13 0 0 1 1.592 0l13.327 13.245c.211.209.33.494.33.792v9.66c0 2.267-1.849 4.105-4.13 4.105H23.71V26.834h-7.45v10.159H9.662c-2.281 0-4.13-1.838-4.13-4.105v-9.66c0-.298.119-.583.33-.792L19.19 9.191z"/>
</svg>
