<svg xmlns="http://www.w3.org/2000/svg" width="38" height="38">
    <path fill="#FFF" fill-rule="evenodd" d="M19 0c10.493 0 19 8.507 19 19s-8.507 19-19 19S0 29.493 0 19 8.507 0 19 0z"/>
    <path fill="#FF6E01" fill-rule="evenodd" d="M27.232 29.752H10.768c-1.39 0-2.52-1.13-2.52-2.52V12.448c0-1.39 1.13-2.52 2.52-2.52h1.008v-1.68h1.68v1.68h11.088v-1.68h1.68v1.68h1.008c1.39 0 2.52 1.13 2.52 2.52v14.784c0 1.39-1.13 2.52-2.52 2.52zm.84-17.304a.841.841 0 0 0-.84-.84h-1.008v1.68h-1.68v-1.68H13.456v1.68h-1.68v-1.68h-1.008a.841.841 0 0 0-.84.84v2.016h18.144v-2.016zm0 3.696H9.928v11.088c0 .463.377.84.84.84h16.464c.463 0 .84-.377.84-.84V16.144zm-3.192 5.124h1.68v1.68h-1.68v-1.68zm0-3.36h1.68v1.68h-1.68v-1.68zm-3.36 6.72h1.68v1.68h-1.68v-1.68zm0-3.36h1.68v1.68h-1.68v-1.68zm0-3.36h1.68v1.68h-1.68v-1.68zm-3.36 6.72h1.68v1.68h-1.68v-1.68zm0-3.36h1.68v1.68h-1.68v-1.68zm0-3.36h1.68v1.68h-1.68v-1.68zm-3.36 6.72h1.68v1.68H14.8v-1.68zm0-3.36h1.68v1.68H14.8v-1.68zm0-3.36h1.68v1.68H14.8v-1.68zm-3.36 6.72h1.68v1.68h-1.68v-1.68zm0-3.36h1.68v1.68h-1.68v-1.68zm0-3.36h1.68v1.68h-1.68v-1.68z"/>
</svg>
