<svg xmlns="http://www.w3.org/2000/svg" width="38" height="38">
    <path fill="#FFF" fill-rule="evenodd" d="M19 0c10.493 0 19 8.507 19 19s-8.507 19-19 19S0 29.493 0 19 8.507 0 19 0z"/>
    <path fill="#FF6E01" fill-rule="evenodd" d="M26.603 22.149a10.713 10.713 0 0 0-4.086-2.563 6.212 6.212 0 0 0 2.699-5.122A6.224 6.224 0 0 0 19 8.248a6.224 6.224 0 0 0-6.216 6.216 6.212 6.212 0 0 0 2.699 5.122 10.713 10.713 0 0 0-4.086 2.563 10.681 10.681 0 0 0-3.149 7.603h1.68c0-5.002 4.07-9.072 9.072-9.072 5.002 0 9.072 4.07 9.072 9.072h1.68c0-2.872-1.118-5.572-3.149-7.603zM19 19a4.541 4.541 0 0 1-4.536-4.536A4.541 4.541 0 0 1 19 9.928a4.541 4.541 0 0 1 4.536 4.536A4.541 4.541 0 0 1 19 19z"/>
</svg>
