<?xml version="1.0" encoding="utf-8"?>
<!-- Generator: Adobe Illustrator 23.0.4, SVG Export Plug-In . SVG Version: 6.00 Build 0)  -->
<svg version="1.1" id="Layer_1" xmlns="http://www.w3.org/2000/svg" xmlns:xlink="http://www.w3.org/1999/xlink" x="0px" y="0px"
	 viewBox="0 0 36.4 35.6" style="enable-background:new 0 0 36.4 35.6;" xml:space="preserve">
<style type="text/css">
	.st0{fill-rule:evenodd;clip-rule:evenodd;fill:#128c7e;}
</style>
<path class="st0" d="M19,33.8C19,33.8,19,33.8,19,33.8L19,33.8c-2.7,0-5.4-0.7-7.8-2l-8.7,2.3l2.3-8.5c-1.4-2.5-2.2-5.3-2.2-8.2
	C2.6,8.4,9.9,1,19,1c4.4,0,8.5,1.7,11.6,4.8c3.1,3.1,4.8,7.2,4.8,11.6C35.4,26.5,28,33.8,19,33.8z M28.6,7.8c-2.5-2.6-6-4-9.6-4
	c-7.5,0-13.6,6.1-13.6,13.6c0,2.6,0.7,5.1,2.1,7.3l0.3,0.5l-1.4,5l5.2-1.4l0.5,0.3c2.1,1.2,4.5,1.9,6.9,1.9h0
	c7.5,0,13.6-6.1,13.6-13.6C32.6,13.8,31.2,10.3,28.6,7.8z M24.2,25.2c-0.7,0.1-1.6,0.2-2.6-0.2c-0.8-0.2-1.6-0.5-2.3-0.9
	c-4.1-1.8-6.8-5.9-7-6.2c-0.2-0.3-1.7-2.2-1.7-4.2c0-2,1.1-3,1.4-3.4c0.4-0.4,0.8-0.5,1.1-0.5s0.5,0,0.8,0c0.3,0,0.6-0.1,0.9,0.7
	c0.3,0.8,1.2,2.8,1.3,3c0.1,0.2,0.2,0.4,0,0.7C16,14.6,16,14.8,15.8,15c-0.2,0.2-0.4,0.5-0.6,0.7c-0.2,0.2-0.4,0.4-0.2,0.8
	c0.2,0.4,1.1,1.8,2.3,2.8c1.6,1.4,2.9,1.8,3.3,2c0.4,0.2,0.6,0.2,0.9-0.1c0.2-0.3,1-1.2,1.3-1.6c0.3-0.4,0.5-0.3,0.9-0.2
	c0.4,0.1,2.4,1.1,2.8,1.3s0.7,0.3,0.8,0.5c0.1,0.2,0.1,1-0.2,1.9C26.7,24.2,25,25.1,24.2,25.2L24.2,25.2z"/>
</svg>
