<svg xmlns="http://www.w3.org/2000/svg" width="38" height="38">
    <path fill="#FEFEFE" fill-rule="evenodd" d="M19.219 37.631s.001 0 0 0h-.008a18.697 18.697 0 0 1-8.94-2.277L.353 37.955l2.655-9.694A18.672 18.672 0 0 1 .51 18.908C.514 8.593 8.907.201 19.219.201a18.586 18.586 0 0 1 13.234 5.486 18.598 18.598 0 0 1 5.474 13.236c-.004 10.315-8.397 18.708-18.708 18.708zm11-29.71a15.443 15.443 0 0 0-10.994-4.56c-8.577 0-15.553 6.975-15.556 15.548-.001 2.938.821 5.8 2.377 8.275l.37.589-1.571 5.738 5.886-1.544.567.337a15.524 15.524 0 0 0 7.915 2.167h.006c8.571 0 15.546-6.975 15.55-15.549a15.462 15.462 0 0 0-4.55-11.001zm-5.003 19.896c-.805.121-1.824.171-2.944-.185a26.646 26.646 0 0 1-2.665-.985c-4.689-2.025-7.752-6.746-7.985-7.058-.234-.312-1.909-2.535-1.909-4.836s1.207-3.432 1.636-3.9c.428-.468.935-.585 1.246-.585.312 0 .624.003.896.017.287.014.673-.109 1.052.802.39.936 1.325 3.237 1.441 3.471.117.234.195.507.039.819-.155.312-.233.507-.467.78s-.491.61-.701.819c-.234.233-.478.486-.205.954.272.468 1.211 1.999 2.6 3.238 1.786 1.593 3.292 2.087 3.759 2.321.468.234.741.194 1.013-.117.273-.312 1.169-1.365 1.48-1.833.312-.468.624-.39 1.052-.234.429.156 2.727 1.287 3.194 1.52.468.235.779.352.896.547.117.194.117 1.13-.272 2.223-.39 1.091-2.258 2.088-3.156 2.222z"/>
</svg>
