<svg xmlns="http://www.w3.org/2000/svg" width="28" height="28">
    <path fill-rule="evenodd" d="M14 0C6.28 0 0 6.28 0 14s6.28 14 14 14 14-6.28 14-14S21.72 0 14 0zm0 27.067C6.795 27.067.934 21.205.934 14S6.795.933 14 .933C21.205.933 27.067 6.795 27.067 14S21.205 27.067 14 27.067z"/>
    <path fill="#F78631" fill-rule="evenodd" d="M13.472 13.419H8.268a.387.387 0 0 0-.396.377c0 .208.177 1.082.396 1.082h5.469m0 0c.218 0 1.14-.874 1.14-1.082V4.76c0-.208-.922-.376-1.14-.376-.219 0-.265.168-.265.376v8.659"/>
</svg>
