<svg xmlns="http://www.w3.org/2000/svg" width="21" height="21">
    <path fill-rule="evenodd" d="M12.836 5.249H9.993a5.512 5.512 0 0 0-2.245-3.866h5.088c.308 0 .56-.248.56-.551a.558.558 0 0 0-.56-.553H.993a.558.558 0 0 0-.559.553c0 .303.252.551.559.551h3.392c2.306 0 4.208 1.712 4.483 3.866H.993a.557.557 0 0 0-.559.552c0 .304.252.552.559.552h7.875c-.28 2.236-2.206 3.915-4.483 3.92H.999a.566.566 0 0 0-.56.569.57.57 0 0 0 .174.398l8.468 7.901a.563.563 0 0 0 .789-.022.56.56 0 0 0-.022-.79l-7.449-6.951H4.38c2.921 0 5.332-2.209 5.613-5.025h2.843c.308 0 .56-.248.56-.552a.557.557 0 0 0-.56-.552z"/>
    <path fill="#F78631" fill-rule="evenodd" d="M20.328 13.098c.15.146.393.146.544 0a.36.36 0 0 0 0-.523l-4.618-4.454a.4.4 0 0 0-.545 0l-4.618 4.454a.359.359 0 0 0 0 .523c.15.146.393.146.544 0l3.962-3.819v11.35c0 .205.172.371.385.371a.378.378 0 0 0 .384-.371V9.279l3.962 3.819z"/>
</svg>
