<svg xmlns="http://www.w3.org/2000/svg" width="32" height="27">
    <path fill="#FFF" fill-rule="evenodd" d="M30.327 13.713L18.909 16.2v2.274c0 .426-.291.71-.727.71h-4.364c-.436 0-.727-.284-.727-.71V16.2L1.673 13.713C.727 13.5 0 12.647 0 11.653V7.105c0-1.207.946-2.131 2.182-2.131h27.636c1.236 0 2.182.924 2.182 2.131v4.547c0 .995-.727 1.848-1.673 2.061zm-15.782 4.05h2.909v-2.842h-2.909v2.842zm16-10.658c0-.426-.291-.71-.727-.71H2.182c-.436 0-.728.284-.728.71v4.548c0 .355.219.639.582.71l11.055 2.416v-.568c0-.427.291-.711.727-.711h4.364c.436 0 .727.284.727.711v.568l11.055-2.416a.696.696 0 0 0 .581-.711V7.105zM1.454 14.921c.437 0 .728.284.728.71v9.238c0 .426.29.71.727.71h26.182c.436 0 .727-.284.727-.71v-9.238c0-.426.291-.71.727-.71.437 0 .728.284.728.71v9.238c0 1.207-.946 2.131-2.182 2.131H2.909c-1.236 0-2.182-.924-2.182-2.131v-9.238c0-.426.291-.71.727-.71zM19.637 0h-7.273c-1.237 0-2.183.924-2.183 2.132v.71c0 .426.292.711.728.711s.727-.285.727-.711v-.71c0-.427.291-.711.728-.711h7.273c.435 0 .726.284.726.711v.71c0 .426.292.711.727.711.437 0 .728-.285.728-.711v-.71C21.818.924 20.873 0 19.637 0z"/>
</svg>
