<svg xmlns="http://www.w3.org/2000/svg" width="20" height="29">
    <path fill="#FFF" fill-rule="evenodd" d="M16.941 3.264A9.712 9.712 0 0 0 10 .364a9.706 9.706 0 0 0-6.941 2.9c-3.432 3.46-3.858 9.971-.924 13.916L10 28.636l7.853-11.44c2.946-3.961 2.519-10.472-.912-13.932zm.081 13.328L10 26.822 2.966 16.576C.305 12.997.686 7.117 3.783 3.994A8.695 8.695 0 0 1 10 1.396c2.348 0 4.556.923 6.217 2.598 3.097 3.123 3.479 9.003.805 12.598z"/>
    <path fill="#FFF" fill-rule="evenodd" d="M10.09 6.56c-1.974 0-3.583 1.622-3.583 3.614 0 1.992 1.609 3.614 3.583 3.614 1.976 0 3.584-1.622 3.584-3.614 0-1.992-1.608-3.614-3.584-3.614zm0 6.196c-1.41 0-2.559-1.159-2.559-2.582 0-1.424 1.149-2.581 2.559-2.581 1.412 0 2.56 1.157 2.56 2.581 0 1.423-1.148 2.582-2.56 2.582z"/>
</svg>
