<svg xmlns="http://www.w3.org/2000/svg" width="22" height="23">
    <path fill="#FFF" fill-rule="evenodd" d="M12.836 5.248H9.993a5.513 5.513 0 0 0-2.245-3.865h5.088c.308 0 .56-.248.56-.552a.558.558 0 0 0-.56-.552H.993a.558.558 0 0 0-.559.552c0 .304.252.552.559.552h3.392c2.306 0 4.208 1.712 4.483 3.865H.993a.558.558 0 0 0-.559.552c0 .304.252.553.559.553h7.875c-.28 2.236-2.206 3.915-4.483 3.92H.999a.566.566 0 0 0-.56.569c0 .149.067.292.174.397l8.468 7.902a.557.557 0 1 0 .766-.812l-7.448-6.952H4.38c2.921 0 5.333-2.208 5.613-5.024h2.843c.308 0 .56-.249.56-.553a.558.558 0 0 0-.56-.552zM12.605 17.902a.329.329 0 0 0-.49 0 .38.38 0 0 0-.102.262c0 .095.034.19.102.261l4.156 4.454a.396.396 0 0 0 .113.081.336.336 0 0 0 .378-.081l4.156-4.454a.388.388 0 0 0 0-.523.329.329 0 0 0-.49 0l-3.566 3.819v-11.35c0-.205-.154-.371-.345-.371-.192 0-.347.166-.347.371v11.35l-3.565-3.819z"/>
</svg>
