<svg xmlns="http://www.w3.org/2000/svg" width="30" height="29">
    <path fill="#FFF" fill-rule="evenodd" d="M6.445 28.085a.509.509 0 0 1-.506-.598l1.59-9.219-6.733-6.527a.51.51 0 0 1 .285-.873l9.304-1.345 4.162-8.387a.514.514 0 0 1 .461-.285c.196 0 .375.111.46.285l4.161 8.387 9.305 1.345a.51.51 0 1 1 .286.873l-6.734 6.528 1.59 9.218a.514.514 0 0 1-.747.539l-8.321-4.351-8.323 4.351a.522.522 0 0 1-.24.059zM2.26 11.732l6.18 5.992a.512.512 0 0 1 .148.453l-1.459 8.461 7.639-3.995a.514.514 0 0 1 .479 0l7.639 3.995-1.459-8.461a.513.513 0 0 1 .148-.453l6.18-5.992-8.54-1.235a.513.513 0 0 1-.387-.28l-3.82-7.698-3.82 7.699a.517.517 0 0 1-.388.28l-8.54 1.234z"/>
</svg>
